# 
# Wavefront OBJ file
# 3D Pottery Benchmark Ver. 1.0, Multimedia Department,ILSP-Research Centre Athena, Contact Email: Anestis Koutsoudis (akoutsou@ceti.gr)
# 
# object object
g object
v 0.073087 0.073087 -0.220347
v 0.039554 0.095492 -0.220347
v 0 0 -0.220347
v 0 0.10336 -0.220347
v -0.039554 0.095492 -0.220347
v -0.073087 0.073087 -0.220347
v -0.095492 0.039554 -0.220347
v -0.10336 0 -0.220347
v -0.095492 -0.039554 -0.220347
v -0.073087 -0.073087 -0.220347
v -0.039554 -0.095492 -0.220347
v 0 -0.10336 -0.220347
v 0.039554 -0.095492 -0.220347
v 0.073087 -0.073087 -0.220347
v 0.095492 -0.039554 -0.220347
v 0.10336 0 -0.220347
v 0.095492 0.039554 -0.220347
v 0.128907 0.053395 -0.292968
v 0 0 -0.292968
v 0.098661 0.098661 -0.292968
v 0.139528 0 -0.292968
v 0.128907 -0.053395 -0.292968
v 0.098661 -0.098661 -0.292968
v 0.053395 -0.128907 -0.292968
v 0 -0.139528 -0.292968
v -0.053395 -0.128907 -0.292968
v -0.098661 -0.098661 -0.292968
v -0.128907 -0.053395 -0.292968
v -0.139528 0 -0.292968
v -0.128907 0.053395 -0.292968
v -0.098661 0.098661 -0.292968
v -0.053395 0.128907 -0.292968
v 0 0.139528 -0.292968
v 0.053395 0.128907 -0.292968
v 0.146608 0.146608 0.286915
v 0.079344 0.191552 0.286915
v 0.075593 0.182497 0.292355
v 0.139677 0.139677 0.292355
v -0.146608 0.146608 0.286915
v -0.139677 0.139677 0.292355
v -0.075593 0.182497 0.292355
v -0.079343 0.191552 0.286915
v -0.191552 0.079344 0.286915
v -0.182497 0.075593 0.292355
v -0.146608 -0.146608 0.286915
v -0.139677 -0.139677 0.292355
v -0.182497 -0.075593 0.292355
v -0.191552 -0.079344 0.286915
v -0.079343 -0.191552 0.286915
v -0.075593 -0.182497 0.292355
v 0.079343 -0.191552 0.286915
v 0.146608 -0.146608 0.286915
v 0.139677 -0.139677 0.292355
v 0.075593 -0.182497 0.292355
v 0.191552 -0.079343 0.286915
v 0.182497 -0.075593 0.292355
v 0.182497 0.075593 0.292355
v 0.191552 0.079343 0.286915
v 0.091355 0.091355 -0.190256
v 0.119361 0.049441 -0.190256
v 0.127235 0.052703 -0.165747
v 0.097382 0.097382 -0.165747
v 0.119361 -0.049441 -0.190256
v 0.091355 -0.091355 -0.190256
v 0.097382 -0.097382 -0.165747
v 0.127235 -0.052703 -0.165747
v 0.049441 -0.119361 -0.190256
v 0.052703 -0.127235 -0.165747
v -0.049441 -0.119361 -0.190256
v -0.052702 -0.127235 -0.165747
v 0 -0.137718 -0.165747
v 0 -0.129195 -0.190256
v -0.091355 -0.091355 -0.190256
v -0.097382 -0.097382 -0.165747
v -0.119361 -0.049441 -0.190256
v -0.127235 -0.052703 -0.165747
v -0.119361 0.049441 -0.190256
v -0.091355 0.091355 -0.190256
v -0.097381 0.097382 -0.165747
v -0.127235 0.052703 -0.165747
v -0.049441 0.119361 -0.190256
v -0.052702 0.127235 -0.165747
v 0 0.129195 -0.190256
v 0 0.137718 -0.165747
v 0.052703 0.127235 -0.165747
v 0.049441 0.119361 -0.190256
v -0.129195 0 -0.190256
v 0.129195 0 -0.190256
v -0.101939 0.10194 -0.28488
v -0.13319 0.055169 -0.28488
v -0.055169 0.13319 -0.28488
v 0.133037 0.133037 0.286915
v 0.173821 0.071999 0.286915
v 0.173821 -0.071999 0.286915
v 0.133037 -0.133037 0.286915
v 0.071999 -0.173821 0.286915
v -0.071999 -0.173821 0.286915
v -0.133037 -0.133037 0.286915
v -0.173821 -0.071999 0.286915
v -0.173821 0.071999 0.286915
v -0.133037 0.133037 0.286915
v -0.071999 0.173821 0.286915
v 0.071999 0.173821 0.286915
v 0 0.207334 0.286915
v 0.078739 0.190093 0.272624
v 0 0.205756 0.272625
v -0.078739 0.190094 0.272625
v -0.145491 0.145491 0.272625
v -0.207334 0 0.286915
v -0.190093 0.078739 0.272625
v -0.205756 0 0.272625
v -0.190093 -0.078739 0.272625
v -0.145491 -0.145491 0.272624
v -0.078739 -0.190093 0.272625
v 0 -0.205756 0.272625
v 0 -0.207334 0.286915
v 0.078739 -0.190093 0.272625
v 0.145491 -0.145491 0.272625
v 0.190093 -0.078739 0.272625
v 0.207334 0 0.286915
v 0.205756 0 0.272625
v 0.190093 0.078739 0.272624
v 0.145491 0.145491 0.272624
v 0.124274 0.124274 0.001018
v 0.103056 0.103056 -0.270588
v 0.055774 0.134649 -0.270588
v 0.067256 0.162371 0.001018
v 0.162371 0.067256 0.001018
v 0.162373 -0.067257 0.001035
v 0.175751 0 0.001035
v 0 -0.175751 0.001035
v 0.067257 -0.162373 0.001035
v -0.067257 -0.162373 0.001035
v -0.175751 0 0.001035
v -0.162373 -0.067257 0.001035
v -0.162373 0.067257 0.001035
v 0.055169 0.13319 -0.28488
v 0 0.144164 -0.28488
v 0 0.145743 -0.270587
v -0.055773 0.134649 -0.270587
v -0.103056 0.103056 -0.270587
v -0.134649 0.055774 -0.270587
v -0.144164 0 -0.28488
v -0.145743 0 -0.270587
v -0.13319 -0.055169 -0.28488
v -0.134649 -0.055774 -0.270587
v -0.101939 -0.101939 -0.28488
v -0.103056 -0.103056 -0.270588
v -0.055169 -0.13319 -0.28488
v -0.055773 -0.134649 -0.270587
v 0 -0.145743 -0.270587
v 0 -0.144164 -0.28488
v 0.055169 -0.13319 -0.28488
v 0.055774 -0.134649 -0.270587
v 0.134649 -0.055774 -0.270587
v 0.13319 -0.055169 -0.28488
v 0.144164 0 -0.28488
v 0.145743 0 -0.270587
v 0.13319 0.055169 -0.28488
v 0.134649 0.055773 -0.270588
v 0.101939 0.101939 -0.28488
v -0.114271 -0.114271 0.048671
v -0.061843 -0.149302 0.048671
v 0.172298 0.071368 0.27212
v 0.131871 0.131871 0.27212
v 0.186494 0 0.27212
v 0.188142 0 0.286915
v 0.172298 -0.071368 0.27212
v 0.131871 -0.131871 0.27212
v 0.071368 -0.172298 0.27212
v 0 -0.186494 0.27212
v 0 -0.188142 0.286915
v -0.071368 -0.172298 0.27212
v -0.131871 -0.131871 0.27212
v -0.172298 -0.071368 0.27212
v -0.186494 0 0.27212
v -0.188142 0 0.286915
v -0.172298 0.071368 0.27212
v -0.131871 0.131871 0.27212
v -0.071368 0.172298 0.27212
v 0 0.186494 0.27212
v 0 0.188142 0.286915
v 0.071368 0.172298 0.27212
v 0 0.197533 0.292355
v -0.197533 0 0.292355
v 0 -0.197533 0.292355
v 0.197533 0 0.292355
v 0.137718 0 -0.165747
v -0.137718 0 -0.165747
v 0.101939 -0.101939 -0.28488
v 0.061843 0.149302 0.048671
v 0.114271 0.114271 0.048671
v 0 0.161603 0.048671
v -0.061843 0.149302 0.048671
v -0.114271 0.114271 0.048671
v -0.149302 0.061843 0.048671
v -0.161603 0 0.048671
v -0.149302 -0.061843 0.048671
v 0 -0.161603 0.048671
v 0.061843 -0.149302 0.048671
v 0.114271 -0.114271 0.048671
v 0.149302 -0.061843 0.048671
v 0.161603 0 0.048671
v 0.149302 0.061843 0.048671
v 0.124275 -0.124275 0.001035
v 0.103056 -0.103056 -0.270587
v -0.124274 -0.124274 0.001018
v -0.124275 0.124275 0.001035
v -0.067257 0.162373 0.001035
v 0 0.175751 0.001035
# 210 verts.
vn -0.293544 -0.293544 0.90976
vn -0.209841 -0.506609 0.83625
vn 0 0 1
vn 0 -0.415133 0.909761
vn 0.209841 -0.506609 0.83625
vn 0.374334 -0.327781 0.867429
vn 0.471276 -0.159574 0.86743
vn 0.415133 0 0.909761
vn 0.506609 0.209841 0.83625
vn 0.327781 0.374334 0.867429
vn 0.159574 0.471276 0.86743
vn 0 0.415133 0.909761
vn -0.159574 0.471276 0.86743
vn -0.387739 0.387739 0.836252
vn -0.471276 0.159574 0.86743
vn -0.415133 0 0.909761
vn -0.506609 -0.209841 0.83625
vn 0.533647 0.263671 -0.803554
vn 0 0 -1
vn 0.351911 0.351911 -0.867363
vn 0.65358 0 -0.756858
vn 0.533647 -0.263671 -0.803554
vn 0.351911 -0.351911 -0.867363
vn 0.263671 -0.533647 -0.803554
vn 0 -0.65358 -0.756858
vn -0.263671 -0.533647 -0.803554
vn -0.351911 -0.351911 -0.867363
vn -0.533647 -0.263671 -0.803554
vn -0.65358 0 -0.756858
vn -0.533641 0.263664 -0.80356
vn -0.39211 0.447803 -0.803569
vn -0.190453 0.45979 -0.867364
vn 0 0.65358 -0.756858
vn 0.263671 0.533647 -0.803554
vn 0.616162 0.56884 0.544762
vn 0.402399 0.849242 0.341853
vn 0.0123513 0.0724605 0.997295
vn -0.00644412 -0.00644412 0.999958
vn -0.584038 0.666988 0.46263
vn 0.00686337 -0.00601151 0.999958
vn 0.00403662 -0.00816583 0.999959
vn -0.291385 0.76384 0.575884
vn -0.794835 0.392713 0.462617
vn -0.104186 0.0192871 0.994371
vn -0.594187 -0.561524 0.575876
vn 0.00600972 0.00685949 0.999958
vn -0.0724605 -0.0123513 0.997295
vn -0.849243 -0.402399 0.34185
vn -0.339106 -0.818683 0.463427
vn 0.00347282 0.00838623 0.999959
vn 0.339107 -0.818684 0.463426
vn 0.626594 -0.626595 0.463421
vn -0.00642984 0.00642984 0.999959
vn -0.00347282 0.00838623 0.999959
vn 0.761342 -0.351567 0.544756
vn -0.00838623 0.00347282 0.999959
vn -0.00816583 -0.00403662 0.999959
vn 0.839717 0.284334 0.462633
vn -0.612711 -0.612711 0.49917
vn -0.831445 -0.303155 0.465613
vn -0.874452 -0.43205 0.220605
vn -0.689611 -0.689611 0.221072
vn -0.804129 0.356895 0.475397
vn -0.612711 0.612711 0.49917
vn -0.683281 0.683281 0.257397
vn -0.889473 0.411414 0.19894
vn -0.356895 0.804129 0.475397
vn -0.411414 0.889473 0.19894
vn 0.356895 0.804132 0.475393
vn 0.338025 0.919871 0.198936
vn -0.0283724 0.971197 0.236585
vn -2.5564e-09 0.833331 0.552775
vn 0.652263 0.571141 0.498348
vn 0.642543 0.733806 0.220606
vn 0.831445 0.303155 0.465613
vn 0.874452 0.43205 0.220605
vn 0.80413 -0.356898 0.475393
vn 0.571145 -0.652268 0.498337
vn 0.688486 -0.690738 0.221062
vn 0.88947 -0.411419 0.198941
vn 0.303157 -0.831447 0.465608
vn 0.371746 -0.901631 0.221058
vn 2.5564e-09 -0.833331 0.552775
vn -0.0283724 -0.971197 0.236585
vn -0.43205 -0.874452 0.220605
vn -0.303155 -0.831445 0.465613
vn 0.833331 2.5564e-09 0.552775
vn -0.833331 -2.5564e-09 0.552775
vn -0.66922 0.675076 -0.310511
vn -0.876622 0.367587 -0.310506
vn -0.354676 0.856269 -0.37551
vn -0.583113 -0.538887 0.607931
vn -0.79179 -0.268104 0.548807
vn -0.721015 0.332502 0.607931
vn -0.595252 0.657173 0.462383
vn -0.274719 0.744955 0.607924
vn 0.332502 0.721015 0.607931
vn 0.628913 0.550702 0.548812
vn 0.79179 0.268104 0.548807
vn 0.721015 -0.332502 0.607931
vn 0.550702 -0.628913 0.548812
vn 0.268104 -0.79179 0.548807
vn -0.336169 -0.76483 0.549569
vn 0.0166315 0.925923 0.377347
vn 0.354132 0.928731 -0.10977
vn 5.38472e-06 0.993955 -0.109785
vn -0.354133 0.928732 -0.109757
vn -0.702831 0.702826 -0.10984
vn -0.886132 1.13196e-09 0.463434
vn -0.92873 0.354134 -0.109772
vn -0.993179 -0.0395104 -0.109704
vn -0.932694 -0.343569 -0.109733
vn -0.702828 -0.70283 -0.109832
vn -0.34357 -0.932694 -0.109733
vn 0.0282325 -0.993557 -0.10976
vn 0 -0.886122 0.463453
vn 0.416577 -0.902453 -0.109732
vn 0.702829 -0.702828 -0.109837
vn 0.928731 -0.354134 -0.109765
vn 0.938574 -0.0467832 0.341893
vn 0.993178 0.0395097 -0.109709
vn 0.907122 0.406299 -0.109778
vn 0.67434 0.730218 -0.109755
vn 0.682587 0.722514 -0.109765
vn 0.730223 0.674337 -0.109744
vn 0.406299 0.907121 -0.109782
vn 0.343563 0.932698 -0.109722
vn 0.918295 0.380364 -0.109809
vn 0.932697 -0.343566 -0.109722
vn 0.993953 1.34175e-06 -0.109809
vn -0.0657624 -0.991801 -0.109572
vn 0.31879 -0.941471 -0.109571
vn -0.41657 -0.902458 -0.109722
vn -0.993176 0.0395131 -0.109724
vn -0.928732 -0.354131 -0.109764
vn -0.932697 0.343566 -0.109722
vn 0.325712 0.878481 -0.349545
vn -9.78828e-07 0.969797 -0.243913
vn 0.0395091 0.993177 -0.109722
vn -0.354131 0.928732 -0.109763
vn -0.702828 0.702832 -0.109814
vn -0.918292 0.380369 -0.109818
vn -0.96189 0.0402494 -0.27046
vn -0.993556 -0.0282334 -0.109767
vn -0.900545 -0.304936 -0.309892
vn -0.891138 -0.440298 -0.109589
vn -0.685388 -0.644729 -0.338479
vn -0.674339 -0.730221 -0.109744
vn -0.367588 -0.876622 -0.310505
vn -0.35413 -0.928732 -0.109766
vn 0.0657593 -0.991801 -0.109573
vn -0.0402502 -0.96189 -0.270457
vn 0.304936 -0.900545 -0.309892
vn 0.4403 -0.891138 -0.109588
vn 0.907121 -0.406301 -0.109779
vn 0.878482 -0.325713 -0.349542
vn 0.96189 -0.0402494 -0.27046
vn 0.993556 0.0282345 -0.109766
vn 0.900547 0.304937 -0.309886
vn 0.902455 0.416573 -0.109737
vn 0.672155 0.672153 -0.310513
vn 0.730148 0.674275 0.110621
vn 0.440252 0.891053 0.110469
vn -0.918199 -0.380329 0.110729
vn -0.682516 -0.72244 0.110685
vn -0.993077 -0.0395056 0.110627
vn -0.885606 0.043786 0.462368
vn -0.941376 0.318758 0.110479
vn -0.72244 0.682516 0.110685
vn -0.380329 0.918199 0.110729
vn -0.0395056 0.993077 0.110627
vn 0.043786 0.885606 0.462368
vn 0.318758 0.941376 0.110479
vn 0.682516 0.72244 0.110685
vn 0.918199 0.380329 0.110729
vn 0.993077 0.0395056 0.110627
vn 0.885606 -0.043786 0.462368
vn 0.941376 -0.318758 0.110479
vn 0.72244 -0.682516 0.110685
vn 0.380329 -0.918199 0.110729
vn 0.0395056 -0.993077 0.110627
vn -0.043786 -0.885606 0.462368
vn -0.318758 -0.941376 0.110479
vn -0.0158025 -0.0897889 0.995835
vn 0.194672 -1.40953e-09 0.980868
vn 1.0758e-09 0.00908045 0.999959
vn -0.00908045 1.0758e-09 0.999959
vn -0.97526 0 0.221063
vn 0.97526 0 0.221063
vn 0.672154 -0.672154 -0.310514
vn -0.380328 -0.918202 0.110709
vn -0.70276 -0.70276 0.110708
vn 0.0282299 -0.993457 0.110665
vn 0.440253 -0.891052 0.11047
vn 0.730146 -0.674277 0.110622
vn 0.918202 -0.380328 0.110709
vn 0.993853 -2.53159e-09 0.110709
vn 0.918202 0.380328 0.110709
vn 0.0282299 0.993457 0.110665
vn -0.380328 0.918202 0.110709
vn -0.70276 0.70276 0.110708
vn -0.918202 0.380328 0.110709
vn -0.993853 2.53159e-09 0.110709
vn -0.918202 -0.380328 0.110709
vn 0.702831 -0.702831 -0.109808
vn 0.702829 -0.702829 -0.109831
vn -0.70283 -0.702832 -0.109809
vn -0.747809 0.65481 -0.109571
vn -0.440299 0.89114 -0.109572
vn -0.0282302 0.993556 -0.109766
# 210 normals
usemtl (null)
f 1//1 2//2 3//3
f 4//4 3//3 2//2
f 5//5 3//3 4//4
f 6//6 3//3 5//5
f 7//7 3//3 6//6
f 8//8 3//3 7//7
f 8//8 9//9 3//3
f 10//10 3//3 9//9
f 11//11 3//3 10//10
f 11//11 12//12 3//3
f 13//13 3//3 12//12
f 13//13 14//14 3//3
f 15//15 3//3 14//14
f 16//16 3//3 15//15
f 17//17 3//3 16//16
f 1//1 3//3 17//17
f 18//18 19//19 20//20
f 21//21 19//19 18//18
f 22//22 19//19 21//21
f 23//23 19//19 22//22
f 23//23 24//24 19//19
f 25//25 19//19 24//24
f 25//25 26//26 19//19
f 27//27 19//19 26//26
f 28//28 19//19 27//27
f 28//28 29//29 19//19
f 30//30 19//19 29//29
f 31//31 19//19 30//30
f 32//32 19//19 31//31
f 33//33 19//19 32//32
f 34//34 19//19 33//33
f 34//34 20//20 19//19
f 35//35 36//36 37//37
f 37//37 38//38 35//35
f 39//39 40//40 41//41
f 41//41 42//42 39//39
f 43//43 44//44 40//40
f 40//40 39//39 43//43
f 45//45 46//46 47//47
f 47//47 48//48 45//45
f 49//49 50//50 46//46
f 46//46 45//45 49//49
f 51//51 52//52 53//53
f 53//53 54//54 51//51
f 55//55 56//56 53//53
f 53//53 52//52 55//55
f 35//35 38//38 57//57
f 57//57 58//58 35//35
f 59//59 60//60 61//61
f 61//61 62//62 59//59
f 63//63 64//64 65//65
f 65//65 66//66 63//63
f 67//67 68//68 65//65
f 65//65 64//64 67//67
f 69//69 70//70 71//71
f 71//71 72//72 69//69
f 69//69 73//73 74//74
f 74//74 70//70 69//69
f 73//73 75//75 76//76
f 76//76 74//74 73//73
f 77//77 78//78 79//79
f 79//79 80//80 77//77
f 78//78 81//81 82//82
f 82//82 79//79 78//78
f 81//81 83//83 84//84
f 84//84 82//82 81//81
f 59//59 62//62 85//85
f 85//85 86//86 59//59
f 59//59 86//86 2//2
f 2//2 1//1 59//59
f 83//83 4//4 2//2
f 2//2 86//86 83//83
f 78//78 6//6 5//5
f 5//5 81//81 78//78
f 77//77 7//7 6//6
f 6//6 78//78 77//77
f 87//87 8//8 7//7
f 7//7 77//77 87//87
f 87//87 75//75 9//9
f 9//9 8//8 87//87
f 73//73 10//10 9//9
f 9//9 75//75 73//73
f 69//69 11//11 10//10
f 10//10 73//73 69//69
f 67//67 64//64 14//14
f 14//14 13//13 67//67
f 63//63 15//15 14//14
f 14//14 64//64 63//63
f 88//88 16//16 15//15
f 15//15 63//63 88//88
f 59//59 1//1 17//17
f 17//17 60//60 59//59
f 89//89 31//31 30//30
f 30//30 90//90 89//89
f 91//91 32//32 31//31
f 31//31 89//89 91//91
f 57//57 38//38 92//92
f 92//92 93//93 57//57
f 53//53 56//56 94//94
f 94//94 95//95 53//53
f 53//53 95//95 96//96
f 96//96 54//54 53//53
f 46//46 50//50 97//97
f 97//97 98//98 46//46
f 47//47 46//46 98//98
f 98//98 99//99 47//47
f 40//40 44//44 100//100
f 100//100 101//101 40//40
f 41//41 40//40 101//101
f 101//101 102//102 41//41
f 37//37 103//103 92//92
f 92//92 38//38 37//37
f 104//104 36//36 105//105
f 105//105 106//106 104//104
f 39//39 42//42 107//107
f 107//107 108//108 39//39
f 109//109 43//43 110//110
f 110//110 111//111 109//109
f 109//109 111//111 112//112
f 112//112 48//48 109//109
f 49//49 45//45 113//113
f 113//113 114//114 49//49
f 49//49 114//114 115//115
f 115//115 116//116 49//49
f 51//51 116//116 115//115
f 115//115 117//117 51//51
f 51//51 117//117 118//118
f 118//118 52//52 51//51
f 55//55 52//52 118//118
f 118//118 119//119 55//55
f 120//120 55//55 119//119
f 119//119 121//121 120//120
f 58//58 120//120 121//121
f 121//121 122//122 58//58
f 35//35 58//58 122//122
f 122//122 123//123 35//35
f 124//124 125//125 126//126
f 126//126 127//127 124//124
f 122//122 128//128 124//124
f 124//124 123//123 122//122
f 119//119 129//129 130//130
f 130//130 121//121 119//119
f 115//115 131//131 132//132
f 132//132 117//117 115//115
f 114//114 133//133 131//131
f 131//131 115//115 114//114
f 111//111 134//134 135//135
f 135//135 112//112 111//111
f 110//110 136//136 134//134
f 134//134 111//111 110//110
f 126//126 137//137 138//138
f 138//138 139//139 126//126
f 140//140 91//91 89//89
f 89//89 141//141 140//140
f 141//141 89//89 90//90
f 90//90 142//142 141//141
f 142//142 90//90 143//143
f 143//143 144//144 142//142
f 144//144 143//143 145//145
f 145//145 146//146 144//144
f 146//146 145//145 147//147
f 147//147 148//148 146//146
f 148//148 147//147 149//149
f 149//149 150//150 148//148
f 151//151 152//152 153//153
f 153//153 154//154 151//151
f 155//155 156//156 157//157
f 157//157 158//158 155//155
f 158//158 157//157 159//159
f 159//159 160//160 158//158
f 160//160 159//159 161//161
f 161//161 125//125 160//160
f 74//74 162//162 163//163
f 163//163 70//70 74//74
f 164//164 93//93 92//92
f 92//92 165//165 164//164
f 166//166 167//167 93//93
f 93//93 164//164 166//166
f 168//168 94//94 167//167
f 167//167 166//166 168//168
f 169//169 95//95 94//94
f 94//94 168//168 169//169
f 170//170 96//96 95//95
f 95//95 169//169 170//170
f 171//171 172//172 96//96
f 96//96 170//170 171//171
f 173//173 97//97 172//172
f 172//172 171//171 173//173
f 174//174 98//98 97//97
f 97//97 173//173 174//174
f 175//175 99//99 98//98
f 98//98 174//174 175//175
f 176//176 177//177 99//99
f 99//99 175//175 176//176
f 178//178 100//100 177//177
f 177//177 176//176 178//178
f 179//179 101//101 100//100
f 100//100 178//178 179//179
f 180//180 102//102 101//101
f 101//101 179//179 180//180
f 181//181 182//182 102//102
f 102//102 180//180 181//181
f 183//183 103//103 182//182
f 182//182 181//181 183//183
f 165//165 92//92 103//103
f 103//103 183//183 165//165
f 37//37 36//36 104//104
f 184//184 37//37 104//104
f 184//184 104//104 42//42
f 42//42 41//41 184//184
f 44//44 43//43 109//109
f 185//185 44//44 109//109
f 109//109 48//48 47//47
f 109//109 47//47 185//185
f 49//49 116//116 186//186
f 186//186 50//50 49//49
f 186//186 116//116 51//51
f 51//51 54//54 186//186
f 55//55 120//120 187//187
f 187//187 56//56 55//55
f 187//187 120//120 58//58
f 58//58 57//57 187//187
f 60//60 88//88 188//188
f 188//188 61//61 60//60
f 188//188 88//88 63//63
f 63//63 66//66 188//188
f 67//67 72//72 71//71
f 71//71 68//68 67//67
f 75//75 87//87 189//189
f 189//189 76//76 75//75
f 189//189 87//87 77//77
f 77//77 80//80 189//189
f 84//84 83//83 86//86
f 86//86 85//85 84//84
f 83//83 81//81 5//5
f 83//83 5//5 4//4
f 11//11 69//69 72//72
f 12//12 11//11 72//72
f 72//72 67//67 13//13
f 72//72 13//13 12//12
f 88//88 60//60 17//17
f 88//88 17//17 16//16
f 161//161 159//159 18//18
f 161//161 18//18 20//20
f 159//159 157//157 21//21
f 159//159 21//21 18//18
f 21//21 157//157 156//156
f 22//22 21//21 156//156
f 22//22 156//156 190//190
f 23//23 22//22 190//190
f 190//190 153//153 24//24
f 190//190 24//24 23//23
f 153//153 152//152 25//25
f 153//153 25//25 24//24
f 25//25 152//152 149//149
f 26//26 25//25 149//149
f 26//26 149//149 147//147
f 27//27 26//26 147//147
f 147//147 145//145 28//28
f 147//147 28//28 27//27
f 145//145 143//143 29//29
f 145//145 29//29 28//28
f 29//29 143//143 90//90
f 30//30 29//29 90//90
f 91//91 138//138 33//33
f 91//91 33//33 32//32
f 33//33 138//138 137//137
f 34//34 33//33 137//137
f 34//34 137//137 161//161
f 20//20 34//34 161//161
f 93//93 167//167 187//187
f 93//93 187//187 57//57
f 187//187 167//167 94//94
f 56//56 187//187 94//94
f 96//96 172//172 186//186
f 96//96 186//186 54//54
f 186//186 172//172 97//97
f 50//50 186//186 97//97
f 99//99 177//177 185//185
f 99//99 185//185 47//47
f 185//185 177//177 100//100
f 44//44 185//185 100//100
f 102//102 182//182 184//184
f 102//102 184//184 41//41
f 184//184 182//182 103//103
f 37//37 184//184 103//103
f 36//36 35//35 123//123
f 123//123 105//105 36//36
f 107//107 42//42 104//104
f 106//106 107//107 104//104
f 43//43 39//39 108//108
f 108//108 110//110 43//43
f 113//113 45//45 48//48
f 112//112 113//113 48//48
f 165//165 183//183 191//191
f 192//192 165//165 191//191
f 183//183 181//181 193//193
f 191//191 183//183 193//193
f 193//193 181//181 180//180
f 193//193 180//180 194//194
f 194//194 180//180 179//179
f 194//194 179//179 195//195
f 179//179 178//178 196//196
f 195//195 179//179 196//196
f 178//178 176//176 197//197
f 196//196 178//178 197//197
f 197//197 176//176 175//175
f 197//197 175//175 198//198
f 198//198 175//175 174//174
f 198//198 174//174 162//162
f 174//174 173//173 163//163
f 162//162 174//174 163//163
f 173//173 171//171 199//199
f 163//163 173//173 199//199
f 199//199 171//171 170//170
f 199//199 170//170 200//200
f 200//200 170//170 169//169
f 200//200 169//169 201//201
f 169//169 168//168 202//202
f 201//201 169//169 202//202
f 168//168 166//166 203//203
f 202//202 168//168 203//203
f 203//203 166//166 164//164
f 203//203 164//164 204//204
f 204//204 164//164 165//165
f 204//204 165//165 192//192
f 125//125 124//124 128//128
f 125//125 128//128 160//160
f 128//128 130//130 158//158
f 160//160 128//128 158//158
f 158//158 130//130 129//129
f 158//158 129//129 155//155
f 155//155 129//129 205//205
f 155//155 205//205 206//206
f 205//205 132//132 154//154
f 206//206 205//205 154//154
f 132//132 131//131 151//151
f 154//154 132//132 151//151
f 131//131 133//133 150//150
f 151//151 131//131 150//150
f 150//150 133//133 207//207
f 150//150 207//207 148//148
f 207//207 135//135 146//146
f 148//148 207//207 146//146
f 135//135 134//134 144//144
f 146//146 135//135 144//144
f 144//144 134//134 136//136
f 144//144 136//136 142//142
f 142//142 136//136 208//208
f 142//142 208//208 141//141
f 141//141 208//208 209//209
f 141//141 209//209 140//140
f 140//140 209//209 210//210
f 140//140 210//210 139//139
f 139//139 210//210 127//127
f 139//139 127//127 126//126
f 122//122 121//121 130//130
f 128//128 122//122 130//130
f 119//119 118//118 205//205
f 129//129 119//119 205//205
f 205//205 118//118 117//117
f 205//205 117//117 132//132
f 133//133 114//114 113//113
f 133//133 113//113 207//207
f 113//113 112//112 135//135
f 207//207 113//113 135//135
f 110//110 108//108 208//208
f 136//136 110//110 208//208
f 108//108 107//107 209//209
f 208//208 108//108 209//209
f 107//107 106//106 210//210
f 209//209 107//107 210//210
f 210//210 106//106 105//105
f 210//210 105//105 127//127
f 105//105 123//123 124//124
f 127//127 105//105 124//124
f 126//126 125//125 161//161
f 161//161 137//137 126//126
f 138//138 91//91 140//140
f 140//140 139//139 138//138
f 150//150 149//149 152//152
f 152//152 151//151 150//150
f 190//190 206//206 154//154
f 154//154 153//153 190//190
f 155//155 206//206 190//190
f 190//190 156//156 155//155
f 192//192 191//191 85//85
f 62//62 192//192 85//85
f 191//191 193//193 84//84
f 85//85 191//191 84//84
f 193//193 194//194 82//82
f 84//84 193//193 82//82
f 194//194 195//195 79//79
f 82//82 194//194 79//79
f 195//195 196//196 80//80
f 79//79 195//195 80//80
f 196//196 197//197 189//189
f 80//80 196//196 189//189
f 189//189 197//197 198//198
f 189//189 198//198 76//76
f 76//76 198//198 162//162
f 76//76 162//162 74//74
f 70//70 163//163 199//199
f 70//70 199//199 71//71
f 71//71 199//199 200//200
f 71//71 200//200 68//68
f 68//68 200//200 201//201
f 68//68 201//201 65//65
f 201//201 202//202 66//66
f 65//65 201//201 66//66
f 202//202 203//203 188//188
f 66//66 202//202 188//188
f 188//188 203//203 204//204
f 188//188 204//204 61//61
f 61//61 204//204 192//192
f 61//61 192//192 62//62
