# 
# Wavefront OBJ file
# 3D Pottery Benchmark Ver. 1.0, Multimedia Department,ILSP-Research Centre Athena, Contact Email: Anestis Koutsoudis (akoutsou@ceti.gr)
# 
# object object
g object
v 0.056563 0.056563 -0.125041
v 0.030612 0.073903 -0.125041
v 0 0 -0.125041
v 0 0.079992 -0.125041
v -0.030612 0.073903 -0.125041
v -0.056563 0.056563 -0.125041
v -0.073903 0.030612 -0.125041
v -0.079992 0 -0.125041
v -0.073903 -0.030612 -0.125041
v -0.056563 -0.056563 -0.125041
v -0.030612 -0.073903 -0.125041
v 0 -0.079992 -0.125041
v 0.030612 -0.073903 -0.125041
v 0.056563 -0.056563 -0.125041
v 0.073903 -0.030612 -0.125041
v 0.079992 0 -0.125041
v 0.073903 0.030612 -0.125041
v 0.107014 0.044327 -0.187882
v 0 0 -0.187882
v 0.081905 0.081905 -0.187882
v 0.115831 0 -0.187882
v 0.107014 -0.044327 -0.187882
v 0.081905 -0.081905 -0.187882
v 0.044327 -0.107014 -0.187882
v 0 -0.115831 -0.187882
v -0.044327 -0.107014 -0.187882
v -0.081905 -0.081905 -0.187882
v -0.107014 -0.044327 -0.187882
v -0.115831 0 -0.187882
v -0.107014 0.044327 -0.187882
v -0.081905 0.081905 -0.187882
v -0.044327 0.107014 -0.187882
v 0 0.115831 -0.187882
v 0.044327 0.107014 -0.187882
v 0.118221 0.118221 0.180339
v 0.063981 0.154464 0.180339
v 0.061301 0.147993 0.186616
v 0.113269 0.113269 0.186616
v -0.063981 0.154464 0.180339
v -0.0613 0.147993 0.186616
v 0 0.160186 0.186616
v 0 0.16719 0.180339
v -0.118221 0.118221 0.180339
v -0.113269 0.113269 0.186616
v -0.154464 0.063981 0.180339
v -0.147993 0.061301 0.186616
v -0.118221 -0.118221 0.180339
v -0.113269 -0.113269 0.186616
v -0.147993 -0.061301 0.186616
v -0.154464 -0.063981 0.180339
v -0.063981 -0.154464 0.180339
v -0.061301 -0.147993 0.186616
v 0.063981 -0.154464 0.180339
v 0.118221 -0.118221 0.180339
v 0.113269 -0.113269 0.186616
v 0.061301 -0.147993 0.186616
v 0.154464 -0.063981 0.180339
v 0.147993 -0.061301 0.186616
v 0.147993 0.061301 0.186616
v 0.154464 0.063981 0.180339
v 0.093166 0.038591 -0.112052
v 0.100842 0 -0.112052
v 0.12139 0 -0.081596
v 0.112149 0.046454 -0.081596
v 0.093166 -0.038591 -0.112052
v 0.112149 -0.046454 -0.081596
v 0.038591 -0.093166 -0.112052
v 0 -0.100842 -0.112052
v 0 -0.12139 -0.081596
v 0.046454 -0.112149 -0.081596
v -0.038591 -0.093166 -0.112052
v -0.046454 -0.112149 -0.081596
v -0.100842 0 -0.112052
v -0.12139 0 -0.081596
v -0.112149 -0.046454 -0.081596
v -0.093166 -0.038591 -0.112052
v -0.093166 0.038591 -0.112052
v -0.112149 0.046454 -0.081596
v -0.038591 0.093166 -0.112052
v 0 0.100842 -0.112052
v 0 0.12139 -0.081596
v -0.046454 0.112149 -0.081596
v 0.038591 0.093166 -0.112052
v 0.046454 0.112149 -0.081596
v 0.122982 0 -0.180703
v 0.11362 0.047063 -0.180703
v 0.11362 -0.047063 -0.180703
v 0 -0.122982 -0.180703
v 0.047063 -0.11362 -0.180703
v -0.047063 -0.11362 -0.180703
v -0.11362 -0.047063 -0.180703
v -0.122982 0 -0.180703
v -0.11362 0.047063 -0.180703
v 0 0.122982 -0.180703
v -0.047063 0.11362 -0.180703
v 0.047063 0.11362 -0.180703
v 0.107767 0.107767 0.180997
v 0.140804 0.058323 0.180997
v 0.160186 0 0.186616
v 0.152405 0 0.180997
v 0.140804 -0.058323 0.180997
v 0.107767 -0.107767 0.180997
v 0.058323 -0.140804 0.180997
v 0 -0.160186 0.186616
v 0 -0.152405 0.180997
v -0.058323 -0.140804 0.180997
v -0.107767 -0.107767 0.180997
v -0.140804 -0.058323 0.180997
v -0.152405 0 0.180997
v -0.160186 0 0.186616
v -0.140804 0.058323 0.180997
v -0.107767 0.107767 0.180997
v 0 0.152405 0.180997
v 0.058323 0.140804 0.180997
v 0.117127 0.117127 0.167701
v 0.063389 0.153034 0.167701
v 0 0.165643 0.167702
v -0.063389 0.153034 0.167702
v -0.117127 0.117127 0.167702
v -0.153034 0.063389 0.167702
v -0.16719 0 0.180339
v -0.165643 0 0.167702
v -0.153034 -0.063389 0.167702
v -0.117127 -0.117127 0.167701
v -0.063389 -0.153034 0.167702
v 0 -0.165643 0.167702
v 0 -0.16719 0.180339
v 0.063389 -0.153034 0.167702
v 0.117127 -0.117127 0.167702
v 0.153034 -0.063389 0.167702
v 0.16719 0 0.180339
v 0.165643 0 0.167702
v 0.153034 0.063389 0.167701
v 0.052389 0.126477 0.0497
v 0 0.136898 0.0497
v 0.126477 0.052388 0.0497
v 0.139393 0.057738 0.168062
v 0.106687 0.106687 0.168062
v 0.096801 0.096801 0.0497
v 0.096801 -0.096801 0.0497
v 0.106687 -0.106687 0.168062
v 0.139393 -0.057738 0.168062
v 0.126477 -0.052388 0.0497
v 0.052388 -0.126477 0.0497
v 0.057738 -0.139393 0.168062
v -0.096801 -0.096801 0.0497
v -0.106687 -0.106687 0.168062
v -0.057738 -0.139393 0.168062
v -0.052388 -0.126477 0.0497
v -0.126477 -0.052388 0.0497
v -0.139393 -0.057738 0.168062
v -0.096801 0.096801 0.0497
v -0.106687 0.106687 0.168062
v -0.139393 0.057738 0.168062
v -0.126477 0.052388 0.0497
v -0.052388 0.126477 0.0497
v -0.057738 0.139393 0.168062
v 0.057739 0.139393 0.168062
v -0.055522 0.134043 -0.000171
v -0.047655 0.11505 -0.168065
v -0.088055 0.088055 -0.168065
v -0.102592 0.102592 -0.000171
v 0.088055 0.088055 -0.168065
v 0.086961 0.086961 -0.180703
v 0.047655 0.11505 -0.168065
v 0 0.124529 -0.168065
v -0.086961 0.086961 -0.180703
v -0.11505 0.047655 -0.168065
v -0.124529 0 -0.168065
v -0.11505 -0.047655 -0.168065
v -0.086961 -0.086961 -0.180703
v -0.088055 -0.088055 -0.168065
v -0.047655 -0.11505 -0.168065
v 0 -0.124529 -0.168065
v 0.047655 -0.11505 -0.168065
v 0.086961 -0.086961 -0.180703
v 0.088055 -0.088055 -0.168065
v 0.11505 -0.047655 -0.168065
v 0.124529 0 -0.168065
v 0.11505 0.047655 -0.168065
v 0 0.150878 0.168062
v -0.058323 0.140804 0.180997
v -0.150878 0 0.168062
v 0 -0.150878 0.168062
v 0.150878 0 0.168062
v 0.085835 0.085835 -0.081596
v 0.071306 0.071306 -0.112052
v 0.071306 -0.071306 -0.112052
v 0.085835 -0.085835 -0.081596
v -0.071306 -0.071306 -0.112052
v -0.085835 -0.085835 -0.081596
v -0.071306 0.071306 -0.112052
v -0.085835 0.085835 -0.081596
v -0.136898 0 0.0497
v 0 -0.136898 0.0497
v 0.136898 0 0.0497
v 0.102591 0.102591 -0.000182
v 0.134042 0.055522 -0.000182
v 0.145087 0 -0.000171
v 0.134043 -0.055523 -0.000171
v 0.102592 -0.102592 -0.000171
v 0.055523 -0.134043 -0.000171
v 0 -0.145087 -0.000171
v -0.055522 -0.134043 -0.000171
v -0.102591 -0.102591 -0.000182
v -0.134043 -0.055523 -0.000171
v -0.145087 0 -0.000171
v -0.134043 0.055523 -0.000171
v 0 0.145087 -0.000171
v 0.055522 0.134042 -0.000182
# 210 verts.
vn -0.193908 -0.193908 0.961665
vn -0.139428 -0.336607 0.931266
vn 0 0 1
vn 0 -0.274225 0.961666
vn 0.139428 -0.336607 0.931266
vn 0.193908 -0.193908 0.961665
vn 0.336607 -0.139428 0.931266
vn 0.274225 0 0.961666
vn 0.336607 0.139428 0.931266
vn 0.193908 0.193908 0.961665
vn 0.139428 0.336607 0.931266
vn 0 0.274225 0.961666
vn -0.139428 0.336607 0.931266
vn -0.193908 0.193908 0.961665
vn -0.336607 0.139428 0.931266
vn -0.274225 0 0.961666
vn -0.336607 -0.139428 0.931266
vn 0.466651 0.193296 -0.86306
vn 0 0 -1
vn 0.269919 0.269919 -0.924277
vn 0.456791 -0.0302901 -0.889058
vn 0.410447 -0.202797 -0.889048
vn 0.269919 -0.269919 -0.924277
vn 0.193296 -0.466651 -0.86306
vn 0 -0.3817 -0.924286
vn -0.193296 -0.466651 -0.86306
vn -0.269919 -0.269919 -0.924277
vn -0.410447 -0.202797 -0.889048
vn -0.505092 2.68199e-09 -0.863065
vn -0.410447 0.202797 -0.889048
vn -0.269919 0.269919 -0.924277
vn -0.193296 0.466651 -0.86306
vn 0.0302901 0.456791 -0.889058
vn 0.202797 0.410447 -0.889048
vn 0.661325 0.661325 0.353975
vn 0.314168 0.836572 0.448827
vn -0.00164646 -0.0671078 0.997744
vn 0.0366563 0.0366563 0.998655
vn -0.300037 0.886085 0.353314
vn -0.0690018 0.0274199 0.99724
vn 3.88175e-07 0.309126 0.951021
vn 0.0440845 0.966035 0.254624
vn -0.616294 0.70382 0.353297
vn 0.0272027 -0.0613633 0.997745
vn -0.82491 0.375805 0.422249
vn 0.110685 -0.0138803 0.993759
vn -0.703821 -0.616295 0.353294
vn -0.034225 -0.039081 0.99865
vn 0.0671078 0.00164646 0.997744
vn -0.836574 -0.314169 0.448824
vn -0.357908 -0.86406 0.353981
vn -0.0198322 -0.0478777 0.998656
vn 0.357908 -0.86406 0.35398
vn 0.661327 -0.661327 0.353967
vn 0.0366517 -0.0366517 0.998656
vn 0.0198322 -0.0478777 0.998656
vn 0.82491 -0.375805 0.422249
vn -0.110685 0.0138803 0.993759
vn 0.0465662 0.0230119 0.99865
vn 0.886087 0.300038 0.353309
vn -0.686363 -0.284306 0.669384
vn -0.671086 0.0239603 0.740992
vn -0.948455 -0.024297 0.31598
vn -0.864262 -0.401815 0.302648
vn -0.655308 0.307771 0.689817
vn -0.863785 0.363666 0.348745
vn -0.284306 0.686363 0.669384
vn 1.27675e-09 0.640776 0.767728
vn 0 0.937215 0.348753
vn -0.401815 0.864262 0.302648
vn 0.284306 0.686363 0.669384
vn 0.401815 0.864262 0.302648
vn 0.693522 -9.61297e-10 0.720436
vn 0.962294 0 0.27201
vn 0.863785 0.363666 0.348745
vn 0.655308 0.307771 0.689817
vn 0.655308 -0.307771 0.689817
vn 0.863785 -0.363666 0.348745
vn 0.284306 -0.686363 0.669384
vn -0.0239603 -0.671086 0.740992
vn 0.0620222 -0.93541 0.348083
vn 0.401815 -0.864262 0.302648
vn -0.307771 -0.655308 0.689817
vn -0.340518 -0.885554 0.315977
vn 0.898562 -0.00967959 -0.43874
vn 0.871184 0.315977 -0.375761
vn 0.826457 -0.352814 -0.438739
vn -0.0296126 -0.875661 -0.482018
vn 0.315977 -0.871184 -0.375761
vn -0.3926 -0.839445 -0.375763
vn -0.851493 -0.288328 -0.437981
vn -0.925784 0.0414661 -0.375773
vn -0.826457 0.352814 -0.438739
vn 0.00967959 0.898562 -0.43874
vn -0.315977 0.871184 -0.375761
vn 0.352814 0.826457 -0.438739
vn -0.606192 -0.563021 0.561728
vn -0.815683 -0.276195 0.508308
vn 0.165622 -0.0212421 0.98596
vn -0.859294 0.0569739 0.508298
vn -0.772076 0.381469 0.508312
vn -0.607001 0.667452 0.431343
vn -0.288184 0.775511 0.561723
vn 0 -0.0518152 0.998657
vn 0.0427442 0.901181 0.43133
vn 0.344585 0.752147 0.561726
vn 0.647896 0.567321 0.508309
vn 0.848934 0.305372 0.431346
vn 0.826765 -0.0305257 0.561718
vn -0.309129 0 0.95102
vn 0.772076 -0.381469 0.508312
vn 0.607001 -0.667452 0.431343
vn -0.0305247 -0.826768 0.561715
vn -0.384352 -0.816222 0.431341
vn 0.729218 0.67342 -0.121435
vn 0.379848 0.91703 -0.121537
vn -0.0656695 0.990444 -0.121274
vn -0.439702 0.889917 -0.121284
vn -0.746784 0.653916 -0.121275
vn -0.940181 0.318355 -0.121281
vn -0.982147 0 0.188115
vn -0.992588 0 -0.121526
vn -0.927455 -0.353649 -0.121491
vn -0.68165 -0.721522 -0.121487
vn -0.379848 -0.917028 -0.121554
vn -0.0281942 -0.992192 -0.121493
vn 0 -0.935245 0.354
vn 0.343099 -0.931414 -0.121456
vn 0.701865 -0.701865 -0.12154
vn 0.940181 -0.318355 -0.121281
vn 0.966035 -0.0440849 0.254622
vn 0.991815 0.0394541 -0.121439
vn 0.917029 0.379849 -0.121541
vn -0.343279 -0.931891 0.117209
vn -7.24015e-07 -0.993097 0.117299
vn -0.9175 -0.380045 0.1173
vn -0.917504 -0.380041 0.117284
vn -0.702228 -0.702226 0.117279
vn -0.682001 -0.72189 0.117255
vn -0.721893 0.681998 0.117255
vn -0.702228 0.702225 0.117286
vn -0.927934 0.353829 0.117236
vn -0.931891 0.34328 0.117208
vn -0.380045 0.9175 0.1173
vn -0.380041 0.917504 0.117284
vn 0.681998 0.721893 0.117255
vn 0.702225 0.702228 0.117286
vn 0.353829 0.927934 0.117236
vn 0.34328 0.931891 0.117208
vn 0.9175 0.380045 0.1173
vn 0.917504 0.380041 0.117284
vn 0.721893 -0.681998 0.117255
vn 0.702228 -0.702225 0.117286
vn 0.927934 -0.353829 0.117236
vn 0.931891 -0.34328 0.117208
vn 0.380045 -0.9175 0.1173
vn 0.380041 -0.917504 0.117284
vn -0.380044 -0.917504 0.117271
vn -0.353648 0.927455 -0.121492
vn -0.416007 0.901216 -0.121445
vn -0.721521 0.681651 -0.121485
vn -0.673416 0.72922 -0.121446
vn 0.653915 0.746785 -0.121271
vn 0.64013 0.598253 -0.482004
vn 0.343102 0.931414 -0.121444
vn -0.0281967 0.992193 -0.121483
vn -0.598253 0.64013 -0.482004
vn -0.940181 0.318358 -0.121276
vn -0.991815 -0.0394591 -0.121433
vn -0.905875 -0.405746 -0.121492
vn -0.64013 -0.598253 -0.482004
vn -0.673419 -0.729219 -0.121437
vn -0.37985 -0.917029 -0.121538
vn 1.91379e-06 -0.992588 -0.12153
vn 0.379848 -0.91703 -0.121541
vn 0.598253 -0.64013 -0.482004
vn 0.721522 -0.68165 -0.121486
vn 0.940181 -0.318358 -0.121276
vn 0.990445 0.0656714 -0.121268
vn 0.889918 0.439701 -0.121279
vn 2.55684e-07 -0.9931 0.117272
vn 0.316027 -0.800605 0.509075
vn 0.992326 0.0394767 0.117175
vn -0.0394767 0.992326 0.117175
vn -0.992326 -0.0394767 0.117175
vn -0.640707 -0.640707 0.42307
vn -0.453102 -0.453102 0.767723
vn -0.453102 0.453102 0.767723
vn -0.640707 0.640707 0.42307
vn 0.453102 0.453102 0.767723
vn 0.640707 0.640707 0.42307
vn 0.453102 -0.453102 0.767723
vn 0.640707 -0.640707 0.42307
vn 0.993097 2.53152e-09 0.117298
vn -2.53152e-09 0.993097 0.117298
vn -0.993097 -2.53152e-09 0.117298
vn 0.701864 0.701865 -0.12154
vn 0.91703 0.379847 -0.12154
vn 0.992192 -0.0281947 -0.121492
vn 0.889918 -0.439702 -0.121278
vn 0.701865 -0.701865 -0.12154
vn 0.439702 -0.889918 -0.121278
vn 0.0656692 -0.990444 -0.121278
vn -0.353647 -0.927455 -0.121492
vn -0.701862 -0.701867 -0.12154
vn -0.901216 -0.416006 -0.121445
vn -0.992587 -1.8986e-09 -0.12154
vn -0.889918 0.439702 -0.121278
vn 0.0394545 0.991814 -0.121445
vn 0.379848 0.91703 -0.12154
# 210 normals
usemtl (null)
f 1//1 2//2 3//3
f 4//4 3//3 2//2
f 5//5 3//3 4//4
f 6//6 3//3 5//5
f 7//7 3//3 6//6
f 8//8 3//3 7//7
f 8//8 9//9 3//3
f 10//10 3//3 9//9
f 11//11 3//3 10//10
f 11//11 12//12 3//3
f 13//13 3//3 12//12
f 13//13 14//14 3//3
f 15//15 3//3 14//14
f 16//16 3//3 15//15
f 17//17 3//3 16//16
f 1//1 3//3 17//17
f 18//18 19//19 20//20
f 21//21 19//19 18//18
f 22//22 19//19 21//21
f 23//23 19//19 22//22
f 23//23 24//24 19//19
f 25//25 19//19 24//24
f 25//25 26//26 19//19
f 27//27 19//19 26//26
f 28//28 19//19 27//27
f 28//28 29//29 19//19
f 30//30 19//19 29//29
f 31//31 19//19 30//30
f 32//32 19//19 31//31
f 33//33 19//19 32//32
f 34//34 19//19 33//33
f 34//34 20//20 19//19
f 35//35 36//36 37//37
f 37//37 38//38 35//35
f 39//39 40//40 41//41
f 41//41 42//42 39//39
f 43//43 44//44 40//40
f 40//40 39//39 43//43
f 45//45 46//46 44//44
f 44//44 43//43 45//45
f 47//47 48//48 49//49
f 49//49 50//50 47//47
f 51//51 52//52 48//48
f 48//48 47//47 51//51
f 53//53 54//54 55//55
f 55//55 56//56 53//53
f 57//57 58//58 55//55
f 55//55 54//54 57//57
f 35//35 38//38 59//59
f 59//59 60//60 35//35
f 61//61 62//62 63//63
f 63//63 64//64 61//61
f 62//62 65//65 66//66
f 66//66 63//63 62//62
f 67//67 68//68 69//69
f 69//69 70//70 67//67
f 71//71 72//72 69//69
f 69//69 68//68 71//71
f 73//73 74//74 75//75
f 75//75 76//76 73//73
f 73//73 77//77 78//78
f 78//78 74//74 73//73
f 79//79 80//80 81//81
f 81//81 82//82 79//79
f 80//80 83//83 84//84
f 84//84 81//81 80//80
f 85//85 21//21 18//18
f 18//18 86//86 85//85
f 87//87 22//22 21//21
f 21//21 85//85 87//87
f 88//88 25//25 24//24
f 24//24 89//89 88//88
f 88//88 90//90 26//26
f 26//26 25//25 88//88
f 91//91 92//92 29//29
f 29//29 28//28 91//91
f 93//93 30//30 29//29
f 29//29 92//92 93//93
f 94//94 33//33 32//32
f 32//32 95//95 94//94
f 96//96 34//34 33//33
f 33//33 94//94 96//96
f 59//59 38//38 97//97
f 97//97 98//98 59//59
f 99//99 59//59 98//98
f 98//98 100//100 99//99
f 58//58 99//99 100//100
f 100//100 101//101 58//58
f 55//55 58//58 101//101
f 101//101 102//102 55//55
f 55//55 102//102 103//103
f 103//103 56//56 55//55
f 104//104 56//56 103//103
f 103//103 105//105 104//104
f 104//104 105//105 106//106
f 106//106 52//52 104//104
f 48//48 52//52 106//106
f 106//106 107//107 48//48
f 49//49 48//48 107//107
f 107//107 108//108 49//49
f 49//49 108//108 109//109
f 109//109 110//110 49//49
f 46//46 110//110 109//109
f 109//109 111//111 46//46
f 44//44 46//46 111//111
f 111//111 112//112 44//44
f 37//37 41//41 113//113
f 113//113 114//114 37//37
f 37//37 114//114 97//97
f 97//97 38//38 37//37
f 35//35 115//115 116//116
f 116//116 36//36 35//35
f 42//42 36//36 116//116
f 116//116 117//117 42//42
f 39//39 42//42 117//117
f 117//117 118//118 39//39
f 43//43 39//39 118//118
f 118//118 119//119 43//43
f 45//45 43//43 119//119
f 119//119 120//120 45//45
f 121//121 45//45 120//120
f 120//120 122//122 121//121
f 121//121 122//122 123//123
f 123//123 50//50 121//121
f 47//47 50//50 123//123
f 123//123 124//124 47//47
f 51//51 47//47 124//124
f 124//124 125//125 51//51
f 51//51 125//125 126//126
f 126//126 127//127 51//51
f 53//53 127//127 126//126
f 126//126 128//128 53//53
f 53//53 128//128 129//129
f 129//129 54//54 53//53
f 57//57 54//54 129//129
f 129//129 130//130 57//57
f 131//131 57//57 130//130
f 130//130 132//132 131//131
f 60//60 131//131 132//132
f 132//132 133//133 60//60
f 35//35 60//60 133//133
f 133//133 115//115 35//35
f 84//84 134//134 135//135
f 135//135 81//81 84//84
f 136//136 137//137 138//138
f 138//138 139//139 136//136
f 140//140 141//141 142//142
f 142//142 143//143 140//140
f 144//144 145//145 141//141
f 141//141 140//140 144//144
f 146//146 147//147 148//148
f 148//148 149//149 146//146
f 150//150 151//151 147//147
f 147//147 146//146 150//150
f 152//152 153//153 154//154
f 154//154 155//155 152//152
f 156//156 157//157 153//153
f 153//153 152//152 156//156
f 139//139 138//138 158//158
f 158//158 134//134 139//139
f 159//159 160//160 161//161
f 161//161 162//162 159//159
f 163//163 164//164 96//96
f 96//96 165//165 163//163
f 165//165 96//96 94//94
f 94//94 166//166 165//165
f 166//166 94//94 95//95
f 95//95 160//160 166//166
f 160//160 95//95 167//167
f 167//167 161//161 160//160
f 161//161 167//167 93//93
f 93//93 168//168 161//161
f 168//168 93//93 92//92
f 92//92 169//169 168//168
f 169//169 92//92 91//91
f 91//91 170//170 169//169
f 170//170 91//91 171//171
f 171//171 172//172 170//170
f 172//172 171//171 90//90
f 90//90 173//173 172//172
f 173//173 90//90 88//88
f 88//88 174//174 173//173
f 174//174 88//88 89//89
f 89//89 175//175 174//174
f 175//175 89//89 176//176
f 176//176 177//177 175//175
f 177//177 176//176 87//87
f 87//87 178//178 177//177
f 178//178 87//87 85//85
f 85//85 179//179 178//178
f 179//179 85//85 86//86
f 86//86 180//180 179//179
f 180//180 86//86 164//164
f 164//164 163//163 180//180
f 138//138 97//97 114//114
f 114//114 158//158 138//138
f 158//158 114//114 113//113
f 113//113 181//181 158//158
f 181//181 113//113 182//182
f 182//182 157//157 181//181
f 157//157 182//182 112//112
f 112//112 153//153 157//157
f 153//153 112//112 111//111
f 111//111 154//154 153//153
f 154//154 111//111 109//109
f 109//109 183//183 154//154
f 183//183 109//109 108//108
f 108//108 151//151 183//183
f 151//151 108//108 107//107
f 107//107 147//147 151//151
f 147//147 107//107 106//106
f 106//106 148//148 147//147
f 148//148 106//106 105//105
f 105//105 184//184 148//148
f 184//184 105//105 103//103
f 103//103 145//145 184//184
f 145//145 103//103 102//102
f 102//102 141//141 145//145
f 141//141 102//102 101//101
f 101//101 142//142 141//141
f 142//142 101//101 100//100
f 100//100 185//185 142//142
f 185//185 100//100 98//98
f 98//98 137//137 185//185
f 137//137 98//98 97//97
f 97//97 138//138 137//137
f 41//41 37//37 36//36
f 41//41 36//36 42//42
f 110//110 46//46 45//45
f 110//110 45//45 121//121
f 50//50 49//49 110//110
f 121//121 50//50 110//110
f 104//104 52//52 51//51
f 104//104 51//51 127//127
f 53//53 56//56 104//104
f 127//127 53//53 104//104
f 99//99 58//58 57//57
f 99//99 57//57 131//131
f 60//60 59//59 99//99
f 131//131 60//60 99//99
f 186//186 187//187 61//61
f 61//61 64//64 186//186
f 65//65 188//188 189//189
f 189//189 66//66 65//65
f 189//189 188//188 67//67
f 67//67 70//70 189//189
f 71//71 190//190 191//191
f 191//191 72//72 71//71
f 191//191 190//190 76//76
f 76//76 75//75 191//191
f 77//77 192//192 193//193
f 193//193 78//78 77//77
f 193//193 192//192 79//79
f 79//79 82//82 193//193
f 83//83 187//187 186//186
f 186//186 84//84 83//83
f 187//187 83//83 2//2
f 187//187 2//2 1//1
f 2//2 83//83 80//80
f 80//80 4//4 2//2
f 80//80 79//79 5//5
f 5//5 4//4 80//80
f 5//5 79//79 192//192
f 6//6 5//5 192//192
f 192//192 77//77 7//7
f 192//192 7//7 6//6
f 7//7 77//77 73//73
f 73//73 8//8 7//7
f 73//73 76//76 9//9
f 9//9 8//8 73//73
f 9//9 76//76 190//190
f 10//10 9//9 190//190
f 190//190 71//71 11//11
f 190//190 11//11 10//10
f 11//11 71//71 68//68
f 68//68 12//12 11//11
f 68//68 67//67 13//13
f 13//13 12//12 68//68
f 13//13 67//67 188//188
f 14//14 13//13 188//188
f 188//188 65//65 15//15
f 188//188 15//15 14//14
f 15//15 65//65 62//62
f 62//62 16//16 15//15
f 62//62 61//61 17//17
f 17//17 16//16 62//62
f 17//17 61//61 187//187
f 1//1 17//17 187//187
f 18//18 20//20 164//164
f 18//18 164//164 86//86
f 176//176 23//23 22//22
f 87//87 176//176 22//22
f 24//24 23//23 176//176
f 24//24 176//176 89//89
f 171//171 27//27 26//26
f 90//90 171//171 26//26
f 28//28 27//27 171//171
f 28//28 171//171 91//91
f 167//167 31//31 30//30
f 93//93 167//167 30//30
f 32//32 31//31 167//167
f 32//32 167//167 95//95
f 164//164 20//20 34//34
f 96//96 164//164 34//34
f 44//44 112//112 182//182
f 182//182 40//40 44//44
f 40//40 182//182 113//113
f 41//41 40//40 113//113
f 139//139 134//134 84//84
f 186//186 139//139 84//84
f 81//81 135//135 156//156
f 81//81 156//156 82//82
f 82//82 156//156 152//152
f 82//82 152//152 193//193
f 152//152 155//155 78//78
f 193//193 152//152 78//78
f 155//155 194//194 74//74
f 78//78 155//155 74//74
f 74//74 194//194 150//150
f 74//74 150//150 75//75
f 75//75 150//150 146//146
f 75//75 146//146 191//191
f 146//146 149//149 72//72
f 191//191 146//146 72//72
f 149//149 195//195 69//69
f 72//72 149//149 69//69
f 69//69 195//195 144//144
f 69//69 144//144 70//70
f 70//70 144//144 140//140
f 70//70 140//140 189//189
f 140//140 143//143 66//66
f 189//189 140//140 66//66
f 143//143 196//196 63//63
f 66//66 143//143 63//63
f 63//63 196//196 136//136
f 63//63 136//136 64//64
f 64//64 136//136 139//139
f 64//64 139//139 186//186
f 196//196 185//185 137//137
f 196//196 137//137 136//136
f 142//142 185//185 196//196
f 143//143 142//142 196//196
f 195//195 184//184 145//145
f 195//195 145//145 144//144
f 148//148 184//184 195//195
f 149//149 148//148 195//195
f 194//194 183//183 151//151
f 194//194 151//151 150//150
f 154//154 183//183 194//194
f 155//155 154//154 194//194
f 135//135 181//181 157//157
f 135//135 157//157 156//156
f 134//134 158//158 181//181
f 135//135 134//134 181//181
f 197//197 198//198 180//180
f 163//163 197//197 180//180
f 198//198 199//199 179//179
f 180//180 198//198 179//179
f 199//199 200//200 178//178
f 179//179 199//199 178//178
f 200//200 201//201 177//177
f 178//178 200//200 177//177
f 177//177 201//201 202//202
f 177//177 202//202 175//175
f 175//175 202//202 203//203
f 175//175 203//203 174//174
f 174//174 203//203 204//204
f 174//174 204//204 173//173
f 173//173 204//204 205//205
f 173//173 205//205 172//172
f 205//205 206//206 170//170
f 172//172 205//205 170//170
f 170//170 206//206 207//207
f 170//170 207//207 169//169
f 207//207 208//208 168//168
f 169//169 207//207 168//168
f 208//208 162//162 161//161
f 168//168 208//208 161//161
f 159//159 209//209 166//166
f 160//160 159//159 166//166
f 166//166 209//209 210//210
f 166//166 210//210 165//165
f 210//210 197//197 163//163
f 165//165 210//210 163//163
f 115//115 133//133 198//198
f 197//197 115//115 198//198
f 133//133 132//132 199//199
f 198//198 133//133 199//199
f 199//199 132//132 130//130
f 199//199 130//130 200//200
f 200//200 130//130 129//129
f 200//200 129//129 201//201
f 129//129 128//128 202//202
f 201//201 129//129 202//202
f 128//128 126//126 203//203
f 202//202 128//128 203//203
f 126//126 125//125 204//204
f 203//203 126//126 204//204
f 204//204 125//125 124//124
f 204//204 124//124 205//205
f 124//124 123//123 206//206
f 205//205 124//124 206//206
f 123//123 122//122 207//207
f 206//206 123//123 207//207
f 207//207 122//122 120//120
f 207//207 120//120 208//208
f 208//208 120//120 119//119
f 208//208 119//119 162//162
f 162//162 119//119 118//118
f 162//162 118//118 159//159
f 159//159 118//118 117//117
f 159//159 117//117 209//209
f 209//209 117//117 116//116
f 209//209 116//116 210//210
f 116//116 115//115 197//197
f 210//210 116//116 197//197
