# 
# Wavefront OBJ file
# 3D Pottery Benchmark Ver. 1.0, Multimedia Department,ILSP-Research Centre Athena, Contact Email: Anestis Koutsoudis (akoutsou@ceti.gr)
# 
# object object
g object
v 0.95964 0.46093 0.025
v 0.8815 0.46093 0.42951
v 0.80343 0.22785 0.42951
v 0.86595 0.19634 0.025
v 0.72536 0.46093 0.50782
v 0.6793 0.3212 0.50782
v 0.55455 0.46093 0.52276
v 0.53868 0.42957 0.52276
v 0.53888 0.46093 0.84975
v 0.53951 0.43027 0.84975
v 0.78836 0.46093 0.91185
v 0.74154 0.28933 0.91185
v 0.80333 0.46093 0.97435
v 0.74111 0.29 0.97435
v 0.49232 0.46093 0.975
v 0.617 0.0874 0.42951
v 0.63282 0.025 0.025
v 0.55462 0.24275 0.50782
v 0.50757 0.39918 0.52276
v 0.50807 0.41427 0.84975
v 0.58587 0.18104 0.91185
v 0.58562 0.16534 0.97435
v 0.36764 0.0874 0.42951
v 0.35182 0.025 0.025
v 0.43002 0.24275 0.50782
v 0.47707 0.39918 0.52276
v 0.47657 0.41427 0.84975
v 0.39878 0.18104 0.91185
v 0.39902 0.16534 0.97435
v 0.18121 0.22785 0.42951
v 0.11868 0.19634 0.025
v 0.30534 0.3212 0.50782
v 0.44596 0.42957 0.52276
v 0.44513 0.43027 0.84975
v 0.24311 0.28933 0.91185
v 0.24353 0.29 0.97435
v 0.10314 0.46093 0.42951
v 0.025 0.46093 0.025
v 0.25927 0.46093 0.50782
v 0.43009 0.46093 0.52276
v 0.44576 0.46093 0.84975
v 0.19628 0.46093 0.91185
v 0.18131 0.46093 0.97435
v 0.18121 0.69401 0.42951
v 0.11868 0.72552 0.025
v 0.30534 0.60066 0.50782
v 0.44596 0.49229 0.52276
v 0.44513 0.49159 0.84975
v 0.24311 0.63254 0.91185
v 0.24353 0.63187 0.97435
v 0.36764 0.83446 0.42951
v 0.35182 0.89686 0.025
v 0.43002 0.67911 0.50782
v 0.47707 0.52268 0.52276
v 0.47657 0.50759 0.84975
v 0.39878 0.74082 0.91185
v 0.39902 0.75652 0.97435
v 0.617 0.83446 0.42951
v 0.63282 0.89686 0.025
v 0.55462 0.67911 0.50782
v 0.50757 0.52268 0.52276
v 0.50807 0.50759 0.84975
v 0.58587 0.74082 0.91185
v 0.58562 0.75652 0.97435
v 0.80343 0.69401 0.42951
v 0.86595 0.72552 0.025
v 0.6793 0.60066 0.50782
v 0.53868 0.49229 0.52276
v 0.53951 0.49159 0.84975
v 0.74154 0.63254 0.91185
v 0.74111 0.63187 0.97435
# 71 verts.
vn 0.976597 -0.109592 0.185063
vn 0.791659 0.0349696 0.609961
vn 0.656028 -0.447366 0.607858
vn 0.730544 -0.663313 0.162238
vn 0.271639 0.0181335 0.962228
vn 0.228029 -0.147811 0.962369
vn 0.70196 0.0100241 0.712146
vn 0.520699 -0.501321 0.691049
vn 0.791724 0.0833735 -0.605162
vn 0.656245 -0.395593 -0.642533
vn 0.726861 -0.0701887 -0.683189
vn 0.605528 -0.452639 -0.654564
vn 0.869933 0.0822435 0.486263
vn 0.741746 -0.407623 0.532595
vn -6.98494e-11 -3.24217e-09 1
vn 0.280056 -0.742088 0.608994
vn 0.204096 -0.966273 0.15704
vn 0.0962787 -0.250308 0.963367
vn 0.185211 -0.675928 0.713315
vn 0.277706 -0.733749 -0.620074
vn 0.162876 -0.682298 -0.712699
vn 0.367625 -0.79273 0.486241
vn -0.213816 -0.765592 0.606755
vn -0.411618 -0.897741 0.156944
vn -0.0591534 -0.256321 0.96478
vn -0.279548 -0.655265 0.70177
vn -0.157407 -0.783445 -0.601197
vn -0.274125 -0.675838 -0.684177
vn -0.215024 -0.947376 -0.237155
vn -0.000703524 -0.00197709 0.999998
vn -0.630913 -0.492987 0.599093
vn -0.849112 -0.49885 0.173659
vn -0.198573 -0.17458 0.964412
vn -0.644142 -0.308368 0.699993
vn -0.627909 -0.429595 -0.648983
vn -0.630619 -0.412209 -0.657574
vn -0.624394 -0.566636 0.53764
vn -0.791664 -0.0349572 0.609956
vn -0.976596 0.109591 0.185069
vn -0.271642 -0.0181332 0.962227
vn -0.701958 -0.0100258 0.712147
vn -0.791726 -0.0833713 -0.60516
vn -0.726845 0.0701767 -0.683207
vn -0.869949 -0.0822768 0.486229
vn -0.656028 0.447359 0.607863
vn -0.730545 0.663309 0.162252
vn -0.228032 0.147819 0.962367
vn -0.520698 0.501322 0.69105
vn -0.656246 0.395595 -0.642531
vn -0.605483 0.452638 -0.654606
vn -0.741767 0.407654 0.532542
vn -0.280051 0.742088 0.608996
vn -0.20409 0.966274 0.15704
vn -0.0962787 0.250308 0.963367
vn -0.185211 0.675928 0.713315
vn -0.277706 0.73375 -0.620073
vn -0.162863 0.682293 -0.712708
vn -0.367612 0.792764 0.486196
vn 0.213816 0.765592 0.606755
vn 0.411625 0.897739 0.15694
vn 0.0591534 0.256321 0.96478
vn 0.279548 0.655265 0.70177
vn 0.157403 0.783443 -0.6012
vn 0.274116 0.675865 -0.684154
vn 0.215017 0.947386 -0.237123
vn 0.000703479 0.0019771 0.999998
vn 0.630919 0.492982 0.599091
vn 0.849112 0.498855 0.173645
vn 0.198577 0.174575 0.964412
vn 0.644142 0.308368 0.699993
vn 0.62791 0.429589 -0.648986
vn 0.630639 0.412208 -0.657555
vn 0.624348 0.56662 0.53771
vn 0 0 -1
# 74 normals
usemtl (null)
f 1//1 2//2 3//3
f 1//1 3//3 4//4
f 2//2 5//5 6//6
f 2//2 6//6 3//3
f 5//5 7//7 8//8
f 5//5 8//8 6//6
f 7//7 9//9 10//10
f 7//7 10//10 8//8
f 9//9 11//11 12//12
f 9//9 12//12 10//10
f 11//11 13//13 14//14
f 11//11 14//14 12//12
f 13//13 15//15 14//14
f 4//4 3//3 16//16
f 4//4 16//16 17//17
f 3//3 6//6 18//18
f 3//3 18//18 16//16
f 6//6 8//8 19//19
f 6//6 19//19 18//18
f 8//8 10//10 20//20
f 8//8 20//20 19//19
f 10//10 12//12 21//21
f 10//10 21//21 20//20
f 12//12 14//14 22//22
f 12//12 22//22 21//21
f 14//14 15//15 22//22
f 17//17 16//16 23//23
f 17//17 23//23 24//24
f 16//16 18//18 25//25
f 16//16 25//25 23//23
f 18//18 19//19 26//26
f 18//18 26//26 25//25
f 19//19 20//20 27//27
f 19//19 27//27 26//26
f 20//20 21//21 28//28
f 20//20 28//28 27//27
f 21//21 22//22 29//29
f 21//21 29//29 28//28
f 22//22 15//15 29//30
f 24//24 23//23 30//31
f 24//24 30//31 31//32
f 23//23 25//25 32//33
f 23//23 32//33 30//31
f 25//25 26//26 33//34
f 25//25 33//34 32//33
f 26//26 27//27 34//35
f 26//26 34//35 33//34
f 27//27 28//28 35//36
f 27//27 35//36 34//35
f 28//28 29//29 36//37
f 28//28 36//37 35//36
f 29//30 15//15 36//37
f 31//32 30//31 37//38
f 31//32 37//38 38//39
f 30//31 32//33 39//40
f 30//31 39//40 37//38
f 32//33 33//34 40//41
f 32//33 40//41 39//40
f 33//34 34//35 41//42
f 33//34 41//42 40//41
f 34//35 35//36 42//43
f 34//35 42//43 41//42
f 35//36 36//37 43//44
f 35//36 43//44 42//43
f 36//37 15//15 43//44
f 38//39 37//38 44//45
f 38//39 44//45 45//46
f 37//38 39//40 46//47
f 37//38 46//47 44//45
f 39//40 40//41 47//48
f 39//40 47//48 46//47
f 40//41 41//42 48//49
f 40//41 48//49 47//48
f 41//42 42//43 49//50
f 41//42 49//50 48//49
f 42//43 43//44 50//51
f 42//43 50//51 49//50
f 43//44 15//15 50//51
f 45//46 44//45 51//52
f 45//46 51//52 52//53
f 44//45 46//47 53//54
f 44//45 53//54 51//52
f 46//47 47//48 54//55
f 46//47 54//55 53//54
f 47//48 48//49 55//56
f 47//48 55//56 54//55
f 48//49 49//50 56//57
f 48//49 56//57 55//56
f 49//50 50//51 57//58
f 49//50 57//58 56//57
f 50//51 15//15 57//58
f 52//53 51//52 58//59
f 52//53 58//59 59//60
f 51//52 53//54 60//61
f 51//52 60//61 58//59
f 53//54 54//55 61//62
f 53//54 61//62 60//61
f 54//55 55//56 62//63
f 54//55 62//63 61//62
f 55//56 56//57 63//64
f 55//56 63//64 62//63
f 56//57 57//58 64//65
f 56//57 64//65 63//64
f 57//58 15//15 64//66
f 59//60 58//59 65//67
f 59//60 65//67 66//68
f 58//59 60//61 67//69
f 58//59 67//69 65//67
f 60//61 61//62 68//70
f 60//61 68//70 67//69
f 61//62 62//63 69//71
f 61//62 69//71 68//70
f 62//63 63//64 70//72
f 62//63 70//72 69//71
f 63//64 64//65 71//73
f 63//64 71//73 70//72
f 64//66 15//15 71//73
f 66//68 65//67 2//2
f 66//68 2//2 1//1
f 65//67 67//69 5//5
f 65//67 5//5 2//2
f 67//69 68//70 7//7
f 67//69 7//7 5//5
f 68//70 69//71 9//9
f 68//70 9//9 7//7
f 69//71 70//72 11//11
f 69//71 11//11 9//9
f 70//72 71//73 13//13
f 70//72 13//13 11//11
f 71//73 15//15 13//13
f 1//74 4//74 17//74
f 1//74 17//74 24//74
f 1//74 24//74 31//74
f 1//74 31//74 38//74
f 1//74 38//74 45//74
f 1//74 45//74 52//74
f 1//74 52//74 59//74
f 1//74 59//74 66//74
