# 
# Wavefront OBJ file
# 3D Pottery Benchmark Ver. 1.0, Multimedia Department,ILSP-Research Centre Athena, Contact Email: Anestis Koutsoudis (akoutsou@ceti.gr)
# 
# object Object01
g Object01
v -1540.35 638.033 -4667.51
v -1667.26 0.0006 -4667.51
v -2678.29 0.00033 1541.05
v -2474.42 1024.94 1541.05
v -1131.1 468.516 2458.05
v -1224.29 0.00029 2458.05
v -892.025 369.489 2693.03
v -965.519 0.00028 2693.03
v -799.188 331.035 2925.56
v -865.034 0.00027 2925.56
v -821.644 340.335 3174.42
v -889.344 0.00026 3174.42
v -884.978 366.571 3423.27
v -957.897 0.00025 3423.27
v -982.388 406.919 3672.12
v -1063.33 0.00024 3672.12
v -1706.32 0.0002 4667.51
v -1576.43 652.978 4667.51
v 145.828 -60.4044 3728.27
v 157.847 0.00024 3728.27
v -1893.83 1893.83 1541.05
v -1178.93 1178.93 -4667.51
v -865.703 865.705 2458.05
v -682.728 682.726 2693.03
v -611.672 611.672 2925.56
v -628.862 628.857 3174.42
v -677.334 677.335 3423.27
v -751.888 751.887 3672.12
v -1206.55 1206.55 4667.51
v 111.616 -111.614 3728.27
v -1024.94 2474.41 1541.05
v -638.034 1540.35 -4667.51
v -468.516 1131.1 2458.05
v -369.488 892.025 2693.03
v -331.038 799.188 2925.56
v -340.337 821.642 3174.42
v -366.572 884.98 3423.27
v -406.916 982.388 3672.12
v -652.978 1576.43 4667.51
v 60.4031 -145.832 3728.27
v 0 2678.29 1541.05
v 0 1667.26 -4667.51
v 0 1224.29 2458.05
v 0 965.521 2693.03
v 0 865.035 2925.56
v 0 889.34 3174.42
v 0 957.896 3423.27
v 0 1063.33 3672.12
v 0 1706.31 4667.51
v 0 -157.846 3728.27
v 1024.93 2474.42 1541.05
v 638.034 1540.35 -4667.51
v 468.513 1131.1 2458.05
v 369.488 892.025 2693.03
v 331.034 799.188 2925.56
v 340.334 821.642 3174.42
v 366.572 884.98 3423.27
v 406.919 982.388 3672.12
v 652.978 1576.43 4667.51
v -60.4031 -145.832 3728.27
v 1893.83 1893.84 1541.05
v 1178.93 1178.93 -4667.51
v 865.706 865.705 2458.05
v 682.725 682.726 2693.03
v 611.675 611.671 2925.56
v 628.859 628.857 3174.42
v 677.334 677.335 3423.27
v 751.888 751.885 3672.12
v 1206.55 1206.55 4667.51
v -111.613 -111.615 3728.27
v 2474.42 1024.94 1541.05
v 1540.35 638.034 -4667.51
v 1131.1 468.515 2458.05
v 892.025 369.489 2693.03
v 799.191 331.035 2925.56
v 821.644 340.335 3174.42
v 884.978 366.571 3423.27
v 982.388 406.917 3672.12
v 1576.43 652.978 4667.51
v -145.831 -60.406 3728.27
v 2678.29 0.00033 1541.05
v 1667.26 0.00138 -4667.51
v 1224.29 0.00029 2458.05
v 965.519 0.00028 2693.03
v 865.038 -0.00129 2925.56
v 889.341 -0.0013 3174.42
v 957.894 -0.00131 3423.27
v 1063.33 -0.00132 3672.12
v 1706.32 -0.00137 4667.51
v -157.847 -0.00133 3728.27
v 2474.42 -1024.94 1541.05
v 1540.35 -638.031 -4667.51
v 1131.1 -468.516 2458.05
v 892.025 -369.49 2693.03
v 799.191 -331.035 2925.56
v 821.644 -340.336 3174.42
v 884.978 -366.571 3423.27
v 982.388 -406.919 3672.12
v 1576.43 -652.979 4667.51
v -145.831 60.4041 3728.27
v 1893.83 -1893.84 1541.05
v 1178.93 -1178.93 -4667.51
v 865.703 -865.704 2458.05
v 682.725 -682.727 2693.03
v 611.672 -611.672 2925.56
v 628.859 -628.858 3174.42
v 677.334 -677.336 3423.27
v 751.888 -751.887 3672.12
v 1206.55 -1206.55 4667.51
v -111.616 111.614 3728.27
v 1024.93 -2474.42 1541.05
v 638.034 -1540.35 -4667.51
v 468.513 -1131.1 2458.05
v 369.488 -892.025 2693.03
v 331.034 -799.189 2925.56
v 340.334 -821.644 3174.42
v 366.572 -884.98 3423.27
v 406.919 -982.387 3672.12
v 652.978 -1576.43 4667.51
v -60.4031 145.831 3728.27
v 0 -2678.29 1541.05
v 0 -1667.26 -4667.51
v 0 -1224.29 2458.05
v 0 -965.522 2693.03
v 0 -865.035 2925.56
v 0 -889.34 3174.42
v 0 -957.897 3423.27
v 0 -1063.33 3672.12
v 0 -1706.31 4667.51
v 0 157.846 3728.27
v -1024.94 -2474.42 1541.05
v -638.031 -1540.35 -4667.51
v -468.516 -1131.1 2458.05
v -369.488 -892.025 2693.03
v -331.038 -799.189 2925.56
v -340.337 -821.643 3174.42
v -366.572 -884.98 3423.27
v -406.916 -982.387 3672.12
v -652.978 -1576.43 4667.51
v 60.4031 145.831 3728.27
v -1893.83 -1893.84 1541.05
v -1178.93 -1178.93 -4667.51
v -865.703 -865.704 2458.05
v -682.728 -682.726 2693.03
v -611.672 -611.672 2925.56
v -628.862 -628.858 3174.42
v -677.334 -677.334 3423.27
v -751.888 -751.886 3672.12
v -1206.55 -1206.55 4667.51
v 111.613 111.615 3728.27
v -2474.42 -1024.94 1541.05
v -1540.35 -638.032 -4667.51
v -1131.1 -468.516 2458.05
v -892.025 -369.488 2693.03
v -799.188 -331.035 2925.56
v -821.644 -340.335 3174.42
v -884.981 -366.57 3423.27
v -982.388 -406.917 3672.12
v -1576.43 -652.979 4667.51
v 145.828 60.4049 3728.27
# 160 verts.
vn -0.911867 0.377711 -0.160727
vn -0.986999 3.03712e-08 -0.160727
vn -0.944798 0.0182398 0.327146
vn -0.840635 0.348207 0.41483
vn -0.542324 0.24535 0.803547
vn -0.605035 0.00455356 0.796186
vn -0.747963 0.318613 0.582269
vn -0.812957 0.00813038 0.582267
vn -0.911733 0.380415 0.155007
vn -0.987911 0.00255693 0.155002
vn -0.908811 0.37536 -0.182116
vn -0.983276 -0.000997384 -0.182119
vn -0.873101 0.360148 -0.328615
vn -0.944463 -0.0013892 -0.328615
vn -0.820694 0.311574 -0.478939
vn -0.890996 -0.0366978 -0.452526
vn -0.778662 0.0184562 -0.627172
vn -0.664027 0.308568 -0.681069
vn -0.415709 0.172189 -0.893049
vn -0.449951 7.06896e-07 -0.893053
vn 0.448163 -0.0891483 0.889496
vn 0.415705 -0.17219 0.893051
vn 0.449954 -1.57088e-07 0.893052
vn -0.636103 0.589156 0.498265
vn -0.65025 0.742599 -0.160383
vn -0.418514 0.456412 0.785197
vn -0.569099 0.580596 0.582267
vn -0.696752 0.700363 0.15501
vn -0.695989 0.694574 -0.182118
vn -0.668821 0.666852 -0.328613
vn -0.626653 0.622966 -0.468209
vn -0.552425 0.524652 -0.647739
vn -0.31817 0.318155 -0.893054
vn 0.379936 -0.253862 0.889496
vn 0.318166 -0.318166 0.893052
vn -0.364438 0.833759 0.414765
vn -0.316573 0.934911 -0.160384
vn -0.22733 0.560722 0.796186
vn -0.303594 0.754186 0.582267
vn -0.375698 0.913686 0.155011
vn -0.377208 0.908046 -0.182117
vn -0.362715 0.872037 -0.328616
vn -0.340554 0.815357 -0.468205
vn -0.309596 0.696122 -0.647739
vn -0.172184 0.415708 -0.893051
vn 0.253862 -0.379936 0.889496
vn 0.172187 -0.415706 0.893051
vn -0.0176295 0.909757 0.414766
vn 0.065302 0.984892 -0.160384
vn 0.00455347 0.605036 0.796185
vn 0.00813095 0.812957 0.582267
vn 0.00255581 0.987909 0.15501
vn -0.000998642 0.983276 -0.182117
vn -0.0013904 0.944462 -0.328619
vn -0.00260969 0.883616 -0.468206
vn -0.019643 0.761612 -0.647736
vn -8.97643e-08 0.449957 -0.89305
vn 0.0891418 -0.448165 0.889495
vn 7.48036e-09 -0.449956 0.893051
vn 0.331862 0.847253 0.414765
vn 0.437234 0.884931 -0.160384
vn 0.235742 0.557236 0.796187
vn 0.318616 0.747964 0.582267
vn 0.380415 0.911732 0.155013
vn 0.375361 0.908811 -0.182118
vn 0.360147 0.8731 -0.328619
vn 0.335736 0.817351 -0.468207
vn 0.273307 0.711154 -0.647737
vn 0.172186 0.415706 -0.893051
vn -0.0891418 -0.448165 0.889495
vn -0.172187 -0.415706 0.893051
vn 0.630831 0.655761 0.414765
vn 0.742598 0.65025 -0.160384
vn 0.431043 0.424604 0.796187
vn 0.580597 0.5691 0.582265
vn 0.700363 0.696752 0.155011
vn 0.694574 0.69599 -0.182113
vn 0.666853 0.668818 -0.328619
vn 0.622968 0.626653 -0.468207
vn 0.52465 0.552427 -0.64774
vn 0.318162 0.318169 -0.893052
vn -0.253862 -0.379936 0.889496
vn -0.318166 -0.318166 0.893052
vn 0.83376 0.364436 0.414766
vn 0.934912 0.31657 -0.160384
vn 0.560722 0.227328 0.796186
vn 0.754188 0.303594 0.582264
vn 0.913687 0.375698 0.155009
vn 0.908048 0.377209 -0.182108
vn 0.872037 0.362714 -0.328617
vn 0.815355 0.340555 -0.468208
vn 0.696119 0.309602 -0.647739
vn 0.4157 0.172196 -0.893052
vn -0.379936 -0.253862 0.889496
vn -0.415704 -0.17219 0.893051
vn 0.909758 0.0176274 0.414765
vn 0.984892 -0.0653014 -0.160384
vn 0.605035 -0.0045533 0.796186
vn 0.812961 -0.00813088 0.582262
vn 0.98791 -0.00255583 0.155006
vn 0.983278 0.000998791 -0.182108
vn 0.944462 0.00138971 -0.328616
vn 0.883613 0.00260695 -0.468211
vn 0.761609 0.0196398 -0.647739
vn 0.449954 4.78743e-07 -0.893052
vn -0.448163 -0.089148 0.889496
vn -0.449954 1.23426e-07 0.893052
vn 0.847251 -0.331865 0.414766
vn 0.88493 -0.437236 -0.160384
vn 0.557236 -0.235744 0.796186
vn 0.747964 -0.318617 0.582266
vn 0.911732 -0.380419 0.155006
vn 0.908813 -0.375361 -0.18211
vn 0.873103 -0.360145 -0.328614
vn 0.81735 -0.335735 -0.46821
vn 0.711153 -0.273307 -0.647738
vn 0.415707 -0.172186 -0.893051
vn -0.448163 0.0891482 0.889496
vn -0.415704 0.172191 0.893051
vn 0.655758 -0.630833 0.414765
vn 0.650249 -0.742599 -0.160384
vn 0.424604 -0.431046 0.796185
vn 0.569098 -0.580598 0.582266
vn 0.696749 -0.700366 0.155008
vn 0.695987 -0.694576 -0.182117
vn 0.66882 -0.666852 -0.328615
vn 0.626653 -0.622966 -0.468208
vn 0.552424 -0.524654 -0.647739
vn 0.318164 -0.318165 -0.893053
vn -0.379936 0.253862 0.889496
vn -0.318166 0.318166 0.893052
vn 0.364435 -0.833761 0.414766
vn 0.316571 -0.934912 -0.160384
vn 0.227329 -0.560722 0.796186
vn 0.303595 -0.754185 0.582267
vn 0.375696 -0.913687 0.155009
vn 0.377207 -0.908046 -0.182118
vn 0.362716 -0.872037 -0.328616
vn 0.340554 -0.815357 -0.468205
vn 0.309598 -0.696121 -0.647739
vn 0.172185 -0.415709 -0.89305
vn -0.253862 0.379936 0.889496
vn -0.172187 0.415706 0.893051
vn 0.0176279 -0.909758 0.414766
vn -0.0653017 -0.984892 -0.160384
vn -0.00455401 -0.605036 0.796185
vn -0.00813004 -0.812957 0.582267
vn -0.00255312 -0.987909 0.155012
vn 0.000998237 -0.983276 -0.182118
vn 0.00138918 -0.944462 -0.328617
vn 0.00260929 -0.883616 -0.468205
vn 0.0196413 -0.761612 -0.647736
vn -1.19686e-07 -0.449956 -0.893051
vn -0.0891418 0.448165 0.889495
vn 1.12205e-08 0.449956 0.893051
vn -0.331864 -0.847252 0.414766
vn -0.437235 -0.884931 -0.160385
vn -0.235743 -0.557236 0.796187
vn -0.318617 -0.747964 0.582266
vn -0.380418 -0.911731 0.155009
vn -0.375359 -0.908813 -0.182113
vn -0.360147 -0.873101 -0.328616
vn -0.335736 -0.817353 -0.468205
vn -0.273306 -0.711154 -0.647738
vn -0.172187 -0.415707 -0.893051
vn 0.0891419 0.448165 0.889495
vn 0.172187 0.415706 0.893051
vn -0.630831 -0.655761 0.414765
vn -0.742598 -0.65025 -0.160384
vn -0.431046 -0.424605 0.796185
vn -0.580597 -0.569098 0.582267
vn -0.700366 -0.69675 0.155006
vn -0.694577 -0.695987 -0.182115
vn -0.666853 -0.66882 -0.328613
vn -0.622967 -0.626654 -0.468207
vn -0.524653 -0.552424 -0.64774
vn -0.318168 -0.318163 -0.893052
vn 0.253862 0.379936 0.889496
vn 0.318166 0.318166 0.893051
vn -0.83376 -0.364436 0.414766
vn -0.934912 -0.31657 -0.160385
vn -0.560721 -0.227329 0.796187
vn -0.754186 -0.303592 0.582267
vn -0.913687 -0.375697 0.155006
vn -0.908046 -0.377208 -0.182118
vn -0.872038 -0.362716 -0.328614
vn -0.815355 -0.340556 -0.468206
vn -0.696117 -0.309607 -0.647739
vn -0.415704 -0.172197 -0.89305
vn 0.379936 0.253862 0.889496
vn 0.415704 0.172191 0.893051
vn 0.448163 0.089148 0.889496
# 192 normals
usemtl (null)
f 1//1 2//2 3//3
f 4//4 1//1 3//3
f 5//5 4//4 3//3
f 5//5 3//3 6//6
f 7//7 6//6 8//8
f 7//7 5//5 6//6
f 9//9 8//8 10//10
f 9//9 7//7 8//8
f 11//11 10//10 12//12
f 11//11 9//9 10//10
f 13//13 12//12 14//14
f 13//13 11//11 12//12
f 15//15 14//14 16//16
f 15//15 13//13 14//14
f 15//15 16//16 17//17
f 18//18 15//15 17//17
f 19//19 17//17 20//20
f 19//21 18//22 17//23
f 21//24 22//25 1//1
f 21//24 1//1 4//4
f 21//24 4//4 5//5
f 23//26 21//24 5//5
f 24//27 5//5 7//7
f 24//27 23//26 5//5
f 25//28 7//7 9//9
f 25//28 24//27 7//7
f 26//29 9//9 11//11
f 26//29 25//28 9//9
f 27//30 11//11 13//13
f 27//30 26//29 11//11
f 28//31 13//13 15//15
f 28//31 27//30 13//13
f 29//32 28//31 15//15
f 29//32 15//15 18//18
f 30//33 18//18 19//19
f 30//34 29//35 18//22
f 31//36 22//25 21//24
f 31//36 32//37 22//25
f 33//38 21//24 23//26
f 33//38 31//36 21//24
f 34//39 23//26 24//27
f 34//39 33//38 23//26
f 35//40 24//27 25//28
f 35//40 34//39 24//27
f 36//41 25//28 26//29
f 36//41 35//40 25//28
f 37//42 26//29 27//30
f 37//42 36//41 26//29
f 38//43 27//30 28//31
f 38//43 37//42 27//30
f 39//44 28//31 29//32
f 39//44 38//43 28//31
f 40//45 29//32 30//33
f 40//46 39//47 29//35
f 41//48 32//37 31//36
f 41//48 42//49 32//37
f 43//50 31//36 33//38
f 43//50 41//48 31//36
f 44//51 33//38 34//39
f 44//51 43//50 33//38
f 45//52 34//39 35//40
f 45//52 44//51 34//39
f 46//53 35//40 36//41
f 46//53 45//52 35//40
f 47//54 36//41 37//42
f 47//54 46//53 36//41
f 48//55 37//42 38//43
f 48//55 47//54 37//42
f 49//56 38//43 39//44
f 49//56 48//55 38//43
f 50//57 39//44 40//45
f 50//58 49//59 39//47
f 51//60 42//49 41//48
f 51//60 52//61 42//49
f 53//62 41//48 43//50
f 53//62 51//60 41//48
f 54//63 43//50 44//51
f 54//63 53//62 43//50
f 55//64 44//51 45//52
f 55//64 54//63 44//51
f 56//65 45//52 46//53
f 56//65 55//64 45//52
f 57//66 46//53 47//54
f 57//66 56//65 46//53
f 58//67 47//54 48//55
f 58//67 57//66 47//54
f 59//68 48//55 49//56
f 59//68 58//67 48//55
f 60//69 49//56 50//57
f 60//70 59//71 49//59
f 61//72 52//61 51//60
f 61//72 62//73 52//61
f 63//74 51//60 53//62
f 63//74 61//72 51//60
f 64//75 53//62 54//63
f 64//75 63//74 53//62
f 65//76 54//63 55//64
f 65//76 64//75 54//63
f 66//77 55//64 56//65
f 66//77 65//76 55//64
f 67//78 56//65 57//66
f 67//78 66//77 56//65
f 68//79 57//66 58//67
f 68//79 67//78 57//66
f 69//80 58//67 59//68
f 69//80 68//79 58//67
f 70//81 59//68 60//69
f 70//82 69//83 59//71
f 71//84 62//73 61//72
f 71//84 72//85 62//73
f 73//86 61//72 63//74
f 73//86 71//84 61//72
f 74//87 63//74 64//75
f 74//87 73//86 63//74
f 75//88 64//75 65//76
f 75//88 74//87 64//75
f 76//89 65//76 66//77
f 76//89 75//88 65//76
f 77//90 66//77 67//78
f 77//90 76//89 66//77
f 78//91 67//78 68//79
f 78//91 77//90 67//78
f 79//92 68//79 69//80
f 79//92 78//91 68//79
f 80//93 69//80 70//81
f 80//94 79//95 69//83
f 81//96 72//85 71//84
f 81//96 82//97 72//85
f 83//98 71//84 73//86
f 83//98 81//96 71//84
f 84//99 73//86 74//87
f 84//99 83//98 73//86
f 85//100 74//87 75//88
f 85//100 84//99 74//87
f 86//101 75//88 76//89
f 86//101 85//100 75//88
f 87//102 76//89 77//90
f 87//102 86//101 76//89
f 88//103 77//90 78//91
f 88//103 87//102 77//90
f 89//104 78//91 79//92
f 89//104 88//103 78//91
f 90//105 79//92 80//93
f 90//106 89//107 79//95
f 91//108 82//97 81//96
f 91//108 92//109 82//97
f 93//110 81//96 83//98
f 93//110 91//108 81//96
f 94//111 83//98 84//99
f 94//111 93//110 83//98
f 95//112 84//99 85//100
f 95//112 94//111 84//99
f 96//113 85//100 86//101
f 96//113 95//112 85//100
f 97//114 86//101 87//102
f 97//114 96//113 86//101
f 98//115 87//102 88//103
f 98//115 97//114 87//102
f 99//116 88//103 89//104
f 99//116 98//115 88//103
f 100//117 89//104 90//105
f 100//118 99//119 89//107
f 101//120 92//109 91//108
f 101//120 102//121 92//109
f 103//122 91//108 93//110
f 103//122 101//120 91//108
f 104//123 93//110 94//111
f 104//123 103//122 93//110
f 105//124 94//111 95//112
f 105//124 104//123 94//111
f 106//125 95//112 96//113
f 106//125 105//124 95//112
f 107//126 96//113 97//114
f 107//126 106//125 96//113
f 108//127 97//114 98//115
f 108//127 107//126 97//114
f 109//128 98//115 99//116
f 109//128 108//127 98//115
f 110//129 99//116 100//117
f 110//130 109//131 99//119
f 111//132 102//121 101//120
f 111//132 112//133 102//121
f 113//134 101//120 103//122
f 113//134 111//132 101//120
f 114//135 103//122 104//123
f 114//135 113//134 103//122
f 115//136 104//123 105//124
f 115//136 114//135 104//123
f 116//137 105//124 106//125
f 116//137 115//136 105//124
f 117//138 106//125 107//126
f 117//138 116//137 106//125
f 118//139 107//126 108//127
f 118//139 117//138 107//126
f 119//140 108//127 109//128
f 119//140 118//139 108//127
f 120//141 109//128 110//129
f 120//142 119//143 109//131
f 121//144 112//133 111//132
f 121//144 122//145 112//133
f 123//146 111//132 113//134
f 123//146 121//144 111//132
f 124//147 113//134 114//135
f 124//147 123//146 113//134
f 125//148 114//135 115//136
f 125//148 124//147 114//135
f 126//149 115//136 116//137
f 126//149 125//148 115//136
f 127//150 116//137 117//138
f 127//150 126//149 116//137
f 128//151 117//138 118//139
f 128//151 127//150 117//138
f 129//152 118//139 119//140
f 129//152 128//151 118//139
f 130//153 119//140 120//141
f 130//154 129//155 119//143
f 131//156 122//145 121//144
f 131//156 132//157 122//145
f 133//158 121//144 123//146
f 133//158 131//156 121//144
f 134//159 123//146 124//147
f 134//159 133//158 123//146
f 135//160 124//147 125//148
f 135//160 134//159 124//147
f 136//161 125//148 126//149
f 136//161 135//160 125//148
f 137//162 126//149 127//150
f 137//162 136//161 126//149
f 138//163 127//150 128//151
f 138//163 137//162 127//150
f 139//164 128//151 129//152
f 139//164 138//163 128//151
f 140//165 129//152 130//153
f 140//166 139//167 129//155
f 141//168 132//157 131//156
f 141//168 142//169 132//157
f 143//170 131//156 133//158
f 143//170 141//168 131//156
f 144//171 133//158 134//159
f 144//171 143//170 133//158
f 145//172 134//159 135//160
f 145//172 144//171 134//159
f 146//173 135//160 136//161
f 146//173 145//172 135//160
f 147//174 136//161 137//162
f 147//174 146//173 136//161
f 148//175 137//162 138//163
f 148//175 147//174 137//162
f 149//176 138//163 139//164
f 149//176 148//175 138//163
f 150//177 139//164 140//165
f 150//178 149//179 139//167
f 151//180 142//169 141//168
f 151//180 152//181 142//169
f 153//182 141//168 143//170
f 153//182 151//180 141//168
f 154//183 143//170 144//171
f 154//183 153//182 143//170
f 155//184 144//171 145//172
f 155//184 154//183 144//171
f 156//185 145//172 146//173
f 156//185 155//184 145//172
f 157//186 146//173 147//174
f 157//186 156//185 146//173
f 158//187 147//174 148//175
f 158//187 157//186 147//174
f 159//188 148//175 149//176
f 159//188 158//187 148//175
f 160//189 149//176 150//177
f 160//190 159//191 149//179
f 3//3 152//181 151//180
f 3//3 2//2 152//181
f 6//6 151//180 153//182
f 6//6 3//3 151//180
f 8//8 153//182 154//183
f 8//8 6//6 153//182
f 10//10 154//183 155//184
f 10//10 8//8 154//183
f 12//12 155//184 156//185
f 12//12 10//10 155//184
f 14//14 156//185 157//186
f 14//14 12//12 156//185
f 16//16 157//186 158//187
f 16//16 14//14 157//186
f 17//17 158//187 159//188
f 17//17 16//16 158//187
f 20//20 159//188 160//189
f 20//192 17//23 159//191
