# 
# Wavefront OBJ file
# 3D Pottery Benchmark Ver. 1.0, Multimedia Department,ILSP-Research Centre Athena, Contact Email: Anestis Koutsoudis (akoutsou@ceti.gr)
# 
# object object
g object
v 0.75 -0.20096 0
v 0 0 0
v 0.75 0 0
v 0 -0.75 0
v 0.54904 -0.54904 0
v 0.20096 -0.75 0
v -0.20096 -0.75 0
v 0 0 0
v 0 -0.75 0
v -0.75 0 0
v -0.54904 -0.54904 0
v -0.75 -0.20096 0
v 0.20096 0.75 0
v 0 0 0
v 0 0.75 0
v 0.54904 0.54904 0
v 0.75 0.20096 0
v -0.75 0.20096 0
v 0 0 0
v -0.75 0 0
v -0.54904 0.54904 0
v -0.20096 0.75 0
v 0.15066 -0.56227 4.46613
v 0.41161 -0.41161 4.46613
v 0.39075 -0.39075 4.75098
v 0.14303 -0.53378 4.75098
v 0.56227 -0.15066 4.46613
v 0.53378 -0.14303 4.75098
v -0.56227 -0.15066 4.46613
v -0.41161 -0.41161 4.46613
v -0.39075 -0.39075 4.75098
v -0.53378 -0.14303 4.75098
v -0.15066 -0.56227 4.46613
v -0.14303 -0.53378 4.75098
v 0.56227 0.15066 4.46613
v 0.41161 0.41161 4.46613
v 0.39075 0.39075 4.75098
v 0.53378 0.14303 4.75098
v 0.15066 0.56227 4.46613
v 0.14303 0.53378 4.75098
v -0.15066 0.56227 4.46613
v -0.41161 0.41161 4.46613
v -0.39075 0.39075 4.75098
v -0.14303 0.53378 4.75098
v -0.56227 0.15066 4.46613
v -0.53378 0.14303 4.75098
v 0.75 -0.20096 4.25
v 0.75 0 4.25
v 0.56227 0 4.46613
v 0 -0.75 4.25
v 0.20096 -0.75 4.25
v 0 -0.56227 4.46613
v 0.18087 -0.675 5
v 0 -0.675 5
v 0 -0.53378 4.75098
v 1.63228 -0.43737 1.32787
v 1.19492 -1.19492 1.32787
v 0.675 -0.18087 5
v 0.49413 -0.49413 5
v 0.54904 -0.54904 4.25
v 0.675 0 5
v 0.53378 0 4.75098
v 0.43737 -1.63228 1.32787
v 1.63228 0 1.32787
v 0 -1.63228 1.32787
v 0.42862 -1.59964 3.17213
v 1.17102 -1.17102 3.17213
v 1.59964 -0.42862 3.17213
v 1.59964 0 3.17213
v 0 -1.59964 3.17213
v 1.77919 -0.47673 2.23463
v 1.30246 -1.30246 2.23463
v 1.77919 0 2.23463
v 0.47673 -1.77919 2.23463
v 0 -1.77919 2.23463
v -0.20096 -0.75 4.25
v 0 -0.75 4.25
v 0 -0.56227 4.46613
v -0.75 0 4.25
v -0.75 -0.20096 4.25
v -0.56227 0 4.46613
v -0.675 -0.18087 5
v -0.675 0 5
v -0.53378 0 4.75098
v -0.43737 -1.63228 1.32787
v -1.19492 -1.19492 1.32787
v -0.18087 -0.675 5
v -0.49413 -0.49413 5
v -0.54904 -0.54904 4.25
v 0 -0.675 5
v 0 -0.53378 4.75098
v -1.63228 -0.43737 1.32787
v 0 -1.63228 1.32787
v -1.63228 0 1.32787
v -1.59964 -0.42862 3.17213
v -1.17102 -1.17102 3.17213
v -0.42862 -1.59964 3.17213
v 0 -1.59964 3.17213
v -1.59964 0 3.17213
v -0.47673 -1.77919 2.23463
v -1.30246 -1.30246 2.23463
v 0 -1.77919 2.23463
v -1.77919 -0.47673 2.23463
v -1.77919 0 2.23463
v 0.20096 0.75 4.25
v 0 0.75 4.25
v 0 0.56227 4.46613
v 0.75 0.20096 4.25
v 0.675 0.18087 5
v 0.43737 1.63228 1.32787
v 1.19492 1.19492 1.32787
v 0.18087 0.675 5
v 0.49413 0.49413 5
v 0.54904 0.54904 4.25
v 0 0.675 5
v 0 0.53378 4.75098
v 1.63228 0.43737 1.32787
v 0 1.63228 1.32787
v 1.59964 0.42862 3.17213
v 1.17102 1.17102 3.17213
v 0.42862 1.59964 3.17213
v 0 1.59964 3.17213
v 0.47673 1.77919 2.23463
v 1.30246 1.30246 2.23463
v 0 1.77919 2.23463
v 1.77919 0.47673 2.23463
v -0.75 0.20096 4.25
v -0.75 0 4.25
v -0.56227 0 4.46613
v 0 0.75 4.25
v -0.20096 0.75 4.25
v 0 0.56227 4.46613
v -0.18087 0.675 5
v 0 0.675 5
v 0 0.53378 4.75098
v -1.63228 0.43737 1.32787
v -1.19492 1.19492 1.32787
v -0.675 0.18087 5
v -0.49413 0.49413 5
v -0.54904 0.54904 4.25
v -0.675 0 5
v -0.53378 0 4.75098
v -0.43737 1.63228 1.32787
v -1.63228 0 1.32787
v -0.42862 1.59964 3.17213
v -1.17102 1.17102 3.17213
v -1.59964 0.42862 3.17213
v -1.59964 0 3.17213
v 0 1.59964 3.17213
v -1.77919 0.47673 2.23463
v -1.30246 1.30246 2.23463
v -1.77919 0 2.23463
v -0.47673 1.77919 2.23463
v 0 1.77919 2.23463
# 154 verts.
vn 0 0 1
vn 0 0 -1
vn 0.599433 -0.104574 -0.793565
vn 0 -0.228211 -0.973612
vn 0.500345 -0.500345 -0.706618
vn 0.151014 -0.714621 -0.683016
vn 0.620226 0 -0.784423
vn 0 0.310113 0.9507
vn 0 0.47254 0.881309
vn 0 0.228211 0.973612
vn 0.228211 0 0.973612
vn 0.47254 0 0.881309
vn 0 -0.47254 -0.881309
vn -0.13345 -0.631505 -0.763801
vn -0.500345 -0.500345 -0.706618
vn -0.631505 -0.13345 -0.763801
vn -0.47254 0 -0.881309
vn 0 0.620226 -0.784423
vn 0.11573 0.663383 -0.739276
vn 0.500345 0.500345 -0.706618
vn 0.663383 0.11573 -0.739276
vn -0.631505 0.13345 -0.763801
vn -0.500345 0.500345 -0.706618
vn -0.11573 0.663383 -0.739276
vn 0.280792 -0.86896 0.40751
vn 0.677646 -0.612151 0.407513
vn 0.655742 -0.753186 -0.0520946
vn 0.224622 -0.958102 -0.177725
vn 0.848487 -0.20761 0.486794
vn 0.96049 -0.257371 -0.105918
vn -0.86896 -0.280792 0.40751
vn -0.612151 -0.677646 0.407513
vn -0.762925 -0.637821 -0.105498
vn -0.944542 -0.249464 -0.21356
vn -0.22896 -0.854493 0.466281
vn -0.281152 -0.951423 -0.125489
vn 0.864592 0.259135 0.4305
vn 0.612151 0.677646 0.407513
vn 0.737338 0.675342 0.0157063
vn 0.976871 0.154079 -0.148267
vn 0.22896 0.854493 0.466281
vn 0.281152 0.951423 -0.125489
vn -0.2574 0.863054 0.434607
vn -0.677646 0.612151 0.407513
vn -0.676577 0.732531 -0.075109
vn 0.268583 -0.872716 -0.407713
vn 0.245365 -0.91567 0.318346
vn 0.602408 -0.732542 0.316995
vn -0.854493 0.22896 0.466281
vn -0.951423 0.281152 -0.125489
vn -0.184951 0.959378 -0.213042
vn 0.739796 -0.177944 0.648874
vn 0.765287 0 0.64369
vn 0.954778 0 0.297318
vn 0 -0.762724 0.646724
vn 0.195762 -0.733706 0.650655
vn 0 -0.968954 0.247241
vn 0.223204 -0.832972 -0.506298
vn 0 -0.869859 -0.4933
vn 0 0.978426 0.206598
vn 0 0.869859 0.4933
vn -0.18439 0.899035 0.39716
vn 0 0.918138 -0.39626
vn 0.89723 -0.274007 -0.346264
vn 0.655222 -0.655222 -0.375989
vn 0.832972 -0.223204 -0.506298
vn 0.609781 -0.609781 -0.506295
vn -0.60978 0.60978 0.506297
vn -0.609781 0.609781 0.506295
vn -0.832971 0.223205 0.506299
vn 0.538529 -0.538529 0.648053
vn -0.832972 0.223204 0.506298
vn -0.869859 0 0.4933
vn 0.986791 0 -0.161999
vn 0.869859 0 -0.4933
vn 0.294787 -0.88533 -0.359571
vn 0.902405 0 -0.430889
vn 0 -0.886433 -0.462858
vn 0.245546 -0.859792 0.447733
vn 0.662144 -0.662144 0.3509
vn 0.875543 -0.22529 0.427399
vn 0.872998 0 0.487724
vn 0 -0.852683 0.522429
vn 0.949475 -0.309624 0.051288
vn 0.706355 -0.706355 -0.0460873
vn 0.999898 0 0.0143034
vn 0.309624 -0.949475 0.051288
vn 0 -0.999898 0.0143034
vn 0 0.931042 0.364911
vn 0 0.999898 -0.0143034
vn 0 0.987128 0.159931
vn 0 0.754967 -0.655763
vn 0 0.770375 -0.637591
vn -0.223204 0.832972 0.506298
vn 0 -0.978426 -0.206598
vn -0.869859 0 0.4933
vn 0 0.785347 -0.619056
vn 0 0.909638 -0.415402
vn 0 0.98215 -0.188101
vn -0.195762 -0.733706 0.650655
vn -0.762724 0 0.646724
vn -0.733706 -0.195762 0.650655
vn -0.968954 0 0.247241
vn -0.832972 -0.223204 -0.506298
vn -0.869859 0 -0.4933
vn 0.978426 0 0.206598
vn 0.869859 0 0.4933
vn 0.923648 0.115175 0.365527
vn -0.978426 0 -0.206598
vn -0.294787 -0.88533 -0.359571
vn -0.655222 -0.655222 -0.375989
vn 0.553684 0.662277 0.5048
vn 0.223204 0.832972 0.506298
vn 0.18439 0.899035 0.39716
vn 0.434949 0.753308 0.493302
vn -0.538529 -0.538529 0.648053
vn 0.832972 0.223204 0.506298
vn -0.64177 -0.576491 -0.505756
vn -0.88533 -0.294787 -0.359571
vn -0.886433 0 -0.462858
vn -0.859792 -0.245546 0.447733
vn -0.662144 -0.662144 0.3509
vn -0.245546 -0.859792 0.447733
vn -0.852683 0 0.522429
vn 0.785347 0 -0.619056
vn 0.909638 0 -0.415402
vn 0.770375 0 -0.637591
vn -0.309624 -0.949475 0.051288
vn -0.706355 -0.706355 -0.0460873
vn 0 -0.999898 0.0143034
vn -0.949475 -0.309624 0.051288
vn -0.999898 0 0.0143034
vn 0.931042 0 0.364911
vn 0.999898 0 -0.0143034
vn 0.987128 0 0.159931
vn 0.754967 0 -0.655763
vn 0.918138 0 -0.39626
vn -0.223204 -0.832972 -0.506298
vn 0.98215 0 -0.188101
vn 0.195762 0.733706 0.650655
vn 0 0.762724 0.646724
vn 0 0.968954 0.247241
vn 0.739796 0.177944 0.648874
vn 0.832972 0.223204 -0.506298
vn 0.294787 0.88533 -0.359571
vn 0.655222 0.655222 -0.375989
vn 0.223204 0.832972 -0.506298
vn 0.553684 0.662277 -0.5048
vn -0.662277 -0.553683 0.504802
vn -0.64177 -0.576491 0.505756
vn -0.18439 -0.899035 0.39716
vn 0.538529 0.538529 0.648053
vn -0.797758 -0.332595 0.502954
vn -0.832972 -0.223204 0.506298
vn -0.223204 -0.832972 0.506298
vn 0 -0.869859 0.4933
vn 0 -0.978426 0.206598
vn 0 -0.918138 -0.39626
vn 0.89723 0.274007 -0.346264
vn 0 0.876365 -0.481647
vn 0.875543 0.225291 0.427399
vn 0.662144 0.662144 0.3509
vn 0.245546 0.859792 0.447733
vn 0 0.852683 0.522429
vn 0.309624 0.949475 0.051288
vn 0.706355 0.706355 -0.0460873
vn 0 0.999898 0.0143034
vn 0.949475 0.309624 0.051288
vn 0 -0.770375 -0.637591
vn 0 -0.754967 -0.655763
vn 0 0.869859 -0.4933
vn 0 0.978426 -0.206598
vn 0 -0.909638 -0.415402
vn 0 -0.785347 -0.619056
vn 0 -0.987128 0.159931
vn 0 -0.999898 -0.0143034
vn 0 -0.98215 -0.188101
vn -0.733706 0.195762 0.650655
vn -0.195762 0.733706 0.650655
vn -0.223204 0.832972 -0.506298
vn -0.88533 0.294787 -0.359571
vn -0.655222 0.655222 -0.375989
vn 0.609781 -0.609781 0.506295
vn 0.832972 -0.223204 0.506298
vn 0.899035 -0.18439 0.39716
vn -0.538529 0.538529 0.648053
vn -0.609781 0.609781 -0.506295
vn -0.832972 0.223204 -0.506298
vn -0.294787 0.88533 -0.359571
vn -0.245546 0.859792 0.447733
vn -0.662144 0.662144 0.3509
vn -0.859792 0.245546 0.447733
vn -0.949475 0.309624 0.051288
vn -0.706355 0.706355 -0.0460873
vn -0.999898 0 0.0143034
vn -0.309624 0.949475 0.051288
vn 0 0.999898 0.0143034
vn 0.223204 -0.832972 0.506298
# 198 normals
usemtl (null)
f 3//1 2//1 1//1
f 2//2 1//3 4//4
f 1//3 5//5 4//4
f 5//5 6//6 4//4
f 3//7 1//3 2//2
f 2//1 5//1 1//1
f 2//1 6//8 5//1
f 6//8 2//1 4//9
f 9//9 8//1 7//10
f 10//11 7//10 8//1
f 10//11 11//1 7//10
f 10//11 12//12 11//1
f 9//13 7//14 8//2
f 7//14 11//15 8//2
f 11//15 12//16 8//2
f 10//17 8//2 12//16
f 15//1 14//1 13//1
f 3//1 13//1 14//1
f 3//1 16//1 13//1
f 3//1 17//1 16//1
f 15//18 13//19 14//2
f 13//19 16//20 14//2
f 16//20 17//21 14//2
f 3//7 14//2 17//21
f 20//12 19//1 18//11
f 15//1 18//11 19//1
f 15//1 21//1 18//11
f 15//1 22//1 21//1
f 20//17 18//22 19//2
f 18//22 21//23 19//2
f 21//23 22//24 19//2
f 15//18 19//2 22//24
f 23//25 24//26 25//27
f 25//27 26//28 23//25
f 24//26 27//29 28//30
f 28//30 25//27 24//26
f 25//27 26//28 23//25
f 23//25 24//26 25//27
f 28//30 25//27 24//26
f 24//26 27//29 28//30
f 29//31 30//32 31//33
f 31//33 32//34 29//31
f 30//32 33//35 34//36
f 34//36 31//33 30//32
f 31//33 32//34 29//31
f 29//31 30//32 31//33
f 34//36 31//33 30//32
f 30//32 33//35 34//36
f 35//37 36//38 37//39
f 37//39 38//40 35//37
f 36//38 39//41 40//42
f 40//42 37//39 36//38
f 37//39 38//40 35//37
f 35//37 36//38 37//39
f 40//42 37//39 36//38
f 36//38 39//41 40//42
f 41//43 42//44 43//45
f 41//46 44//47 43//48
f 42//44 45//49 46//50
f 46//50 43//45 42//44
f 43//45 44//51 41//43
f 41//43 42//44 43//45
f 46//50 43//45 42//44
f 42//44 45//49 46//50
f 27//29 47//52 48//53
f 27//29 48//53 49//54
f 50//55 51//56 23//25
f 52//57 50//55 23//25
f 26//28 53//58 54//59
f 55//60 54//61 26//62
f 52//57 23//25 26//28
f 26//62 52//63 55//60
f 56//64 57//65 5//5
f 1//3 56//64 5//5
f 28//30 58//66 59//67
f 25//68 59//69 28//70
f 51//56 60//71 24//26
f 51//56 24//26 23//25
f 59//67 53//58 26//28
f 25//27 59//67 26//28
f 28//70 58//72 61//73
f 62//74 61//75 28//30
f 28//30 27//29 49//54
f 28//30 49//54 62//74
f 5//5 57//65 63//76
f 5//5 63//76 6//6
f 64//77 56//64 1//3
f 3//7 64//77 1//3
f 24//26 60//71 47//52
f 27//29 24//26 47//52
f 6//6 63//76 65//78
f 6//6 65//78 4//4
f 66//79 67//80 60//71
f 51//56 66//79 60//71
f 60//71 67//80 68//81
f 60//71 68//81 47//52
f 47//52 68//81 69//82
f 47//52 69//82 48//53
f 70//83 66//79 51//56
f 50//55 70//83 51//56
f 56//64 71//84 72//85
f 56//64 72//85 57//65
f 67//80 72//85 71//84
f 67//80 71//84 68//81
f 73//86 71//84 56//64
f 64//77 73//86 56//64
f 68//81 71//84 73//86
f 68//81 73//86 69//82
f 63//76 74//87 75//88
f 65//89 75//90 63//91
f 75//88 74//87 66//79
f 70//83 75//88 66//79
f 72//85 74//87 63//76
f 57//65 72//85 63//76
f 74//87 72//85 67//80
f 66//79 74//87 67//80
f 27//29 47//52 48//53
f 27//29 48//53 49//54
f 50//55 51//56 23//25
f 23//92 50//93 52//63
f 54//61 53//94 26//62
f 26//28 54//59 55//95
f 52//57 23//25 26//28
f 55//95 52//57 26//28
f 56//64 57//65 5//5
f 1//3 56//64 5//5
f 59//69 58//72 28//70
f 28//30 59//67 25//27
f 60//71 24//26 23//25
f 51//56 60//71 23//25
f 26//62 53//94 59//69
f 26//62 59//69 25//68
f 61//75 58//66 28//30
f 28//70 61//73 62//96
f 28//30 27//29 49//54
f 28//30 49//54 62//74
f 5//5 57//65 63//76
f 5//5 63//76 6//6
f 64//77 56//64 1//3
f 3//7 64//77 1//3
f 27//29 24//26 60//71
f 27//29 60//71 47//52
f 6//6 63//76 65//78
f 4//9 65//89 6//8
f 66//79 67//80 60//71
f 51//56 66//79 60//71
f 60//71 67//80 68//81
f 60//71 68//81 47//52
f 47//52 68//81 69//82
f 47//52 69//82 48//53
f 70//83 66//79 51//56
f 51//97 70//98 50//93
f 56//64 71//84 72//85
f 56//64 72//85 57//65
f 67//80 72//85 71//84
f 67//80 71//84 68//81
f 73//86 71//84 56//64
f 64//77 73//86 56//64
f 68//81 71//84 73//86
f 68//81 73//86 69//82
f 63//76 74//87 75//88
f 63//76 75//88 65//78
f 75//88 74//87 66//79
f 66//99 75//90 70//98
f 72//85 74//87 63//76
f 57//65 72//85 63//76
f 74//87 72//85 67//80
f 66//79 74//87 67//80
f 33//35 76//100 77//55
f 33//35 77//55 78//57
f 79//101 80//102 29//31
f 81//103 79//101 29//31
f 32//34 82//104 83//105
f 84//106 83//107 32//108
f 81//103 29//31 32//34
f 84//109 81//103 32//34
f 85//110 86//111 11//15
f 7//14 85//110 11//15
f 88//112 87//113 34//114
f 31//115 88//112 34//114
f 80//102 89//116 30//32
f 80//102 30//32 29//31
f 32//108 82//117 88//112
f 31//33 88//118 32//34
f 34//114 87//113 90//61
f 91//95 90//59 34//36
f 34//36 33//35 78//57
f 34//36 78//57 91//95
f 11//15 86//111 92//119
f 11//15 92//119 12//16
f 93//78 85//110 7//14
f 9//13 93//78 7//14
f 30//32 89//116 76//100
f 33//35 30//32 76//100
f 12//16 92//119 94//120
f 12//16 94//120 10//17
f 95//121 96//122 89//116
f 80//102 95//121 89//116
f 89//116 96//122 97//123
f 89//116 97//123 76//100
f 76//100 97//123 98//83
f 76//100 98//83 77//55
f 99//124 95//121 80//102
f 80//125 99//126 79//127
f 85//110 100//128 101//129
f 85//110 101//129 86//111
f 96//122 101//129 100//128
f 96//122 100//128 97//123
f 102//130 100//128 85//110
f 85//91 102//90 93//89
f 97//123 100//128 102//130
f 98//98 102//90 97//99
f 92//119 103//131 104//132
f 94//133 104//134 92//135
f 104//132 103//131 95//121
f 99//124 104//132 95//121
f 101//129 103//131 92//119
f 86//111 101//129 92//119
f 103//131 101//129 96//122
f 95//121 103//131 96//122
f 33//35 76//100 77//55
f 78//63 77//93 33//92
f 79//101 80//102 29//31
f 29//136 79//127 81//137
f 83//107 82//117 32//108
f 32//34 83//105 84//109
f 81//103 29//31 32//34
f 32//108 81//137 84//106
f 85//110 86//111 11//15
f 7//14 85//110 11//15
f 34//36 87//138 88//118
f 34//36 88//118 31//33
f 89//116 30//32 29//31
f 80//102 89//116 29//31
f 88//118 82//104 32//34
f 31//33 88//118 32//34
f 90//59 87//138 34//36
f 34//114 90//61 91//60
f 34//36 33//35 78//57
f 91//60 78//63 34//114
f 11//15 86//111 92//119
f 11//15 92//119 12//16
f 93//78 85//110 7//14
f 7//10 93//89 9//9
f 33//35 30//32 89//116
f 33//35 89//116 76//100
f 12//16 92//119 94//120
f 10//11 94//133 12//12
f 95//121 96//122 89//116
f 80//102 95//121 89//116
f 89//116 96//122 97//123
f 89//116 97//123 76//100
f 76//100 97//123 98//83
f 77//93 98//98 76//97
f 99//124 95//121 80//102
f 79//101 99//124 80//102
f 85//110 100//128 101//129
f 85//110 101//129 86//111
f 96//122 101//129 100//128
f 96//122 100//128 97//123
f 102//130 100//128 85//110
f 93//78 102//130 85//110
f 97//123 100//128 102//130
f 97//123 102//130 98//83
f 92//119 103//131 104//132
f 92//119 104//132 94//120
f 104//132 103//131 95//121
f 95//139 104//134 99//126
f 101//129 103//131 92//119
f 86//111 101//129 92//119
f 103//131 101//129 96//122
f 95//121 103//131 96//122
f 39//41 105//140 106//141
f 39//41 106//141 107//142
f 48//53 108//143 35//37
f 49//54 48//53 35//37
f 38//40 109//144 61//75
f 38//40 61//75 62//74
f 49//54 35//37 38//40
f 62//74 49//54 38//40
f 110//145 111//146 16//20
f 13//19 110//145 16//20
f 40//42 112//147 113//148
f 37//149 113//150 40//151
f 108//143 114//152 36//38
f 108//143 36//38 35//37
f 38//153 109//154 113//150
f 38//153 113//150 37//149
f 40//151 112//155 115//156
f 40//151 115//156 116//157
f 40//42 39//41 107//142
f 116//157 107//158 40//151
f 16//20 111//146 117//159
f 16//20 117//159 17//21
f 118//160 110//145 13//19
f 15//18 118//160 13//19
f 36//38 114//152 105//140
f 39//41 36//38 105//140
f 17//21 117//159 64//77
f 17//21 64//77 3//7
f 119//161 120//162 114//152
f 108//143 119//161 114//152
f 114//152 120//162 121//163
f 114//152 121//163 105//140
f 105//140 121//163 122//164
f 105//140 122//164 106//141
f 69//82 119//161 108//143
f 48//53 69//82 108//143
f 110//145 123//165 124//166
f 110//145 124//166 111//146
f 120//162 124//166 123//165
f 120//162 123//165 121//163
f 125//167 123//165 110//145
f 118//160 125//167 110//145
f 121//163 123//165 125//167
f 121//163 125//167 122//164
f 117//159 126//168 73//86
f 117//159 73//86 64//77
f 73//86 126//168 119//161
f 69//82 73//86 119//161
f 124//166 126//168 117//159
f 111//146 124//166 117//159
f 126//168 124//166 120//162
f 119//161 126//168 120//162
f 39//41 105//140 106//141
f 107//158 106//169 39//170
f 48//53 108//143 35//37
f 49//54 48//53 35//37
f 61//73 109//154 38//153
f 38//40 61//75 62//74
f 49//54 35//37 38//40
f 62//74 49//54 38//40
f 110//145 111//146 16//20
f 13//19 110//145 16//20
f 113//150 112//155 40//151
f 40//42 113//148 37//39
f 114//152 36//38 35//37
f 108//143 114//152 35//37
f 113//148 109//144 38//40
f 38//153 113//150 37//149
f 115//171 112//147 40//42
f 116//172 115//171 40//42
f 40//42 39//41 107//142
f 40//42 107//142 116//172
f 16//20 111//146 117//159
f 16//20 117//159 17//21
f 118//160 110//145 13//19
f 15//18 118//160 13//19
f 39//41 36//38 114//152
f 39//41 114//152 105//140
f 17//21 117//159 64//77
f 17//21 64//77 3//7
f 119//161 120//162 114//152
f 108//143 119//161 114//152
f 114//152 120//162 121//163
f 114//152 121//163 105//140
f 105//140 121//163 122//164
f 106//169 122//173 105//174
f 69//82 119//161 108//143
f 48//53 69//82 108//143
f 110//145 123//165 124//166
f 110//145 124//166 111//146
f 120//162 124//166 123//165
f 120//162 123//165 121//163
f 125//167 123//165 110//145
f 110//175 125//176 118//175
f 121//163 123//165 125//167
f 122//173 125//176 121//177
f 117//159 126//168 73//86
f 117//159 73//86 64//77
f 73//86 126//168 119//161
f 69//82 73//86 119//161
f 124//166 126//168 117//159
f 111//146 124//166 117//159
f 126//168 124//166 120//162
f 119//161 126//168 120//162
f 45//49 127//178 128//101
f 45//49 128//101 129//103
f 130//141 131//179 41//43
f 132//142 130//141 41//43
f 44//51 133//180 134//171
f 44//51 134//171 135//172
f 132//142 41//43 44//51
f 44//47 132//158 135//157
f 136//181 137//182 21//23
f 18//22 136//181 21//23
f 139//183 138//184 46//185
f 43//48 139//183 46//185
f 131//179 140//186 42//44
f 131//179 42//44 41//43
f 139//187 133//180 44//51
f 43//45 139//187 44//51
f 141//105 138//188 46//50
f 142//109 141//105 46//50
f 46//50 45//49 129//103
f 46//50 129//103 142//109
f 21//23 137//182 143//189
f 21//23 143//189 22//24
f 144//120 136//181 18//22
f 20//17 144//120 18//22
f 42//44 140//186 127//178
f 45//49 42//44 127//178
f 22//24 143//189 118//160
f 22//24 118//160 15//18
f 145//190 146//191 140//186
f 131//179 145//190 140//186
f 140//186 146//191 147//192
f 140//186 147//192 127//178
f 127//178 147//192 148//124
f 127//178 148//124 128//101
f 149//164 145//190 131//179
f 130//141 149//164 131//179
f 136//181 150//193 151//194
f 136//181 151//194 137//182
f 146//191 151//194 150//193
f 146//191 150//193 147//192
f 152//195 150//193 136//181
f 144//120 152//195 136//181
f 147//192 150//193 152//195
f 148//126 152//134 147//139
f 143//189 153//196 154//197
f 118//175 154//176 143//175
f 154//197 153//196 145//190
f 145//177 154//176 149//173
f 151//194 153//196 143//189
f 137//182 151//194 143//189
f 153//196 151//194 146//191
f 145//190 153//196 146//191
f 45//49 127//178 128//101
f 129//137 128//127 45//136
f 130//141 131//179 41//43
f 41//46 130//169 132//158
f 134//156 133//198 44//47
f 135//157 134//156 44//47
f 132//142 41//43 44//51
f 135//172 132//142 44//51
f 136//181 137//182 21//23
f 18//22 136//181 21//23
f 46//50 138//188 139//187
f 46//50 139//187 43//45
f 140//186 42//44 41//43
f 131//179 140//186 41//43
f 44//47 133//198 139//183
f 44//47 139//183 43//48
f 46//185 138//184 141//107
f 46//185 141//107 142//106
f 46//50 45//49 129//103
f 142//106 129//137 46//185
f 21//23 137//182 143//189
f 21//23 143//189 22//24
f 144//120 136//181 18//22
f 18//11 144//133 20//12
f 45//49 42//44 140//186
f 45//49 140//186 127//178
f 22//24 143//189 118//160
f 22//24 118//160 15//18
f 145//190 146//191 140//186
f 131//179 145//190 140//186
f 140//186 146//191 147//192
f 140//186 147//192 127//178
f 127//178 147//192 148//124
f 128//127 148//126 127//125
f 149//164 145//190 131//179
f 131//174 149//173 130//169
f 136//181 150//193 151//194
f 136//181 151//194 137//182
f 146//191 151//194 150//193
f 146//191 150//193 147//192
f 152//195 150//193 136//181
f 136//135 152//134 144//133
f 147//192 150//193 152//195
f 147//192 152//195 148//124
f 143//189 153//196 154//197
f 143//189 154//197 118//160
f 154//197 153//196 145//190
f 149//164 154//197 145//190
f 151//194 153//196 143//189
f 137//182 151//194 143//189
f 153//196 151//194 146//191
f 145//190 153//196 146//191
