# 
# Wavefront OBJ file
# 3D Pottery Benchmark Ver. 1.0, Multimedia Department,ILSP-Research Centre Athena, Contact Email: Anestis Koutsoudis (akoutsou@ceti.gr)
# 
# object object
g object
v 605.899 174.903 15.4256
v 610.357 170.444 15.4256
v 605.899 157.458 15.4256
v 610.357 161.917 15.4256
v 623.343 174.903 15.4256
v 618.885 170.444 15.4256
v 618.885 161.917 15.4256
v 623.343 157.458 15.4256
v 623.343 174.903 83.1622
v 621.033 172.593 83.1622
v 623.343 157.458 83.1622
v 605.899 174.903 83.1622
v 608.209 172.593 83.1622
v 621.033 159.768 83.1622
v 608.209 159.768 83.1622
v 605.899 157.458 83.1622
v 620.792 172.352 0
v 608.45 172.352 0
v 608.45 160.009 0
v 620.792 160.009 0
v 623.343 174.903 93.5668
v 623.343 157.458 93.5668
v 620.351 171.911 80.9272
v 620.351 160.45 80.9272
v 619.779 171.339 78.4892
v 619.779 161.023 78.4892
v 619.325 170.884 75.8851
v 619.325 161.477 75.8851
v 618.995 170.555 73.1542
v 618.995 161.807 73.1542
v 618.795 170.355 70.3376
v 618.795 162.006 70.3376
v 618.728 162.073 67.4778
v 618.728 170.288 67.4778
v 618.795 170.355 64.6181
v 618.795 162.006 64.6181
v 618.995 170.555 61.8014
v 618.995 161.807 61.8014
v 619.325 170.884 59.0705
v 619.325 161.477 59.0705
v 619.779 171.339 56.4664
v 619.779 161.023 56.4664
v 620.351 171.911 54.0284
v 620.351 160.45 54.0284
v 621.033 172.593 51.7934
v 621.033 159.768 51.7934
v 621.855 173.415 49.0264
v 621.855 158.946 49.0264
v 622.512 174.072 45.9698
v 622.512 158.289 45.9698
v 622.99 174.55 42.6911
v 622.99 157.811 42.6911
v 623.278 174.838 39.2625
v 623.278 157.523 39.2625
v 623.37 174.93 35.7595
v 623.37 157.432 35.7595
v 623.263 174.823 32.2595
v 623.263 157.538 32.2595
v 622.961 157.84 28.8394
v 622.961 174.521 28.8394
v 622.469 158.332 25.5748
v 622.469 174.029 25.5748
v 621.799 173.359 22.5375
v 621.799 159.002 22.5375
v 620.966 172.526 19.7946
v 620.966 159.836 19.7946
v 619.987 171.547 17.4064
v 619.987 160.815 17.4064
v 623.343 174.903 4.19287
v 623.343 157.458 4.19287
v 605.899 157.458 93.5668
v 608.89 160.45 80.9272
v 609.463 161.023 78.4892
v 609.917 161.477 75.8851
v 610.247 161.807 73.1542
v 610.447 162.006 70.3376
v 610.513 162.073 67.4778
v 610.447 162.006 64.6181
v 610.247 161.807 61.8014
v 609.917 161.477 59.0705
v 609.463 161.023 56.4664
v 608.89 160.45 54.0284
v 608.209 159.768 51.7934
v 607.387 158.946 49.0264
v 606.73 158.289 45.9698
v 606.252 157.811 42.6911
v 605.964 157.523 39.2625
v 605.872 157.432 35.7595
v 605.978 157.538 32.2595
v 606.281 157.84 28.8394
v 606.772 158.332 25.5748
v 607.442 159.002 22.5375
v 608.276 159.836 19.7946
v 609.255 160.815 17.4064
v 605.899 157.458 4.19287
v 605.899 174.903 93.5668
v 608.89 171.911 80.9272
v 609.463 171.339 78.4892
v 609.917 170.884 75.8851
v 610.247 170.555 73.1542
v 610.447 170.355 70.3376
v 610.513 170.288 67.4778
v 610.447 170.355 64.6181
v 610.247 170.555 61.8014
v 609.917 170.884 59.0705
v 609.463 171.339 56.4664
v 608.89 171.911 54.0284
v 608.209 172.593 51.7934
v 607.387 173.415 49.0264
v 606.73 174.072 45.9698
v 606.252 174.55 42.6911
v 605.964 174.838 39.2625
v 605.872 174.93 35.7595
v 605.978 174.823 32.2595
v 606.281 174.521 28.8394
v 606.772 174.029 25.5748
v 607.442 173.359 22.5375
v 608.276 172.526 19.7946
v 609.255 171.547 17.4064
v 605.899 174.903 4.19287
# 120 verts.
vn -0.436436 -0.218218 0.872872
vn 0 0 1
vn -0.333333 0.666667 0.666667
vn 0.436436 0.218218 0.872872
vn 0.333333 -0.666667 0.666667
vn 0.436436 -0.218218 -0.872872
vn 0.200132 0.200132 -0.959111
vn 0.333333 0.666667 -0.666667
vn -0.436436 0.218218 -0.872872
vn -0.266943 0.533821 -0.802357
vn 0.533781 -0.266891 -0.802401
vn -0.328036 -0.327997 -0.885895
vn -0.333333 -0.666667 -0.666667
vn 0 0 -1
vn 0.816497 0.408248 0.408248
vn 0.420543 -0.84105 -0.340263
vn 0.660721 0.660721 -0.356224
vn 0.769809 -0.578477 -0.269736
vn 0.679307 0.679285 -0.277693
vn 0.543746 -0.816669 -0.193371
vn 0.782994 0.586473 -0.207292
vn 0.793186 -0.595369 -0.128034
vn 0.549657 0.823859 -0.138323
vn 0.705539 -0.705548 -0.066461
vn 0.798109 0.598358 -0.0706429
vn 0.599994 -0.799991 -0.00468196
vn 0.599994 0.799991 0.00468318
vn 0.705803 -0.705288 0.0664155
vn 0.829804 0.553409 0.0718545
vn 0.792592 -0.59398 0.137791
vn 0.550048 0.825735 0.124937
vn 0.543126 -0.813641 0.207371
vn 0.783936 0.588713 0.197136
vn 0.862598 -0.431279 0.264429
vn 0.534114 0.802715 0.265274
vn 0.420543 -0.84105 0.340263
vn 0.66072 0.660721 0.356224
vn 0.737291 -0.553173 0.387817
vn 0.65058 0.650579 0.391781
vn 0.523504 -0.787835 0.324437
vn 0.752154 0.562263 0.343691
vn 0.683836 -0.686593 0.246898
vn 0.686593 0.683837 0.246895
vn 0.790283 -0.593404 0.152724
vn 0.547497 0.820287 0.165458
vn 0.553209 -0.830257 0.0680649
vn 0.797417 0.597747 0.0826079
vn 0.894422 -0.447215 -0.00288951
vn 0.554686 0.832045 0.00489507
vn 0.445804 -0.891612 -0.0792961
vn 0.704626 0.704626 -0.0836908
vn 0.822303 -0.547532 -0.155004
vn 0.819391 0.54693 -0.171658
vn 0.68398 -0.68398 -0.25366
vn 0.433985 0.86797 -0.241422
vn 0.750067 0.560642 -0.350827
vn 0.520662 -0.778291 -0.350961
vn 0.635119 -0.628034 -0.449665
vn 0.740351 0.496343 -0.453347
vn 0.661435 -0.491351 -0.566637
vn 0.462799 0.700762 -0.542909
vn 0.555723 -0.555722 -0.618341
vn 0.555687 0.555567 -0.618512
vn 0.666667 -0.333333 -0.666667
vn 0.408248 0.816497 -0.408248
vn -0.816497 -0.408248 0.408248
vn -0.66071 -0.660671 -0.356337
vn -0.768411 -0.575163 -0.280592
vn -0.543126 -0.81364 -0.207371
vn -0.792591 -0.59398 -0.137793
vn -0.599026 -0.798409 -0.0609139
vn -0.832035 -0.554686 0.0063994
vn -0.553604 -0.83072 0.0585457
vn -0.793186 -0.595369 0.128032
vn -0.543746 -0.816669 0.193371
vn -0.67927 -0.679269 0.277824
vn -0.66071 -0.660671 0.356337
vn -0.737131 -0.552608 0.388924
vn -0.522097 -0.780573 0.343688
vn -0.774986 -0.580071 0.250825
vn -0.698784 -0.697155 0.160236
vn -0.55294 -0.828974 0.0840264
vn -0.707102 -0.707105 -0.00294671
vn -0.828524 -0.552674 -0.0900016
vn -0.441589 -0.883168 -0.158158
vn -0.868002 -0.433991 -0.241296
vn -0.522076 -0.785784 -0.331634
vn -0.717467 -0.5411 -0.438694
vn -0.579058 -0.590194 -0.562462
vn -0.358388 -0.716775 -0.598157
vn -0.408248 -0.816497 -0.408248
vn -0.841112 0.42055 -0.340101
vn -0.431272 0.862555 -0.264582
vn -0.783936 0.588713 -0.197136
vn -0.550048 0.825735 -0.124939
vn -0.705279 0.705804 -0.0665087
vn -0.832035 0.554686 -0.0063982
vn -0.705545 0.705542 0.0664648
vn -0.549657 0.823859 0.138322
vn -0.782994 0.586473 0.207292
vn -0.53319 0.798227 0.280253
vn -0.841112 0.42055 0.340101
vn -0.414691 0.829331 0.374488
vn -0.754259 0.567552 0.330119
vn -0.538607 0.809536 0.233569
vn -0.697156 0.698784 0.160231
vn -0.79782 0.598681 0.0711688
vn -0.554677 0.831996 -0.0107892
vn -0.829909 0.55296 -0.0740671
vn -0.697243 0.697236 -0.166477
vn -0.684005 0.68399 -0.253563
vn -0.752174 0.566073 -0.337336
vn -0.403534 0.80711 -0.430969
vn -0.590173 0.578956 -0.562588
vn -0.716738 0.358292 -0.598259
vn -0.666667 0.333333 -0.666667
# 116 normals
usemtl (null)
f 3//1 2//2 1//3
f 2//2 3//1 4//2
f 1//3 2//2 5//4
f 2//2 6//2 5//4
f 4//2 3//1 7//2
f 7//2 5//4 6//2
f 5//4 7//2 8//5
f 7//2 3//1 8//5
f 11//6 10//7 9//8
f 9//8 10//7 12//9
f 13//10 12//9 10//7
f 10//7 11//6 14//11
f 14//11 11//6 15//12
f 15//12 12//9 13//10
f 12//9 15//12 16//13
f 15//12 11//6 16//13
f 19//14 18//14 17//14
f 19//14 17//14 20//14
f 11//6 9//8 21//15
f 11//6 21//15 22//5
f 14//11 24//16 23//17
f 23//17 10//7 14//11
f 26//18 25//19 23//17
f 23//17 24//16 26//18
f 26//18 28//20 27//21
f 27//21 25//19 26//18
f 30//22 29//23 27//21
f 27//21 28//20 30//22
f 30//22 32//24 31//25
f 31//25 29//23 30//22
f 31//25 32//24 33//26
f 34//27 31//25 33//26
f 36//28 35//29 34//27
f 36//28 34//27 33//26
f 38//30 37//31 35//29
f 35//29 36//28 38//30
f 38//30 40//32 39//33
f 39//33 37//31 38//30
f 42//34 41//35 39//33
f 39//33 40//32 42//34
f 42//34 44//36 43//37
f 43//37 41//35 42//34
f 46//38 45//39 43//37
f 43//37 44//36 46//38
f 46//38 48//40 47//41
f 47//41 45//39 46//38
f 50//42 49//43 47//41
f 47//41 48//40 50//42
f 52//44 51//45 49//43
f 52//44 49//43 50//42
f 52//44 54//46 53//47
f 53//47 51//45 52//44
f 56//48 55//49 53//47
f 53//47 54//46 56//48
f 56//48 58//50 57//51
f 57//51 55//49 56//48
f 57//51 58//50 59//52
f 60//53 57//51 59//52
f 60//53 59//52 61//54
f 61//54 62//55 60//53
f 63//56 62//55 61//54
f 61//54 64//57 63//56
f 66//58 65//59 63//56
f 63//56 64//57 66//58
f 68//60 67//61 65//59
f 66//58 68//60 65//59
f 68//60 7//62 6//63
f 6//63 67//61 68//60
f 70//64 69//65 5//4
f 70//64 5//4 8//5
f 16//13 11//6 22//5
f 16//13 22//5 71//66
f 15//12 72//67 24//16
f 24//16 14//11 15//12
f 73//68 26//18 24//16
f 24//16 72//67 73//68
f 74//69 28//20 26//18
f 73//68 74//69 26//18
f 75//70 30//22 28//20
f 74//69 75//70 28//20
f 30//22 75//70 76//71
f 32//24 30//22 76//71
f 33//26 32//24 76//71
f 76//71 77//72 33//26
f 78//73 36//28 33//26
f 33//26 77//72 78//73
f 79//74 38//30 36//28
f 78//73 79//74 36//28
f 38//30 79//74 80//75
f 40//32 38//30 80//75
f 81//76 42//34 40//32
f 80//75 81//76 40//32
f 81//76 82//77 44//36
f 44//36 42//34 81//76
f 83//78 46//38 44//36
f 44//36 82//77 83//78
f 84//79 48//40 46//38
f 84//79 46//38 83//78
f 85//80 50//42 48//40
f 85//80 48//40 84//79
f 86//81 52//44 50//42
f 86//81 50//42 85//80
f 87//82 54//46 52//44
f 87//82 52//44 86//81
f 88//83 56//48 54//46
f 88//83 54//46 87//82
f 58//50 56//48 88//83
f 88//83 89//84 58//50
f 90//85 59//52 58//50
f 58//50 89//84 90//85
f 90//85 91//86 61//54
f 61//54 59//52 90//85
f 92//87 64//57 61//54
f 61//54 91//86 92//87
f 64//57 92//87 93//88
f 93//88 66//58 64//57
f 94//89 68//60 66//58
f 93//88 94//89 66//58
f 4//90 7//62 68//60
f 94//89 4//90 68//60
f 95//91 70//64 8//5
f 95//91 8//5 3//1
f 12//9 16//13 71//66
f 12//9 71//66 96//3
f 97//92 72//67 15//12
f 15//12 13//10 97//92
f 97//92 98//93 73//68
f 73//68 72//67 97//92
f 99//94 74//69 73//68
f 73//68 98//93 99//94
f 99//94 100//95 75//70
f 75//70 74//69 99//94
f 101//96 76//71 75//70
f 75//70 100//95 101//96
f 102//97 77//72 76//71
f 102//97 76//71 101//96
f 77//72 102//97 103//98
f 78//73 77//72 103//98
f 103//98 104//99 79//74
f 79//74 78//73 103//98
f 105//100 80//75 79//74
f 79//74 104//99 105//100
f 105//100 106//101 81//76
f 81//76 80//75 105//100
f 107//102 82//77 81//76
f 81//76 106//101 107//102
f 107//102 108//103 83//78
f 83//78 82//77 107//102
f 109//104 84//79 83//78
f 83//78 108//103 109//104
f 109//104 110//105 85//80
f 85//80 84//79 109//104
f 111//106 86//81 85//80
f 111//106 85//80 110//105
f 112//107 87//82 86//81
f 86//81 111//106 112//107
f 112//107 113//108 88//83
f 88//83 87//82 112//107
f 114//109 89//84 88//83
f 88//83 113//108 114//109
f 89//84 114//109 115//110
f 90//85 89//84 115//110
f 91//86 90//85 115//110
f 115//110 116//111 91//86
f 117//112 92//87 91//86
f 91//86 116//111 117//112
f 117//112 118//113 93//88
f 93//88 92//87 117//112
f 119//114 94//89 93//88
f 118//113 119//114 93//88
f 2//115 4//90 94//89
f 94//89 119//114 2//115
f 120//116 95//91 3//1
f 120//116 3//1 1//3
f 9//8 12//9 96//3
f 9//8 96//3 21//15
f 23//17 97//92 13//10
f 13//10 10//7 23//17
f 23//17 25//19 98//93
f 98//93 97//92 23//17
f 27//21 99//94 98//93
f 27//21 98//93 25//19
f 29//23 100//95 99//94
f 29//23 99//94 27//21
f 100//95 29//23 31//25
f 101//96 100//95 31//25
f 101//96 31//25 34//27
f 34//27 102//97 101//96
f 34//27 35//29 103//98
f 103//98 102//97 34//27
f 103//98 35//29 37//31
f 104//99 103//98 37//31
f 104//99 37//31 39//33
f 105//100 104//99 39//33
f 41//35 106//101 105//100
f 41//35 105//100 39//33
f 43//37 107//102 106//101
f 106//101 41//35 43//37
f 43//37 45//39 108//103
f 108//103 107//102 43//37
f 47//41 109//104 108//103
f 47//41 108//103 45//39
f 49//43 110//105 109//104
f 47//41 49//43 109//104
f 51//45 111//106 110//105
f 51//45 110//105 49//43
f 53//47 112//107 111//106
f 51//45 53//47 111//106
f 55//49 113//108 112//107
f 55//49 112//107 53//47
f 57//51 114//109 113//108
f 113//108 55//49 57//51
f 57//51 60//53 115//110
f 115//110 114//109 57//51
f 62//55 116//111 115//110
f 115//110 60//53 62//55
f 62//55 63//56 117//112
f 117//112 116//111 62//55
f 63//56 65//59 118//113
f 118//113 117//112 63//56
f 67//61 119//114 118//113
f 65//59 67//61 118//113
f 6//63 2//115 119//114
f 67//61 6//63 119//114
f 69//65 120//116 1//3
f 69//65 1//3 5//4
f 96//3 71//66 22//5
f 96//3 22//5 21//15
f 70//64 95//91 120//116
f 70//64 120//116 69//65
