# 
# Wavefront OBJ file
# 3D Pottery Benchmark Ver. 1.0, Multimedia Department,ILSP-Research Centre Athena, Contact Email: Anestis Koutsoudis (akoutsou@ceti.gr)
# 
# object object
g object
v 162.947 -163.9 -36.325
v -253.08 65.4554 -42.8748
v -115.653 -189.532 7.11834
v -19.0967 -13.1296 125.027
v 96.7239 217.766 201.461
v 2.90757 -45.6116 -259.235
v -66.8406 -189.674 -199.158
v 267.919 220.915 -192.901
v -273.019 173.705 -269.31
v -158.435 -67.8698 -164.842
v 191.458 -2.67005 -53.5041
v -327.895 180.163 -9.94159
v 129.3 -16.4018 -214.758
v 88.9232 -144.922 -147.09
v 49.2369 -171.375 76.3279
v 62.0008 39.3483 130.944
v 119.817 -176.754 -172.082
v 84.6996 79.3236 -296.568
v 162.273 -169.211 -86.6671
v -191.121 -16.1752 9.38062
v 266.956 228.54 26.1853
v -73.2973 -149.062 12.2324
v -89.8662 79.226 -312.408
v -44.8824 -179.535 80.181
v 124.913 129.325 135.651
v 153.188 -166.433 -7.69366
v 126.624 -47.3153 58.1455
v 19.4186 -140.181 47.014
v -86.5908 -33.3171 -249.51
v -91.0228 178.409 -382.676
v -132.903 -196.015 -113.807
v -106.895 127.204 170.077
v -77.7657 -158.346 -143.013
v 177.169 203.148 -315.414
v 99.0263 -138.508 9.49571
v -209.157 75.9841 68.9366
v -25.6468 -139.262 -219.912
v -107.933 -93.1361 62.3645
v 145.741 -103.317 -145.704
v -214.548 61.5052 -209.312
v 94.1903 -142.102 -193.114
v 28.2212 -181.518 -218.657
v 55.2528 -111.97 85.2818
v 17.4867 -119.489 -45.2385
v 166.893 -91.8849 -54.1561
v -197.841 -36.8216 -100.179
v -208.76 196.211 170.008
v 202.216 150.117 -236.991
v -137.357 -149.663 -7.55503
v 23.0566 145.708 -356.301
v 253.341 165.839 -119.299
v 223.478 118.976 -5.38696
v 176.405 55.1135 44.8738
v 45.6497 -185.194 -204.186
v -80.8018 211.548 227.625
v 18.5608 143.563 186.035
v 13.3462 -187.628 -207.282
v -140.461 -6.9256 81.376
v 121.295 -142.974 -106.012
v 139.973 -164.482 -14.6647
v 71.9906 -169.598 77.1577
v -320.788 173.391 -176.231
v 184.859 -1.51462 -130.118
v -105.524 -152.885 -173.173
v 36.4853 -151.518 -216.365
v -6.75733 60.3565 -310.901
v -20.0372 -118.945 91.5384
v -28.5862 -165.305 60.9256
v 160.603 -143.385 -84.3701
v -148.702 -146.223 -92.6061
v -110.643 -196.072 -151.453
v -61.7488 -193.109 -187.465
v -221.557 169.166 -316.047
v 142.426 -173.317 -124.116
v 120.624 -141.063 39.9715
v 205.943 228.426 128.811
v 126.513 44.5708 95.8
v -307.063 182.227 48.0608
v -229.758 29.4804 -128.836
v -96.3233 -176.33 51.8651
v -139.481 -185.599 -17.258
v -133.774 -193.884 -49.0604
v 74.8962 -38.7585 -243.584
# 83 verts.
vn -0.943875 -0.282589 -0.171008
vn -0.766811 -0.452247 -0.455493
vn -0.714211 -0.249235 -0.654053
vn -0.101123 -0.35269 0.93026
vn -0.2045 -0.213581 0.955282
vn 0.230223 -0.211457 0.949886
vn -0.833091 -0.530279 0.157367
vn -0.830921 -0.516153 -0.207741
vn -0.888553 -0.456791 -0.0425987
vn 0.366296 -0.331838 0.869316
vn 0.156446 -0.41684 0.895415
vn 0.883188 -0.365881 0.293447
vn 0.803867 -0.290489 0.519051
vn 0.933653 -0.302055 0.192497
vn -0.187622 -0.971669 -0.143724
vn 0.404377 -0.846869 0.345387
vn -0.651201 -0.740858 -0.164518
vn -0.303214 -0.898403 -0.317699
vn -0.0218969 -0.801626 -0.597424
vn 0.0454738 -0.873625 -0.48447
vn 0.29277 -0.224172 -0.929533
vn 0.125248 -0.452759 -0.882792
vn -0.139666 -0.365282 -0.92036
vn 0.919837 -0.319868 -0.227123
vn 0.68802 -0.335896 -0.643275
vn 0.752956 -0.442724 -0.486881
vn 0.916169 -0.391262 -0.0868798
vn 0.0271313 -0.382477 -0.923567
vn -0.374388 -0.435438 -0.818675
vn 0.0600975 -0.460734 -0.885501
vn -0.253134 -0.536443 -0.805079
vn -0.798483 -0.569958 -0.193836
vn -0.637773 -0.55172 -0.537448
vn 0.366801 -0.36026 -0.857712
vn 0.439778 -0.445744 -0.779684
vn 0.710073 -0.238211 0.66261
vn -0.810024 -0.56901 0.141737
vn -0.804362 -0.438362 0.40105
vn -0.660264 -0.498753 0.561513
vn 0.983969 -0.11202 0.138765
vn 0.883867 -0.169144 -0.436085
vn 0.285165 -0.954797 -0.083922
vn -0.246918 -0.615804 -0.748209
vn 0.0269159 -0.999595 0.00922427
vn -0.445759 -0.872445 0.200347
vn 0.177954 -0.983787 0.0222832
vn 0.433473 -0.858147 -0.27511
vn -0.225162 -0.937777 0.26434
vn 0.573401 -0.370204 0.730863
vn 0.673037 -0.455568 0.582648
vn 0.539903 -0.230937 -0.809427
vn 0.600374 -0.46013 -0.654088
vn -0.192467 -0.872274 0.44955
vn -0.579048 -0.711099 0.3988
vn 0.688069 -0.128475 -0.714182
vn -0.539746 -0.415707 0.732026
vn -0.291173 -0.474103 0.83093
vn -0.0892008 -0.903195 0.419859
vn -0.673128 -0.425704 0.60471
vn 0.339422 -0.419227 0.842046
vn 0.194702 -0.77827 -0.596982
vn -0.451929 -0.602664 -0.65769
vn -0.567639 -0.262523 0.7803
vn 0.59916 -0.317277 0.73508
vn 0.832903 -0.0550891 0.55067
vn 0.905051 0.0923608 0.415154
vn 0.991874 -0.0233836 0.12506
vn 0.139413 -0.496095 -0.857003
vn -0.166789 -0.571287 -0.803624
vn -0.88486 -0.25969 0.386762
vn -0.0400931 -0.996748 -0.0699058
vn 0.358894 -0.816486 -0.452267
vn 0.871563 -0.413256 -0.263814
vn -0.0846882 -0.989584 -0.116414
vn -0.467781 -0.846513 -0.254158
vn -0.719262 -0.561257 0.409453
vn -0.620788 -0.672618 0.40275
vn -0.387834 -0.771901 0.50374
vn 0.354608 -0.123515 0.926821
vn 0.959685 -0.0265735 -0.279818
vn -0.870881 -0.438901 0.221206
vn -0.463728 -0.522682 0.715374
vn 0.911455 -0.365281 0.189263
vn -0.0684966 -0.467918 0.881114
vn -0.313128 -0.809297 -0.49698
vn -0.0246178 -0.14656 0.988895
vn -0.6512 -0.592767 -0.473884
vn 0.911214 -0.0718193 -0.405625
vn 0.874741 0.0987593 -0.47442
# 89 normals
usemtl (null)
f 70//1 10//2 64//3
f 4//4 67//5 43//6
f 2//7 79//8 46//9
f 4//4 16//10 56//11
f 52//12 53//13 11//14
f 71//15 33//16 31//17
f 35//18 15//19 28//20
f 65//21 42//22 37//23
f 63//24 13//25 48//26
f 52//12 63//24 51//27
f 6//28 29//29 66//30
f 66//30 29//29 23//31
f 29//29 37//23 64//3
f 62//32 40//33 79//8
f 13//25 83//34 18//35
f 16//10 43//6 27//36
f 2//7 12//37 62//32
f 2//7 20//38 36//39
f 45//40 39//41 63//24
f 72//42 7//43 37//23
f 44//44 59//45 35//18
f 82//46 22//47 3//48
f 25//49 56//11 16//10
f 76//50 25//49 52//12
f 13//25 39//41 41//51
f 34//52 48//26 18//35
f 14//53 74//54 59//45
f 17//55 41//51 39//41
f 58//56 32//57 36//39
f 24//58 80//59 3//48
f 5//60 56//11 25//49
f 68//61 24//58 22//47
f 28//20 22//47 44//44
f 73//62 23//31 40//33
f 4//4 38//63 67//5
f 22//47 24//58 3//48
f 77//64 27//36 53//13
f 5//60 25//49 76//50
f 45//40 75//65 26//66
f 1//67 45//40 26//66
f 4//4 43//6 16//10
f 35//18 28//20 44//44
f 10//2 40//33 29//29
f 37//23 29//29 6//28
f 66//30 50//68 18//35
f 23//31 73//62 30//69
f 49//70 20//38 46//9
f 64//3 31//17 70//1
f 58//56 20//38 38//63
f 57//71 42//22 54//72
f 82//46 33//16 22//47
f 18//35 50//68 34//52
f 48//26 34//52 8//73
f 1//74 26//74 60//75
f 78//76 2//7 36//39
f 65//21 37//23 6//28
f 7//43 64//3 37//23
f 32//57 58//56 4//4
f 20//38 49//70 38//63
f 13//25 63//24 39//41
f 59//45 74//54 19//77
f 10//2 46//9 79//8
f 29//29 40//33 23//31
f 65//21 83//34 41//51
f 54//72 41//51 17//55
f 17//78 14//53 54//72
f 37//23 42//22 57//71
f 61//79 27//36 43//6
f 33//16 14//53 44//44
f 33//16 44//44 22//47
f 11//14 27//36 45//40
f 69//80 45//40 1//67
f 20//38 2//7 46//9
f 3//48 49//70 81//81
f 36//39 32//57 47//82
f 36//39 47//82 78//76
f 13//25 18//35 48//26
f 51//27 48//26 8//73
f 31//17 81//81 70//1
f 3//48 80//59 49//70
f 30//69 50//68 23//31
f 21//83 52//12 51//27
f 21//83 51//27 8//73
f 53//13 52//12 25//49
f 11//14 63//24 52//12
f 27//36 11//14 53//13
f 16//10 77//64 25//49
f 42//22 65//21 54//72
f 33//16 57//71 14//53
f 32//57 55//84 47//82
f 32//57 56//11 55//84
f 32//57 4//4 56//11
f 55//84 56//11 5//60
f 37//23 57//71 72//42
f 54//72 14//53 57//71
f 38//63 4//4 58//56
f 20//38 58//56 36//39
f 14//53 59//45 44//44
f 14//53 17//78 74//54
f 35//18 60//75 61//85
f 35//18 59//45 60//75
f 15//86 61//79 43//6
f 15//19 35//18 61//85
f 9//87 40//33 62//32
f 11//14 45//40 63//24
f 51//27 63//24 48//26
f 71//15 64//3 7//43
f 10//2 29//29 64//3
f 83//34 65//21 6//28
f 41//51 54//72 65//21
f 18//35 83//34 66//30
f 50//68 66//30 23//31
f 24//58 67//5 38//63
f 28//20 15//19 68//61
f 28//20 68//61 22//47
f 39//41 45//40 69//80
f 74//88 69//80 19//89
f 46//9 70//1 49//70
f 46//9 10//2 70//1
f 31//17 64//3 71//15
f 72//42 71//15 7//43
f 33//16 71//15 72//42
f 33//16 72//42 57//71
f 9//87 73//62 40//33
f 39//41 74//88 17//55
f 39//41 69//80 74//88
f 27//36 75//65 45//40
f 27//36 61//79 75//65
f 21//83 76//50 52//12
f 16//10 27//36 77//64
f 25//49 77//64 53//13
f 12//37 2//7 78//76
f 2//7 62//32 79//8
f 10//2 79//8 40//33
f 38//63 80//59 24//58
f 38//63 49//70 80//59
f 31//17 82//46 81//81
f 70//1 81//81 49//70
f 81//81 82//46 3//48
f 31//17 33//16 82//46
f 13//25 41//51 83//34
f 66//30 83//34 6//28
