# 
# Wavefront OBJ file
# 3D Pottery Benchmark Ver. 1.0, Multimedia Department,ILSP-Research Centre Athena, Contact Email: Anestis Koutsoudis (akoutsou@ceti.gr)
# 
# object object
g object
v -168.679 261.012 -325.34
v -97.9452 -214.876 36.371
v 142.75 -207.704 -101.727
v 237.376 186.225 151.912
v -166.299 -52.7657 -187.667
v -288.686 212.622 93.5894
v 185.608 76.3484 -210.213
v -39.1324 -138.308 -205.455
v -151.264 11.226 95.4275
v 106.197 -158.972 -89.372
v 15.5085 91.5475 -305.058
v 136.566 -42.1755 60.3936
v 217.712 247.083 -285.522
v -57.3804 180.931 257.041
v 30.1182 -97.72 -255.304
v 317.33 212.352 -17.4526
v -83.014 -186.459 -240.861
v -310.564 245.933 -149.561
v -169.445 -177.698 -77.8408
v 14.4081 -165.115 17.1059
v -148.833 78.8786 -255.047
v 179.108 -42.7016 -135.841
v -134.092 31.4177 -248.792
v -74.4029 -165.173 -243.158
v -24.9616 -15.1866 137.518
v -121.685 -157.143 -52.4392
v -253.461 97.925 -95.763
v 74.7613 -198.312 33.1397
v 243.234 91.3585 -9.81209
v -197.024 5.73145 30.0885
v 177.183 58.2255 94.0212
v 82.5102 -182.041 -228.022
v 104.438 -45.5393 -235.546
v -96.5991 -199.311 36.5185
v 79.2748 35.8141 150.857
v -14.6518 -174.533 -238.38
v -181.156 197.513 215.684
v 289.587 236.921 -191.105
v 14.7105 -205.308 37.2226
v 5.43412 -101.379 96.2974
v -236.948 97.3409 -150.587
v 172.13 -86.356 -61.5604
v 128.624 -200.179 -25.0564
v -137.324 196.723 -308.971
v -24.7925 116.959 215.39
v 132.591 63.2974 -253.896
v 304.03 198.885 18.9703
v -175.978 -135.011 -86.22
v -156.124 -170.842 -164.076
v -150.171 -197.473 -50.354
v -95.9146 -114.535 66.7896
v 124.83 -209.622 -40.5408
v -163.794 -103.877 1.15781
v -65.0523 262.075 -364.682
v -102.583 -119.372 -228.92
v -119.922 57.2598 -266.252
v -54.3503 20.1037 -280.782
v 149.943 190.123 232.416
v -148.198 -183.261 -143.056
v -118.69 -144.414 -138.454
v -158.77 50.2033 -236.04
v 138.977 -149.923 -148.519
v 143.044 -176.355 -72.9221
v 2.21174 -154.653 -252.009
v -230.679 88.2042 49.4213
v -322.894 229.418 -13.6028
v 90.8833 -185.88 -199.619
v 47.9507 247.44 -360.723
v 93.6997 211.252 -332.753
v 149.914 251.149 -331.803
v 80.6717 239.341 -350.392
v 114.608 238.311 -339.286
v 212.342 51.2555 -145.195
v 80.2332 -161.873 -25.6039
v 134.203 -154.149 -20.1637
v 227.862 83.5127 34.9658
v -10.9027 -203.423 60.0828
v 243.236 238.805 -255.374
v -197.673 155.503 161.318
v -87.572 43.1434 154.902
v -119.103 177.755 234.346
v -253.59 256.366 -253.28
v 47.4848 -22.617 -267.155
v 174.436 160.75 -267.303
v 280.595 177.229 -121.602
v -247.408 95.6759 11.493
v -104.925 -200.138 6.97914
v -62.5718 -203.052 30.9017
v -65.9912 -158.094 -4.5295
v -192.272 -82.3102 -72.6264
v -114.083 -27.5644 101.026
v -54.3337 -128.146 -248.478
v 13.8371 186.466 -337.457
v -133.429 257.615 -341.237
v -97.3546 108.138 -293.577
v 185.397 182.155 200.086
v 118.436 -169.727 -184.091
v 103.835 -126.262 -210.404
v 15.5139 -139.575 -205.402
v -159.457 -149.632 -23.964
v -137.837 -194.534 0.101226
v -208.471 162.91 -239.902
v 225.971 45.3784 -59.4513
v 79.5561 -209.119 11.1441
v 105.478 94.5657 177.747
v -227.178 23.6799 -71.7762
v -147.048 -182.321 -76.188
v -173.984 -191.109 -108.851
v 92.6828 -98.2123 66.2518
v 41.4864 -183.311 -248.283
v 72.6381 77.4012 -289.493
v -23.1132 -145.598 -84.196
v 32.3807 -180.212 -235.976
v -193.372 -23.5198 -152.625
v -44.7116 -180.039 58.643
v -113.651 -184.687 25.7071
v 192.926 -20.2785 -27.2589
v 254.661 174.868 -181.936
v -310.669 222.101 47.536
v -73.8207 -156.026 -206.144
v 84.4657 -146 -150.724
v 52.9218 -58.392 107.002
v 164.479 18.5513 -203.838
v 136.213 -75.264 -195.109
v -2.38717 61.9882 180.791
v -59.8281 214.002 -342.112
v 35.1773 187.956 267.792
v -145.886 -148.187 -179.913
v -25.6493 -43.9692 -270.813
v -88.0238 -73.6382 -246.638
v -139.133 -62.2073 60.9902
v 60.2054 -156.459 54.3232
v -319.449 225.442 9.88513
v 148.063 -157.009 -87.8026
v -120.634 120.819 189.505
v -270.491 206.314 -185.039
v -289.572 196.483 -126.469
v 31.8315 -182.582 20.4444
v 23.7556 -159.782 -3.05108
v 54.222 -142.466 -240.68
v 118.79 -190.59 -10.9128
v -159.711 -162.634 -150.333
v -136.736 -162.815 -89.1658
v 155.248 -86.2743 -3.19423
v -149.784 80.9072 144.335
v 140.585 -204.721 -125.167
v -65.184 -9.80208 132.385
v -176.064 26.3693 -208.264
v 252.42 162.79 94.3623
v 2.20896 -176.354 62.8162
v -292.536 174.8 -37.7466
v -254.99 169.743 97.6329
v -205.304 -34.6786 -97.1476
v 149.98 92.0499 148.285
v -156.285 -201.444 -26.6185
v -123.807 -39.4005 -235.276
v 210.043 27.7462 -2.77506
v 140.958 -196.507 -55.6163
v -123.684 -179.019 -188.192
v 116.033 -16.5372 97.5296
v -30.776 98.8002 -306.99
v 57.499 147.768 232.198
v 126.658 -201.041 -63.6036
v 284.206 161.226 -53.5644
v -143.081 131.513 -278.812
v 109.101 -160.412 14.2247
v -136.408 -158.768 -191.748
v -186.767 107.551 -234.156
v -199.063 115.738 125.704
v -178.61 -121.171 -67.4283
v -107.689 -164.186 -24.4019
v -210.197 -17.1163 -37.3557
v -5.05649 13.574 -284.047
v 317.34 216.705 -52.617
v -122.539 -132.986 36.8986
v 56.0231 -148.713 -193.197
v 74.6412 -62.9533 -248.548
v 89.9533 -152.555 -82.0807
v -180.721 -91.1422 -137.151
v -220.836 32.6797 -126.12
v -236.92 204.337 169.334
v -277.926 170.637 44.5849
v 162.503 21.4473 80.0607
v -254.431 92.4694 -54.0936
v 75.0476 137.914 -309.354
v -74.1075 -139.317 -191.447
v -51.4734 -137.01 -190.539
v -35.1299 -180.869 -245.375
v -31.7172 -105.83 92.8847
v -171.713 220.021 -299.698
v -59.0441 -216.65 44.5204
v 144.027 -161.903 -60.1533
v 206.565 5.43142 -92.6022
v -242.618 229.301 -242.7
v -300.639 200.933 -89.0984
v 112.77 6.44214 -246.747
v -195.558 23.19 -179.146
v -48.3572 -165.165 -251.708
v -268.757 204.277 121.111
v 131.825 -180.608 -34.4703
v -45.9967 148.851 -321.012
v 198.257 123.477 129.269
v -146.029 -162.416 -8.12149
v 56.4657 -186.179 44.5952
v 132.031 -191.5 -163.683
v -24.7289 -216.157 48.9231
v 217.397 140.522 -211.152
v 157.128 -90.9761 -149.031
v -293.075 232.647 -170.296
v -174.716 -61.7903 15.9509
v 100.346 -194.48 -209.68
v 89.2686 -152.074 -217.526
v -169.511 -172.382 -88.6804
v 17.1661 -152.447 -37.0137
v 10.2254 -127.124 -251.479
v -188.302 51.7169 85.3816
v 19.9324 94.7895 200.849
v 269.032 149.719 28.1116
v -67.44 63.4067 173.952
# 219 verts.
vn -0.613515 -0.126673 0.779457
vn -0.612486 -0.0397713 0.78948
vn -0.415155 -0.0483455 0.908465
vn 0.347031 -0.506336 0.789426
vn -0.0427699 -0.459982 0.886898
vn 0.278362 -0.456371 0.845127
vn -0.697516 -0.488042 0.524678
vn -0.732122 -0.531933 0.425494
vn -0.591211 -0.541361 0.597828
vn 0.793013 -0.494854 0.355316
vn 0.679893 -0.46094 0.570333
vn 0.843562 -0.457417 0.281379
vn -0.28377 -0.257485 -0.923675
vn -0.524664 -0.29682 -0.797889
vn -0.419906 -0.299459 -0.85674
vn -0.78579 -0.436704 -0.437978
vn -0.694863 -0.422924 -0.581637
vn -0.790154 -0.410774 -0.454886
vn 0.0421357 -0.362634 -0.930979
vn 0.151796 -0.336314 -0.929436
vn 0.292911 -0.420706 -0.858609
vn -0.720273 -0.534343 -0.442362
vn -0.50369 -0.458723 -0.732032
vn -0.478711 -0.763194 -0.434017
vn -0.953631 -0.241449 0.179693
vn -0.972618 -0.220189 -0.0743767
vn -0.991106 -0.0907244 0.0973529
vn 0.828167 -0.174755 0.53254
vn 0.891014 0.0700222 0.448544
vn 0.914501 -0.0811147 0.39637
vn -0.445346 -0.882623 0.150477
vn -0.773551 -0.612674 0.162017
vn -0.688505 -0.706235 -0.164902
vn 0.177227 -0.877039 -0.446535
vn -0.00224225 -0.994828 -0.101551
vn -0.0583194 -0.984605 -0.164777
vn -0.543175 -0.277315 -0.792501
vn -0.355455 -0.297205 -0.886183
vn 0.186635 -0.196442 -0.962589
vn -0.0508902 -0.212915 -0.975744
vn 0.276849 -0.226089 -0.933937
vn -0.179992 -0.417943 0.890464
vn -0.260633 -0.456263 0.85082
vn 0.958821 -0.201326 0.200325
vn 0.932312 -0.355736 0.0651658
vn 0.877094 -0.295684 0.37852
vn 0.719551 -0.357412 -0.595402
vn 0.732894 -0.307392 -0.60694
vn 0.547147 -0.312411 -0.77655
vn 0.782589 -0.4422 -0.438193
vn 0.728412 -0.406905 -0.55122
vn 0.739557 -0.30005 -0.602516
vn 0.11678 -0.545179 0.830146
vn 0.342146 -0.563304 0.752081
vn 0.164934 -0.58012 0.797657
vn 0.779239 -0.272606 -0.564333
vn 0.913247 -0.138742 -0.383054
vn 0.671693 -0.189161 -0.716273
vn 0.774748 -0.509907 0.373845
vn 0.654957 -0.550257 0.517927
vn 0.449124 -0.890318 0.0749805
vn 0.813036 -0.566723 0.13341
vn 0.58616 -0.650051 0.483581
vn -0.983405 -0.181014 0.0121948
vn -0.858623 -0.420237 -0.293543
vn -0.896352 -0.420265 -0.141172
vn -0.910932 -0.185253 0.368624
vn 0.506874 -0.822015 -0.259558
vn -0.894999 -0.272349 -0.353273
vn -0.924857 -0.248875 -0.287579
vn -0.945249 -0.300201 -0.127996
vn 0.905792 -0.423331 -0.0182173
vn 0.861854 -0.45016 -0.233588
vn 0.862773 -0.505588 -0.00207779
vn 0.980675 -0.192439 -0.0352797
vn 0.911796 -0.295933 -0.284694
vn -0.368311 -0.19627 -0.908749
vn -0.560738 -0.221859 -0.797716
vn -0.706285 -0.280569 -0.649955
vn -0.83478 -0.072188 -0.545831
vn -0.583033 -0.131681 -0.801706
vn -0.740183 -0.0573693 -0.669954
vn 0.533861 -0.430523 0.727766
vn 0.0141793 -0.531332 0.847045
vn 0.20552 -0.673054 -0.710465
vn 0.440046 -0.627493 -0.642349
vn -0.851401 -0.439181 -0.286768
vn -0.844031 -0.355233 -0.401772
vn -0.801305 -0.45029 0.393889
vn -0.881523 -0.433065 0.188076
vn -0.828083 -0.392439 0.400338
vn 0.105321 -0.312838 0.943949
vn 0.288407 -0.316924 0.903538
vn 0.39354 -0.346084 0.851676
vn 0.8551 -0.377828 -0.355034
vn 0.886162 -0.338061 -0.316908
vn 0.947779 -0.266003 0.175949
vn 0.78988 -0.246131 0.561702
vn 0.888775 -0.363747 0.278869
vn -0.945062 -0.313749 0.0917532
vn -0.696675 -0.459151 0.551202
vn -0.603499 -0.444346 0.662077
vn 0.888932 -0.400441 0.222369
vn 0.731994 -0.438025 0.521842
vn 0.437082 -0.444095 0.782138
vn 0.42416 -0.195865 -0.884152
vn 0.562329 -0.229786 -0.794345
vn 0.084802 0.0490315 -0.995191
vn 0.378072 -0.0548482 -0.92415
vn 0.315849 0.0775407 -0.945636
vn 0.299327 -0.288941 -0.90935
vn 0.513192 -0.279495 -0.81149
vn -0.840122 -0.368953 0.397578
vn -0.666963 -0.389252 0.63533
vn 0.16121 -0.424514 0.890954
vn 0.570698 -0.469751 0.673526
vn 0.137214 -0.813728 0.564818
vn 0.326273 -0.710623 0.623347
vn 0.1425 -0.703027 0.696741
vn -0.621374 -0.600545 0.50323
vn -0.357438 -0.544386 0.758869
vn -0.334924 -0.452554 0.826451
vn -0.463021 -0.486948 0.740604
vn 0.875876 -0.458947 0.149028
vn -0.125529 -0.674627 -0.727407
vn 0.0411397 -0.590373 -0.806082
vn -0.399776 -0.565677 -0.721241
vn -0.352207 -0.482654 0.80187
vn -0.444466 -0.430662 0.78548
vn 0.705765 -0.306909 0.638516
vn 0.528154 -0.43562 0.728895
vn -0.525421 -0.327305 -0.785369
vn -0.701925 -0.295981 -0.64784
vn -0.838865 -0.279106 -0.467338
vn -0.785343 -0.247307 -0.567517
vn 0.813719 -0.376304 0.443009
vn 0.926066 -0.367068 -0.0875332
vn 0.986877 -0.131926 0.093112
vn -0.190776 -0.189643 -0.963141
vn -0.909396 -0.383412 -0.161229
vn -0.199067 -0.499846 0.842927
vn -0.221749 -0.496471 0.839252
vn 0.541028 -0.401565 -0.738941
vn 0.304929 -0.325736 -0.894938
vn 0.838876 -0.507621 0.196491
vn -0.965042 -0.00189269 -0.26209
vn -0.261491 -0.24103 0.934627
vn -0.996736 0.040435 -0.0698721
vn 0.737174 -0.517221 -0.434808
vn 0.82502 -0.54152 -0.161546
vn 0.550245 -0.627625 -0.550743
vn 0.057749 -0.257629 0.964517
vn -0.934161 -0.314265 0.169061
vn -0.808641 -0.574947 -0.124641
vn -0.710774 -0.612296 -0.346257
vn -0.789406 -0.176761 0.587872
vn -0.695706 -0.320227 0.642999
vn -0.374158 -0.259808 -0.890228
vn -0.201636 -0.397126 -0.89534
vn -0.216438 -0.0580621 -0.974568
vn 0.0770525 -0.136597 -0.987626
vn -0.447454 -0.0214662 -0.894049
vn 0.0421646 -0.260615 -0.964522
vn -0.074194 -0.55896 0.825869
vn 0.0948289 -0.590987 0.801088
vn 0.334459 -0.799459 0.499001
vn -0.138285 -0.918726 0.369892
vn 0.091447 -0.977549 0.18983
vn 0.771406 -0.632241 -0.072133
vn -0.686374 -0.36685 -0.627943
vn 0.98436 -0.0620986 -0.164862
vn 0.80474 -0.0178625 -0.593358
vn 0.993665 -0.110195 0.0220476
vn -0.830261 -0.506229 0.233234
vn -0.888844 -0.457447 0.0264469
vn -0.682087 -0.483212 0.548875
vn -0.952493 -0.260926 0.157084
vn -0.317418 -0.621831 0.715941
vn -0.444804 -0.721845 0.530179
vn 0.370577 -0.393463 -0.841344
vn 0.297814 -0.3649 -0.882131
vn 0.682979 -0.172293 -0.709827
vn 0.270959 -0.418642 -0.866788
vn -0.21038 -0.907821 -0.362769
vn -0.332224 -0.916441 -0.223074
vn 0.961018 -0.0278966 0.275075
vn 0.855859 -0.271483 -0.44023
vn -0.534699 -0.495213 0.684734
vn -0.532971 -0.401359 -0.744885
vn -0.370796 -0.359291 -0.8564
vn 0.865701 -0.476009 -0.154846
vn -0.936696 -0.349164 0.0261666
vn -0.916798 -0.398689 0.0229756
vn 0.211174 -0.852743 -0.47774
vn -0.465178 -0.371531 0.803476
vn -0.169352 0.0584996 -0.983818
vn -0.112389 -0.279785 -0.953462
vn -0.154218 -0.314395 -0.936682
vn 0.0798837 -0.298682 -0.951003
vn -0.485858 -0.126765 -0.864796
vn 0.513302 -0.559853 0.650451
vn 0.75572 0.0770841 -0.650342
vn 0.671693 0.00857286 -0.74078
vn -0.0560342 -0.664722 0.744986
vn -0.842724 -0.325121 0.429083
vn -0.876415 -0.0713781 0.476238
vn -0.638038 -0.311637 -0.704124
vn -0.259906 -0.41367 -0.87254
vn 0.632222 -0.518006 0.576164
vn -0.909069 -0.321101 -0.265497
vn -0.749187 -0.0613907 0.659508
vn -0.953225 -0.14506 0.26518
vn 0.332578 -0.751078 0.570328
vn -0.907539 0.062255 -0.415327
vn -0.97758 0.183507 -0.103258
vn -0.685363 -0.430004 -0.587686
vn 0.592238 0.0845265 -0.801317
vn 0.497992 -0.305842 0.811459
vn 0.922935 -0.0138787 -0.384705
vn -0.798213 -0.463352 0.384916
vn -0.766094 -0.443274 0.465411
vn 0.101784 -0.690663 -0.715978
# 222 normals
usemtl (null)
f 116//1 2//2 34//3
f 35//4 25//5 122//6
f 181//7 152//8 79//9
f 76//10 183//11 157//12
f 57//13 23//14 56//15
f 209//16 194//17 136//18
f 93//19 68//20 69//21
f 52//22 104//23 74//24
f 170//25 48//26 19//27
f 141//28 43//29 200//30
f 121//31 146//32 10//33
f 89//34 112//35 214//36
f 56//15 21//37 95//38
f 15//39 129//40 83//41
f 189//42 25//5 147//43
f 192//44 42//45 75//46
f 7//47 123//48 46//49
f 118//50 207//51 78//52
f 217//53 105//54 162//55
f 124//56 62//57 98//58
f 149//59 202//60 76//10
f 60//61 59//62 159//63
f 66//64 18//65 195//66
f 170//25 19//27 100//67
f 26//68 60//61 112//35
f 114//69 179//70 153//71
f 103//72 85//73 164//74
f 134//75 208//76 42//45
f 129//40 130//77 57//13
f 156//78 148//79 23//14
f 156//78 23//14 57//13
f 128//80 55//81 167//82
f 160//83 183//11 35//4
f 125//84 25//5 35//4
f 88//85 87//86 89//34
f 137//87 136//18 41//88
f 65//89 86//90 30//91
f 150//92 204//93 132//94
f 123//48 73//95 22//96
f 16//97 4//98 47//99
f 90//100 179//70 48//26
f 216//101 30//91 9//102
f 117//103 157//12 12//104
f 105//54 58//105 162//55
f 177//106 33//107 98//58
f 64//108 140//109 110//110
f 111//111 196//112 83//41
f 123//48 22//96 124//56
f 30//91 210//113 131//114
f 40//115 122//6 25//5
f 96//116 4//98 58//105
f 8//117 120//118 188//119
f 121//31 67//120 146//32
f 135//121 81//122 37//123
f 164//74 29//124 103//72
f 20//125 206//126 88//85
f 138//127 74//24 104//23
f 147//43 80//128 91//129
f 166//130 109//131 132//94
f 165//132 21//37 168//133
f 197//134 5//135 114//69
f 144//136 75//46 42//45
f 73//95 103//72 193//137
f 63//138 134//75 192//44
f 54//139 68//20 93//19
f 41//88 27//140 137//87
f 219//141 25//5 125//84
f 37//123 81//122 14//142
f 84//143 7//47 46//49
f 93//19 69//21 185//144
f 218//145 164//74 47//99
f 149//59 47//99 4//98
f 142//146 48//26 179//70
f 116//1 34//3 115//147
f 19//27 48//26 213//148
f 26//68 50//149 107//150
f 26//68 171//151 50//149
f 77//152 150//92 115//147
f 172//153 90//100 210//113
f 3//154 163//155 10//33
f 131//114 9//102 30//91
f 203//156 116//1 175//157
f 94//158 54//139 126//159
f 64//108 92//160 215//161
f 24//162 167//82 55//81
f 95//38 57//13 56//15
f 165//132 95//38 21//37
f 83//41 129//40 173//163
f 15//39 215//161 129//40
f 14//142 45//164 127//165
f 159//63 120//118 186//166
f 8//117 99//167 187//168
f 107//150 59//62 143//169
f 102//170 168//133 41//88
f 146//171 62//57 134//75
f 97//172 98//58 62//57
f 3//173 146//171 134//75
f 24//162 55//81 92//160
f 182//174 151//175 86//90
f 169//176 65//89 216//101
f 133//177 66//64 151//175
f 113//178 67//120 176//179
f 70//180 84//143 69//21
f 68//20 70//180 72//181
f 46//49 185//144 84//143
f 13//182 84//143 70//180
f 69//21 71//183 72//181
f 69//21 72//181 70//180
f 73//95 207//51 118//50
f 103//72 73//95 85//73
f 139//184 74//24 138//127
f 178//185 163//155 74//24
f 158//186 63//138 192//44
f 109//131 166//130 144//136
f 218//145 47//99 149//59
f 42//45 22//96 193//137
f 34//3 77//152 115//147
f 13//182 38//187 78//52
f 118//50 78//52 38//187
f 145//188 80//128 135//121
f 181//7 79//9 37//123
f 45//164 14//142 135//121
f 91//129 80//128 9//102
f 37//123 79//9 135//121
f 14//142 81//122 135//121
f 190//189 44//190 165//132
f 33//107 177//106 83//41
f 111//111 83//41 173//163
f 46//49 111//111 185//144
f 78//52 84//143 13//182
f 7//47 207//51 73//95
f 38//187 174//191 85//73
f 106//192 86//90 184//193
f 65//89 152//8 182//174
f 89//34 87//86 171//151
f 2//194 87//86 88//85
f 20//125 88//85 89//34
f 120//118 187//168 186//166
f 148//79 197//134 168//133
f 86//90 106//192 30//91
f 91//129 189//42 147//43
f 51//195 91//129 131//114
f 130//77 156//78 57//13
f 24//162 92//160 198//196
f 126//159 54//139 93//19
f 161//197 201//198 11//199
f 1//200 54//139 94//158
f 190//189 94//158 44//190
f 161//197 57//13 95//38
f 94//158 126//159 44//190
f 154//201 96//116 105//54
f 154//201 202//60 96//116
f 211//202 212//203 97//172
f 212//203 140//109 98//58
f 124//56 98//58 33//107
f 8//117 36//204 99//167
f 74//24 139//184 214//36
f 203//156 175//157 53//205
f 53//205 90//100 170//25
f 19//27 155//206 100//67
f 21//37 61//207 168//133
f 190//189 102//170 194//17
f 117//103 42//45 193//137
f 76//10 157//12 29//124
f 39//208 20//125 138//127
f 35//4 31//209 154//201
f 58//105 105//54 96//116
f 27//140 41//88 180//210
f 172//153 106//192 153//71
f 59//62 60//61 143//169
f 142//146 213//148 48//26
f 166//130 141//28 75//46
f 160//83 122//6 109//131
f 64//108 215//161 140//109
f 11//199 93//19 185//144
f 196//112 111//111 46//49
f 26//68 112//35 89//34
f 99//167 121//31 112//35
f 36//204 113//178 99//167
f 153//71 180//210 114//69
f 128//80 179//70 5//135
f 189//42 115//147 150//92
f 51//195 116//1 115//147
f 51//195 175//157 116//1
f 2//2 116//1 101//211
f 103//72 29//124 157//12
f 144//136 117//103 12//104
f 85//73 73//95 118//50
f 85//73 118//50 38//187
f 182//174 119//212 133//177
f 8//117 187//168 120//118
f 188//119 120//118 17//213
f 10//33 163//155 178//185
f 176//179 121//31 99//167
f 109//131 12//104 160//83
f 109//131 122//6 40//115
f 7//47 73//95 123//48
f 196//112 123//48 33//107
f 123//48 124//56 33//107
f 22//96 208//76 124//56
f 105//54 217//53 35//4
f 45//164 219//141 125//84
f 201//198 44//190 126//159
f 11//199 201//198 93//19
f 58//105 127//165 162//55
f 49//214 108//215 142//146
f 55//81 128//80 5//135
f 55//81 130//77 92//160
f 57//13 173//163 129//40
f 92//160 130//77 129//40
f 55//81 5//135 156//78
f 91//129 9//102 131//114
f 175//157 131//114 53//205
f 40//115 132//94 109//131
f 40//115 150//92 132//94
f 119//212 66//64 133//177
f 182//174 133//177 151//175
f 62//57 208//76 134//75
f 3//173 134//75 63//138
f 145//188 135//121 79//9
f 219//141 45//164 135//121
f 102//170 41//88 136//18
f 82//216 209//16 18//65
f 27//140 151//175 195//66
f 209//16 137//87 18//65
f 20//125 139//184 138//127
f 39//208 138//127 104//23
f 112//35 178//185 214//36
f 89//34 139//184 20//125
f 15//39 177//106 140//109
f 110//110 140//109 32//217
f 28//218 141//28 166//130
f 128//80 142//146 179//70
f 128//80 49//214 142//146
f 26//68 107//150 143//169
f 26//68 143//169 60//61
f 117//103 144//136 42//45
f 12//104 109//131 144//136
f 216//101 145//188 169//176
f 9//102 80//128 145//188
f 62//57 146//171 205//219
f 3//154 10//33 146//32
f 80//128 147//43 25//5
f 91//129 51//195 189//42
f 180//210 197//134 114//69
f 61//207 23//14 148//79
f 76//10 29//124 218//145
f 96//116 202//60 4//98
f 77//152 28//218 204//93
f 189//42 150//92 40//115
f 27//140 184//193 151//175
f 195//66 151//175 66//64
f 169//176 152//8 65//89
f 6//220 119//212 182//174
f 90//100 172//153 153//71
f 180//210 153//71 106//192
f 35//4 154//201 105//54
f 31//209 76//10 202//60
f 101//211 203//156 155//206
f 55//81 156//78 130//77
f 5//135 148//79 156//78
f 76//10 31//209 183//11
f 103//72 157//12 117//103
f 200//30 158//186 192//44
f 17//213 120//118 159//63
f 12//104 183//11 160//83
f 122//6 160//83 35//4
f 173//163 161//197 11//199
f 95//38 201//198 161//197
f 45//164 162//55 127//165
f 45//164 125//84 217//53
f 52//22 74//24 163//155
f 174//191 164//74 85//73
f 16//97 47//99 164//74
f 190//189 165//132 102//170
f 44//190 95//38 165//132
f 144//136 166//130 75//46
f 132//94 28//218 166//130
f 49//214 128//80 167//82
f 61//207 148//79 168//133
f 165//132 168//133 102//170
f 79//9 169//176 145//188
f 79//9 152//8 169//176
f 100//67 53//205 170//25
f 48//26 170//25 90//100
f 26//68 89//34 171//151
f 50//149 171//151 87//86
f 53//205 210//113 90//100
f 30//91 106//192 172//153
f 161//197 173//163 57//13
f 11//199 111//111 173//163
f 16//97 164//74 174//191
f 131//114 175//157 51//195
f 53//205 100//67 203//156
f 67//120 121//31 176//179
f 113//178 176//179 99//167
f 15//39 83//41 177//106
f 140//109 177//106 98//58
f 121//31 10//33 178//185
f 121//31 178//185 112//35
f 114//69 5//135 179//70
f 153//71 179//70 90//100
f 27//140 180//210 106//192
f 41//88 197//134 180//210
f 6//220 199//221 181//7
f 65//89 182//174 86//90
f 152//8 6//220 182//174
f 12//104 157//12 183//11
f 35//4 183//11 31//209
f 86//90 151//175 184//193
f 106//192 184//193 27//140
f 84//143 185//144 69//21
f 111//111 11//199 185//144
f 60//61 186//166 187//168
f 60//61 159//63 186//166
f 112//35 187//168 99//167
f 112//35 60//61 187//168
f 36//204 8//117 188//119
f 40//115 25//5 189//42
f 115//147 189//42 51//195
f 1//200 190//189 82//216
f 1//200 94//158 190//189
f 88//85 206//126 191//222
f 134//75 42//45 192//44
f 200//30 192//44 75//46
f 103//72 117//103 193//137
f 73//95 193//137 22//96
f 82//216 190//189 194//17
f 136//18 194//17 102//170
f 137//87 195//66 18//65
f 137//87 27//140 195//66
f 33//107 83//41 196//112
f 123//48 196//112 46//49
f 148//79 5//135 197//134
f 168//133 197//134 41//88
f 64//108 198//196 92//160
f 152//8 181//7 199//221
f 152//8 199//221 6//220
f 43//29 158//186 200//30
f 141//28 200//30 75//46
f 44//190 201//198 95//38
f 126//159 93//19 201//198
f 154//201 31//209 202//60
f 4//98 202//60 149//59
f 155//206 203//156 100//67
f 101//211 116//1 203//156
f 150//92 77//152 204//93
f 132//94 204//93 28//218
f 97//172 62//57 205//219
f 39//208 206//126 20//125
f 84//143 78//52 207//51
f 84//143 207//51 7//47
f 22//96 42//45 208//76
f 124//56 208//76 62//57
f 136//18 137//87 209//16
f 194//17 209//16 82//216
f 30//91 172//153 210//113
f 131//114 210//113 53//205
f 212//203 211//202 32//217
f 98//58 97//172 212//203
f 140//109 212//203 32//217
f 108//215 213//148 142//146
f 108//215 19//27 213//148
f 139//184 89//34 214//36
f 74//24 214//36 178//185
f 92//160 129//40 215//161
f 140//109 215//161 15//39
f 30//91 216//101 65//89
f 9//102 145//188 216//101
f 125//84 35//4 217//53
f 45//164 217//53 162//55
f 29//124 164//74 218//145
f 76//10 218//145 149//59
f 80//128 219//141 135//121
f 80//128 25//5 219//141
