# 
# Wavefront OBJ file
# 3D Pottery Benchmark Ver. 1.0, Multimedia Department,ILSP-Research Centre Athena, Contact Email: Anestis Koutsoudis (akoutsou@ceti.gr)
# 
# object object
g object
v 546.603 231.075 103.504
v 578.581 237.61 103.504
v 585.116 231.075 103.504
v 553.139 237.61 103.504
v 585.116 269.587 103.504
v 578.581 263.052 103.504
v 553.139 263.052 103.504
v 546.603 269.587 103.504
v 546.603 269.587 8.54331
v 553.139 263.052 8.54331
v 585.116 269.587 8.54331
v 578.581 263.052 8.54331
v 546.603 231.075 8.54331
v 553.139 237.61 8.54331
v 578.581 237.61 8.54331
v 585.116 231.075 8.54331
v 564.438 251.753 3.4252
v 546.603 269.587 3.4252
v 567.281 251.753 3.4252
v 585.116 231.075 3.4252
v 585.116 269.587 3.4252
v 567.281 248.909 3.4252
v 564.438 248.909 3.4252
v 546.603 231.075 3.4252
v 546.603 269.587 108.622
v 567.281 251.753 108.622
v 585.116 269.587 108.622
v 564.438 251.753 108.622
v 585.116 231.075 108.622
v 567.281 248.909 108.622
v 564.438 248.909 108.622
v 546.603 231.075 108.622
v 579.6 236.591 95.7641
v 579.6 264.071 95.7641
v 580.549 265.02 96.1574
v 580.549 235.642 96.1574
v 578.581 237.61 95.6299
v 578.581 263.052 95.6299
v 578.581 237.61 93.6614
v 578.581 263.052 93.6614
v 576.373 239.818 87.4548
v 576.373 260.844 87.4548
v 582.518 233.673 99.5669
v 582.383 233.807 98.548
v 582.383 266.855 98.548
v 582.518 266.989 99.5669
v 581.99 266.461 97.5984
v 581.99 234.201 97.5984
v 581.365 234.826 96.783
v 581.365 265.836 96.783
v 550.84 265.351 0
v 550.84 235.311 0
v 580.879 235.311 0
v 580.879 265.351 0
v 579.6 236.591 103.37
v 579.6 264.071 103.37
v 580.549 265.02 102.976
v 580.549 235.642 102.976
v 581.365 234.826 102.351
v 581.365 265.836 102.351
v 581.99 234.201 101.535
v 581.99 266.461 101.535
v 582.383 233.807 100.586
v 582.383 266.855 100.586
v 574.555 241.636 81.1231
v 574.555 259.026 81.1231
v 573.134 243.057 74.6908
v 573.134 257.605 74.6908
v 572.115 244.076 68.1826
v 572.115 256.586 68.1826
v 571.502 244.689 61.6237
v 571.297 244.894 55.0394
v 571.297 255.768 55.0394
v 571.502 255.973 61.6237
v 571.502 244.689 48.4551
v 571.502 255.973 48.4551
v 572.115 244.076 41.8961
v 572.115 256.586 41.8961
v 573.134 243.057 35.388
v 573.134 257.605 35.388
v 574.555 259.026 28.9556
v 574.555 241.636 28.9556
v 576.373 239.818 22.6239
v 576.373 260.844 22.6239
v 578.581 237.61 16.4173
v 578.581 263.052 16.4173
v 579.6 236.591 16.2832
v 579.6 264.071 16.2832
v 580.549 235.642 15.8899
v 580.549 265.02 15.8899
v 581.365 234.826 15.2642
v 581.365 265.836 15.2642
v 581.99 234.201 14.4488
v 581.99 266.461 14.4488
v 582.383 233.807 13.4993
v 582.383 266.855 13.4993
v 582.518 233.673 12.4803
v 582.518 266.989 12.4803
v 582.383 233.807 11.4613
v 582.383 266.855 11.4613
v 581.99 234.201 10.5118
v 581.99 266.461 10.5118
v 581.365 234.826 9.69643
v 581.365 265.836 9.69643
v 580.549 265.02 9.07077
v 580.549 235.642 9.07077
v 579.6 236.591 8.67746
v 579.6 264.071 8.67746
v 552.12 264.071 103.37
v 551.17 265.02 102.976
v 550.355 265.836 102.351
v 549.729 266.461 101.535
v 549.336 266.855 100.586
v 549.202 266.989 99.5669
v 549.336 266.855 98.548
v 549.729 266.461 97.5984
v 550.355 265.836 96.783
v 551.17 265.02 96.1574
v 552.12 264.071 95.7641
v 553.139 263.052 95.6299
v 553.139 263.052 93.6614
v 555.346 260.844 87.4548
v 557.164 259.026 81.1231
v 558.586 257.605 74.6908
v 559.605 256.586 68.1826
v 560.218 255.973 61.6237
v 560.422 255.768 55.0394
v 560.218 255.973 48.4551
v 559.605 256.586 41.8961
v 558.586 257.605 35.388
v 557.164 259.026 28.9556
v 555.346 260.844 22.6239
v 553.139 263.052 16.4173
v 552.12 264.071 16.2832
v 551.17 265.02 15.8899
v 550.355 265.836 15.2642
v 549.729 266.461 14.4488
v 549.336 266.855 13.4993
v 549.202 266.989 12.4803
v 549.336 266.855 11.4613
v 549.729 266.461 10.5118
v 550.355 265.836 9.69643
v 551.17 265.02 9.07077
v 552.12 264.071 8.67746
v 552.12 236.591 103.37
v 551.17 235.642 102.976
v 550.355 234.826 102.351
v 549.729 234.201 101.535
v 549.336 233.807 100.586
v 549.202 233.673 99.5669
v 549.336 233.807 98.548
v 549.729 234.201 97.5984
v 550.355 234.826 96.783
v 551.17 235.642 96.1574
v 552.12 236.591 95.7641
v 553.139 237.61 95.6299
v 553.139 237.61 93.6614
v 555.346 239.818 87.4548
v 557.164 241.636 81.1231
v 558.586 243.057 74.6908
v 559.605 244.076 68.1826
v 560.218 244.689 61.6237
v 560.422 244.894 55.0394
v 560.218 244.689 48.4551
v 559.605 244.076 41.8961
v 558.586 243.057 35.388
v 557.164 241.636 28.9556
v 555.346 239.818 22.6239
v 553.139 237.61 16.4173
v 552.12 236.591 16.2832
v 551.17 235.642 15.8899
v 550.355 234.826 15.2642
v 549.729 234.201 14.4488
v 549.336 233.807 13.4993
v 549.202 233.673 12.4803
v 549.336 233.807 11.4613
v 549.729 234.201 10.5118
v 550.355 234.826 9.69643
v 551.17 235.642 9.07077
v 552.12 236.591 8.67746
# 180 verts.
vn -0.436436 -0.218218 -0.872872
vn 0 0 -1
vn 0.333333 -0.666667 -0.666667
vn 0.436436 0.218218 -0.872872
vn -0.333333 0.666667 -0.666667
vn -0.666667 0.333333 0.666667
vn 0 0 1
vn 0.218218 0.436436 0.872872
vn -0.267261 -0.534522 0.801784
vn 0.534522 -0.267261 0.801784
vn 0.666667 -0.333333 -0.666667
vn -0.218218 0.436436 -0.872872
vn -0.218218 -0.436436 -0.872872
vn 0.218218 -0.436436 -0.872872
vn 0.666667 0.333333 -0.666667
vn -0.666667 0.333333 -0.666667
vn 0.218218 0.436436 -0.872872
vn -0.666667 -0.333333 -0.666667
vn -0.436436 0.218218 0.872872
vn -0.436436 -0.218218 0.872872
vn 0.333333 0.666667 0.666667
vn 0.333333 -0.666667 0.666667
vn 0.436436 -0.218218 0.872872
vn -0.333333 0.666667 0.666667
vn 0.436436 0.218218 0.872872
vn -0.333333 -0.666667 0.666667
vn 0.17525 -0.0876265 -0.980617
vn 0.104957 0.131652 -0.985724
vn 0.267201 0.267203 -0.925855
vn 0.176737 -0.353476 -0.918596
vn 0.550545 -0.325882 -0.76857
vn 0.325884 0.550544 -0.768571
vn 0.680092 -0.693731 -0.237091
vn 0.819875 0.541211 -0.186802
vn 0.506068 -0.756576 -0.414111
vn 0.643835 0.643835 -0.413465
vn 0.831456 -0.554375 -0.0367373
vn 0.653415 -0.668893 -0.354445
vn 0.570965 0.752382 -0.328514
vn 0.831457 0.554375 0.0367037
vn 0.561639 0.533858 -0.632106
vn 0.451515 -0.617517 -0.644055
vn 0.461857 -0.322087 -0.826407
vn 0.511467 0.326592 -0.79482
vn 0.15013 -0.0941131 0.984177
vn 0.131801 0.131805 0.982474
vn 0.0654671 0.0654651 0.995705
vn 0.0654671 -0.0654661 0.995705
vn 0.267246 0.267248 0.925828
vn 0.176767 -0.353535 0.918568
vn 0.534525 -0.267261 0.801782
vn 0.40825 0.408246 0.816497
vn 0.429892 -0.628483 0.64823
vn 0.547904 0.547794 0.632237
vn 0.661146 -0.661072 0.354781
vn 0.522094 0.792306 0.315705
vn 0.563252 -0.752983 -0.340241
vn 0.668792 0.668793 -0.324705
vn 0.867112 -0.433556 -0.245248
vn 0.537091 0.80721 -0.244837
vn 0.592144 -0.788505 -0.166211
vn 0.695428 0.697229 -0.173932
vn 0.829717 -0.552788 -0.0774305
vn 0.599988 -0.799985 0.00622735
vn 0.599988 0.799985 -0.00622732
vn 0.82816 0.552462 -0.0945331
vn 0.82816 -0.552462 0.0945319
vn 0.829717 0.552788 0.0774298
vn 0.54686 -0.821352 0.162251
vn 0.696329 0.696329 0.173933
vn 0.774167 -0.581759 0.249441
vn 0.683233 0.683233 0.257654
vn 0.567495 0.754675 0.329266
vn 0.663794 -0.667296 0.337776
vn 0.410723 -0.821445 0.395644
vn 0.728683 0.544693 0.415126
vn 0.535792 -0.285244 0.794709
vn 0.243618 0.243617 0.938776
vn 0.149977 -0.0940501 0.984206
vn 0.131665 0.131669 0.982511
vn 0.176751 -0.353503 0.918583
vn 0.267221 0.267223 0.925843
vn 0.53459 -0.267294 0.801728
vn 0.408302 0.408298 0.816445
vn 0.429852 -0.628388 0.648349
vn 0.547862 0.547751 0.63231
vn 0.661175 -0.661101 0.354674
vn 0.522113 0.792326 0.315623
vn 0.831456 -0.554375 -0.0367205
vn 0.831456 0.554375 0.0367205
vn 0.653409 -0.66889 -0.354461
vn 0.570963 0.752378 -0.328525
vn 0.451504 -0.617502 -0.644077
vn 0.561625 0.533844 -0.63213
vn 0.461874 -0.322094 -0.826394
vn 0.51147 0.326599 -0.794815
vn 0.267216 0.267218 -0.925846
vn 0.176747 -0.353495 -0.918587
vn 0.175236 -0.0876193 -0.98062
vn 0.104948 0.131633 -0.985728
vn 0.0436738 -0.0873462 -0.99522
vn 0.0873475 0.0436725 -0.99522
vn -0.0876389 0.175399 0.980589
vn -0.0872479 0.0436227 0.995231
vn -0.353597 0.176778 0.918542
vn -0.366593 0.468203 0.803987
vn -0.670424 0.435938 0.600408
vn -0.66898 0.653272 0.354544
vn -0.599794 0.799722 -0.0263027
vn -0.661284 0.661163 -0.354353
vn -0.626587 0.481827 -0.612561
vn -0.267271 0.534537 -0.801771
vn -0.353538 0.176748 -0.91857
vn -0.105458 0.184225 -0.97721
vn -0.47743 0.266283 -0.837349
vn -0.435699 0.871377 -0.225541
vn -0.82147 0.410725 -0.39559
vn -0.667273 0.663786 -0.337839
vn -0.536175 0.802704 -0.261118
vn -0.787555 0.589902 -0.17825
vn -0.598296 0.797213 -0.0805809
vn -0.832021 0.554678 0.00859193
vn -0.597158 0.796723 0.0929284
vn -0.81828 0.546226 0.179038
vn -0.433547 0.867108 0.245278
vn -0.787734 0.52379 0.324222
vn -0.730647 0.549796 0.404822
vn -0.260418 0.436092 0.861398
vn -0.0875492 0.175219 0.980629
vn -0.353564 0.176761 0.918557
vn -0.366574 0.468251 0.803968
vn -0.67042 0.435911 0.600433
vn -0.669001 0.653309 0.354437
vn -0.599794 0.799722 -0.0262858
vn -0.66128 0.661159 -0.354368
vn -0.626571 0.481815 -0.612587
vn -0.267277 0.534548 -0.801762
vn -0.353557 0.176758 -0.918561
vn -0.105449 0.184217 -0.977213
vn -0.0655419 0.06554 -0.995695
vn -0.150867 -0.131815 0.979726
vn -0.0436239 -0.0872466 0.995231
vn -0.267291 -0.267259 0.925812
vn -0.330969 -0.461582 0.823044
vn -0.533736 -0.561426 0.632398
vn -0.766669 -0.5171 0.380561
vn -0.599795 -0.799723 0.0262689
vn -0.745166 -0.552179 -0.373933
vn -0.547704 -0.547741 -0.632456
vn -0.408256 -0.408254 -0.81649
vn -0.267246 -0.267214 -0.925838
vn -0.131601 -0.13169 -0.982517
vn -0.362086 -0.682352 -0.635051
vn -0.773721 -0.574516 -0.266995
vn -0.507384 -0.763591 -0.399363
vn -0.781921 -0.522661 -0.339743
vn -0.683218 -0.683229 -0.257703
vn -0.696328 -0.696329 -0.173935
vn -0.597158 -0.796723 -0.0929295
vn -0.832021 -0.554678 -0.0085919
vn -0.598296 -0.797213 0.0805801
vn -0.697228 -0.695427 0.173936
vn -0.772796 -0.578475 0.261062
vn -0.662178 -0.662185 0.350757
vn -0.643856 -0.64384 0.413424
vn -0.385775 -0.410738 0.826119
vn -0.150711 -0.131646 0.979773
vn -0.267266 -0.267234 0.925826
vn -0.331074 -0.461651 0.822963
vn -0.533663 -0.561414 0.63247
vn -0.766715 -0.517125 0.380433
vn -0.599794 -0.799722 0.0262858
vn -0.745161 -0.552173 -0.373953
vn -0.54769 -0.547727 -0.63248
vn -0.408265 -0.408263 -0.816481
vn -0.267261 -0.267229 -0.92583
vn -0.13159 -0.131679 -0.98252
vn -0.0655419 -0.0655409 -0.995695
# 178 normals
usemtl (null)
f 1//1 2//2 3//3
f 1//1 4//2 2//2
f 3//3 2//2 5//4
f 2//2 6//2 5//4
f 7//2 5//4 6//2
f 4//2 1//1 7//2
f 8//5 7//2 1//1
f 8//5 5//4 7//2
f 9//6 10//7 11//8
f 12//7 11//8 10//7
f 13//9 10//7 9//6
f 10//7 13//9 14//7
f 15//7 11//8 12//7
f 16//10 14//7 13//9
f 16//10 15//7 14//7
f 16//10 11//8 15//7
f 17//11 18//12 19//13
f 20//14 19//13 21//15
f 20//14 22//16 19//13
f 23//17 18//12 17//11
f 22//16 20//14 23//17
f 24//18 23//17 20//14
f 24//18 18//12 23//17
f 21//15 19//13 18//12
f 25//19 26//20 27//21
f 26//20 25//19 28//22
f 27//21 26//20 29//23
f 26//20 30//24 29//23
f 31//25 29//23 30//24
f 28//22 25//19 31//25
f 32//26 31//25 25//19
f 32//26 29//23 31//25
f 33//27 34//28 35//29
f 35//29 36//30 33//27
f 33//27 37//31 38//32
f 38//32 34//28 33//27
f 37//31 39//33 40//34
f 38//32 37//31 40//34
f 39//33 41//35 42//36
f 42//36 40//34 39//33
f 43//37 44//38 45//39
f 43//37 45//39 46//40
f 47//41 45//39 44//38
f 44//38 48//42 47//41
f 48//42 49//43 50//44
f 47//41 48//42 50//44
f 49//43 36//30 35//29
f 35//29 50//44 49//43
f 51//7 52//7 53//7
f 54//7 51//7 53//7
f 22//16 30//24 26//20
f 19//13 22//16 26//20
f 29//23 3//3 5//4
f 27//21 29//23 5//4
f 55//45 56//46 6//47
f 6//47 2//48 55//45
f 57//49 56//46 55//45
f 55//45 58//50 57//49
f 59//51 60//52 57//49
f 57//49 58//50 59//51
f 59//51 61//53 62//54
f 60//52 59//51 62//54
f 63//55 64//56 62//54
f 62//54 61//53 63//55
f 63//55 43//37 46//40
f 64//56 63//55 46//40
f 65//57 66//58 42//36
f 42//36 41//35 65//57
f 67//59 68//60 66//58
f 66//58 65//57 67//59
f 67//59 69//61 70//62
f 70//62 68//60 67//59
f 71//63 72//64 73//65
f 74//66 71//63 73//65
f 72//64 75//67 76//68
f 73//65 72//64 76//68
f 75//67 77//69 78//70
f 76//68 75//67 78//70
f 79//71 80//72 78//70
f 78//70 77//69 79//71
f 81//73 80//72 79//71
f 79//71 82//74 81//73
f 82//74 83//75 84//76
f 84//76 81//73 82//74
f 84//76 83//75 85//77
f 85//77 86//78 84//76
f 86//78 85//77 87//79
f 87//79 88//80 86//78
f 87//79 89//81 90//82
f 90//82 88//80 87//79
f 91//83 92//84 90//82
f 90//82 89//81 91//83
f 91//83 93//85 94//86
f 92//84 91//83 94//86
f 95//87 96//88 94//86
f 94//86 93//85 95//87
f 95//87 97//89 98//90
f 96//88 95//87 98//90
f 97//89 99//91 100//92
f 98//90 97//89 100//92
f 99//91 101//93 102//94
f 102//94 100//92 99//91
f 101//93 103//95 104//96
f 101//93 104//96 102//94
f 105//97 104//96 103//95
f 103//95 106//98 105//97
f 107//99 108//100 105//97
f 105//97 106//98 107//99
f 107//99 15//101 12//102
f 12//102 108//100 107//99
f 16//10 20//14 21//15
f 11//8 16//10 21//15
f 19//13 26//20 28//22
f 17//11 19//13 28//22
f 27//21 5//4 8//5
f 25//19 27//21 8//5
f 6//47 56//46 109//103
f 6//47 109//103 7//104
f 57//49 110//105 109//103
f 109//103 56//46 57//49
f 57//49 60//52 111//106
f 111//106 110//105 57//49
f 62//54 112//107 111//106
f 111//106 60//52 62//54
f 62//54 64//56 113//108
f 112//107 62//54 113//108
f 64//56 46//40 114//109
f 114//109 113//108 64//56
f 114//109 46//40 45//39
f 45//39 115//110 114//109
f 116//111 115//110 45//39
f 116//111 45//39 47//41
f 47//41 50//44 117//112
f 117//112 116//111 47//41
f 35//29 118//113 117//112
f 117//112 50//44 35//29
f 35//29 34//28 119//114
f 119//114 118//113 35//29
f 120//115 119//114 34//28
f 120//115 34//28 38//32
f 38//32 40//34 121//116
f 120//115 38//32 121//116
f 42//36 122//117 121//116
f 121//116 40//34 42//36
f 42//36 66//58 123//118
f 122//117 42//36 123//118
f 66//58 68//60 124//119
f 124//119 123//118 66//58
f 68//60 70//62 125//120
f 124//119 68//60 125//120
f 126//121 125//120 70//62
f 70//62 74//66 126//121
f 73//65 127//122 126//121
f 126//121 74//66 73//65
f 73//65 76//68 128//123
f 128//123 127//122 73//65
f 78//70 129//124 128//123
f 128//123 76//68 78//70
f 78//70 80//72 130//125
f 78//70 130//125 129//124
f 130//125 80//72 81//73
f 81//73 131//126 130//125
f 81//73 84//76 132//127
f 131//126 81//73 132//127
f 84//76 86//78 133//128
f 133//128 132//127 84//76
f 86//78 88//80 134//129
f 86//78 134//129 133//128
f 134//129 88//80 90//82
f 90//82 135//130 134//129
f 136//131 135//130 90//82
f 90//82 92//84 136//131
f 136//131 92//84 94//86
f 94//86 137//132 136//131
f 94//86 96//88 138//133
f 94//86 138//133 137//132
f 96//88 98//90 139//134
f 139//134 138//133 96//88
f 100//92 140//135 139//134
f 139//134 98//90 100//92
f 141//136 140//135 100//92
f 141//136 100//92 102//94
f 102//94 104//96 142//137
f 142//137 141//136 102//94
f 105//97 143//138 142//137
f 142//137 104//96 105//97
f 105//97 108//100 144//139
f 144//139 143//138 105//97
f 10//140 144//139 108//100
f 10//140 108//100 12//102
f 11//8 21//15 18//12
f 9//6 11//8 18//12
f 17//11 28//22 31//25
f 23//17 17//11 31//25
f 25//19 8//5 1//1
f 32//26 25//19 1//1
f 7//104 109//103 145//141
f 145//141 4//142 7//104
f 110//105 146//143 145//141
f 145//141 109//103 110//105
f 110//105 111//106 147//144
f 147//144 146//143 110//105
f 111//106 112//107 148//145
f 111//106 148//145 147//144
f 112//107 113//108 149//146
f 149//146 148//145 112//107
f 113//108 114//109 150//147
f 113//108 150//147 149//146
f 151//148 150//147 114//109
f 151//148 114//109 115//110
f 151//148 115//110 116//111
f 116//111 152//149 151//148
f 116//111 117//112 153//150
f 116//111 153//150 152//149
f 118//113 154//151 153//150
f 153//150 117//112 118//113
f 155//152 154//151 118//113
f 118//113 119//114 155//152
f 120//115 156//153 155//152
f 155//152 119//114 120//115
f 120//115 121//116 157//154
f 156//153 120//115 157//154
f 122//117 158//155 157//154
f 157//154 121//116 122//117
f 122//117 123//118 159//156
f 159//156 158//155 122//117
f 123//118 124//119 160//157
f 160//157 159//156 123//118
f 125//120 161//158 160//157
f 160//157 124//119 125//120
f 125//120 126//121 162//159
f 161//158 125//120 162//159
f 126//121 127//122 163//160
f 126//121 163//160 162//159
f 127//122 128//123 164//161
f 163//160 127//122 164//161
f 165//162 164//161 128//123
f 165//162 128//123 129//124
f 129//124 130//125 166//163
f 166//163 165//162 129//124
f 166//163 130//125 131//126
f 131//126 167//164 166//163
f 132//127 168//165 167//164
f 167//164 131//126 132//127
f 132//127 133//128 169//166
f 169//166 168//165 132//127
f 170//167 169//166 133//128
f 133//128 134//129 170//167
f 135//130 171//168 170//167
f 170//167 134//129 135//130
f 135//130 136//131 172//169
f 172//169 171//168 135//130
f 173//170 172//169 136//131
f 173//170 136//131 137//132
f 137//132 138//133 174//171
f 174//171 173//170 137//132
f 138//133 139//134 175//172
f 174//171 138//133 175//172
f 139//134 140//135 176//173
f 175//172 139//134 176//173
f 141//136 177//174 176//173
f 176//173 140//135 141//136
f 178//175 177//174 141//136
f 178//175 141//136 142//137
f 178//175 142//137 143//138
f 143//138 179//176 178//175
f 143//138 144//139 180//177
f 180//177 179//176 143//138
f 10//140 14//178 180//177
f 180//177 144//139 10//140
f 9//6 18//12 24//18
f 13//9 9//6 24//18
f 23//17 31//25 30//24
f 22//16 23//17 30//24
f 32//26 1//1 3//3
f 29//23 32//26 3//3
f 4//142 145//141 55//45
f 2//48 4//142 55//45
f 145//141 146//143 58//50
f 58//50 55//45 145//141
f 147//144 59//51 58//50
f 58//50 146//143 147//144
f 147//144 148//145 61//53
f 61//53 59//51 147//144
f 148//145 149//146 63//55
f 148//145 63//55 61//53
f 150//147 43//37 63//55
f 63//55 149//146 150//147
f 44//38 43//37 150//147
f 150//147 151//148 44//38
f 151//148 152//149 48//42
f 44//38 151//148 48//42
f 153//150 49//43 48//42
f 48//42 152//149 153//150
f 153//150 154//151 36//30
f 36//30 49//43 153//150
f 155//152 33//27 36//30
f 36//30 154//151 155//152
f 37//31 33//27 155//152
f 37//31 155//152 156//153
f 156//153 157//154 39//33
f 37//31 156//153 39//33
f 157//154 158//155 41//35
f 41//35 39//33 157//154
f 65//57 41//35 158//155
f 65//57 158//155 159//156
f 160//157 67//59 65//57
f 65//57 159//156 160//157
f 160//157 161//158 69//61
f 67//59 160//157 69//61
f 69//61 161//158 162//159
f 162//159 71//63 69//61
f 162//159 163//160 72//64
f 72//64 71//63 162//159
f 164//161 75//67 72//64
f 72//64 163//160 164//161
f 164//161 165//162 77//69
f 77//69 75//67 164//161
f 165//162 166//163 79//71
f 77//69 165//162 79//71
f 166//163 167//164 82//74
f 82//74 79//71 166//163
f 167//164 168//165 83//75
f 82//74 167//164 83//75
f 169//166 85//77 83//75
f 83//75 168//165 169//166
f 169//166 170//167 87//79
f 169//166 87//79 85//77
f 170//167 171//168 89//81
f 89//81 87//79 170//167
f 172//169 91//83 89//81
f 89//81 171//168 172//169
f 93//85 91//83 172//169
f 172//169 173//170 93//85
f 173//170 174//171 95//87
f 93//85 173//170 95//87
f 175//172 97//89 95//87
f 95//87 174//171 175//172
f 175//172 176//173 99//91
f 99//91 97//89 175//172
f 176//173 177//174 101//93
f 99//91 176//173 101//93
f 178//175 103//95 101//93
f 101//93 177//174 178//175
f 178//175 179//176 106//98
f 106//98 103//95 178//175
f 106//98 179//176 180//177
f 180//177 107//99 106//98
f 180//177 14//178 15//101
f 107//99 180//177 15//101
f 13//9 24//18 20//14
f 16//10 13//9 20//14
f 69//61 71//63 74//66
f 70//62 69//61 74//66
