# 
# Wavefront OBJ file
# 3D Pottery Benchmark Ver. 1.0, Multimedia Department,ILSP-Research Centre Athena, Contact Email: Anestis Koutsoudis (akoutsou@ceti.gr)
# 
# object object
g object
v 302.078 520.778 83.0371
v 300.749 449.446 79.7057
v 302.078 448.117 83.0371
v 279.778 470.417 27.1394
v 300.749 519.449 79.7057
v 279.778 498.478 27.1394
v 283.143 467.052 22.1732
v 283.143 501.844 22.1732
v 305.361 444.834 77.8656
v 306.83 443.365 81.5478
v 305.361 524.062 77.8656
v 306.83 525.531 81.5478
v 229.417 520.778 83.0371
v 230.746 519.449 79.7057
v 251.717 498.478 27.1394
v 292.776 511.477 107.961
v 294.578 513.278 106.331
v 292.776 457.419 107.961
v 297.237 515.937 103.924
v 297.237 452.958 103.924
v 294.578 455.617 106.331
v 300.849 519.55 107.352
v 297.91 452.285 110.012
v 300.849 449.346 107.352
v 296.389 453.806 111.389
v 297.91 516.611 110.012
v 296.389 515.09 111.389
v 230.645 519.55 107.352
v 233.584 516.611 110.012
v 235.105 515.09 111.389
v 238.718 511.477 107.961
v 236.917 513.278 106.331
v 234.258 515.937 103.924
v 226.133 524.062 77.8656
v 248.351 501.844 22.1732
v 224.664 525.531 81.5478
v 229.417 448.117 83.0371
v 230.746 449.446 79.7057
v 251.717 470.417 27.1394
v 238.718 457.419 107.961
v 236.917 455.617 106.331
v 234.258 452.958 103.924
v 230.645 449.346 107.352
v 233.584 452.285 110.012
v 235.105 453.806 111.389
v 226.133 444.834 77.8656
v 248.351 467.052 22.1732
v 224.664 443.365 81.5478
v 279.842 470.353 0
v 279.842 498.542 0
v 251.653 498.542 0
v 251.653 470.353 0
v 302.802 447.393 86.1631
v 302.802 521.503 86.1631
v 303.045 447.15 89.3627
v 303.045 521.746 89.3627
v 302.802 447.393 92.5623
v 302.802 521.503 92.5623
v 302.078 448.117 95.6883
v 302.078 520.778 95.6883
v 300.889 449.306 98.6687
v 300.889 519.589 98.6687
v 299.262 450.933 101.435
v 299.262 517.963 101.435
v 291.004 459.191 110.139
v 291.004 509.704 110.139
v 289.581 460.614 112.559
v 289.581 508.282 112.559
v 288.54 461.655 115.167
v 288.54 507.241 115.167
v 287.907 462.288 117.902
v 287.907 506.607 117.902
v 287.694 462.501 120.701
v 287.694 506.394 120.701
v 287.907 462.288 123.501
v 287.907 506.607 123.501
v 288.54 461.655 126.236
v 288.54 507.241 126.236
v 289.581 460.614 128.844
v 289.581 508.282 128.844
v 291.004 459.191 131.264
v 291.004 509.704 131.264
v 292.776 457.419 133.441
v 292.776 511.477 133.441
v 292.944 457.251 133.593
v 292.944 511.645 133.593
v 293.466 456.729 133.978
v 293.466 512.167 133.978
v 294.07 456.125 134.215
v 294.07 512.771 134.215
v 294.714 455.48 134.287
v 294.714 513.415 134.287
v 295.356 454.839 134.19
v 295.356 514.056 134.19
v 295.95 454.245 133.93
v 295.95 514.651 133.93
v 296.457 453.738 133.526
v 296.457 515.157 133.526
v 296.841 453.353 133.004
v 296.841 515.542 133.004
v 297.078 453.117 132.4
v 297.078 515.779 132.4
v 297.15 453.045 131.755
v 297.15 515.851 131.755
v 297.053 453.142 131.114
v 297.053 515.754 131.114
v 296.794 453.401 130.52
v 296.794 515.494 130.52
v 296.389 453.806 130.013
v 296.389 515.09 130.013
v 295.093 455.102 128.422
v 295.093 513.794 128.422
v 294.053 456.142 126.653
v 294.053 512.754 126.653
v 293.293 456.902 124.747
v 293.293 511.994 124.747
v 292.83 457.365 122.747
v 292.83 511.53 122.747
v 292.674 457.521 120.701
v 292.674 511.375 120.701
v 292.83 457.365 118.655
v 292.83 511.53 118.655
v 293.293 456.902 116.656
v 293.293 511.994 116.656
v 294.053 456.142 114.75
v 294.053 512.754 114.75
v 295.093 513.794 112.981
v 295.093 455.102 112.981
v 303.352 446.843 104.277
v 303.352 522.053 104.277
v 305.361 444.834 100.86
v 305.361 524.062 100.86
v 306.83 443.365 97.1776
v 306.83 525.531 97.1776
v 307.725 442.47 93.3156
v 307.725 526.426 93.3156
v 308.026 442.169 89.3627
v 308.026 526.727 89.3627
v 307.725 442.47 85.4097
v 307.725 526.426 85.4097
v 228.692 521.503 86.1631
v 228.449 521.746 89.3627
v 228.692 521.503 92.5623
v 229.417 520.778 95.6883
v 230.606 519.589 98.6687
v 232.232 517.963 101.435
v 240.491 509.704 110.139
v 241.913 508.282 112.559
v 242.954 507.241 115.167
v 243.588 506.607 117.902
v 243.801 506.394 120.701
v 243.588 506.607 123.501
v 242.954 507.241 126.236
v 241.913 508.282 128.844
v 240.491 509.704 131.264
v 238.718 511.477 133.441
v 238.55 511.645 133.593
v 238.028 512.167 133.978
v 237.424 512.771 134.215
v 236.78 513.415 134.287
v 236.139 514.056 134.19
v 235.544 514.651 133.93
v 235.038 515.157 133.526
v 234.653 515.542 133.004
v 234.416 515.779 132.4
v 234.344 515.851 131.755
v 234.441 515.754 131.114
v 234.701 515.494 130.52
v 235.105 515.09 130.013
v 236.401 513.794 128.422
v 237.441 512.754 126.653
v 238.201 511.994 124.747
v 238.665 511.53 122.747
v 238.82 511.375 120.701
v 238.665 511.53 118.655
v 238.201 511.994 116.656
v 237.441 512.754 114.75
v 236.401 513.794 112.981
v 228.142 522.053 104.277
v 226.133 524.062 100.86
v 224.664 525.531 97.1776
v 223.769 526.426 93.3156
v 223.468 526.727 89.3627
v 223.769 526.426 85.4097
v 228.692 447.393 86.1631
v 228.449 447.15 89.3627
v 228.692 447.393 92.5623
v 229.417 448.117 95.6883
v 230.606 449.306 98.6687
v 232.232 450.933 101.435
v 240.491 459.191 110.139
v 241.913 460.614 112.559
v 242.954 461.655 115.167
v 243.588 462.288 117.902
v 243.801 462.501 120.701
v 243.588 462.288 123.501
v 242.954 461.655 126.236
v 241.913 460.614 128.844
v 240.491 459.191 131.264
v 238.718 457.419 133.441
v 238.55 457.251 133.593
v 238.028 456.729 133.978
v 237.424 456.125 134.215
v 236.78 455.48 134.287
v 236.139 454.839 134.19
v 235.544 454.245 133.93
v 235.038 453.738 133.526
v 234.653 453.353 133.004
v 234.416 453.117 132.4
v 234.344 453.045 131.755
v 234.441 453.142 131.114
v 234.701 453.401 130.52
v 235.105 453.806 130.013
v 236.401 455.102 128.422
v 237.441 456.142 126.653
v 238.201 456.902 124.747
v 238.665 457.365 122.747
v 238.82 457.521 120.701
v 238.665 457.365 118.655
v 238.201 456.902 116.656
v 237.441 456.142 114.75
v 236.401 455.102 112.981
v 228.142 446.843 104.277
v 226.133 444.834 100.86
v 224.664 443.365 97.1776
v 223.769 442.47 93.3156
v 223.468 442.169 89.3627
v 223.769 442.47 85.4097
# 228 verts.
vn -0.854512 -0.343428 0.389701
vn -0.61585 0.615856 0.491376
vn -0.410394 0.811005 0.416951
vn -0.724593 0.241534 0.645466
vn -0.615856 -0.615849 0.491378
vn -0.203889 -0.611667 0.764391
vn 0.305575 -0.305575 -0.901802
vn 0.633397 0.422263 -0.648462
vn 0.485372 -0.728059 -0.484091
vn 0.635398 -0.643064 -0.427478
vn 0.485373 0.728059 -0.484091
vn 0.655605 0.655605 -0.37465
vn 0.476955 -0.784906 0.395521
vn 0.615854 -0.615852 0.491377
vn 0.724593 -0.241536 0.645465
vn -0.174207 -0.611126 -0.772125
vn -0.452216 -0.305969 -0.837785
vn -0.599971 0.212818 -0.771196
vn -0.456968 -0.376827 -0.805718
vn -0.415672 0.401747 -0.815975
vn -0.707107 -0.707107 0
vn 0.529423 0.274623 0.802679
vn 0.381199 -0.3812 0.842243
vn 0.368674 -0.462682 0.806229
vn 0.575111 -0.233421 0.784068
vn 0.3812 0.3812 0.842243
vn 0.274637 0.529438 0.802664
vn -0.233408 0.575107 0.784075
vn -0.381199 0.381201 0.842243
vn -0.462694 0.368679 0.806219
vn 0.627062 -0.139133 -0.766443
vn -2.33852e-06 -0.671066 -0.741398
vn 0.486368 -0.365798 -0.793497
vn -0.615851 0.615852 -0.49138
vn -0.496549 0.248274 -0.831745
vn -0.651592 0.641318 -0.405141
vn 0.722615 0.552869 0.414926
vn 0.615858 0.615849 0.491375
vn 0.203892 0.611668 0.764389
vn 0.36866 0.462629 -0.806266
vn 0.381169 0.381118 -0.842294
vn 0.412327 0.432728 -0.801706
vn 0.74345 0.662836 -0.0890583
vn -0.515591 -0.321439 0.794256
vn -0.3812 -0.381199 0.842243
vn -0.321446 -0.515597 0.794249
vn -0.615851 -0.61585 -0.491382
vn -0.313595 -0.627189 -0.712946
vn -0.754571 -0.507076 -0.416528
vn 8.4002e-06 0.670969 -0.741485
vn 0 0 1
vn -0.691139 0.691139 0.211314
vn -0.438094 -0.876159 0.201043
vn -0.707107 0.707107 0
vn -0.894427 -0.447214 0
vn -0.691139 0.691139 -0.211314
vn -0.438094 -0.876159 -0.201043
vn -0.754596 0.507096 -0.416459
vn -0.651611 -0.641314 -0.405117
vn -0.460522 0.699379 -0.546615
vn -0.747393 -0.373725 -0.549303
vn -0.504324 0.504324 -0.700939
vn -0.327105 -0.654204 -0.681923
vn -0.504348 0.504348 -0.700903
vn -0.654234 -0.327114 -0.68189
vn -0.581174 0.581174 -0.569626
vn -0.373683 -0.74743 -0.54928
vn -0.655654 0.655654 -0.37448
vn -0.641299 -0.651567 -0.405212
vn -0.691139 0.691139 -0.211312
vn -0.876182 -0.438074 -0.200989
vn -0.707107 0.707107 -1.92428e-05
vn -0.447213 -0.894427 -1.8252e-05
vn -0.691142 0.691142 0.211293
vn -0.876185 -0.438075 0.200971
vn -0.655654 0.655654 0.37448
vn -0.641299 -0.651566 0.405212
vn -0.581174 0.581174 0.569626
vn -0.373683 -0.747431 0.54928
vn -0.504289 0.504289 0.700989
vn -0.654161 -0.327078 0.681978
vn -0.483062 0.371031 0.793087
vn -0.276215 -0.552366 0.786509
vn -0.346723 0.361161 0.865648
vn -0.361161 -0.346723 0.865648
vn -0.23676 0.27758 0.931071
vn -0.27758 -0.23676 0.931071
vn -0.100179 0.143485 0.984569
vn -0.172571 -0.0976775 0.980142
vn 0.00643435 -0.0130011 0.999895
vn 0.00965167 0.00970602 0.999906
vn 0.143384 -0.112822 0.983215
vn 0.196071 0.113364 0.974015
vn 0.277383 -0.277387 0.919845
vn 0.183378 0.366835 0.912033
vn 0.523632 -0.33467 0.783457
vn 0.474185 0.330172 0.816171
vn 0.43731 -0.639936 0.631856
vn 0.557491 0.557253 0.615364
vn 0.652753 -0.652994 0.384075
vn 0.798683 0.526714 0.290996
vn 0.706838 -0.706838 -0.0275746
vn 0.447062 0.894121 -0.0261397
vn 0.638574 -0.638574 -0.429472
vn 0.662957 0.64618 -0.378073
vn 0.538049 -0.538049 -0.64885
vn 0.695338 0.347707 -0.628971
vn 0.530492 -0.398382 -0.748245
vn 0.369834 0.555824 -0.744501
vn 0.327031 -0.654063 -0.682094
vn 0.504214 0.504214 -0.701097
vn 0.747484 -0.373741 -0.549168
vn 0.460587 0.69947 -0.546444
vn 0.555602 -0.734965 -0.388758
vn 0.641361 0.651584 -0.405087
vn 0.691119 -0.69112 -0.21144
vn 0.876172 0.438071 -0.201037
vn 0.707107 -0.707106 1.98137e-07
vn 0.447201 0.894434 1.9047e-07
vn 0.691108 -0.691109 0.211515
vn 0.876159 0.438064 0.201108
vn 0.655656 -0.655657 0.374471
vn 0.54332 0.730183 0.414291
vn 0.662415 -0.502988 0.555166
vn 0.581279 0.581277 0.569414
vn 0.504295 0.504295 0.70098
vn 0.327081 -0.654163 0.681974
vn 0.397659 -0.585986 0.706037
vn 0.504301 0.5043 0.700973
vn 0.65701 -0.486634 0.575782
vn 0.460552 0.699413 0.546546
vn 0.412265 -0.824529 0.387542
vn 0.734883 0.555542 0.388999
vn 0.876149 -0.438075 0.201131
vn 0.543428 0.818303 0.187262
vn 0.554577 -0.831865 0.0211154
vn 0.799907 0.599931 -0.0152241
vn 0.783553 -0.589944 -0.194965
vn 0.691105 0.691105 -0.211537
vn 0.691108 -0.691109 0.211512
vn 0.707107 -0.707107 0
vn 0.691108 -0.691109 -0.211512
vn 0.655569 -0.655569 -0.374778
vn 0.581258 -0.581258 -0.569454
vn 0.504332 -0.504333 -0.700926
vn 0.504358 -0.504359 -0.700889
vn 0.581246 -0.581245 -0.569479
vn 0.636707 -0.636706 -0.434981
vn 0.691104 -0.691104 -0.211542
vn 0.707107 -0.707107 -1.92402e-05
vn 0.691107 -0.691107 0.211524
vn 0.636707 -0.636706 0.434982
vn 0.581246 -0.581246 0.569479
vn 0.504298 -0.504299 0.700975
vn 0.489122 -0.334125 0.80568
vn 0.346723 -0.361161 0.865648
vn 0.23676 -0.27758 0.931071
vn 0.0811346 -0.16227 0.983405
vn -0.0129469 0.00647067 0.999895
vn -0.140002 0.162042 0.976802
vn -0.277473 0.277484 0.919789
vn -0.418666 0.418669 0.805875
vn -0.680947 0.443227 0.582976
vn -0.575631 0.759233 0.303668
vn -0.830158 0.553912 -0.0633986
vn -0.517171 0.785623 -0.339603
vn -0.537995 0.537995 -0.648939
vn -0.369833 0.553945 -0.745901
vn -0.654063 0.327031 -0.682094
vn -0.456984 0.676952 -0.576976
vn -0.636777 0.636775 -0.434779
vn -0.69112 0.691121 -0.211435
vn -0.707107 0.707107 1.9813e-07
vn -0.691109 0.691109 0.21151
vn -0.754562 0.507057 0.416568
vn -0.373741 0.747481 0.549172
vn -0.654163 0.327081 0.681974
vn -0.654169 0.327084 0.681967
vn -0.456952 0.676907 0.577055
vn -0.730199 0.543298 0.414291
vn -0.541571 0.809206 0.227788
vn -0.799907 0.599931 0.015227
vn -0.438075 0.876149 -0.201131
vn 0.876158 0.438094 0.201049
vn 0.447214 0.894427 0
vn 0.876158 0.438094 -0.201049
vn 0.543289 0.73021 -0.414283
vn 0.456963 0.676862 -0.577098
vn 0.654203 0.327105 -0.681924
vn 0.327114 0.654234 -0.681891
vn 0.747431 0.373683 -0.549279
vn 0.651567 0.641299 -0.405211
vn 0.438073 0.876182 -0.20099
vn 0.894427 0.447213 -1.82553e-05
vn 0.438075 0.876185 0.200972
vn 0.651567 0.641299 0.405211
vn 0.747432 0.373684 0.549278
vn 0.327077 0.65416 0.681979
vn 0.432528 0.412228 0.801865
vn 0.361161 0.346723 0.865648
vn 0.27758 0.23676 0.931071
vn 0.138891 0.0855945 0.986602
vn -0.00971022 -0.00975102 0.999905
vn -0.102453 -0.161252 0.981581
vn -0.36682 -0.18338 0.912039
vn -0.273822 -0.547357 0.790836
vn -0.543749 -0.570964 0.615091
vn -0.660135 -0.674804 0.32994
vn -0.832231 -0.554349 0.00939708
vn -0.745273 -0.566176 -0.352155
vn -0.347707 -0.695338 -0.628971
vn -0.53052 -0.397187 -0.74886
vn -0.504214 -0.504214 -0.701097
vn -0.581278 -0.581277 -0.569415
vn -0.771395 -0.510248 -0.380259
vn -0.43807 -0.876172 -0.201038
vn -0.894434 -0.4472 1.87128e-07
vn -0.438064 -0.876159 0.201109
vn -0.651562 -0.641345 0.405146
vn -0.657057 -0.486663 0.575704
vn -0.504295 -0.504295 0.70098
vn -0.401022 -0.612125 0.681531
vn -0.662362 -0.502946 0.555268
vn -0.646477 -0.646476 0.405138
vn -0.691105 -0.691106 0.211533
vn -0.554577 -0.831865 -0.0211125
vn -0.78077 -0.583307 -0.223945
# 227 normals
usemtl (null)
f 1//1 2//2 3//3
f 2//2 1//1 4//4
f 1//1 5//5 4//4
f 6//6 4//4 5//5
f 7//7 8//8 9//9
f 10//10 11//11 12//12
f 10//10 8//8 11//11
f 10//10 9//9 8//8
f 13//13 5//5 1//1
f 5//5 13//13 6//6
f 13//13 14//14 6//6
f 15//15 6//6 14//14
f 16//16 17//17 18//18
f 17//17 19//19 18//18
f 20//20 18//18 19//19
f 20//20 21//21 18//18
f 22//22 23//23 24//24
f 22//22 25//25 23//23
f 26//26 25//25 22//22
f 27//27 25//25 26//26
f 28//28 26//26 22//22
f 28//28 27//27 26//26
f 29//29 27//27 28//28
f 30//30 27//27 29//29
f 31//31 32//32 16//16
f 32//32 33//33 16//16
f 19//19 16//16 33//33
f 19//19 17//17 16//16
f 34//34 8//8 35//35
f 8//8 34//34 11//11
f 34//34 36//36 11//11
f 12//12 11//11 36//36
f 37//37 14//14 13//13
f 14//14 37//37 15//15
f 37//37 38//38 15//15
f 39//39 15//15 38//38
f 40//40 41//41 31//31
f 41//41 42//42 31//31
f 33//33 31//31 42//42
f 33//33 32//43 31//31
f 43//44 29//29 28//28
f 43//44 30//30 29//29
f 44//45 30//30 43//44
f 45//46 30//30 44//45
f 46//47 35//35 47//48
f 35//35 46//47 34//34
f 46//47 48//49 34//34
f 36//36 34//34 48//49
f 3//3 38//38 37//37
f 38//38 3//3 39//39
f 3//3 2//2 39//39
f 4//4 39//39 2//2
f 18//18 21//50 40//40
f 21//50 20//20 40//40
f 40//40 20//20 41//41
f 42//42 41//41 20//20
f 24//24 44//45 43//44
f 24//24 45//46 44//45
f 23//23 45//46 24//24
f 25//25 45//46 23//23
f 9//9 47//48 7//7
f 47//48 9//9 46//47
f 9//9 10//10 46//47
f 48//49 46//47 10//10
f 49//51 50//51 51//51
f 52//51 49//51 51//51
f 53//52 54//53 1//1
f 1//1 3//3 53//52
f 53//52 55//54 56//55
f 56//55 54//53 53//52
f 56//55 55//54 57//56
f 57//56 58//57 56//55
f 57//56 59//58 60//59
f 60//59 58//57 57//56
f 59//58 61//60 62//61
f 62//61 60//59 59//58
f 63//62 64//63 62//61
f 62//61 61//60 63//62
f 63//62 20//20 19//19
f 19//19 64//63 63//62
f 18//18 65//64 66//65
f 66//65 16//16 18//18
f 67//66 68//67 66//65
f 66//65 65//64 67//66
f 67//66 69//68 70//69
f 70//69 68//67 67//66
f 69//68 71//70 72//71
f 72//71 70//69 69//68
f 73//72 74//73 72//71
f 72//71 71//70 73//72
f 73//72 75//74 76//75
f 76//75 74//73 73//72
f 77//76 78//77 76//75
f 76//75 75//74 77//76
f 78//77 77//76 79//78
f 79//78 80//79 78//77
f 79//78 81//80 82//81
f 82//81 80//79 79//78
f 83//82 84//83 82//81
f 82//81 81//80 83//82
f 83//82 85//84 86//85
f 84//83 83//82 86//85
f 85//84 87//86 88//87
f 86//85 85//84 88//87
f 87//86 89//88 90//89
f 88//87 87//86 90//89
f 89//88 91//90 92//91
f 92//91 90//89 89//88
f 93//92 94//93 92//91
f 92//91 91//90 93//92
f 95//94 96//95 94//93
f 94//93 93//92 95//94
f 95//94 97//96 98//97
f 98//97 96//95 95//94
f 97//96 99//98 100//99
f 98//97 97//96 100//99
f 100//99 99//98 101//100
f 101//100 102//101 100//99
f 102//101 101//100 103//102
f 103//102 104//103 102//101
f 103//102 105//104 106//105
f 104//103 103//102 106//105
f 105//104 107//106 108//107
f 108//107 106//105 105//104
f 109//108 110//109 108//107
f 108//107 107//106 109//108
f 109//108 111//110 112//111
f 112//111 110//109 109//108
f 113//112 114//113 112//111
f 112//111 111//110 113//112
f 113//112 115//114 116//115
f 116//115 114//113 113//112
f 115//114 117//116 118//117
f 118//117 116//115 115//114
f 119//118 120//119 118//117
f 118//117 117//116 119//118
f 119//118 121//120 122//121
f 122//121 120//119 119//118
f 122//121 121//120 123//122
f 123//122 124//123 122//121
f 125//124 126//125 124//123
f 124//123 123//122 125//124
f 127//126 126//125 125//124
f 125//124 128//127 127//126
f 25//25 27//27 127//126
f 127//126 128//127 25//25
f 24//24 129//128 130//129
f 130//129 22//22 24//24
f 130//129 129//128 131//130
f 131//130 132//131 130//129
f 131//130 133//132 134//133
f 134//133 132//131 131//130
f 135//134 136//135 134//133
f 134//133 133//132 135//134
f 135//134 137//136 138//137
f 138//137 136//135 135//134
f 138//137 137//136 139//138
f 139//138 140//139 138//137
f 139//138 10//10 12//12
f 12//12 140//139 139//138
f 13//13 1//1 54//53
f 54//53 141//140 13//13
f 142//141 141//140 54//53
f 54//53 56//55 142//141
f 58//57 143//142 142//141
f 142//141 56//55 58//57
f 58//57 60//59 144//143
f 144//143 143//142 58//57
f 145//144 144//143 60//59
f 145//144 60//59 62//61
f 64//63 146//145 145//144
f 145//144 62//61 64//63
f 33//33 146//145 64//63
f 64//63 19//19 33//33
f 147//146 31//31 16//16
f 16//16 66//65 147//146
f 68//67 148//147 147//146
f 147//146 66//65 68//67
f 149//148 148//147 68//67
f 68//67 70//69 149//148
f 70//69 72//71 150//149
f 150//149 149//148 70//69
f 74//73 151//150 150//149
f 150//149 72//71 74//73
f 74//73 76//75 152//151
f 152//151 151//150 74//73
f 78//77 153//152 152//151
f 152//151 76//75 78//77
f 80//79 154//153 153//152
f 153//152 78//77 80//79
f 155//154 154//153 80//79
f 80//79 82//81 155//154
f 84//83 156//155 155//154
f 155//154 82//81 84//83
f 157//156 156//155 84//83
f 157//156 84//83 86//85
f 86//85 88//87 158//157
f 86//85 158//157 157//156
f 88//87 90//89 159//158
f 158//157 88//87 159//158
f 159//158 90//89 92//91
f 92//91 160//159 159//158
f 92//91 94//93 161//160
f 161//160 160//159 92//91
f 96//95 162//161 161//160
f 161//160 94//93 96//95
f 96//95 98//97 163//162
f 163//162 162//161 96//95
f 100//99 164//163 163//162
f 163//162 98//97 100//99
f 100//99 102//101 165//164
f 164//163 100//99 165//164
f 104//103 166//165 165//164
f 165//164 102//101 104//103
f 167//166 166//165 104//103
f 104//103 106//105 167//166
f 168//167 167//166 106//105
f 106//105 108//107 168//167
f 168//167 108//107 110//109
f 110//109 169//168 168//167
f 169//168 110//109 112//111
f 112//111 170//169 169//168
f 112//111 114//113 171//170
f 171//170 170//169 112//111
f 114//113 116//115 172//171
f 171//170 114//113 172//171
f 116//115 118//117 173//172
f 173//172 172//171 116//115
f 120//119 174//173 173//172
f 173//172 118//117 120//119
f 175//174 174//173 120//119
f 120//119 122//121 175//174
f 124//123 176//175 175//174
f 175//174 122//121 124//123
f 124//123 126//125 177//176
f 176//175 124//123 177//176
f 127//126 178//177 177//176
f 177//176 126//125 127//126
f 127//126 27//27 30//30
f 30//30 178//177 127//126
f 130//129 179//178 28//28
f 28//28 22//22 130//129
f 130//129 132//131 180//179
f 179//178 130//129 180//179
f 132//131 134//133 181//180
f 180//179 132//131 181//180
f 134//133 136//135 182//181
f 182//181 181//180 134//133
f 136//135 138//137 183//182
f 136//135 183//182 182//181
f 184//183 183//182 138//137
f 184//183 138//137 140//139
f 12//12 36//36 184//183
f 184//183 140//139 12//12
f 13//13 141//140 185//184
f 185//184 37//37 13//13
f 142//141 186//185 185//184
f 185//184 141//140 142//141
f 142//141 143//142 187//186
f 187//186 186//185 142//141
f 144//143 188//187 187//186
f 187//186 143//142 144//143
f 145//144 189//188 188//187
f 188//187 144//143 145//144
f 145//144 146//145 190//189
f 190//189 189//188 145//144
f 190//189 146//145 33//33
f 33//33 42//42 190//189
f 147//146 191//190 40//40
f 40//40 31//31 147//146
f 147//146 148//147 192//191
f 192//191 191//190 147//146
f 192//191 148//147 149//148
f 149//148 193//192 192//191
f 193//192 149//148 150//149
f 150//149 194//193 193//192
f 150//149 151//150 195//194
f 195//194 194//193 150//149
f 152//151 196//195 195//194
f 195//194 151//150 152//151
f 152//151 153//152 197//196
f 197//196 196//195 152//151
f 153//152 154//153 198//197
f 198//197 197//196 153//152
f 198//197 154//153 155//154
f 155//154 199//198 198//197
f 155//154 156//155 200//199
f 200//199 199//198 155//154
f 156//155 157//156 201//200
f 200//199 156//155 201//200
f 157//156 158//157 202//201
f 201//200 157//156 202//201
f 158//157 159//158 203//202
f 202//201 158//157 203//202
f 160//159 204//203 203//202
f 203//202 159//158 160//159
f 160//159 161//160 205//204
f 205//204 204//203 160//159
f 161//160 162//161 206//205
f 206//205 205//204 161//160
f 163//162 207//206 206//205
f 206//205 162//161 163//162
f 208//207 207//206 163//162
f 208//207 163//162 164//163
f 209//208 208//207 164//163
f 164//163 165//164 209//208
f 210//209 209//208 165//164
f 165//164 166//165 210//209
f 166//165 167//166 211//210
f 210//209 166//165 211//210
f 168//167 212//211 211//210
f 211//210 167//166 168//167
f 168//167 169//168 213//212
f 213//212 212//211 168//167
f 213//212 169//168 170//169
f 170//169 214//213 213//212
f 170//169 171//170 215//214
f 215//214 214//213 170//169
f 172//171 216//215 215//214
f 215//214 171//170 172//171
f 173//172 217//216 216//215
f 216//215 172//171 173//172
f 173//172 174//173 218//217
f 218//217 217//216 173//172
f 218//217 174//173 175//174
f 175//174 219//218 218//217
f 175//174 176//175 220//219
f 220//219 219//218 175//174
f 176//175 177//176 221//220
f 221//220 220//219 176//175
f 178//177 222//221 221//220
f 221//220 177//176 178//177
f 178//177 30//30 45//46
f 45//46 222//221 178//177
f 179//178 223//222 43//44
f 43//44 28//28 179//178
f 224//223 223//222 179//178
f 179//178 180//179 224//223
f 181//180 225//224 224//223
f 224//223 180//179 181//180
f 181//180 182//181 226//225
f 226//225 225//224 181//180
f 183//182 227//226 226//225
f 226//225 182//181 183//182
f 228//227 227//226 183//182
f 183//182 184//183 228//227
f 36//36 48//49 228//227
f 228//227 184//183 36//36
f 53//52 3//3 37//37
f 37//37 185//184 53//52
f 186//185 55//54 53//52
f 53//52 185//184 186//185
f 186//185 187//186 57//56
f 57//56 55//54 186//185
f 188//187 59//58 57//56
f 57//56 187//186 188//187
f 61//60 59//58 188//187
f 61//60 188//187 189//188
f 63//62 61//60 189//188
f 189//188 190//189 63//62
f 42//42 20//20 63//62
f 63//62 190//189 42//42
f 18//18 40//40 191//190
f 191//190 65//64 18//18
f 191//190 192//191 67//66
f 67//66 65//64 191//190
f 193//192 69//68 67//66
f 67//66 192//191 193//192
f 194//193 71//70 69//68
f 69//68 193//192 194//193
f 194//193 195//194 73//72
f 73//72 71//70 194//193
f 196//195 75//74 73//72
f 73//72 195//194 196//195
f 77//76 75//74 196//195
f 196//195 197//196 77//76
f 197//196 198//197 79//78
f 79//78 77//76 197//196
f 199//198 81//80 79//78
f 79//78 198//197 199//198
f 199//198 200//199 83//82
f 83//82 81//80 199//198
f 85//84 83//82 200//199
f 85//84 200//199 201//200
f 201//200 202//201 87//86
f 201//200 87//86 85//84
f 202//201 203//202 89//88
f 87//86 202//201 89//88
f 91//90 89//88 203//202
f 203//202 204//203 91//90
f 205//204 93//92 91//90
f 91//90 204//203 205//204
f 95//94 93//92 205//204
f 205//204 206//205 95//94
f 207//206 97//96 95//94
f 95//94 206//205 207//206
f 207//206 208//207 99//98
f 99//98 97//96 207//206
f 208//207 209//208 101//100
f 99//98 208//207 101//100
f 103//102 101//100 209//208
f 209//208 210//209 103//102
f 103//102 210//209 211//210
f 211//210 105//104 103//102
f 105//104 211//210 212//211
f 212//211 107//106 105//104
f 212//211 213//212 109//108
f 109//108 107//106 212//211
f 213//212 214//213 111//110
f 111//110 109//108 213//212
f 215//214 113//112 111//110
f 111//110 214//213 215//214
f 215//214 216//215 115//114
f 113//112 215//214 115//114
f 217//216 117//116 115//114
f 115//114 216//215 217//216
f 217//216 218//217 119//118
f 119//118 117//116 217//216
f 119//118 218//217 219//218
f 219//218 121//120 119//118
f 219//218 220//219 123//122
f 123//122 121//120 219//218
f 220//219 221//220 125//124
f 123//122 220//219 125//124
f 128//127 125//124 221//220
f 221//220 222//221 128//127
f 45//46 25//25 128//127
f 128//127 222//221 45//46
f 43//44 223//222 129//128
f 129//128 24//24 43//44
f 131//130 129//128 223//222
f 131//130 223//222 224//223
f 133//132 131//130 224//223
f 133//132 224//223 225//224
f 226//225 135//134 133//132
f 133//132 225//224 226//225
f 226//225 227//226 137//136
f 135//134 226//225 137//136
f 139//138 137//136 227//226
f 139//138 227//226 228//227
f 228//227 48//49 10//10
f 10//10 139//138 228//227
f 6//6 15//15 39//39
f 4//4 6//6 39//39
f 35//35 8//8 7//7
f 47//48 35//35 7//7
