# 
# Wavefront OBJ file
# 3D Pottery Benchmark Ver. 1.0, Multimedia Department,ILSP-Research Centre Athena, Contact Email: Anestis Koutsoudis (akoutsou@ceti.gr)
# 
# object object
g object
v 530.905 508.528 0
v 539.522 526.931 0
v 529.901 520.217 0
v 550.147 521.955 0
v 541.529 503.552 0
v 551.151 510.266 0
v 521.944 523.943 30.2318
v 557.353 526.983 30.2318
v 538.771 535.685 30.2318
v 559.108 506.54 30.2318
v 523.699 503.5 30.2318
v 542.281 494.799 30.2318
v 541.404 505.02 38.7751
v 542.281 494.799 38.7751
v 523.699 503.5 38.7751
v 559.108 506.54 38.7751
v 549.817 510.891 38.7751
v 532.113 509.371 38.7751
v 521.944 523.943 38.7751
v 531.235 519.592 38.7751
v 539.648 525.463 38.7751
v 557.353 526.983 38.7751
v 548.939 521.112 38.7751
v 538.771 535.685 38.7751
v 542.281 494.799 90.2937
v 541.826 500.094 90.2937
v 523.699 503.5 90.2937
v 528.058 506.542 90.2937
v 559.108 506.54 90.2937
v 554.294 508.794 90.2937
v 521.944 523.943 90.2937
v 526.758 521.689 90.2937
v 557.353 526.983 90.2937
v 552.994 523.941 90.2937
v 539.226 530.389 90.2937
v 538.771 535.685 90.2937
v 538.771 535.685 98.2071
v 557.353 526.983 98.2071
v 521.944 523.943 98.2071
v 559.108 506.54 98.2071
v 523.699 503.5 98.2071
v 542.281 494.799 98.2071
v 551.707 523.044 88.5938
v 552.873 509.459 88.5938
v 549.77 521.692 84.7589
v 550.734 510.461 84.7589
v 551.681 510.018 86.7395
v 550.627 522.29 86.7395
v 549.148 521.258 82.6818
v 550.047 510.783 82.6818
v 548.771 520.995 80.5396
v 549.631 510.978 80.5396
v 549.148 521.258 74.0473
v 550.047 510.783 74.0473
v 549.631 510.978 76.1895
v 548.771 520.995 76.1895
v 549.77 521.692 71.9702
v 550.734 510.461 71.9702
v 550.627 522.29 69.9896
v 551.681 510.018 69.9896
v 552.994 523.941 66.4354
v 554.294 508.794 66.4354
v 552.873 509.459 68.1353
v 551.707 523.044 68.1353
v 557.23 526.897 56.9048
v 558.972 506.603 56.9048
v 558.372 506.884 59.5125
v 556.687 526.518 59.5125
v 552.867 523.853 42.098
v 554.154 508.86 42.098
v 555.891 508.046 44.1843
v 554.44 524.95 44.1843
v 541.692 501.657 88.5938
v 541.826 500.094 66.4354
v 541.692 501.657 68.1353
v 541.373 505.378 78.3646
v 532.407 509.576 78.3646
v 532.281 509.488 80.5396
v 541.386 505.225 80.5396
v 541.386 505.225 76.1895
v 532.281 509.488 76.1895
v 542.212 495.608 59.5125
v 524.365 503.965 59.5125
v 525.267 504.594 62.0062
v 542.117 496.703 62.0062
v 530.425 508.193 86.7395
v 529.371 520.465 86.7395
v 528.179 521.024 88.5938
v 529.345 507.439 88.5938
v 531.282 508.791 84.7589
v 530.318 520.022 84.7589
v 531.904 509.225 82.6818
v 531.005 519.7 82.6818
v 531.421 519.505 80.5396
v 531.56 519.44 78.3646
v 531.421 519.505 76.1895
v 531.904 509.225 74.0473
v 531.005 519.7 74.0473
v 531.282 508.791 71.9702
v 530.318 520.022 71.9702
v 530.425 508.193 69.9896
v 529.371 520.465 69.9896
v 529.345 507.439 68.1353
v 528.179 521.024 68.1353
v 523.85 503.605 51.5785
v 522.111 523.865 51.5785
v 521.889 523.969 54.2405
v 523.649 503.465 54.2405
v 524.42 504.003 48.9773
v 522.741 523.57 48.9773
v 525.348 504.651 46.4943
v 523.765 523.091 46.4943
v 526.612 505.533 44.1843
v 525.161 522.437 44.1843
v 528.185 506.63 42.098
v 526.898 521.623 42.098
v 539.472 527.514 86.7395
v 539.36 528.826 88.5938
v 539.562 526.472 84.7589
v 539.627 525.716 82.6818
v 539.666 525.259 80.5396
v 539.679 525.105 78.3646
v 539.666 525.259 76.1895
v 539.627 525.716 74.0473
v 539.562 526.472 71.9702
v 539.472 527.514 69.9896
v 539.36 528.826 68.1353
v 525.045 522.491 64.3309
v 539.064 532.273 64.3309
v 539.226 530.389 66.4354
v 526.758 521.689 66.4354
v 522.68 523.599 59.5125
v 538.84 534.875 59.5125
v 538.935 533.78 62.0062
v 523.676 523.132 62.0062
v 538.787 535.502 51.5785
v 538.766 535.746 54.2405
v 538.846 534.809 48.9773
v 539.075 532.146 44.1843
v 538.943 533.682 46.4943
v 538.784 535.535 56.9048
v 557.403 527.018 54.2405
v 555.704 525.833 46.4943
v 556.632 526.48 48.9773
v 548.645 520.907 78.3646
v 549.491 511.043 78.3646
v 556.007 507.992 64.3309
v 554.545 525.024 64.3309
v 555.785 525.889 62.0062
v 557.376 507.351 62.0062
v 559.163 506.514 54.2405
v 558.941 506.618 51.5785
v 557.202 526.878 51.5785
v 558.311 506.913 48.9773
v 557.287 507.393 46.4943
v 551.02 522.564 40.2817
v 552.114 509.815 40.2817
v 541.58 502.969 86.7395
v 541.49 504.011 84.7589
v 541.425 504.767 82.6818
v 541.425 504.767 74.0473
v 541.49 504.011 71.9702
v 541.58 502.969 69.9896
v 541.988 498.21 64.3309
v 542.268 494.948 56.9048
v 542.286 494.737 54.2405
v 542.265 494.981 51.5785
v 542.206 495.675 48.9773
v 542.109 496.802 46.4943
v 541.977 498.337 44.1843
v 541.813 500.249 42.098
v 541.62 502.493 40.2817
v 528.058 506.542 66.4354
v 526.507 505.459 64.3309
v 523.822 503.586 56.9048
v 530.032 507.919 40.2817
v 522.08 523.88 56.9048
v 528.938 520.668 40.2817
v 539.239 530.235 42.098
v 539.431 527.991 40.2817
# 180 verts.
vn 0 0 -1
vn -0.0821806 0.957247 -0.277352
vn 0.536874 0.374617 -0.755928
vn -0.64123 0.162252 -0.749999
vn 0.684577 -0.320592 -0.654656
vn -0.556128 -0.57191 -0.603026
vn 0.07408 -0.862855 -0.499994
vn -0.604185 -0.269177 0.750003
vn 0.07408 -0.862855 0.499994
vn 0 0 1
vn 0.452804 -0.212052 0.866027
vn -0.446396 0.32416 0.834057
vn 0.536875 0.374617 0.755928
vn -0.0559964 0.652252 0.755931
vn -0.461116 -0.474202 -0.750003
vn 0.0328824 -0.383083 -0.923129
vn 0.0559996 -0.652261 -0.755923
vn -0.356645 -0.158901 -0.920627
vn 0.535196 -0.388667 -0.750002
vn 0.378491 -0.0957908 -0.920635
vn -0.534823 0.135327 -0.834057
vn -0.34816 0.163059 -0.923145
vn 0.503932 0.224503 -0.834057
vn 0.315291 0.220026 -0.923136
vn -0.0328816 0.383084 -0.923128
vn -0.0740765 0.86285 -0.500003
vn -0.53521 0.388654 0.749999
vn 0.556149 0.571894 0.603022
vn -0.0740765 0.86285 0.500003
vn 0.641225 -0.162259 0.750002
vn -0.728676 -0.32464 0.603026
vn 0.0821842 -0.957249 0.277346
vn 0.632713 -0.459462 -0.623353
vn 0.668601 0.385367 -0.635975
vn 0.82952 -0.209873 -0.517542
vn 0.79762 -0.454628 -0.396378
vn 0.746978 0.526317 -0.40622
vn 0.596516 0.613413 -0.517584
vn 0.875668 -0.410085 -0.255023
vn 0.786283 0.552127 -0.277335
vn 0.94095 -0.31426 -0.125913
vn 0.811102 0.567726 -0.140714
vn 0.960133 -0.242973 0.138236
vn 0.86887 -0.410036 0.277373
vn 0.789519 0.547466 0.277382
vn 0.690462 0.710047 0.138186
vn 0.788872 -0.454257 0.413922
vn 0.810996 0.434807 0.391443
vn 0.801416 -0.2709 0.533241
vn 0.661819 0.544532 0.515248
vn 0.700319 -0.335101 0.630286
vn 0.603124 -0.43801 0.666624
vn 0.680849 0.303316 0.666667
vn 0.640353 0.438942 0.6303
vn 0.902555 -0.300087 0.308776
vn 0.837738 -0.515896 0.179018
vn 0.853949 0.497969 0.150992
vn 0.724062 0.602017 0.336614
vn 0.675041 -0.391027 -0.625634
vn 0.638225 -0.218166 -0.73829
vn 0.5751 0.401288 -0.712901
vn 0.703735 0.375076 -0.603386
vn -0.0261018 -0.786037 -0.617628
vn 0.0599881 -0.77402 0.630314
vn -0.0777439 -0.741351 0.666599
vn -0.761077 -0.631055 -0.150108
vn -0.820062 -0.572274 9.84623e-06
vn -0.0292611 -0.999473 -0.014039
vn 0.269687 -0.952984 -0.13817
vn -0.812735 -0.5654 0.140659
vn 0.165053 -0.977647 0.130242
vn -0.663359 -0.590507 0.459626
vn -0.772825 -0.544192 0.326492
vn 0.15931 -0.928059 0.336639
vn -0.0227954 -0.87237 0.488315
vn -0.724507 0.265784 -0.635962
vn -0.773377 0.35621 -0.524407
vn -0.65102 -0.542355 -0.531059
vn -0.578877 -0.507941 -0.637885
vn -0.82924 0.383744 -0.406328
vn -0.746977 -0.526315 -0.406224
vn -0.871268 0.404888 -0.277413
vn -0.84211 -0.455341 -0.288992
vn -0.89725 0.41857 -0.140502
vn -0.905622 0.424085 -6.27248e-05
vn -0.896011 0.421167 0.140649
vn -0.86889 0.410039 0.277305
vn -0.850121 -0.456605 0.262309
vn -0.825739 0.391274 0.406277
vn -0.756732 -0.528042 0.385395
vn -0.768773 0.3659 0.524504
vn -0.661817 -0.544532 0.515251
vn -0.668059 0.386365 0.63594
vn -0.640352 -0.43894 0.630303
vn -0.937383 0.348252 0.00581231
vn -0.890572 0.419443 -0.175922
vn -0.760595 -0.628313 -0.163456
vn -0.748971 -0.662515 0.0107551
vn -0.850508 0.402912 -0.338081
vn -0.774156 -0.535085 -0.338182
vn -0.788415 0.375854 -0.486967
vn -0.719694 -0.494831 -0.487014
vn -0.675026 0.390999 -0.625667
vn -0.703765 -0.375111 -0.603329
vn -0.602229 0.28201 -0.746854
vn -0.535865 -0.437907 -0.721863
vn -0.0675685 0.786729 -0.613589
vn -0.173836 0.842066 -0.510594
vn -0.0822643 0.91002 -0.40632
vn -0.0850298 0.957021 -0.277273
vn -0.0861385 0.986309 -0.140624
vn -0.0033611 0.999944 0.0100375
vn -0.196239 0.968452 0.153594
vn -0.0793516 0.957499 0.277306
vn -0.00102545 0.910327 0.413888
vn -0.166076 0.82945 0.533321
vn 0.0261024 0.786037 0.617628
vn -0.0632374 0.736644 0.673318
vn -0.163813 0.787529 0.594108
vn -0.703605 0.329509 0.629575
vn -0.669521 0.31356 0.673366
vn -0.00582844 0.885181 0.465211
vn -0.191394 0.931719 0.308654
vn -0.857685 0.397186 0.326527
vn -0.820616 0.301775 0.485305
vn -0.00330842 0.999824 -0.0184408
vn -0.0837555 0.975454 -0.203655
vn -0.184614 0.917723 -0.351714
vn -0.0686875 0.870671 -0.487047
vn 0.0825364 0.786931 -0.611497
vn -0.0863985 0.982754 0.163491
vn 0.880062 0.474286 -0.0233305
vn 0.771794 0.538527 -0.338117
vn 0.651117 0.572098 -0.498749
vn 0.80914 -0.587617 -1.70123e-06
vn 0.913454 0.406943 -1.70131e-06
vn 0.743482 -0.25265 0.619195
vn 0.618981 0.507658 0.599288
vn 0.796169 -0.372841 0.476555
vn 0.72099 0.503084 0.476529
vn 0.905395 -0.423992 0.022133
vn 0.891492 -0.417471 -0.175953
vn 0.738946 0.654964 -0.15805
vn 0.797643 -0.489926 -0.351765
vn 0.850321 -0.215183 -0.48026
vn 0.466927 -0.339101 -0.816694
vn 0.49831 0.295677 -0.815023
vn 0.501682 -0.126944 -0.855687
vn 0.360715 0.370951 -0.855734
vn 0.23298 -0.823279 -0.517622
vn -0.0247134 -0.908813 -0.416471
vn 0.00184211 -0.958219 -0.286031
vn 0.0018421 -0.958219 0.286031
vn -0.0247134 -0.908813 0.416471
vn 0.23298 -0.823279 0.517622
vn 0.217363 -0.768088 0.602325
vn 0.00429221 -0.988523 0.15101
vn 0.0854836 -0.995732 -0.0348013
vn 0.0842106 -0.980769 -0.176073
vn 0.0812854 -0.94662 -0.311934
vn 0.144136 -0.867704 -0.475726
vn -0.0825413 -0.786968 -0.611448
vn 0.187822 -0.663727 -0.724009
vn -0.0601609 -0.573917 -0.816701
vn 0.140941 -0.498012 -0.85564
vn -0.680852 -0.303316 0.666663
vn -0.618981 -0.50766 0.599286
vn -0.901601 -0.40166 0.160574
vn -0.527072 -0.234812 -0.816737
vn -0.360725 -0.37099 -0.855713
vn -0.837737 0.515897 0.179016
vn -0.47947 0.290181 -0.828193
vn -0.501681 0.126941 -0.855688
vn -0.0674765 0.679941 -0.730155
vn -0.0589498 0.567018 -0.821593
vn -0.140925 0.4979 -0.855708
# 176 normals
usemtl (null)
f 3//1 2//1 1//1
f 4//1 1//1 2//1
f 4//1 5//1 1//1
f 5//1 4//1 6//1
f 9//2 8//3 7//4
f 10//5 7//4 8//3
f 7//4 10//5 11//6
f 11//6 10//5 12//7
f 15//8 14//9 13//10
f 14//9 16//11 13//10
f 13//10 16//11 17//10
f 18//10 15//8 13//10
f 15//8 18//10 19//12
f 18//10 20//10 19//12
f 21//10 19//12 20//10
f 22//13 17//10 16//11
f 22//13 23//10 17//10
f 22//13 21//10 23//10
f 19//12 21//10 24//14
f 21//10 22//13 24//14
f 27//15 26//16 25//17
f 26//16 27//15 28//18
f 25//17 26//16 29//19
f 30//20 29//19 26//16
f 31//21 28//18 27//15
f 31//21 32//22 28//18
f 29//19 30//20 33//23
f 30//20 34//24 33//23
f 32//22 31//21 35//25
f 35//25 33//23 34//24
f 33//23 35//25 36//26
f 35//25 31//21 36//26
f 39//27 38//28 37//29
f 38//28 39//27 40//30
f 41//31 40//30 39//27
f 40//30 41//31 42//32
f 30//20 44//33 43//34
f 43//34 34//24 30//20
f 47//35 46//36 45//37
f 45//37 48//38 47//35
f 46//36 50//39 49//40
f 49//40 45//37 46//36
f 50//39 52//41 51//42
f 51//42 49//40 50//39
f 55//43 54//44 53//45
f 53//45 56//46 55//43
f 54//44 58//47 57//48
f 57//48 53//45 54//44
f 58//47 60//49 59//50
f 59//50 57//48 58//47
f 63//51 62//52 61//53
f 61//53 64//54 63//51
f 67//55 66//56 65//57
f 65//57 68//58 67//55
f 71//59 70//60 69//61
f 69//61 72//62 71//59
f 26//16 73//63 44//33
f 44//33 30//20 26//16
f 75//64 74//65 62//52
f 62//52 63//51 75//64
f 78//66 77//67 76//68
f 76//68 79//69 78//66
f 77//67 81//70 80//71
f 80//71 76//68 77//67
f 84//72 83//73 82//74
f 82//74 85//75 84//72
f 88//76 87//77 86//78
f 86//78 89//79 88//76
f 87//77 91//80 90//81
f 90//81 86//78 87//77
f 91//80 93//82 92//83
f 92//83 90//81 91//80
f 93//82 94//84 78//66
f 78//66 92//83 93//82
f 94//84 95//85 77//67
f 77//67 78//66 94//84
f 95//85 96//86 81//70
f 81//70 77//67 95//85
f 96//86 98//87 97//88
f 97//88 81//70 96//86
f 98//87 100//89 99//90
f 99//90 97//88 98//87
f 100//89 102//91 101//92
f 101//92 99//90 100//89
f 102//91 104//93 103//94
f 103//94 101//92 102//91
f 107//95 106//96 105//97
f 105//97 108//98 107//95
f 106//96 110//99 109//100
f 109//100 105//97 106//96
f 110//99 112//101 111//102
f 111//102 109//100 110//99
f 112//101 114//103 113//104
f 113//104 111//102 112//101
f 114//103 116//105 115//106
f 115//106 113//104 114//103
f 118//107 117//108 87//77
f 87//77 88//76 118//107
f 117//108 119//109 91//80
f 91//80 87//77 117//108
f 119//109 120//110 93//82
f 93//82 91//80 119//109
f 120//110 121//111 94//84
f 94//84 93//82 120//110
f 121//111 122//112 95//85
f 95//85 94//84 121//111
f 122//112 123//113 96//86
f 96//86 95//85 122//112
f 123//113 124//114 98//87
f 98//87 96//86 123//113
f 124//114 125//115 100//89
f 100//89 98//87 124//114
f 125//115 126//116 102//91
f 102//91 100//89 125//115
f 126//116 127//117 104//93
f 104//93 102//91 126//116
f 130//118 129//119 128//120
f 128//120 131//121 130//118
f 134//122 133//123 132//124
f 132//124 135//125 134//122
f 137//126 136//127 106//96
f 106//96 107//95 137//126
f 136//127 138//128 110//99
f 110//99 106//96 136//127
f 140//129 139//130 114//103
f 114//103 112//101 140//129
f 45//37 49//40 120//110
f 120//110 119//109 45//37
f 49//40 51//42 121//111
f 121//111 120//110 49//40
f 56//46 53//45 124//114
f 124//114 123//113 56//46
f 53//45 57//48 125//115
f 125//115 124//114 53//45
f 68//58 65//57 141//131
f 141//131 133//123 68//58
f 65//57 142//132 137//126
f 137//126 141//131 65//57
f 144//133 143//134 140//129
f 140//129 138//128 144//133
f 143//134 72//62 139//130
f 139//130 140//129 143//134
f 40//30 29//19 33//23
f 33//23 38//28 40//30
f 47//35 48//38 43//34
f 47//35 43//34 44//33
f 52//41 146//135 145//136
f 51//42 52//41 145//136
f 145//136 146//135 55//43
f 145//136 55//43 56//46
f 64//54 59//50 60//49
f 63//51 64//54 60//49
f 61//53 62//52 147//137
f 61//53 147//137 148//138
f 150//139 149//140 148//138
f 150//139 148//138 147//137
f 68//58 149//140 150//139
f 150//139 67//55 68//58
f 151//141 142//132 65//57
f 65//57 66//56 151//141
f 142//132 151//141 152//142
f 152//142 153//143 142//132
f 152//142 154//144 144//133
f 153//143 152//142 144//133
f 155//145 143//134 144//133
f 155//145 144//133 154//144
f 155//145 71//59 72//62
f 72//62 143//134 155//145
f 70//60 157//146 156//147
f 69//61 70//60 156//147
f 17//148 23//149 156//147
f 17//148 156//147 157//146
f 10//5 8//3 22//13
f 16//11 10//5 22//13
f 42//32 25//17 29//19
f 40//30 42//32 29//19
f 158//150 47//35 44//33
f 158//150 44//33 73//63
f 158//150 159//151 46//36
f 47//35 158//150 46//36
f 46//36 159//151 160//152
f 160//152 50//39 46//36
f 79//69 52//41 50//39
f 50//39 160//152 79//69
f 146//135 52//41 79//69
f 79//69 76//68 146//135
f 80//71 55//43 146//135
f 146//135 76//68 80//71
f 54//44 55//43 80//71
f 80//71 161//153 54//44
f 161//153 162//154 58//47
f 58//47 54//44 161//153
f 58//47 162//154 163//155
f 58//47 163//155 60//49
f 63//51 60//49 163//155
f 75//64 63//51 163//155
f 164//156 147//137 62//52
f 164//156 62//52 74//65
f 164//156 85//75 150//139
f 147//137 164//156 150//139
f 82//74 67//55 150//139
f 82//74 150//139 85//75
f 66//56 67//55 82//74
f 165//157 66//56 82//74
f 165//157 166//158 151//141
f 66//56 165//157 151//141
f 152//142 151//141 166//158
f 166//158 167//159 152//142
f 152//142 167//159 168//160
f 168//160 154//144 152//142
f 154//144 168//160 169//161
f 154//144 169//161 155//145
f 169//161 170//162 71//59
f 71//59 155//145 169//161
f 71//59 170//162 171//163
f 71//59 171//163 70//60
f 171//163 172//164 157//146
f 70//60 171//163 157//146
f 13//165 17//148 157//146
f 13//165 157//146 172//164
f 10//5 16//11 14//9
f 14//9 12//7 10//5
f 27//15 25//17 42//32
f 27//15 42//32 41//31
f 89//79 73//63 26//16
f 89//79 26//16 28//18
f 73//63 89//79 86//78
f 73//63 86//78 158//150
f 159//151 158//150 86//78
f 90//81 159//151 86//78
f 160//152 159//151 90//81
f 92//83 160//152 90//81
f 78//66 79//69 160//152
f 160//152 92//83 78//66
f 161//153 80//71 81//70
f 81//70 97//88 161//153
f 99//90 162//154 161//153
f 99//90 161//153 97//88
f 101//92 163//155 162//154
f 101//92 162//154 99//90
f 101//92 103//94 75//64
f 163//155 101//92 75//64
f 74//65 75//64 103//94
f 173//166 74//65 103//94
f 74//65 173//166 174//167
f 74//65 174//167 164//156
f 85//75 164//156 174//167
f 84//72 85//75 174//167
f 165//157 82//74 83//73
f 175//168 165//157 83//73
f 108//98 166//158 165//157
f 165//157 175//168 108//98
f 105//97 167//159 166//158
f 166//158 108//98 105//97
f 168//160 167//159 105//97
f 109//100 168//160 105//97
f 109//100 111//102 169//161
f 168//160 109//100 169//161
f 111//102 113//104 170//162
f 169//161 111//102 170//162
f 115//106 171//163 170//162
f 115//106 170//162 113//104
f 115//106 176//169 172//164
f 171//163 115//106 172//164
f 172//164 176//169 18//170
f 172//164 18//170 13//165
f 11//6 12//7 14//9
f 11//6 14//9 15//8
f 31//21 27//15 41//31
f 39//27 31//21 41//31
f 88//76 89//79 28//18
f 28//18 32//22 88//76
f 173//166 103//94 104//93
f 104//93 131//121 173//166
f 173//166 131//121 128//120
f 173//166 128//120 174//167
f 135//125 84//72 174//167
f 135//125 174//167 128//120
f 83//73 84//72 135//125
f 135//125 132//124 83//73
f 132//124 177//171 175//168
f 83//73 132//124 175//168
f 107//95 108//98 175//168
f 175//168 177//171 107//95
f 116//105 178//172 176//169
f 115//106 116//105 176//169
f 20//173 18//170 176//169
f 20//173 176//169 178//172
f 7//4 11//6 15//8
f 7//4 15//8 19//12
f 36//26 31//21 39//27
f 36//26 39//27 37//29
f 88//76 32//22 35//25
f 118//107 88//76 35//25
f 130//118 131//121 104//93
f 130//118 104//93 127//117
f 129//119 134//122 135//125
f 128//120 129//119 135//125
f 177//171 132//124 133//123
f 141//131 177//171 133//123
f 141//131 137//126 107//95
f 177//171 141//131 107//95
f 138//128 140//129 112//101
f 110//99 138//128 112//101
f 179//174 116//105 114//103
f 179//174 114//103 139//130
f 180//175 178//172 116//105
f 180//175 116//105 179//174
f 178//172 180//175 21//176
f 178//172 21//176 20//173
f 9//2 7//4 19//12
f 9//2 19//12 24//14
f 38//28 33//23 36//26
f 36//26 37//29 38//28
f 43//34 118//107 35//25
f 43//34 35//25 34//24
f 118//107 43//34 48//38
f 118//107 48//38 117//108
f 119//109 117//108 48//38
f 45//37 119//109 48//38
f 122//112 121//111 51//42
f 51//42 145//136 122//112
f 56//46 123//113 122//112
f 122//112 145//136 56//46
f 59//50 126//116 125//115
f 59//50 125//115 57//48
f 59//50 64//54 127//117
f 126//116 59//50 127//117
f 130//118 127//117 64//54
f 61//53 130//118 64//54
f 130//118 61//53 148//138
f 130//118 148//138 129//119
f 134//122 129//119 148//138
f 149//140 134//122 148//138
f 134//122 149//140 68//58
f 134//122 68//58 133//123
f 137//126 142//132 153//143
f 153//143 136//127 137//126
f 144//133 138//128 136//127
f 144//133 136//127 153//143
f 69//61 179//174 139//130
f 69//61 139//130 72//62
f 156//147 180//175 179//174
f 179//174 69//61 156//147
f 180//175 156//147 23//149
f 180//175 23//149 21//176
f 9//2 24//14 22//13
f 8//3 9//2 22//13
