# 
# Wavefront OBJ file
# 3D Pottery Benchmark Ver. 1.0, Multimedia Department,ILSP-Research Centre Athena, Contact Email: Anestis Koutsoudis (akoutsou@ceti.gr)
# 
# object object
g object
v 588.377 493.889 11.3343
v 617.51 487.353 11.3343
v 610.975 493.889 11.3343
v 581.841 487.353 11.3343
v 581.841 523.023 11.3343
v 588.377 516.487 11.3343
v 610.975 516.487 11.3343
v 617.51 523.023 11.3343
v 610.975 516.487 78.7359
v 589.328 515.536 80.9124
v 610.024 515.536 80.9124
v 587.002 517.862 75.5893
v 588.377 516.487 78.7359
v 612.35 517.862 75.5893
v 589.328 494.84 36.7169
v 588.377 493.889 38.8934
v 589.328 515.536 36.7169
v 587.002 492.514 42.0399
v 587.002 517.862 42.0399
v 588.377 516.487 38.8934
v 587.002 492.514 75.5893
v 588.377 493.889 78.7359
v 589.328 494.84 80.9124
v 610.024 494.84 36.7169
v 610.024 515.536 36.7169
v 610.975 493.889 38.8934
v 612.35 492.514 42.0399
v 610.975 516.487 38.8934
v 612.35 517.862 42.0399
v 610.975 493.889 78.7359
v 612.35 492.514 75.5893
v 610.024 494.84 80.9124
v 581.841 487.353 106.295
v 588.377 493.889 106.295
v 617.51 487.353 106.295
v 610.975 493.889 106.295
v 581.841 523.023 106.295
v 588.377 516.487 106.295
v 610.975 516.487 106.295
v 617.51 523.023 106.295
v 589.066 494.578 0
v 610.286 494.578 0
v 610.286 515.798 0
v 589.066 515.798 0
v 617.51 487.353 111.413
v 617.51 523.023 111.413
v 610.024 515.536 104.118
v 610.024 494.84 104.118
v 609.238 495.625 101.877
v 609.238 514.751 101.877
v 608.623 496.241 99.5829
v 608.623 514.135 99.5829
v 608.181 513.693 97.2492
v 608.181 496.683 97.2492
v 607.914 496.95 94.8889
v 607.914 513.427 94.8889
v 607.825 497.038 92.5154
v 607.825 513.338 92.5154
v 607.914 496.95 90.1419
v 607.914 513.427 90.1419
v 608.181 496.683 87.7816
v 608.181 513.693 87.7816
v 608.623 496.241 85.448
v 608.623 514.135 85.448
v 609.238 495.625 83.1539
v 609.238 514.751 83.1539
v 613.486 491.378 72.3487
v 613.486 518.998 72.3487
v 614.376 490.488 69.0321
v 614.376 519.888 69.0321
v 615.015 489.849 65.6583
v 615.015 520.527 65.6583
v 615.4 489.464 62.2461
v 615.4 520.912 62.2461
v 615.529 489.335 58.8146
v 615.529 521.041 58.8146
v 615.4 520.912 55.3832
v 615.4 489.464 55.3832
v 615.015 489.849 51.9709
v 615.015 520.527 51.9709
v 614.376 490.488 48.5971
v 614.376 519.888 48.5971
v 613.486 491.378 45.2806
v 613.486 518.998 45.2806
v 609.238 495.625 34.4753
v 609.238 514.751 34.4753
v 608.623 496.241 32.1813
v 608.623 514.135 32.1813
v 608.181 496.683 29.8476
v 608.181 513.693 29.8476
v 607.914 496.95 27.4874
v 607.914 513.427 27.4874
v 607.825 497.038 25.1138
v 607.825 513.338 25.1138
v 607.914 496.95 22.7403
v 607.914 513.427 22.7403
v 608.181 496.683 20.3801
v 608.181 513.693 20.3801
v 608.623 514.135 18.0464
v 608.623 496.241 18.0464
v 609.238 495.625 15.7523
v 609.238 514.751 15.7523
v 610.024 494.84 13.5108
v 610.024 515.536 13.5108
v 591.526 513.338 25.1138
v 591.526 497.038 25.1138
v 591.437 496.95 27.4874
v 591.437 513.427 27.4874
v 591.437 513.427 22.7403
v 591.437 496.95 22.7403
v 591.171 513.693 20.3801
v 591.171 496.683 20.3801
v 590.729 514.135 18.0464
v 590.729 496.241 18.0464
v 590.113 514.751 15.7523
v 590.113 495.625 15.7523
v 589.328 515.536 13.5108
v 589.328 494.84 13.5108
v 581.841 523.023 6.21619
v 581.841 487.353 6.21619
v 581.841 487.353 111.413
v 589.328 494.84 104.118
v 590.113 495.625 101.877
v 590.729 496.241 99.5829
v 591.171 496.683 97.2492
v 591.437 496.95 94.8889
v 591.526 497.038 92.5154
v 591.437 496.95 90.1419
v 591.171 496.683 87.7816
v 590.729 496.241 85.448
v 590.113 495.625 83.1539
v 585.866 491.378 72.3487
v 584.976 490.488 69.0321
v 584.337 489.849 65.6583
v 583.952 489.464 62.2461
v 583.823 489.335 58.8146
v 583.952 489.464 55.3832
v 584.337 489.849 51.9709
v 584.976 490.488 48.5971
v 585.866 491.378 45.2806
v 590.113 495.625 34.4753
v 590.729 496.241 32.1813
v 591.171 496.683 29.8476
v 617.51 487.353 6.21619
v 617.51 523.023 6.21619
v 581.841 523.023 111.413
v 589.328 515.536 104.118
v 590.113 514.751 101.877
v 590.729 514.135 99.5829
v 591.171 513.693 97.2492
v 591.437 513.427 94.8889
v 591.526 513.338 92.5154
v 591.437 513.427 90.1419
v 591.171 513.693 87.7816
v 590.729 514.135 85.448
v 590.113 514.751 83.1539
v 585.866 518.998 72.3487
v 584.976 519.888 69.0321
v 584.337 520.527 65.6583
v 583.952 520.912 62.2461
v 583.823 521.041 58.8146
v 583.952 520.912 55.3832
v 584.337 520.527 51.9709
v 584.976 519.888 48.5971
v 585.866 518.998 45.2806
v 590.113 514.751 34.4753
v 590.729 514.135 32.1813
v 591.171 513.693 29.8476
# 168 verts.
vn -0.32784 -0.16392 0.930404
vn 0.436436 -0.218218 0.872872
vn 0.241095 -0.482191 0.842238
vn -0.333333 -0.666667 0.666667
vn -0.534522 0.267261 0.801784
vn -0.196044 0.392087 0.898796
vn 0.392087 0.196044 0.898796
vn 0.267261 0.534522 0.801784
vn 0.601523 0.601523 0.52568
vn -0.540646 0.678821 0.496894
vn 0.618021 0.618064 0.485847
vn -0.618015 0.618015 0.485918
vn -0.601523 0.601523 0.52568
vn 0.540608 0.678766 0.497011
vn -0.623399 -0.623398 -0.471962
vn -0.601521 -0.601521 -0.525686
vn -0.426578 0.763474 -0.484911
vn -0.616239 -0.611707 -0.496048
vn -0.363532 0.809448 -0.461126
vn 0.256631 0.921774 -0.290644
vn -0.823669 -0.330438 0.460846
vn -0.601523 -0.601523 0.52568
vn -0.455411 -0.753069 0.474856
vn 0.527722 -0.69508 -0.488235
vn 0.783424 0.39464 -0.48011
vn 0.601521 -0.60152 -0.525686
vn 0.752992 -0.45535 -0.475036
vn 0.60152 0.601521 -0.525686
vn 0.330438 0.823669 -0.460848
vn 0.601523 -0.601523 0.52568
vn 0.455349 -0.752993 0.475036
vn 0.823672 -0.330464 0.460823
vn -0.666667 -0.333333 -0.666667
vn -0.163932 -0.327863 -0.930394
vn 0.218218 -0.436436 -0.872872
vn 0.482228 -0.241114 -0.842211
vn -0.267261 0.534522 -0.801784
vn -0.392117 0.196058 -0.89878
vn 0.196058 0.392117 -0.89878
vn 0.534522 0.267261 -0.801784
vn 0 0 1
vn 0.816497 -0.408248 0.408248
vn 0.333333 0.666667 0.666667
vn 0.725687 0.4862 -0.486814
vn 0.621031 -0.615022 -0.485868
vn 0.413129 -0.82627 -0.382887
vn 0.647961 0.64797 -0.400351
vn 0.762911 -0.57379 -0.297879
vn 0.529411 0.796346 -0.292501
vn 0.876621 0.43832 -0.19852
vn 0.691507 -0.691506 -0.208897
vn 0.79523 -0.595864 -0.112048
vn 0.444954 0.88993 -0.100197
vn 0.554665 -0.83201 -0.0102805
vn 0.799978 0.599983 0.00749827
vn 0.703149 -0.703156 0.105609
vn 0.551444 0.826412 0.11381
vn 0.812132 -0.542439 0.214946
vn 0.816553 0.543361 0.194938
vn 0.67095 -0.674754 0.307461
vn 0.676433 0.676407 0.291398
vn 0.413137 -0.826285 0.382847
vn 0.647974 0.647983 0.400309
vn 0.647951 -0.647951 0.400399
vn 0.82625 0.413125 0.382934
vn 0.760984 -0.569107 0.31148
vn 0.427567 0.855134 0.293141
vn 0.588641 -0.78338 0.199545
vn 0.690231 0.692836 0.20871
vn 0.703152 -0.703152 0.10562
vn 0.889921 0.44496 0.100257
vn 0.707107 -0.707107 -7.67087e-07
vn 0.447214 0.894427 -7.28557e-07
vn 0.828659 0.551922 -0.0933063
vn 0.826401 -0.551451 -0.113855
vn 0.543363 -0.81658 -0.194817
vn 0.691535 0.691536 -0.208705
vn 0.672837 -0.672837 -0.307538
vn 0.52812 0.789915 -0.311647
vn 0.647951 -0.647951 -0.400398
vn 0.82625 0.413125 -0.382933
vn 0.413137 -0.826285 -0.382845
vn 0.647975 0.647984 -0.400307
vn 0.76291 -0.573789 -0.297885
vn 0.52941 0.796345 -0.292507
vn 0.691506 -0.691505 -0.208901
vn 0.876621 0.43832 -0.198523
vn 0.79523 -0.595864 -0.112051
vn 0.444954 0.88993 -0.100199
vn 0.554665 -0.83201 -0.0102792
vn 0.799977 0.599983 0.00749929
vn 0.703149 -0.703155 0.105612
vn 0.551443 0.826412 0.113814
vn 0.812133 -0.542439 0.214943
vn 0.816553 0.543361 0.194938
vn 0.676434 0.676408 0.291391
vn 0.670951 -0.674756 0.307456
vn 0.413137 -0.826285 0.382847
vn 0.647974 0.647983 0.400309
vn 0.791134 -0.395595 0.466489
vn 0.486158 0.725701 0.486835
vn -0.799977 0.599983 -0.0074971
vn -0.554665 -0.83201 0.0102813
vn -0.795967 -0.59753 -0.0969295
vn -0.703164 0.703164 -0.10546
vn -0.551931 0.82867 0.0931547
vn -0.889937 -0.444962 0.100104
vn -0.691548 0.691548 0.20862
vn -0.43832 -0.87662 0.198528
vn -0.5281 0.789884 0.311758
vn -0.760954 -0.569081 0.311602
vn -0.826282 0.41314 0.382849
vn -0.647978 -0.647978 0.400312
vn -0.615041 0.621119 0.485733
vn -0.52924 -0.702198 0.476259
vn -0.333333 0.666667 -0.666667
vn -0.816497 -0.408248 -0.408248
vn -0.7022 -0.529234 -0.476263
vn -0.647965 -0.647965 -0.400354
vn -0.669055 -0.669057 -0.323617
vn -0.585412 -0.782005 -0.213918
vn -0.795967 -0.59753 -0.0969281
vn -0.554665 -0.83201 0.0102804
vn -0.889938 -0.444962 0.100101
vn -0.43832 -0.876619 0.19853
vn -0.760953 -0.569081 0.311606
vn -0.647978 -0.647978 0.400312
vn -0.413125 -0.82625 0.382934
vn -0.762878 -0.573794 0.297955
vn -0.691535 -0.691535 0.208705
vn -0.595871 -0.795238 0.111956
vn -0.894427 -0.447214 -7.28557e-07
vn -0.444961 -0.889921 -0.100256
vn -0.692837 -0.690233 -0.208699
vn -0.855131 -0.427566 -0.293153
vn -0.413125 -0.82625 -0.382933
vn -0.647978 -0.647978 -0.40031
vn -0.669053 -0.669055 -0.323626
vn -0.585412 -0.782005 -0.213921
vn 0.333333 -0.666667 -0.666667
vn 0.816497 0.408248 -0.408248
vn -0.816497 0.408248 0.408248
vn -0.39561 0.791216 -0.466337
vn -0.826267 0.413133 -0.38289
vn -0.674739 0.670887 -0.307634
vn -0.588655 0.783396 -0.199439
vn -0.703164 0.703164 -0.105458
vn -0.799978 0.599983 -0.00749844
vn -0.551931 0.82867 0.093152
vn -0.691548 0.691548 0.208622
vn -0.528099 0.789883 0.311762
vn -0.826282 0.413141 0.382849
vn -0.647951 0.647951 0.400399
vn -0.672837 0.672838 0.307539
vn -0.782027 0.585416 0.213827
vn -0.597518 0.795945 0.0971766
vn -0.707107 0.707107 -7.67088e-07
vn -0.703152 0.703151 -0.105622
vn -0.812158 0.542461 -0.214794
vn -0.529386 0.79635 -0.292536
vn -0.647951 0.647951 -0.400398
vn -0.826282 0.413141 -0.382847
vn -0.674738 0.670885 -0.307641
vn -0.588654 0.783396 -0.199442
# 164 normals
usemtl (null)
f 1//1 2//2 3//3
f 4//4 1//1 5//5
f 6//6 5//5 1//1
f 3//3 2//2 7//7
f 5//5 6//6 8//8
f 6//6 7//7 8//8
f 7//7 2//2 8//8
f 2//2 1//1 4//4
f 9//9 10//10 11//11
f 12//12 13//13 14//14
f 13//13 10//10 14//14
f 10//10 9//9 14//14
f 15//15 16//16 17//17
f 16//16 18//18 17//17
f 19//19 17//17 18//18
f 19//19 20//20 17//17
f 21//21 13//13 12//12
f 21//21 10//10 13//13
f 22//22 10//10 21//21
f 23//23 10//10 22//22
f 24//24 25//25 26//26
f 27//27 28//28 29//29
f 27//27 25//25 28//28
f 27//27 26//26 25//25
f 14//14 30//30 31//31
f 14//14 32//32 30//30
f 9//9 32//32 14//14
f 11//11 32//32 9//9
f 25//25 17//17 28//28
f 29//29 20//20 19//19
f 29//29 17//17 20//20
f 29//29 28//28 17//17
f 31//31 22//22 21//21
f 31//31 23//23 22//22
f 30//30 23//23 31//31
f 32//32 23//23 30//30
f 15//15 24//24 16//16
f 18//18 26//26 27//27
f 18//18 24//24 26//26
f 18//18 16//16 24//24
f 33//33 34//34 35//35
f 36//36 35//35 34//34
f 37//37 34//34 33//33
f 34//34 37//37 38//38
f 39//39 35//35 36//36
f 40//40 38//38 37//37
f 40//40 39//39 38//38
f 40//40 35//35 39//39
f 41//41 42//41 43//41
f 44//41 41//41 43//41
f 45//42 35//35 40//40
f 46//43 45//42 40//40
f 47//44 39//39 36//36
f 47//44 36//36 48//45
f 48//45 49//46 50//47
f 50//47 47//44 48//45
f 50//47 49//46 51//48
f 51//48 52//49 50//47
f 53//50 52//49 51//48
f 53//50 51//48 54//51
f 53//50 54//51 55//52
f 55//52 56//53 53//50
f 55//52 57//54 58//55
f 58//55 56//53 55//52
f 59//56 60//57 58//55
f 58//55 57//54 59//56
f 59//56 61//58 62//59
f 62//59 60//57 59//56
f 61//58 63//60 64//61
f 61//58 64//61 62//59
f 63//60 65//62 66//63
f 66//63 64//61 63//60
f 32//32 11//11 66//63
f 66//63 65//62 32//32
f 31//31 67//64 68//65
f 68//65 14//14 31//31
f 68//65 67//64 69//66
f 69//66 70//67 68//65
f 69//66 71//68 72//69
f 72//69 70//67 69//66
f 71//68 73//70 74//71
f 71//68 74//71 72//69
f 75//72 76//73 74//71
f 74//71 73//70 75//72
f 77//74 76//73 75//72
f 75//72 78//75 77//74
f 78//75 79//76 80//77
f 77//74 78//75 80//77
f 81//78 82//79 80//77
f 80//77 79//76 81//78
f 81//78 83//80 84//81
f 84//81 82//79 81//78
f 27//27 29//29 84//81
f 84//81 83//80 27//27
f 24//24 85//82 86//83
f 86//83 25//25 24//24
f 87//84 88//85 86//83
f 86//83 85//82 87//84
f 87//84 89//86 90//87
f 87//84 90//87 88//85
f 91//88 92//89 90//87
f 90//87 89//86 91//88
f 91//88 93//90 94//91
f 94//91 92//89 91//88
f 95//92 96//93 94//91
f 94//91 93//90 95//92
f 95//92 97//94 98//95
f 98//95 96//93 95//92
f 99//96 98//95 97//94
f 99//96 97//94 100//97
f 100//97 101//98 102//99
f 102//99 99//96 100//97
f 103//100 104//101 102//99
f 102//99 101//98 103//100
f 105//102 106//103 107//104
f 107//104 108//105 105//102
f 105//102 109//106 110//107
f 110//107 106//103 105//102
f 111//108 112//109 110//107
f 110//107 109//106 111//108
f 111//108 113//110 114//111
f 112//109 111//108 114//111
f 115//112 116//113 114//111
f 114//111 113//110 115//112
f 115//112 117//114 118//115
f 118//115 116//113 115//112
f 117//114 6//6 1//1
f 118//115 117//114 1//1
f 5//5 119//116 120//117
f 4//4 5//5 120//117
f 121//4 33//33 35//35
f 45//42 121//4 35//35
f 48//45 36//36 34//34
f 48//45 34//34 122//118
f 122//118 123//119 49//46
f 49//46 48//45 122//118
f 124//120 51//48 49//46
f 49//46 123//119 124//120
f 125//121 54//51 51//48
f 51//48 124//120 125//121
f 125//121 126//122 55//52
f 55//52 54//51 125//121
f 57//54 55//52 126//122
f 57//54 126//122 127//123
f 127//123 128//124 59//56
f 57//54 127//123 59//56
f 129//125 61//58 59//56
f 59//56 128//124 129//125
f 129//125 130//126 63//60
f 63//60 61//58 129//125
f 65//62 63//60 130//126
f 130//126 131//127 65//62
f 23//23 32//32 65//62
f 65//62 131//127 23//23
f 132//128 67//64 31//31
f 31//31 21//21 132//128
f 132//128 133//129 69//66
f 69//66 67//64 132//128
f 133//129 134//130 71//68
f 133//129 71//68 69//66
f 135//131 73//70 71//68
f 71//68 134//130 135//131
f 135//131 136//132 75//72
f 75//72 73//70 135//131
f 137//133 78//75 75//72
f 75//72 136//132 137//133
f 137//133 138//134 79//76
f 79//76 78//75 137//133
f 138//134 139//135 81//78
f 79//76 138//134 81//78
f 140//136 83//80 81//78
f 81//78 139//135 140//136
f 140//136 18//18 27//27
f 27//27 83//80 140//136
f 15//15 141//137 85//82
f 85//82 24//24 15//15
f 142//138 87//84 85//82
f 85//82 141//137 142//138
f 143//139 89//86 87//84
f 87//84 142//138 143//139
f 91//88 89//86 143//139
f 143//139 107//104 91//88
f 93//90 91//88 107//104
f 93//90 107//104 106//103
f 106//103 110//107 95//92
f 106//103 95//92 93//90
f 95//92 110//107 112//109
f 112//109 97//94 95//92
f 100//97 97//94 112//109
f 112//109 114//111 100//97
f 114//111 116//113 101//98
f 101//98 100//97 114//111
f 118//115 103//100 101//98
f 101//98 116//113 118//115
f 118//115 1//1 3//3
f 103//100 118//115 3//3
f 4//4 120//117 144//140
f 2//2 4//4 144//140
f 119//116 145//141 144//140
f 120//117 119//116 144//140
f 46//43 146//142 121//4
f 45//42 46//43 121//4
f 103//100 3//3 7//7
f 104//101 103//100 7//7
f 2//2 144//140 145//141
f 8//8 2//2 145//141
f 46//43 40//40 37//37
f 146//142 46//43 37//37
f 147//143 38//38 39//39
f 147//143 39//39 47//44
f 50//47 148//144 147//143
f 147//143 47//44 50//47
f 50//47 52//49 149//145
f 149//145 148//144 50//47
f 52//49 53//50 150//146
f 150//146 149//145 52//49
f 56//53 151//147 150//146
f 150//146 53//50 56//53
f 152//148 151//147 56//53
f 152//148 56//53 58//55
f 58//55 60//57 153//149
f 58//55 153//149 152//148
f 60//57 62//59 154//150
f 154//150 153//149 60//57
f 64//61 155//151 154//150
f 154//150 62//59 64//61
f 66//63 156//152 155//151
f 155//151 64//61 66//63
f 66//63 11//11 10//10
f 10//10 156//152 66//63
f 14//14 68//65 157//153
f 157//153 12//12 14//14
f 157//153 68//65 70//67
f 70//67 158//154 157//153
f 70//67 72//69 159//155
f 70//67 159//155 158//154
f 72//69 74//71 160//156
f 160//156 159//155 72//69
f 160//156 74//71 76//73
f 76//73 161//157 160//156
f 76//73 77//74 162//158
f 162//158 161//157 76//73
f 80//77 163//159 162//158
f 162//158 77//74 80//77
f 80//77 82//79 164//160
f 163//159 80//77 164//160
f 82//79 84//81 165//161
f 165//161 164//160 82//79
f 165//161 84//81 29//29
f 29//29 19//19 165//161
f 86//83 166//162 17//17
f 17//17 25//25 86//83
f 86//83 88//85 167//163
f 167//163 166//162 86//83
f 88//85 90//87 168//164
f 168//164 167//163 88//85
f 92//89 108//105 168//164
f 168//164 90//87 92//89
f 92//89 94//91 105//102
f 108//105 92//89 105//102
f 94//91 96//93 109//106
f 94//91 109//106 105//102
f 111//108 109//106 96//93
f 96//93 98//95 111//108
f 111//108 98//95 99//96
f 99//96 113//110 111//108
f 113//110 99//96 102//99
f 102//99 115//112 113//110
f 102//99 104//101 117//114
f 117//114 115//112 102//99
f 104//101 7//7 6//6
f 117//114 104//101 6//6
f 8//8 145//141 119//116
f 5//5 8//8 119//116
f 146//142 37//37 33//33
f 121//4 146//142 33//33
f 122//118 34//34 38//38
f 122//118 38//38 147//143
f 122//118 147//143 148//144
f 148//144 123//119 122//118
f 124//120 123//119 148//144
f 148//144 149//145 124//120
f 125//121 124//120 149//145
f 125//121 149//145 150//146
f 150//146 151//147 126//122
f 126//122 125//121 150//146
f 152//148 127//123 126//122
f 126//122 151//147 152//148
f 152//148 153//149 128//124
f 128//124 127//123 152//148
f 154//150 129//125 128//124
f 128//124 153//149 154//150
f 154//150 155//151 130//126
f 154//150 130//126 129//125
f 156//152 131//127 130//126
f 130//126 155//151 156//152
f 156//152 10//10 23//23
f 23//23 131//127 156//152
f 21//21 12//12 157//153
f 157//153 132//128 21//21
f 157//153 158//154 133//129
f 133//129 132//128 157//153
f 159//155 134//130 133//129
f 133//129 158//154 159//155
f 159//155 160//156 135//131
f 134//130 159//155 135//131
f 160//156 161//157 136//132
f 136//132 135//131 160//156
f 162//158 137//133 136//132
f 136//132 161//157 162//158
f 162//158 163//159 138//134
f 137//133 162//158 138//134
f 163//159 164//160 139//135
f 139//135 138//134 163//159
f 165//161 140//136 139//135
f 139//135 164//160 165//161
f 165//161 19//19 18//18
f 18//18 140//136 165//161
f 166//162 141//137 15//15
f 15//15 17//17 166//162
f 142//138 141//137 166//162
f 166//162 167//163 142//138
f 167//163 168//164 143//139
f 142//138 167//163 143//139
f 168//164 108//105 107//104
f 107//104 143//139 168//164
