# 
# Wavefront OBJ file
# 3D Pottery Benchmark Ver. 1.0, Multimedia Department,ILSP-Research Centre Athena, Contact Email: Anestis Koutsoudis (akoutsou@ceti.gr)
# 
# object object
g object
v 24.4052 688.817 -16.9319
v -41.9545 727.13 -16.9319
v -6.25269 712.342 -16.9319
v 47.9298 658.159 -16.9319
v -80.2674 732.174 -16.9319
v 62.718 622.457 -16.9319
v -118.58 727.13 -16.9319
v -154.282 712.342 -16.9319
v 67.762 584.145 -16.9319
v -184.94 688.817 -16.9319
v 62.718 545.832 -16.9319
v -208.465 658.159 -16.9319
v 47.9298 510.13 -16.9319
v -223.253 622.457 -16.9319
v 24.4052 479.472 -16.9319
v -228.297 584.145 -16.9319
v -6.25269 455.947 -16.9319
v -223.253 545.832 -16.9319
v -41.9545 441.159 -16.9319
v -208.465 510.13 -16.9319
v -80.2674 436.115 -16.9319
v -184.94 479.472 -16.9319
v -118.58 441.159 -16.9319
v -154.282 455.947 -16.9319
v -35.1814 629.231 130.666
v -80.2674 584.145 105.585
v -48.3868 639.363 130.666
v -63.7647 645.733 130.666
v -80.2674 647.906 130.666
v -96.77 645.733 130.666
v -112.148 639.363 130.666
v -125.353 629.231 130.666
v -135.486 616.025 130.666
v -141.856 600.647 130.666
v -144.029 584.145 130.666
v -141.856 567.642 130.666
v -135.486 552.264 130.666
v -125.353 539.059 130.666
v -112.148 528.926 130.666
v -96.77 522.556 130.666
v -80.2674 520.383 130.666
v -63.7647 522.556 130.666
v -48.3868 528.926 130.666
v -35.1814 539.059 130.666
v -25.0485 552.264 130.666
v -18.6788 567.642 130.666
v -16.5062 584.145 130.666
v -18.6788 600.647 130.666
v -25.0485 616.025 130.666
v -55.9398 674.936 289.229
v -104.595 674.936 289.229
v -80.2674 678.139 289.229
v -33.2701 665.546 289.229
v -127.265 665.546 289.229
v -13.8033 650.609 289.229
v -146.731 650.609 289.229
v -80.2674 644.31 289.229
v -64.6954 642.26 289.229
v -95.8394 642.26 289.229
v -161.669 631.142 289.229
v -110.35 636.249 289.229
v 1.1342 631.142 289.229
v -50.1846 636.249 289.229
v -37.7239 626.688 289.229
v -122.811 626.688 289.229
v -171.059 608.472 289.229
v -132.372 614.227 289.229
v 10.5243 608.472 289.229
v -28.1624 614.227 289.229
v -22.1519 599.717 289.229
v -138.383 599.717 289.229
v -174.262 584.145 289.229
v -140.433 584.145 289.229
v 13.7271 584.145 289.229
v -20.1018 584.145 289.229
v -22.1519 568.573 289.229
v -138.383 568.573 289.229
v -171.059 559.817 289.229
v 10.5243 559.817 289.229
v -28.1624 554.062 289.229
v -132.372 554.062 289.229
v -161.669 537.147 289.229
v -122.811 541.601 289.229
v 1.1342 537.147 289.229
v -37.7239 541.601 289.229
v -50.1846 532.04 289.229
v -110.35 532.04 289.229
v -146.731 517.68 289.229
v -95.8394 526.029 289.229
v -80.2674 523.979 289.229
v -13.8033 517.68 289.229
v -64.6954 526.029 289.229
v -127.265 502.743 289.229
v -33.2701 502.743 289.229
v -104.595 493.353 289.229
v -55.9398 493.353 289.229
v -80.2674 490.15 289.229
v -115.175 714.423 -108.593
v -45.3594 714.423 -108.593
v -80.2674 719.019 -108.593
v -147.704 700.949 -108.593
v -12.8303 700.949 -108.593
v 15.103 679.515 -108.593
v -175.638 679.515 -108.593
v 36.537 651.582 -108.593
v -197.072 651.582 -108.593
v 50.011 619.052 -108.593
v -210.546 619.052 -108.593
v 54.6067 584.145 -108.593
v -215.141 584.145 -108.593
v 50.011 549.237 -108.593
v -210.546 549.237 -108.593
v 36.537 516.708 -108.593
v -197.072 516.708 -108.593
v 15.103 488.774 -108.593
v -175.638 488.774 -108.593
v -12.8303 467.34 -108.593
v -147.704 467.34 -108.593
v -45.3594 453.866 -108.593
v -115.175 453.866 -108.593
v -80.2674 449.27 -108.593
v 39.7304 704.142 25.7836
v 4.58388 731.111 25.7836
v -36.3451 748.065 25.7836
v -80.2674 753.847 25.7836
v -124.19 748.065 25.7836
v -165.119 731.111 25.7836
v -200.265 704.142 25.7836
v -227.234 668.996 25.7836
v -244.187 628.067 25.7836
v -249.97 584.145 25.7836
v -244.187 540.222 25.7836
v -227.234 499.293 25.7836
v -200.265 464.147 25.7836
v -165.119 437.178 25.7836
v -124.19 420.225 25.7836
v -80.2674 414.442 25.7836
v -36.3451 420.225 25.7836
v 4.58388 437.178 25.7836
v 39.7304 464.147 25.7836
v 66.6993 499.293 25.7836
v 83.6526 540.222 25.7836
v 89.4351 584.145 25.7836
v 83.6526 628.067 25.7836
v 66.6993 668.996 25.7836
# 145 verts.
vn 0 0 -1
vn 0.334878 0.580045 0.742566
vn 3.7406e-08 -1.43345e-06 1
vn 0.589797 0.589806 0.551606
vn 0.240924 0.7441 0.623114
vn -6.24823e-08 0.834104 0.551607
vn -0.193298 0.648701 0.736087
vn -0.373969 0.704673 0.602979
vn -0.589799 0.589804 0.551605
vn -0.696515 0.355806 0.623113
vn -0.646948 0.173363 0.742566
vn -0.834105 2.52845e-06 0.551606
vn -0.646949 -0.173361 0.742565
vn -0.722353 -0.417059 0.551605
vn -0.473601 -0.473602 0.742565
vn -0.417058 -0.722354 0.551605
vn -0.173362 -0.646949 0.742565
vn -6.7689e-08 -0.834105 0.551605
vn 0.240922 -0.744102 0.623112
vn 0.425296 -0.656395 0.623113
vn 0.583865 -0.543617 0.602978
vn 0.67696 -0.368001 0.637417
vn 0.76487 -0.163411 0.623113
vn 0.781102 0.0401197 0.623113
vn 0.646951 0.17335 0.742566
vn 0.696516 0.355803 0.623113
vn 0 0 1
vn -5.81244e-07 0.788548 -0.614974
vn 0.179371 0.669413 -0.720911
vn -0.156562 0.706953 -0.689714
vn -0.239634 0.460582 -0.854658
vn 0.30477 0.527877 -0.792756
vn 0.411947 0.449764 -0.792472
vn -0.411947 0.449764 -0.792472
vn 0.600179 0.346514 -0.720911
vn -0.600181 0.346514 -0.72091
vn 0.59548 0.131874 -0.792473
vn -0.595481 0.131873 -0.792472
vn 0.481289 9.26113e-07 -0.876562
vn -0.481288 9.26111e-07 -0.876562
vn 0.595479 -0.131875 -0.792473
vn -0.59548 -0.131874 -0.792473
vn 0.541058 -0.281501 -0.792473
vn -0.541059 -0.2815 -0.792472
vn 0.490046 -0.490044 -0.720911
vn -0.490045 -0.490045 -0.72091
vn 0.281503 -0.541059 -0.792472
vn -0.2815 -0.541059 -0.792472
vn 0.124569 -0.46489 -0.876561
vn -0.156568 -0.706954 -0.689711
vn 0.0375021 -0.8545 -0.518096
vn 0.481953 0.834766 0.266247
vn 0.71896 0.677728 0.154212
vn 0.219391 0.900885 0.374532
vn 1.27509e-08 0.99681 0.0798106
vn -0.255864 0.929327 0.26624
vn -0.487419 0.802467 0.344194
vn -0.718961 0.677726 0.154213
vn -0.792153 0.481891 0.374533
vn -0.901277 0.263119 0.344193
vn -0.99681 1.67178e-06 0.0798097
vn -0.901277 -0.263119 0.344193
vn -0.840715 -0.519054 0.154212
vn -0.633984 -0.633985 0.442862
vn -0.519054 -0.840715 0.154212
vn -0.26312 -0.901276 0.344193
vn -0.0291604 -0.987607 0.154213
vn 0.239533 -0.952835 0.186358
vn 0.48767 -0.83144 0.266242
vn 0.633983 -0.633987 0.442862
vn 0.840714 -0.519056 0.154211
vn 0.919291 -0.290075 0.266008
vn 0.982364 -0.0152443 0.186357
vn 0.901278 0.263113 0.344193
vn 0.792152 0.481893 0.374532
vn -0.850698 -0.491154 -0.187299
vn -0.948831 -0.254246 -0.187296
vn -0.254248 -0.94883 -0.187296
vn -0.491151 -0.8507 -0.187298
vn 0.828381 0.527986 -0.187123
vn 0.948832 0.254238 -0.187296
vn 0.981392 -0.0430646 -0.187123
vn 0.453398 -0.871444 -0.187123
vn 0.212413 -0.959097 -0.187122
vn -1.50253e-08 -0.982304 -0.187295
vn 0.828374 -0.527997 -0.187124
vn 0.663494 -0.724403 -0.187125
vn 0.936806 -0.295599 -0.187123
vn -0.694591 -0.694595 -0.187299
vn -0.982304 2.71206e-06 -0.187294
vn -0.94883 0.254249 -0.187296
vn -7.51263e-09 0.982304 -0.187294
vn 0.212412 0.959097 -0.187121
vn 0.491142 0.850705 -0.187297
vn 0.69459 0.694597 -0.187295
vn -0.694591 0.694596 -0.187295
vn -0.527985 0.828382 -0.187124
vn -0.828378 0.527991 -0.187124
vn -0.254247 0.94883 -0.187296
# 99 normals
usemtl (null)
f 1//1 2//1 3//1
f 4//1 2//1 1//1
f 4//1 5//1 2//1
f 6//1 5//1 4//1
f 5//1 6//1 7//1
f 7//1 6//1 8//1
f 9//1 8//1 6//1
f 8//1 9//1 10//1
f 9//1 11//1 10//1
f 10//1 11//1 12//1
f 13//1 12//1 11//1
f 12//1 13//1 14//1
f 15//1 14//1 13//1
f 14//1 15//1 16//1
f 17//1 16//1 15//1
f 16//1 17//1 18//1
f 17//1 19//1 18//1
f 18//1 19//1 20//1
f 21//1 20//1 19//1
f 20//1 21//1 22//1
f 23//1 22//1 21//1
f 24//1 22//1 23//1
f 27//2 26//3 25//4
f 28//5 26//3 27//2
f 29//6 26//3 28//5
f 30//7 26//3 29//6
f 31//8 26//3 30//7
f 32//9 26//3 31//8
f 33//10 26//3 32//9
f 34//11 26//3 33//10
f 35//12 26//3 34//11
f 36//13 26//3 35//12
f 37//14 26//3 36//13
f 38//15 26//3 37//14
f 39//16 26//3 38//15
f 40//17 26//3 39//16
f 41//18 26//3 40//17
f 42//19 26//3 41//18
f 43//20 26//3 42//19
f 44//21 26//3 43//20
f 45//22 26//3 44//21
f 46//23 26//3 45//22
f 47//24 26//3 46//23
f 48//25 26//3 47//24
f 49//26 26//3 48//25
f 25//4 26//3 49//26
f 52//27 51//27 50//27
f 50//27 51//27 53//27
f 51//27 54//27 53//27
f 53//27 54//27 55//27
f 56//27 55//27 54//27
f 57//27 55//27 56//27
f 58//27 55//27 57//27
f 57//27 56//27 59//27
f 60//27 59//27 56//27
f 60//27 61//27 59//27
f 55//27 58//27 62//27
f 58//27 63//27 62//27
f 64//27 62//27 63//27
f 61//27 60//27 65//27
f 66//27 65//27 60//27
f 66//27 67//27 65//27
f 62//27 64//27 68//27
f 64//27 69//27 68//27
f 70//27 68//27 69//27
f 67//27 66//27 71//27
f 72//27 71//27 66//27
f 71//27 72//27 73//27
f 68//27 70//27 74//27
f 75//27 74//27 70//27
f 76//27 74//27 75//27
f 73//27 72//27 77//27
f 78//27 77//27 72//27
f 74//27 76//27 79//27
f 80//27 79//27 76//27
f 77//27 78//27 81//27
f 82//27 81//27 78//27
f 82//27 83//27 81//27
f 79//27 80//27 84//27
f 80//27 85//27 84//27
f 86//27 84//27 85//27
f 83//27 82//27 87//27
f 88//27 87//27 82//27
f 88//27 89//27 87//27
f 88//27 90//27 89//27
f 84//27 86//27 91//27
f 86//27 92//27 91//27
f 92//27 90//27 91//27
f 88//27 91//27 90//27
f 93//27 91//27 88//27
f 93//27 94//27 91//27
f 95//27 94//27 93//27
f 94//27 95//27 96//27
f 96//27 95//27 97//27
f 100//28 99//29 98//30
f 98//30 99//29 101//31
f 102//32 101//31 99//29
f 103//33 101//31 102//32
f 103//33 104//34 101//31
f 105//35 104//34 103//33
f 105//35 106//36 104//34
f 107//37 106//36 105//35
f 107//37 108//38 106//36
f 109//39 108//38 107//37
f 109//39 110//40 108//38
f 111//41 110//40 109//39
f 111//41 112//42 110//40
f 113//43 112//42 111//41
f 113//43 114//44 112//42
f 115//45 114//44 113//43
f 115//45 116//46 114//44
f 117//47 116//46 115//45
f 117//47 118//48 116//46
f 119//49 118//48 117//47
f 118//48 119//49 120//50
f 120//50 119//49 121//51
f 123//52 122//53 103//33
f 102//32 123//52 103//33
f 99//29 124//54 123//52
f 99//29 123//52 102//32
f 125//55 124//54 99//29
f 100//28 125//55 99//29
f 98//30 126//56 125//55
f 98//30 125//55 100//28
f 101//31 127//57 126//56
f 101//31 126//56 98//30
f 104//34 128//58 127//57
f 104//34 127//57 101//31
f 106//36 129//59 128//58
f 106//36 128//58 104//34
f 130//60 129//59 106//36
f 108//38 130//60 106//36
f 131//61 130//60 108//38
f 110//40 131//61 108//38
f 112//42 132//62 131//61
f 112//42 131//61 110//40
f 114//44 133//63 132//62
f 114//44 132//62 112//42
f 116//46 134//64 133//63
f 116//46 133//63 114//44
f 135//65 134//64 116//46
f 118//48 135//65 116//46
f 136//66 135//65 118//48
f 120//50 136//66 118//48
f 137//67 136//66 120//50
f 121//51 137//67 120//50
f 138//68 137//67 121//51
f 119//49 138//68 121//51
f 117//47 139//69 138//68
f 117//47 138//68 119//49
f 115//45 140//70 139//69
f 115//45 139//69 117//47
f 141//71 140//70 115//45
f 113//43 141//71 115//45
f 142//72 141//71 113//43
f 111//41 142//72 113//43
f 143//73 142//72 111//41
f 109//39 143//73 111//41
f 107//37 144//74 143//73
f 107//37 143//73 109//39
f 105//35 145//75 144//74
f 105//35 144//74 107//37
f 122//53 145//75 105//35
f 103//33 122//53 105//35
f 37//14 82//76 78//77
f 37//14 78//77 36//13
f 95//78 93//79 39//16
f 40//17 95//78 39//16
f 130//60 131//61 35//12
f 34//11 130//60 35//12
f 49//26 62//80 68//81
f 49//26 68//81 48//25
f 68//81 74//82 47//24
f 48//25 68//81 47//24
f 94//83 96//84 42//19
f 43//20 94//83 42//19
f 96//84 97//85 41//18
f 42//19 96//84 41//18
f 84//86 91//87 44//21
f 45//22 84//86 44//21
f 41//18 97//85 95//78
f 41//18 95//78 40//17
f 91//87 94//83 43//20
f 44//21 91//87 43//20
f 74//82 79//88 46//23
f 47//24 74//82 46//23
f 79//88 84//86 45//22
f 46//23 79//88 45//22
f 88//89 82//76 37//14
f 38//15 88//89 37//14
f 35//12 72//90 66//91
f 35//12 66//91 34//11
f 78//77 72//90 35//12
f 36//13 78//77 35//12
f 37//14 133//63 134//64
f 37//14 134//64 38//15
f 29//6 125//55 126//56
f 29//6 126//56 30//7
f 39//16 93//79 88//89
f 39//16 88//89 38//15
f 29//6 52//92 50//93
f 29//6 50//93 28//5
f 124//54 125//55 29//6
f 28//5 124//54 29//6
f 134//64 135//65 39//16
f 38//15 134//64 39//16
f 39//16 135//65 136//66
f 39//16 136//66 40//17
f 132//62 133//63 37//14
f 36//13 132//62 37//14
f 35//12 131//61 132//62
f 35//12 132//62 36//13
f 53//94 55//95 25//4
f 27//2 53//94 25//4
f 25//4 122//53 123//52
f 25//4 123//52 27//2
f 41//18 137//67 138//68
f 41//18 138//68 42//19
f 127//57 128//58 32//9
f 31//8 127//57 32//9
f 42//19 138//68 139//69
f 42//19 139//69 43//20
f 47//24 143//73 144//74
f 47//24 144//74 48//25
f 32//9 56//96 54//97
f 32//9 54//97 31//8
f 136//66 137//67 41//18
f 40//17 136//66 41//18
f 66//91 60//98 33//10
f 34//11 66//91 33//10
f 43//20 139//69 140//70
f 43//20 140//70 44//21
f 32//9 128//58 129//59
f 32//9 129//59 33//10
f 140//70 141//71 45//22
f 44//21 140//70 45//22
f 45//22 141//71 142//72
f 45//22 142//72 46//23
f 46//23 142//72 143//73
f 46//23 143//73 47//24
f 144//74 145//75 49//26
f 48//25 144//74 49//26
f 145//75 122//53 25//4
f 49//26 145//75 25//4
f 60//98 56//96 32//9
f 33//10 60//98 32//9
f 31//8 54//97 51//99
f 31//8 51//99 30//7
f 51//99 52//92 29//6
f 30//7 51//99 29//6
f 28//5 50//93 53//94
f 28//5 53//94 27//2
f 25//4 55//95 62//80
f 25//4 62//80 49//26
f 33//10 129//59 130//60
f 33//10 130//60 34//11
f 30//7 126//56 127//57
f 30//7 127//57 31//8
f 123//52 124//54 28//5
f 27//2 123//52 28//5
