# 
# Wavefront OBJ file
# 3D Pottery Benchmark Ver. 1.0, Multimedia Department,ILSP-Research Centre Athena, Contact Email: Anestis Koutsoudis (akoutsou@ceti.gr)
# 
# object object
g object
v 99.9991 30.8158 0
v 100.627 33.1577 0
v 99.9991 33.1577 0
v 101.714 32.5302 0
v 102.341 31.4433 0
v 102.341 30.8158 0
v 99.9991 30.8158 0
v 102.341 30.1882 0
v 102.341 30.8158 0
v 101.714 29.1013 0
v 100.627 28.4737 0
v 99.9991 28.4737 0
v 99.3716 28.4737 0
v 98.2847 29.1013 0
v 97.6571 30.1882 0
v 97.6571 30.8158 0
v 97.6571 31.4433 0
v 98.2847 32.5302 0
v 99.3716 33.1577 0
v 99.9991 33.1577 0
v 99.9991 30.8158 4.38714
v 100.627 33.1577 4.38714
v 99.9991 33.1577 4.38714
v 101.714 32.5302 4.38714
v 102.341 31.4433 4.38714
v 102.341 30.8158 4.38714
v 102.341 30.1882 4.38714
v 101.714 29.1013 4.38714
v 100.627 28.4737 4.38714
v 99.9991 28.4737 4.38714
v 99.3716 28.4737 4.38714
v 98.2847 29.1013 4.38714
v 97.6571 30.1882 4.38714
v 97.6571 30.8158 4.38714
v 97.6571 31.4433 4.38714
v 98.2847 32.5302 4.38714
v 99.3716 33.1577 4.38714
v 98.6382 29.4548 7.5
v 98.1401 30.3176 7.5
v 97.6571 30.1882 7.09264
v 98.2847 29.1013 7.09264
v 98.1401 31.3139 7.5
v 98.6382 32.1767 7.5
v 98.2847 32.5302 7.09264
v 97.6571 31.4433 7.09264
v 98.6382 29.4548 11.8871
v 98.1401 30.3176 11.8871
v 97.6571 30.1882 11.4798
v 98.2847 29.1013 11.4798
v 98.1401 31.3139 11.8871
v 98.6382 32.1767 11.8871
v 98.2847 32.5302 11.4798
v 97.6571 31.4433 11.4798
v 100.497 32.6748 7.5
v 100.627 33.1577 7.09264
v 99.9991 33.1577 7.09264
v 99.9991 32.6748 7.5
v 103.774 30.8158 5.48132
v 103.774 31.8273 5.48132
v 103.239 31.684 6.46011
v 103.239 30.8158 6.46011
v 101.011 34.5911 5.48132
v 100.867 34.056 6.46011
v 102.371 33.1878 6.46011
v 102.763 33.5795 5.48132
v 103.836 30.8158 4.35845
v 103.836 31.8438 4.35845
v 101.858 30.8158 7.5
v 101.858 31.3139 7.5
v 101.858 31.3139 8
v 101.858 30.8158 8
v 101.714 32.5302 7.09264
v 102.341 31.4433 7.09264
v 99.9991 32.6748 8
v 100.497 32.6748 8
v 101.36 32.1767 7.5
v 101.36 32.1767 8
v 102.341 30.8158 7.09264
v 99.9991 34.056 6.46011
v 101.027 34.6525 4.35845
v 99.9991 34.6525 4.35845
v 99.9991 34.5911 5.48132
v 102.808 33.6244 4.35845
v 101.858 30.3176 7.5
v 102.341 30.1882 7.09264
v 99.9991 27.0404 5.48132
v 101.011 27.0404 5.48132
v 100.867 27.5755 6.46011
v 99.9991 27.5755 6.46011
v 102.371 28.4437 6.46011
v 102.763 28.052 5.48132
v 103.774 29.8041 5.48132
v 103.239 29.9475 6.46011
v 99.9991 26.979 4.35845
v 101.027 26.979 4.35845
v 99.9991 28.9567 7.5
v 100.497 28.9567 7.5
v 100.497 28.9567 8
v 99.9991 28.9567 8
v 101.714 29.1013 7.09264
v 100.627 28.4737 7.09264
v 101.858 30.3176 8
v 101.36 29.4548 8
v 101.36 29.4548 7.5
v 99.9991 28.4737 7.09264
v 103.836 29.7877 4.35845
v 102.808 28.0071 4.35845
v 99.501 28.9567 7.5
v 99.3716 28.4737 7.09264
v 96.2238 30.8158 5.48132
v 96.2238 29.8041 5.48132
v 96.7589 29.9475 6.46011
v 96.7589 30.8158 6.46011
v 98.9875 27.0404 5.48132
v 99.1309 27.5755 6.46011
v 97.6271 28.4437 6.46011
v 97.2354 28.052 5.48132
v 96.1624 30.8158 4.35845
v 96.1624 29.7877 4.35845
v 98.1401 30.8158 7.5
v 98.1401 30.3176 8
v 98.1401 30.8158 8
v 99.501 28.9567 8
v 98.6382 29.4548 8
v 97.6571 30.8158 7.09264
v 98.9711 26.979 4.35845
v 97.1904 28.0071 4.35845
v 98.9875 34.5911 5.48132
v 99.1309 34.056 6.46011
v 96.7589 31.684 6.46011
v 97.6271 33.1878 6.46011
v 97.2354 33.5795 5.48132
v 96.2238 31.8273 5.48132
v 98.9711 34.6525 4.35845
v 99.501 32.6748 7.5
v 99.501 32.6748 8
v 99.3716 33.1577 7.09264
v 98.1401 31.3139 8
v 98.6382 32.1767 8
v 96.1624 31.8438 4.35845
v 97.1904 33.6244 4.35845
v 100.497 32.6748 11.8871
v 100.627 33.1577 11.4798
v 99.9991 33.1577 11.4798
v 99.9991 32.6748 11.8871
v 103.774 30.8158 9.86846
v 103.774 31.8273 9.86846
v 103.239 31.684 10.8472
v 103.239 30.8158 10.8472
v 101.011 34.5911 9.86846
v 100.867 34.056 10.8472
v 102.371 33.1878 10.8472
v 102.763 33.5795 9.86846
v 103.836 30.8158 8.74559
v 103.836 31.8438 8.74559
v 101.858 30.8158 11.8871
v 101.858 31.3139 11.8871
v 101.858 31.3139 12.3871
v 101.858 30.8158 12.3871
v 101.714 32.5302 11.4798
v 102.341 31.4433 11.4798
v 99.9991 32.6748 12.3871
v 100.497 32.6748 12.3871
v 101.36 32.1767 11.8871
v 101.36 32.1767 12.3871
v 102.341 30.8158 11.4798
v 99.9991 34.056 10.8472
v 101.027 34.6525 8.74559
v 99.9991 34.6525 8.74559
v 99.9991 34.5911 9.86846
v 102.808 33.6244 8.74559
v 101.858 30.3176 11.8871
v 102.341 30.1882 11.4798
v 99.9991 27.0404 9.86846
v 101.011 27.0404 9.86846
v 100.867 27.5755 10.8472
v 99.9991 27.5755 10.8472
v 102.371 28.4437 10.8472
v 102.763 28.052 9.86846
v 103.774 29.8041 9.86846
v 103.239 29.9475 10.8472
v 99.9991 26.979 8.74559
v 101.027 26.979 8.74559
v 99.9991 28.9567 11.8871
v 100.497 28.9567 11.8871
v 100.497 28.9567 12.3871
v 99.9991 28.9567 12.3871
v 101.714 29.1013 11.4798
v 100.627 28.4737 11.4798
v 101.858 30.3176 12.3871
v 101.36 29.4548 12.3871
v 101.36 29.4548 11.8871
v 99.9991 28.4737 11.4798
v 103.836 29.7877 8.74559
v 102.808 28.0071 8.74559
v 99.501 28.9567 11.8871
v 99.3716 28.4737 11.4798
v 96.2238 30.8158 9.86846
v 96.2238 29.8041 9.86846
v 96.7589 29.9475 10.8472
v 96.7589 30.8158 10.8472
v 98.9875 27.0404 9.86846
v 99.1309 27.5755 10.8472
v 97.6271 28.4437 10.8472
v 97.2354 28.052 9.86846
v 96.1624 30.8158 8.74559
v 96.1624 29.7877 8.74559
v 98.1401 30.8158 11.8871
v 98.1401 30.3176 12.3871
v 98.1401 30.8158 12.3871
v 99.501 28.9567 12.3871
v 98.6382 29.4548 12.3871
v 97.6571 30.8158 11.4798
v 98.9711 26.979 8.74559
v 97.1904 28.0071 8.74559
v 98.9875 34.5911 9.86846
v 99.1309 34.056 10.8472
v 96.7589 31.684 10.8472
v 97.6271 33.1878 10.8472
v 97.2354 33.5795 9.86846
v 96.2238 31.8273 9.86846
v 98.9711 34.6525 8.74559
v 99.501 32.6748 11.8871
v 99.501 32.6748 12.3871
v 99.3716 33.1577 11.4798
v 98.1401 31.3139 12.3871
v 98.6382 32.1767 12.3871
v 96.1624 31.8438 8.74559
v 97.1904 33.6244 8.74559
# 229 verts.
vn 0 0 1
vn -0.631556 -0.578438 0.516282
vn -0.86578 -0.249965 0.433523
vn -0.565962 -0.176659 0.805281
vn -0.403248 -0.451083 0.796188
vn -0.870414 0.233223 0.433574
vn -0.578435 0.631573 0.516265
vn -0.424644 0.420395 0.801839
vn -0.565956 0.151655 0.810367
vn -0.631537 -0.578423 0.516321
vn -0.865764 -0.249964 0.433556
vn -0.565962 -0.176657 0.805282
vn -0.403238 -0.451068 0.796201
vn -0.870398 0.233219 0.433608
vn -0.57842 0.631554 0.516304
vn -0.424636 0.420392 0.801845
vn -0.565964 0.151658 0.810361
vn 0.214049 0.903495 0.371321
vn 0.176621 0.565959 0.805292
vn 0 0.622298 0.78278
vn 0 0.94197 0.335698
vn 0.938348 0 0.345692
vn 0.925619 0.28346 0.250757
vn 0.712915 0.176871 0.678579
vn 0.692367 0 0.721545
vn 0.28355 0.925645 0.25056
vn 0.151943 0.750643 0.643
vn 0.519152 0.550597 0.653701
vn 0.678326 0.678121 0.28289
vn 0.990543 0 -0.137205
vn 0.935279 0.30383 -0.181495
vn 0.941956 0 0.335736
vn 0.79453 0.212801 0.568716
vn 0.965941 0.258761 0
vn 1 0 0
vn 0.459631 0.384148 0.800731
vn 0.578081 0.123546 0.806572
vn 0.928758 0.161918 -0.333453
vn 0.945901 0 -0.324454
vn 0 1 0
vn 0.258755 0.965943 0
vn 0.649348 0.624744 0.433637
vn 0.641358 0.767242 0
vn 0.622285 0 0.782791
vn 0 0.692272 0.721637
vn 0.256157 0.956113 -0.142237
vn 0 0.990509 -0.137447
vn 0 0.93839 0.345578
vn 0.676022 0.728087 -0.113509
vn 0.243877 0.910266 -0.334574
vn 0 0.945914 -0.324417
vn 0.723373 0.60462 -0.333416
vn 0.870412 -0.233139 0.433623
vn 0.578081 -0.123546 0.806572
vn 0 -0.93839 0.345579
vn 0.28355 -0.925646 0.250559
vn 0.151947 -0.750654 0.642985
vn 0 -0.692297 0.721613
vn 0.519153 -0.550596 0.653701
vn 0.678317 -0.678129 0.28289
vn 0.925618 -0.283466 0.250757
vn 0.712911 -0.176869 0.678584
vn 0 -0.99051 -0.137437
vn 0.256157 -0.956114 -0.142228
vn 0 -0.941956 0.335735
vn 0.249903 -0.865777 0.433566
vn 0.17182 -0.985128 0
vn 0 -1 0
vn 0.45964 -0.384137 0.80073
vn 0.176628 -0.565947 0.805299
vn 0.243894 -0.910266 -0.334562
vn 0 -0.945921 -0.324397
vn 0.965941 -0.258761 0
vn 0.707102 -0.707111 0
vn 0.578353 -0.631481 0.516468
vn 0 -0.622258 0.782812
vn 0.935277 -0.30383 -0.181504
vn 0.676026 -0.728082 -0.113514
vn 0.928758 -0.161918 -0.333453
vn 0.723387 -0.604604 -0.333415
vn -0.233223 -0.870414 0.433574
vn -0.151656 -0.565955 0.810367
vn -0.938389 0 0.34558
vn -0.925646 -0.283564 0.250539
vn -0.750659 -0.151962 0.642977
vn -0.692298 0 0.721612
vn -0.24291 -0.927908 0.28281
vn -0.151963 -0.750659 0.642977
vn -0.519287 -0.519287 0.678735
vn -0.647182 -0.724431 0.237394
vn -0.990511 0 -0.137436
vn -0.956113 -0.256183 -0.142194
vn -0.941956 0 0.335736
vn -0.985123 -0.171851 0
vn -1 0 0
vn -0.910253 -0.243911 -0.334585
vn -0.945921 0 -0.324397
vn -0.258803 -0.96593 0
vn -0.707107 -0.707107 0
vn -0.622258 0 0.782812
vn -0.30961 -0.945371 -0.102053
vn -0.723692 -0.668734 -0.170485
vn -0.243915 -0.910252 -0.334584
vn -0.666351 -0.666351 -0.334593
vn -0.24291 0.927908 0.28281
vn -0.176895 0.71281 0.678683
vn -0.758194 0.203153 0.619573
vn -0.509609 0.528869 0.678672
vn -0.674329 0.682132 0.282801
vn -0.944907 0.25318 0.207485
vn -0.340259 0.929602 -0.141651
vn -0.249967 0.865803 0.433477
vn -0.171851 0.985123 0
vn -0.157566 0.576402 0.801831
vn -0.162023 0.928752 -0.333419
vn -0.96593 0.258803 0
vn -0.707107 0.707107 0
vn -0.956114 0.256183 -0.142183
vn -0.759474 0.634932 -0.141638
vn -0.910253 0.243911 -0.334585
vn -0.604681 0.723322 -0.333416
vn 0.214048 0.903484 0.37135
vn 0.176619 0.565958 0.805293
vn 0 0.622274 0.7828
vn 0 0.94196 0.335724
vn 0.938343 0 0.345706
vn 0.925617 0.283459 0.250766
vn 0.712924 0.176876 0.678567
vn 0.692387 0 0.721526
vn 0.283549 0.925643 0.250569
vn 0.151945 0.750647 0.642994
vn 0.519155 0.550602 0.653693
vn 0.678323 0.678118 0.282901
vn 0.990543 0 -0.137205
vn 0.935279 0.30383 -0.181495
vn 0.941947 0 0.335762
vn 0.794502 0.212794 0.568758
vn 0.459624 0.384142 0.800737
vn 0.578083 0.123544 0.806571
vn 0.928758 0.161918 -0.333453
vn 0.945901 0 -0.324454
vn 0.649339 0.624731 0.433671
vn 0.622261 0 0.78281
vn 0 0.692292 0.721618
vn 0.256157 0.956113 -0.142237
vn 0 0.990509 -0.137447
vn 0 0.938385 0.345592
vn 0.676022 0.728087 -0.113509
vn 0.243877 0.910266 -0.334574
vn 0 0.945914 -0.324417
vn 0.870397 -0.233135 0.433656
vn 0.578083 -0.123544 0.806571
vn 0 -0.938385 0.345592
vn 0.283549 -0.925643 0.250568
vn 0.151949 -0.750659 0.642979
vn 0 -0.692317 0.721593
vn 0.519156 -0.550602 0.653693
vn 0.678315 -0.678127 0.282901
vn 0.925615 -0.283465 0.250766
vn 0.71292 -0.176874 0.678572
vn 0 -0.99051 -0.137437
vn 0.256157 -0.956114 -0.142227
vn 0 -0.941947 0.335761
vn 0.249901 -0.86576 0.433599
vn 0.459634 -0.384132 0.800736
vn 0.176626 -0.565947 0.805299
vn 0.243894 -0.910266 -0.334562
vn 0 -0.945921 -0.324397
vn 0.578338 -0.631463 0.516508
vn 0 -0.622234 0.782831
vn 0.935277 -0.30383 -0.181504
vn 0.676026 -0.728082 -0.113514
vn 0.928758 -0.161918 -0.333453
vn 0.723387 -0.604604 -0.333415
vn -0.233219 -0.870399 0.433607
vn -0.151658 -0.565964 0.810361
vn -0.938384 0 0.345594
vn -0.925644 -0.283563 0.250548
vn -0.750663 -0.151964 0.642971
vn -0.692319 0 0.721592
vn -0.242909 -0.927905 0.282821
vn -0.151965 -0.750663 0.642971
vn -0.519295 -0.519294 0.678724
vn -0.64718 -0.72443 0.237402
vn -0.990511 0 -0.137436
vn -0.956113 -0.256183 -0.142194
vn -0.941947 0 0.335762
vn -0.910253 -0.243911 -0.334585
vn -0.945921 0 -0.324397
vn -0.622234 0 0.782832
vn -0.30961 -0.945371 -0.102053
vn -0.723692 -0.668734 -0.170485
vn -0.243915 -0.910252 -0.334584
vn -0.666351 -0.666351 -0.334593
vn -0.242909 0.927905 0.282821
vn -0.1769 0.712819 0.678671
vn -0.758196 0.203153 0.619571
vn -0.509619 0.528874 0.678661
vn -0.674326 0.68213 0.282812
vn -0.944906 0.25318 0.207492
vn -0.340259 0.929602 -0.141651
vn -0.249965 0.865787 0.43351
vn -0.15756 0.576395 0.801838
vn -0.162023 0.928752 -0.333419
vn -0.956114 0.256183 -0.142183
vn -0.759474 0.634932 -0.141638
vn -0.910253 0.243911 -0.334585
vn -0.604681 0.723322 -0.333415
# 208 normals
usemtl (null)
f 1//1 2//1 3//1
f 1//1 4//1 2//1
f 4//1 1//1 5//1
f 6//1 5//1 1//1
f 7//1 8//1 9//1
f 7//1 10//1 8//1
f 10//1 7//1 11//1
f 12//1 11//1 7//1
f 7//1 13//1 12//1
f 7//1 14//1 13//1
f 14//1 7//1 15//1
f 16//1 15//1 7//1
f 7//1 17//1 16//1
f 7//1 18//1 17//1
f 18//1 7//1 19//1
f 20//1 19//1 7//1
f 21//1 22//1 23//1
f 21//1 24//1 22//1
f 24//1 21//1 25//1
f 26//1 25//1 21//1
f 21//1 27//1 26//1
f 21//1 28//1 27//1
f 28//1 21//1 29//1
f 30//1 29//1 21//1
f 21//1 31//1 30//1
f 21//1 32//1 31//1
f 32//1 21//1 33//1
f 34//1 33//1 21//1
f 21//1 35//1 34//1
f 21//1 36//1 35//1
f 36//1 21//1 37//1
f 23//1 37//1 21//1
f 38//2 39//3 40//4
f 40//4 41//5 38//2
f 42//6 43//7 44//8
f 44//8 45//9 42//6
f 46//10 47//11 48//12
f 48//12 49//13 46//10
f 50//14 51//15 52//16
f 52//16 53//17 50//14
f 54//18 55//19 56//20
f 54//18 56//20 57//21
f 58//22 59//23 60//24
f 61//25 58//22 60//24
f 62//26 63//27 64//28
f 64//28 65//29 62//26
f 66//30 67//31 59//23
f 58//22 66//30 59//23
f 68//32 69//33 70//34
f 71//35 68//32 70//34
f 72//36 73//37 60//24
f 60//24 64//28 72//36
f 5//38 67//31 66//30
f 5//38 66//30 6//39
f 59//23 65//29 64//28
f 59//23 64//28 60//24
f 74//40 75//41 54//18
f 57//21 74//40 54//18
f 76//42 77//43 70//34
f 69//33 76//42 70//34
f 77//43 76//42 54//18
f 77//43 54//18 75//41
f 55//19 54//18 76//42
f 76//42 72//36 55//19
f 55//19 72//36 64//28
f 64//28 63//27 55//19
f 78//44 73//37 69//33
f 68//32 78//44 69//33
f 55//19 63//27 79//45
f 55//19 79//45 56//20
f 61//25 60//24 73//37
f 78//44 61//25 73//37
f 62//26 80//46 81//47
f 62//26 81//47 82//48
f 72//36 76//42 69//33
f 73//37 72//36 69//33
f 63//27 62//26 82//48
f 63//27 82//48 79//45
f 62//26 65//29 83//49
f 83//49 80//46 62//26
f 59//23 67//31 83//49
f 83//49 65//29 59//23
f 81//47 80//46 2//50
f 3//51 81//47 2//50
f 4//52 83//49 67//31
f 4//52 67//31 5//38
f 2//50 80//46 83//49
f 2//50 83//49 4//52
f 84//53 85//54 78//44
f 84//53 78//44 68//32
f 86//55 87//56 88//57
f 89//58 86//55 88//57
f 90//59 91//60 92//61
f 93//62 90//59 92//61
f 94//63 95//64 87//56
f 86//55 94//63 87//56
f 96//65 97//66 98//67
f 99//68 96//65 98//67
f 90//59 100//69 101//70
f 101//70 88//57 90//59
f 11//71 95//64 94//63
f 11//71 94//63 12//72
f 90//59 88//57 87//56
f 87//56 91//60 90//59
f 71//35 102//73 84//53
f 68//32 71//35 84//53
f 103//74 98//67 97//66
f 97//66 104//75 103//74
f 84//53 102//73 103//74
f 104//75 84//53 103//74
f 84//53 104//75 100//69
f 84//53 100//69 85//54
f 93//62 85//54 100//69
f 100//69 90//59 93//62
f 105//76 101//70 97//66
f 96//65 105//76 97//66
f 85//54 93//62 61//25
f 85//54 61//25 78//44
f 89//58 88//57 101//70
f 105//76 89//58 101//70
f 92//61 106//77 66//30
f 92//61 66//30 58//22
f 104//75 97//66 101//70
f 101//70 100//69 104//75
f 93//62 92//61 58//22
f 93//62 58//22 61//25
f 107//78 106//77 92//61
f 92//61 91//60 107//78
f 107//78 91//60 87//56
f 87//56 95//64 107//78
f 66//30 106//77 8//79
f 9//39 66//30 8//79
f 107//78 95//64 11//71
f 10//80 107//78 11//71
f 106//77 107//78 10//80
f 8//79 106//77 10//80
f 108//81 109//82 105//76
f 108//81 105//76 96//65
f 110//83 111//84 112//85
f 113//86 110//83 112//85
f 114//87 115//88 116//89
f 117//90 114//87 116//89
f 118//91 119//92 111//84
f 110//83 118//91 111//84
f 120//93 39//3 121//94
f 122//95 120//93 121//94
f 116//89 41//5 40//4
f 112//85 116//89 40//4
f 15//96 119//92 118//91
f 15//96 118//91 16//97
f 116//89 112//85 111//84
f 116//89 111//84 117//90
f 99//68 123//98 108//81
f 96//65 99//68 108//81
f 124//99 121//94 39//3
f 38//2 124//99 39//3
f 108//81 123//98 124//99
f 38//2 108//81 124//99
f 41//5 109//82 108//81
f 41//5 108//81 38//2
f 109//82 41//5 116//89
f 109//82 116//89 115//88
f 125//100 40//4 39//3
f 120//93 125//100 39//3
f 109//82 115//88 89//58
f 109//82 89//58 105//76
f 113//86 112//85 40//4
f 125//100 113//86 40//4
f 114//87 126//101 94//63
f 114//87 94//63 86//55
f 115//88 114//87 86//55
f 115//88 86//55 89//58
f 117//90 127//102 126//101
f 126//101 114//87 117//90
f 127//102 117//90 111//84
f 111//84 119//92 127//102
f 94//63 126//101 13//103
f 12//72 94//63 13//103
f 127//102 119//92 15//96
f 14//104 127//102 15//96
f 13//103 126//101 127//102
f 13//103 127//102 14//104
f 42//6 45//9 125//100
f 42//6 125//100 120//93
f 82//48 128//105 129//106
f 79//45 82//48 129//106
f 130//107 131//108 132//109
f 132//109 133//110 130//107
f 81//47 134//111 128//105
f 82//48 81//47 128//105
f 57//21 135//112 136//113
f 74//40 57//21 136//113
f 44//8 137//114 129//106
f 129//106 131//108 44//8
f 19//115 134//111 81//47
f 19//115 81//47 20//51
f 131//108 129//106 128//105
f 131//108 128//105 132//109
f 122//95 138//116 42//6
f 120//93 122//95 42//6
f 139//117 136//113 135//112
f 43//7 139//117 135//112
f 42//6 138//116 139//117
f 43//7 42//6 139//117
f 45//9 44//8 131//108
f 45//9 131//108 130//107
f 56//20 137//114 135//112
f 57//21 56//20 135//112
f 45//9 130//107 113//86
f 45//9 113//86 125//100
f 79//45 129//106 137//114
f 56//20 79//45 137//114
f 133//110 140//118 118//91
f 133//110 118//91 110//83
f 43//7 135//112 137//114
f 43//7 137//114 44//8
f 130//107 133//110 110//83
f 130//107 110//83 113//86
f 141//119 140//118 133//110
f 133//110 132//109 141//119
f 134//111 141//119 132//109
f 132//109 128//105 134//111
f 118//91 140//118 17//120
f 16//97 118//91 17//120
f 18//121 141//119 134//111
f 18//121 134//111 19//115
f 17//120 140//118 141//119
f 17//120 141//119 18//121
f 142//122 143//123 144//124
f 142//122 144//124 145//125
f 146//126 147//127 148//128
f 149//129 146//126 148//128
f 150//130 151//131 152//132
f 152//132 153//133 150//130
f 154//134 155//135 147//127
f 146//126 154//134 147//127
f 156//136 157//137 158//34
f 159//35 156//136 158//34
f 160//138 161//139 148//128
f 148//128 152//132 160//138
f 25//140 155//135 154//134
f 25//140 154//134 26//141
f 147//127 153//133 152//132
f 147//127 152//132 148//128
f 162//40 163//41 142//122
f 145//125 162//40 142//122
f 164//142 165//43 158//34
f 157//137 164//142 158//34
f 165//43 164//142 142//122
f 165//43 142//122 163//41
f 143//123 142//122 164//142
f 164//142 160//138 143//123
f 143//123 160//138 152//132
f 152//132 151//131 143//123
f 166//143 161//139 157//137
f 156//136 166//143 157//137
f 143//123 151//131 167//144
f 143//123 167//144 144//124
f 149//129 148//128 161//139
f 166//143 149//129 161//139
f 150//130 168//145 169//146
f 150//130 169//146 170//147
f 160//138 164//142 157//137
f 161//139 160//138 157//137
f 151//131 150//130 170//147
f 151//131 170//147 167//144
f 150//130 153//133 171//148
f 171//148 168//145 150//130
f 147//127 155//135 171//148
f 171//148 153//133 147//127
f 169//146 168//145 22//149
f 23//150 169//146 22//149
f 24//52 171//148 155//135
f 24//52 155//135 25//140
f 22//149 168//145 171//148
f 22//149 171//148 24//52
f 172//151 173//152 166//143
f 172//151 166//143 156//136
f 174//153 175//154 176//155
f 177//156 174//153 176//155
f 178//157 179//158 180//159
f 181//160 178//157 180//159
f 182//161 183//162 175//154
f 174//153 182//161 175//154
f 184//163 185//164 186//67
f 187//68 184//163 186//67
f 178//157 188//165 189//166
f 189//166 176//155 178//157
f 29//167 183//162 182//161
f 29//167 182//161 30//168
f 178//157 176//155 175//154
f 175//154 179//158 178//157
f 159//35 190//73 172//151
f 156//136 159//35 172//151
f 191//74 186//67 185//164
f 185//164 192//169 191//74
f 172//151 190//73 191//74
f 192//169 172//151 191//74
f 172//151 192//169 188//165
f 172//151 188//165 173//152
f 181//160 173//152 188//165
f 188//165 178//157 181//160
f 193//170 189//166 185//164
f 184//163 193//170 185//164
f 173//152 181//160 149//129
f 173//152 149//129 166//143
f 177//156 176//155 189//166
f 193//170 177//156 189//166
f 180//159 194//171 154//134
f 180//159 154//134 146//126
f 192//169 185//164 189//166
f 189//166 188//165 192//169
f 181//160 180//159 146//126
f 181//160 146//126 149//129
f 195//172 194//171 180//159
f 180//159 179//158 195//172
f 195//172 179//158 175//154
f 175//154 183//162 195//172
f 154//134 194//171 27//173
f 26//141 154//134 27//173
f 195//172 183//162 29//167
f 28//174 195//172 29//167
f 194//171 195//172 28//174
f 27//173 194//171 28//174
f 196//175 197//176 193//170
f 196//175 193//170 184//163
f 198//177 199//178 200//179
f 201//180 198//177 200//179
f 202//181 203//182 204//183
f 205//184 202//181 204//183
f 206//185 207//186 199//178
f 198//177 206//185 199//178
f 208//187 47//11 209//94
f 210//95 208//187 209//94
f 204//183 49//13 48//12
f 200//179 204//183 48//12
f 33//188 207//186 206//185
f 33//188 206//185 34//189
f 204//183 200//179 199//178
f 204//183 199//178 205//184
f 187//68 211//98 196//175
f 184//163 187//68 196//175
f 212//99 209//94 47//11
f 46//10 212//99 47//11
f 196//175 211//98 212//99
f 46//10 196//175 212//99
f 49//13 197//176 196//175
f 49//13 196//175 46//10
f 197//176 49//13 204//183
f 197//176 204//183 203//182
f 213//190 48//12 47//11
f 208//187 213//190 47//11
f 197//176 203//182 177//156
f 197//176 177//156 193//170
f 201//180 200//179 48//12
f 213//190 201//180 48//12
f 202//181 214//191 182//161
f 202//181 182//161 174//153
f 203//182 202//181 174//153
f 203//182 174//153 177//156
f 205//184 215//192 214//191
f 214//191 202//181 205//184
f 215//192 205//184 199//178
f 199//178 207//186 215//192
f 182//161 214//191 31//193
f 30//168 182//161 31//193
f 215//192 207//186 33//188
f 32//194 215//192 33//188
f 31//193 214//191 215//192
f 31//193 215//192 32//194
f 50//14 53//17 213//190
f 50//14 213//190 208//187
f 170//147 216//195 217//196
f 167//144 170//147 217//196
f 218//197 219//198 220//199
f 220//199 221//200 218//197
f 169//146 222//201 216//195
f 170//147 169//146 216//195
f 145//125 223//202 224//113
f 162//40 145//125 224//113
f 52//16 225//203 217//196
f 217//196 219//198 52//16
f 37//204 222//201 169//146
f 37//204 169//146 23//150
f 219//198 217//196 216//195
f 219//198 216//195 220//199
f 210//95 226//116 50//14
f 208//187 210//95 50//14
f 227//117 224//113 223//202
f 51//15 227//117 223//202
f 50//14 226//116 227//117
f 51//15 50//14 227//117
f 53//17 52//16 219//198
f 53//17 219//198 218//197
f 144//124 225//203 223//202
f 145//125 144//124 223//202
f 53//17 218//197 201//180
f 53//17 201//180 213//190
f 167//144 217//196 225//203
f 144//124 167//144 225//203
f 221//200 228//205 206//185
f 221//200 206//185 198//177
f 51//15 223//202 225//203
f 51//15 225//203 52//16
f 218//197 221//200 198//177
f 218//197 198//177 201//180
f 229//206 228//205 221//200
f 221//200 220//199 229//206
f 222//201 229//206 220//199
f 220//199 216//195 222//201
f 206//185 228//205 35//207
f 34//189 206//185 35//207
f 36//208 229//206 222//201
f 36//208 222//201 37//204
f 35//207 228//205 229//206
f 35//207 229//206 36//208
