# 
# Wavefront OBJ file
# 3D Pottery Benchmark Ver. 1.0, Multimedia Department,ILSP-Research Centre Athena, Contact Email: Anestis Koutsoudis (akoutsou@ceti.gr)
# 
# object OFF2TDDD
g OFF2TDDD
v 30.0285 0 38.0154
v 25.0083 0 12.0221
v 19.9914 -14.9767 12.0221
v 24.0093 -17.0025 38.0154
v 14.9754 0 6.9904
v 12.0152 -8.9794 6.9904
v 3.99919 0 6.03008
v 2.97919 -2.01497 6.03008
v 2.99232 0 -14.9821
v 3.03203 -1.97046 -14.9821
v 19.0229 0 -18.9716
v 16.0136 -11.0268 -18.9716
v 19.9852 0 -22.9879
v 15.9872 -10.9836 -22.9879
v 0 0 -23.0296
v 8.01152 -24.0015 12.0221
v 9.02783 -28.0121 38.0154
v 4.0032 -14.0202 6.9904
v 0.979599 -3.968 6.03008
v 1.01158 -2.99757 -14.9821
v 6.0106 -17.9846 -18.9716
v 5.99461 -18.9942 -22.9879
v -8.01152 -24.0015 12.0221
v -9.02783 -28.0121 38.0154
v -4.0032 -14.0202 6.9904
v -0.979599 -3.96799 6.03008
v -1.01158 -2.99757 -14.9821
v -6.0106 -17.9846 -18.9716
v -5.99461 -18.9942 -22.9879
v -19.9914 -14.9767 12.0221
v -24.0093 -17.0024 38.0154
v -12.0152 -8.9794 6.9904
v -2.97919 -2.01497 6.03008
v -3.03203 -1.97046 -14.9821
v -16.0136 -11.0268 -18.9716
v -15.9872 -10.9836 -22.9879
v -25.0083 0 12.0221
v -30.0285 0 38.0154
v -14.9754 0 6.9904
v -3.99919 0 6.03008
v -2.99232 0 -14.9821
v -19.0229 0 -18.9716
v -19.9852 0 -22.9879
v -19.9914 14.9767 12.0221
v -24.0093 17.0025 38.0154
v -12.0152 8.9794 6.9904
v -2.97919 2.01497 6.03008
v -3.03203 1.97046 -14.9821
v -16.0136 11.0268 -18.9716
v -15.9872 10.9836 -22.9879
v -8.01152 24.0015 12.0221
v -9.02783 28.0121 38.0154
v -4.0032 14.0202 6.9904
v -0.979584 3.96799 6.03008
v -1.01158 2.99757 -14.9821
v -6.0106 17.9846 -18.9716
v -5.9946 18.9942 -22.9879
v 8.01152 24.0015 12.0221
v 9.02789 28.0121 38.0154
v 4.00322 14.0202 6.9904
v 0.979599 3.96799 6.03008
v 1.0116 2.99757 -14.9821
v 6.01062 17.9846 -18.9716
v 5.99463 18.9942 -22.9879
v 19.9914 14.9767 12.0221
v 24.0094 17.0024 38.0154
v 12.0152 8.9794 6.9904
v 2.97919 2.01497 6.03008
v 3.03203 1.97046 -14.9821
v 16.0136 11.0268 -18.9716
v 15.9872 10.9836 -22.9879
# 71 verts.
vn 0.656022 -0.44737 -0.607861
vn 0.79166 0.0349549 -0.609961
vn 0.976599 -0.1096 -0.185046
vn 0.730539 -0.663311 -0.162271
vn 0.228032 -0.147828 -0.962366
vn 0.271645 0.0181309 -0.962227
vn 0.5206 -0.501416 -0.691056
vn 0.701957 0.0099337 -0.71215
vn 0.656099 -0.39578 0.642567
vn 0.791697 0.0833943 0.605195
vn 0.60542 -0.452646 0.65466
vn 0.726796 -0.0701618 0.68326
vn 0.741792 -0.407678 -0.532488
vn 0.869982 0.0822775 -0.486171
vn 1.86265e-10 -8.73117e-11 -1
vn 0.280038 -0.742091 -0.608998
vn 0.20408 -0.966271 -0.157069
vn 0.0962792 -0.250331 -0.963361
vn 0.185197 -0.675933 -0.713314
vn 0.277586 -0.733788 0.620082
vn 0.162826 -0.682234 0.712772
vn 0.367629 -0.792793 -0.486136
vn -0.213807 -0.765592 -0.606758
vn -0.411602 -0.897744 -0.156969
vn -0.0591553 -0.256341 -0.964774
vn -0.279442 -0.655317 -0.701763
vn -0.157292 -0.78348 0.601181
vn -0.274096 -0.675795 0.684231
vn -0.215009 -0.947348 0.237284
vn -0.0007023 -0.00197377 -0.999998
vn -0.630896 -0.492996 -0.599103
vn -0.84911 -0.498854 -0.173657
vn -0.198582 -0.174592 -0.964408
vn -0.644104 -0.3085 -0.69997
vn -0.627777 -0.429782 0.648987
vn -0.630561 -0.412209 0.65763
vn -0.6244 -0.566671 -0.537596
vn -0.79166 -0.0349559 -0.609961
vn -0.976599 0.109599 -0.185047
vn -0.271645 -0.0181309 -0.962227
vn -0.701957 -0.0099337 -0.71215
vn -0.791697 -0.0833943 0.605195
vn -0.726796 0.0701618 0.68326
vn -0.869982 -0.0822774 -0.486171
vn -0.656022 0.44737 -0.607861
vn -0.730539 0.663311 -0.162271
vn -0.228032 0.147829 -0.962366
vn -0.520599 0.501417 -0.691056
vn -0.656099 0.39578 0.642567
vn -0.60542 0.452646 0.654659
vn -0.741792 0.407679 -0.532488
vn -0.280038 0.742091 -0.608998
vn -0.20408 0.966271 -0.157069
vn -0.0962792 0.250331 -0.963361
vn -0.185197 0.675933 -0.713313
vn -0.277585 0.733789 0.620081
vn -0.162826 0.682234 0.712772
vn -0.367629 0.792793 -0.486136
vn 0.213807 0.765592 -0.606758
vn 0.411602 0.897744 -0.156971
vn 0.0591554 0.256341 -0.964774
vn 0.279441 0.655317 -0.701763
vn 0.157292 0.78348 0.601181
vn 0.274096 0.675795 0.684231
vn 0.215009 0.947348 0.237284
vn 0.0007023 0.00197377 -0.999998
vn 0.630896 0.492996 -0.599104
vn 0.84911 0.498853 -0.173659
vn 0.198582 0.174592 -0.964408
vn 0.644104 0.3085 -0.69997
vn 0.627778 0.429781 0.648987
vn 0.630561 0.412209 0.65763
vn 0.6244 0.56667 -0.537596
vn 0 0 1
# 74 normals
usemtl (null)
f 3//1 2//2 1//3
f 4//4 3//1 1//3
f 6//5 5//6 2//2
f 3//1 6//5 2//2
f 8//7 7//8 5//6
f 6//5 8//7 5//6
f 10//9 9//10 7//8
f 8//7 10//9 7//8
f 12//11 11//12 9//10
f 10//9 12//11 9//10
f 14//13 13//14 11//12
f 12//11 14//13 11//12
f 14//13 15//15 13//14
f 16//16 3//1 4//4
f 17//17 16//16 4//4
f 18//18 6//5 3//1
f 16//16 18//18 3//1
f 19//19 8//7 6//5
f 18//18 19//19 6//5
f 20//20 10//9 8//7
f 19//19 20//20 8//7
f 21//21 12//11 10//9
f 20//20 21//21 10//9
f 22//22 14//13 12//11
f 21//21 22//22 12//11
f 22//22 15//15 14//13
f 23//23 16//16 17//17
f 24//24 23//23 17//17
f 25//25 18//18 16//16
f 23//23 25//25 16//16
f 26//26 19//19 18//18
f 25//25 26//26 18//18
f 27//27 20//20 19//19
f 26//26 27//27 19//19
f 28//28 21//21 20//20
f 27//27 28//28 20//20
f 29//29 22//22 21//21
f 28//28 29//29 21//21
f 29//30 15//15 22//22
f 30//31 23//23 24//24
f 31//32 30//31 24//24
f 32//33 25//25 23//23
f 30//31 32//33 23//23
f 33//34 26//26 25//25
f 32//33 33//34 25//25
f 34//35 27//27 26//26
f 33//34 34//35 26//26
f 35//36 28//28 27//27
f 34//35 35//36 27//27
f 36//37 29//29 28//28
f 35//36 36//37 28//28
f 36//37 15//15 29//30
f 37//38 30//31 31//32
f 38//39 37//38 31//32
f 39//40 32//33 30//31
f 37//38 39//40 30//31
f 40//41 33//34 32//33
f 39//40 40//41 32//33
f 41//42 34//35 33//34
f 40//41 41//42 33//34
f 42//43 35//36 34//35
f 41//42 42//43 34//35
f 43//44 36//37 35//36
f 42//43 43//44 35//36
f 43//44 15//15 36//37
f 44//45 37//38 38//39
f 45//46 44//45 38//39
f 46//47 39//40 37//38
f 44//45 46//47 37//38
f 47//48 40//41 39//40
f 46//47 47//48 39//40
f 48//49 41//42 40//41
f 47//48 48//49 40//41
f 49//50 42//43 41//42
f 48//49 49//50 41//42
f 50//51 43//44 42//43
f 49//50 50//51 42//43
f 50//51 15//15 43//44
f 51//52 44//45 45//46
f 52//53 51//52 45//46
f 53//54 46//47 44//45
f 51//52 53//54 44//45
f 54//55 47//48 46//47
f 53//54 54//55 46//47
f 55//56 48//49 47//48
f 54//55 55//56 47//48
f 56//57 49//50 48//49
f 55//56 56//57 48//49
f 57//58 50//51 49//50
f 56//57 57//58 49//50
f 57//58 15//15 50//51
f 58//59 51//52 52//53
f 59//60 58//59 52//53
f 60//61 53//54 51//52
f 58//59 60//61 51//52
f 61//62 54//55 53//54
f 60//61 61//62 53//54
f 62//63 55//56 54//55
f 61//62 62//63 54//55
f 63//64 56//57 55//56
f 62//63 63//64 55//56
f 64//65 57//58 56//57
f 63//64 64//65 56//57
f 64//66 15//15 57//58
f 65//67 58//59 59//60
f 66//68 65//67 59//60
f 67//69 60//61 58//59
f 65//67 67//69 58//59
f 68//70 61//62 60//61
f 67//69 68//70 60//61
f 69//71 62//63 61//62
f 68//70 69//71 61//62
f 70//72 63//64 62//63
f 69//71 70//72 62//63
f 71//73 64//65 63//64
f 70//72 71//73 63//64
f 71//73 15//15 64//66
f 2//2 65//67 66//68
f 1//3 2//2 66//68
f 5//6 67//69 65//67
f 2//2 5//6 65//67
f 7//8 68//70 67//69
f 5//6 7//8 67//69
f 9//10 69//71 68//70
f 7//8 9//10 68//70
f 11//12 70//72 69//71
f 9//10 11//12 69//71
f 13//14 71//73 70//72
f 11//12 13//14 70//72
f 13//14 15//15 71//73
f 17//74 4//74 1//74
f 24//74 17//74 1//74
f 31//74 24//74 1//74
f 38//74 31//74 1//74
f 45//74 38//74 1//74
f 52//74 45//74 1//74
f 59//74 52//74 1//74
f 66//74 59//74 1//74
