# 
# Wavefront OBJ file
# 3D Pottery Benchmark Ver. 1.0, Multimedia Department,ILSP-Research Centre Athena, Contact Email: Anestis Koutsoudis (akoutsou@ceti.gr)
# 
# object object
g object
v 311.38 161.903 -84.2406
v 61.353 -176.57 63.5642
v -130.595 -125.53 -186.623
v -199.759 205.009 179.53
v -141.099 203.964 -364.013
v 25.9116 -118.549 -233.844
v -45.696 -171.795 -231.798
v -95.2539 -30.4187 98.8179
v -177.248 -163.138 -48.0798
v 243.571 63.2679 -68.7062
v -136.526 -61.801 -206.714
v -84.609 -132.907 18.1245
v -319.957 211.049 -86.9955
v -114.531 -168.898 51.6394
v 203.211 66.1502 61.9948
v 156.534 88.2855 -278.59
v -180.018 -53.6655 -4.81091
v -6.8544 78.5071 174.791
v 205.734 31.4537 -166.347
v -4.27124 46.1618 -308.128
v 97.8591 -110.555 46.1712
v 134.641 -180.464 -78.6226
v 139.004 -142.223 -45.845
v -39.8126 -137.865 -233.004
v -255.781 100.733 -108.211
v 92.1043 -138.143 -46.7777
v 54.8019 -134.562 -161.752
v 157.044 180.731 -351.487
v 159.753 181.967 205.643
v -56.6538 191.636 240.736
v -88.9097 -133.653 -174.992
v -28.9258 -124.923 82.4954
v -226.235 72.1749 19.6991
v -174.632 80.8504 -252.677
v -176.833 -113.775 -87.1966
v 135.413 -145.96 -118.883
v 137.483 67.2217 128.152
v -108.868 -162.445 33.1298
v 54.4469 -154.135 28.1492
v 55.0938 -165.381 -222.685
v 85.4762 -128.138 -201.831
v -160.434 -141.984 -146.143
v 290.887 173.501 59.3713
v -215.951 7.64699 -51.3794
v -184.942 -66.9747 -119.445
v -274.01 207.466 -237.721
v 176.394 -55.1496 -49.9228
v -166.904 122.01 139.645
v -152.245 -161.709 -20.3638
v -130.06 -130.381 -114.907
v -141.801 -164.287 -169.158
v 99.2723 -34.9844 -238.837
v -84.0745 -113.153 70.3915
v -10.1835 -49.4211 -263.665
v -20.101 -121.423 -81.8768
v -112.411 -162.274 -208.145
v -103.162 39.7301 -281.111
v 54.2754 -166.706 -198.222
v 95.1185 96.4693 -317.483
v 154.536 -45.9128 23.6048
v -150.068 -160.951 17.3846
v -10.4086 8.62336 139.345
v -273.726 174.515 43.3748
v 254.914 178.419 -269.968
v 18.2135 -118.567 82.1245
v 85.3554 18.7396 126.702
v -83.7207 103.466 174.456
v -178.04 -164.956 -97.0634
v -218.029 19.8636 -118.651
v -263.422 148.836 -178.363
v 141.264 -169.299 -46.7814
v -12.2094 -138.413 44.1488
v -43.9246 -158.224 55.4732
v -133.963 -130.198 -63.5896
v 103.836 115.538 179.309
v 225.538 59.224 11.4224
v 85.3163 -160.312 -161.17
v 103.43 -179.454 14.0046
v 126.326 -164.728 -150.618
v -141.19 -117.597 23.4883
v 154.825 -41.9457 -178.526
v -195.547 -43.0735 -49.8204
v -26.8432 -170.208 70.053
v 264.584 131.121 -186.271
v 37.5751 196.583 -397.368
v 12.7441 -165.727 82.0942
v 57.921 -137.618 8.38523
v -126.077 -161.584 -197.054
v 79.8357 -179.1 50.6353
v -8.19063 169.624 -377.271
v -202.442 181.436 -299.936
v 19.9945 -171.251 -222.28
v 32.941 -138.535 -185.163
v -136.281 40.8572 111.931
v -299.532 212.55 47.0403
v 105.513 -145.804 22.6493
v -293.498 174.429 -31.1642
v -178 -147.454 -80.0963
v -161.961 -63.9256 -174.005
v -120.61 -158.006 48.1306
v -80.5257 -52.3151 -247.696
v 118.209 -150.612 -157.873
v -75.788 149.655 -352.802
v 9.32759 -158.801 -236.464
v 231.022 182.953 156.089
v -217.442 123.977 87.766
v -136.586 -52.3573 59.0551
v -190.124 17.7804 37.9268
v 199.702 130.776 130.65
v 115.284 -179.458 -153.281
v 282.731 131.712 -130.777
v -245.542 156.33 -224.302
v -29.7018 -163.382 84.549
v 162.972 -75.1481 -120.833
v -24.7101 -131.266 -186.955
v -119.936 -149.394 -160.73
v -97.677 -167.553 -209.17
v 284.254 142.613 10.2701
v 305.278 173.082 -168.46
v 56.2525 -138.337 63.8197
v 86.5151 -26.7912 99.529
v -117.684 -161.255 23.7043
v -195.607 22.3884 -182.419
v 97.1656 172.676 -368.159
v 19.6466 -160.935 52.0903
v -94.7897 -137.181 -215.124
v 21.5159 190.613 247.05
v -47.1388 131.01 201.272
v 234.689 136.85 -244.538
v -160.143 -158.86 -59.3006
v -42.6649 -56.7346 105.51
v -163.028 -134.067 -19.0061
v -201.878 -29.8623 -91.4743
v -197.286 -32.4618 -36.3047
v 201.694 -7.63218 -100.001
v 113.282 -168.321 17.7286
v -65.2527 12.5862 132.111
v 3.66009 -132.932 29.5067
v -142.523 156.489 -327.491
v 113.303 -164.063 -107.183
v -79.153 -154.961 -226.996
v -72.5987 202.065 -389.543
v -295.59 181.796 -128.736
v 38.4232 -129.081 -34.607
v -110.68 -132.23 -3.39236
v -120.96 -132.468 -139.941
v -67.6961 -168.576 64.1459
v 200.305 155.918 -300.633
v -98.8643 -123.069 -104.325
v -265.474 213.22 -259.309
v 121.764 -182.116 -10.1727
v -145.094 -151.725 -123.229
v -44.8909 -28.0173 -269.034
v -55.9574 68.5516 -312.545
v -141.785 -167.392 24.0621
v 88.5739 46.5884 -291.158
v 104.269 -143.917 -91.7073
v -170.425 -163.985 -44.2592
v -166.21 -164.592 -17.6987
v -174.056 -152.63 -35.1653
v -228.543 75.1676 -166.87
v 148.998 -0.076289 -220.637
v -220.295 166.914 121.97
v -128.475 -167.751 -192.693
v -129.241 -151.254 -193.547
v -165.095 -100.347 -144.548
v 136.637 -105.761 -152.78
v 99.4517 -83.3787 -212.387
v 59.3447 -29.2238 -261.041
v -124.3 161.12 193.422
v -83.7235 -145.885 66.8233
v 139.584 -89.6887 9.59802
v 62.8109 -117.032 67.3507
v 141.535 -144.391 -82.7371
v 189.473 -26.9461 -41.102
v 137.227 17.5285 94.3697
v 188.147 55.6077 -221.909
v 101.33 -170.279 32.8092
v -19.3279 102.301 -335.89
v 34.2497 99.1631 -333.682
v -147.449 4.20741 -231.377
v -174.5 11.5933 55.6525
v 275.814 112.735 -61.7839
v 319.069 178.987 -6.18492
v -28.3526 187.08 242.57
v -56.953 -136.173 -192.563
v -253.661 102.699 -22.4002
v 26.8534 -175.896 -230.545
v -91.9546 -125.042 -17.2914
v -154.942 -167.859 -0.985864
v -156.657 -155.146 -84.7296
v -206.188 97.1568 -227.213
v -206.724 0.829794 -18.8803
v -10.4158 -176.42 81.9626
v 9.94603 140.85 212.863
v 35.6683 90.1859 179.785
v 47.474 -151.719 -222.895
v -131.294 -139.973 31.258
v -132.408 -159.751 37.7695
v -182.753 -82.3829 -49.1998
v -6.99041 -45.2758 113.65
v 180.036 151.49 165.058
v 267.024 139.882 49.2141
v -295.276 172.625 -65.1622
v -8.0989 -127.429 -236.499
v 74.87 -135.586 -136.729
v -61.4833 -158.701 -233.829
v 185.816 74.3606 92.42
v -100.661 -159.812 62.1381
v -101.552 -111.894 -214.675
# 210 verts.
vn 0.315644 -0.497453 0.808028
vn 0.394245 -0.431148 0.811593
vn 0.559903 -0.502411 0.658857
vn 0.897744 -0.417681 0.139996
vn 0.894602 -0.388293 -0.221168
vn 0.874115 -0.467945 -0.130191
vn -0.658719 -0.335306 0.673543
vn -0.746025 -0.127796 0.65354
vn -0.464053 -0.236541 0.853641
vn -0.725959 -0.511133 -0.460137
vn -0.746366 -0.444535 -0.495304
vn -0.82057 -0.471242 -0.323412
vn -0.00605427 -0.373051 -0.927791
vn -0.208944 -0.0380528 -0.977187
vn -0.378648 -0.363157 -0.851318
vn -0.0336326 -0.546144 -0.837016
vn -0.2387 -0.52188 -0.818941
vn -0.17532 -0.534552 -0.826751
vn 0.336629 -0.900488 -0.275321
vn 0.247169 -0.82619 -0.506278
vn 0.011256 -0.942818 -0.333117
vn -0.706314 -0.65748 0.262373
vn -0.929006 -0.03 0.368846
vn -0.945548 -0.0750994 0.3167
vn 0.620092 -0.354896 0.699668
vn 0.74312 -0.466383 0.479853
vn -0.656758 0.118505 0.744732
vn 0.807005 -0.378673 0.453156
vn 0.6388 -0.567887 -0.519074
vn 0.649461 -0.553391 -0.521496
vn 0.743188 -0.560088 -0.366023
vn -0.504503 -0.224379 -0.833745
vn -0.0572606 -0.998338 0.00650742
vn -0.152107 -0.987441 -0.0427042
vn -0.146953 -0.919664 -0.364175
vn 0.0223825 -0.770535 0.637005
vn -0.166085 -0.789235 0.591206
vn -0.0338636 -0.921028 0.388023
vn -0.881935 -0.449014 0.14345
vn -0.803512 -0.486307 0.343328
vn -0.86057 -0.488051 0.145688
vn 0.200434 -0.814 -0.545188
vn -0.618261 -0.78442 0.0493933
vn -0.114741 -0.157563 0.98082
vn -0.215981 -0.372108 0.902711
vn 0.768941 -0.59367 0.237245
vn 0.708975 -0.57607 0.406814
vn 0.804003 -0.530426 0.268751
vn 0.803417 -0.575713 -0.15191
vn 0.795087 -0.509301 -0.329317
vn -0.899812 -0.382174 0.21043
vn -0.924863 -0.340692 0.168987
vn -0.861279 -0.337989 0.379424
vn -0.537608 -0.502197 0.67733
vn -0.718461 -0.448119 0.53198
vn -0.522273 -0.439365 0.730883
vn -0.233975 -0.418392 0.877612
vn -0.560709 -0.475944 0.677556
vn -0.365277 -0.501054 0.784549
vn 0.757278 -0.440473 -0.482197
vn 0.0994773 -0.522813 -0.846623
vn 0.192634 -0.526105 -0.828315
vn 0.27762 -0.418899 -0.864553
vn 0.296461 -0.208202 -0.932075
vn 0.967623 -0.244153 -0.0639882
vn 0.933552 -0.197821 -0.298911
vn 0.0228929 -0.382 0.923879
vn 0.221249 -0.237495 0.945857
vn -0.534688 -0.825084 -0.182604
vn -0.367219 -0.843243 -0.392546
vn 0.747813 -0.0549768 0.661629
vn 0.860385 -0.0792774 0.50344
vn 0.944312 -0.141988 0.29684
vn -0.496289 0.103668 -0.861946
vn -0.844656 -0.418579 -0.333689
vn -0.449131 -0.868707 0.208878
vn -0.710266 -0.647207 0.276849
vn -0.568141 -0.813611 0.123501
vn -0.55579 -0.717206 -0.420373
vn 0.47637 -0.598187 0.644394
vn -0.374941 -0.758509 -0.532995
vn 0.550047 -0.821425 0.150695
vn 0.114165 -0.990607 0.0752606
vn 0.514925 -0.853249 -0.0825741
vn 0.515048 -0.52368 -0.678591
vn 0.622061 -0.480111 -0.618493
vn 0.337947 -0.471784 -0.814378
vn 0.770995 -0.582631 -0.257114
vn 0.489945 -0.51834 0.700912
vn 0.598718 -0.56191 0.570784
vn 0.460854 -0.575487 0.675595
vn 0.566893 -0.602163 0.562168
vn -0.0839168 -0.488948 0.868267
vn 0.120996 -0.494009 0.860997
vn 0.0283106 -0.54038 0.840945
vn -0.312181 -0.484733 0.817054
vn 0.445125 -0.875642 -0.187392
vn 0.473515 -0.865615 -0.162771
vn 0.500627 -0.105379 0.859225
vn 0.422989 -0.338103 0.840694
vn -0.920636 -0.377861 0.0982351
vn -0.848149 -0.422203 0.319982
vn -0.802463 -0.49192 0.337739
vn -0.798279 -0.390738 -0.458339
vn -0.801495 -0.313645 -0.509148
vn -0.922718 -0.317135 -0.219128
vn 0.110406 -0.500946 -0.858408
vn -0.0807009 -0.48058 -0.87323
vn -0.890711 -0.215792 -0.400085
vn -0.997219 -0.0585882 -0.0460656
vn -0.674342 -0.705444 0.2182
vn -0.202879 -0.976518 0.0724744
vn 0.637737 -0.100234 -0.763704
vn 0.913957 -0.0242203 -0.405088
vn 0.478515 0.0583071 -0.876141
vn 0.863524 -0.0115375 -0.504176
vn 0.798766 -0.349527 -0.489698
vn 0.697739 -0.517767 0.495054
vn -0.0308635 -0.749445 -0.661347
vn 0.151045 -0.7133 -0.684389
vn -0.514392 -0.647049 0.562787
vn -0.255373 -0.9663 0.0323934
vn -0.259443 -0.711156 -0.653412
vn 0.380023 0.0730423 -0.922089
vn 0.0348037 -0.169375 -0.984937
vn 0.120785 0.0276979 -0.992292
vn 0.558759 -0.394717 -0.729375
vn 0.718171 -0.606192 0.341705
vn -0.892403 -0.438677 -0.10573
vn -0.908676 -0.377853 -0.17758
vn -0.805574 -0.403606 0.433766
vn -0.889254 -0.371003 0.267554
vn -0.629367 -0.381586 -0.676971
vn -0.867636 -0.462368 -0.18282
vn -0.818123 -0.464403 -0.339123
vn 0.85912 -0.484419 0.16508
vn -0.237627 -0.426286 0.872819
vn 0.743819 -0.663674 0.0791844
vn -0.722826 -0.126897 0.679279
vn 0.160189 -0.791754 0.589462
vn 0.303306 -0.862563 0.404957
vn 0.548899 -0.701379 0.454728
vn 0.371605 -0.723264 0.582064
vn 0.0205641 -0.447028 -0.894283
vn 0.68428 -0.51225 -0.519
vn -0.460312 -0.380638 0.802015
vn -0.424998 0.11468 0.897901
vn -0.733983 -0.118028 -0.668834
vn -0.697794 0.0972832 -0.709661
vn -0.901476 0.00597266 -0.432789
vn -0.571483 0.124848 -0.811061
vn -0.631172 -0.307208 -0.712212
vn -0.194709 -0.428184 -0.882467
vn -0.344704 -0.868323 0.356642
vn -0.295238 -0.762564 0.575613
vn -0.436057 -0.699454 0.566231
vn -0.596852 -0.676614 0.431232
vn 0.411509 -0.493026 -0.766541
vn 0.302343 -0.522844 -0.797009
vn 0.613765 -0.524109 0.590425
vn -0.814079 -0.096452 0.572689
vn 0.0451908 -0.464024 0.884669
vn -0.699958 -0.483933 0.525231
vn 0.559181 -0.542508 -0.626898
vn 0.18242 -0.0157684 0.983094
vn 0.474815 0.0574743 0.878207
vn 0.283146 -0.533653 0.796896
vn -0.17442 -0.536619 0.825601
vn -0.984431 0.0553755 -0.166818
vn -0.93911 -0.34203 -0.032985
vn -0.671792 -0.474251 -0.569017
vn -0.621336 -0.464563 -0.63097
vn 0.993788 -0.0280727 0.107692
vn 0.105536 -0.98613 -0.128097
vn -0.0215506 -0.625504 -0.779923
vn 0.459779 -0.819597 -0.341853
vn 0.37197 -0.57316 0.730155
vn 0.0594759 -0.453641 0.889198
vn 0.809327 -0.584155 0.0612678
vn -0.769829 -0.636656 0.0450807
vn -0.680727 -0.68191 -0.267599
vn 0.0188934 -0.980999 0.193088
vn -0.994809 0.0840377 0.057381
vn 0.520775 -0.442734 -0.729917
vn -0.95386 -0.285849 0.0918741
vn -0.297238 -0.831721 -0.468923
vn 0.809242 -0.584439 -0.0596475
vn -0.122895 0.00762581 0.99239
vn 0.493742 -0.583613 0.644682
vn -0.662541 -0.13307 -0.73711
vn -0.415585 -0.421245 -0.806128
vn -0.434466 -0.492978 -0.753799
vn -0.2218 -0.451463 -0.864283
vn -0.455956 -0.49044 -0.74268
vn -0.680643 -0.41227 0.605605
vn -0.878471 -0.476675 -0.0326952
vn 0.725217 -0.122407 0.677552
vn -0.864388 -0.50277 0.00738349
vn -0.475761 0.118347 0.871576
vn -0.766888 0.239257 0.595516
vn -0.620543 -0.443438 -0.646753
vn -0.630939 -0.699415 0.33576
vn 0.854695 -0.519057 -0.00874182
vn 0.68405 -0.661214 0.308012
vn 0.421736 -0.828126 0.36925
vn 0.498658 -0.794728 0.346047
vn 0.778265 -0.605616 0.165931
vn -0.403573 0.106388 -0.908741
vn -0.0830248 -0.460907 0.883556
vn -0.161061 0.205733 -0.965263
vn -0.669672 -0.237253 -0.70374
vn -0.104515 -0.90152 0.419926
vn 0.0505998 -0.121793 0.991265
# 213 normals
usemtl (null)
f 66//1 121//2 176//3
f 47//4 114//5 135//6
f 107//7 80//8 53//9
f 112//10 192//11 70//12
f 54//13 24//14 101//15
f 90//16 103//17 142//18
f 122//19 12//20 38//21
f 159//22 132//23 160//24
f 21//25 60//26 121//2
f 53//9 80//8 198//27
f 47//4 60//26 172//28
f 129//29 64//30 84//31
f 24//14 210//32 101//15
f 55//33 144//34 138//35
f 7//36 92//37 115//38
f 187//39 63//40 97//41
f 147//42 14//43 38//21
f 32//44 131//45 53//9
f 118//46 203//47 76//48
f 84//31 111//49 19//50
f 134//51 82//52 17//53
f 48//54 106//55 94//56
f 30//57 4//58 170//59
f 135//6 114//5 81//60
f 85//61 124//62 90//16
f 169//63 6//64 54//13
f 174//65 36//66 114//5
f 201//67 32//44 65//68
f 144//34 26//69 87//70
f 96//71 136//72 23//73
f 210//32 24//14 126//74
f 80//8 107//7 17//53
f 161//75 70//12 192//11
f 206//76 140//77 157//78
f 78//79 89//80 39//81
f 50//82 149//83 74//84
f 16//85 162//86 156//87
f 84//31 64//30 119//88
f 37//89 109//90 202//91
f 109//90 203//47 105//92
f 18//93 196//94 195//95
f 48//54 67//96 170//59
f 49//97 130//98 74//84
f 120//99 21//25 173//100
f 187//39 44//101 33//102
f 95//103 97//41 63//40
f 123//104 99//105 45//106
f 90//16 180//107 179//108
f 166//109 35//110 45//106
f 160//24 9//111 158//112
f 41//113 79//114 40//115
f 102//116 167//117 36//66
f 176//3 121//2 60//26
f 203//47 109//90 15//118
f 12//20 72//119 73//120
f 155//121 190//122 122//19
f 125//123 72//119 138//35
f 78//79 39//81 87//70
f 6//64 41//113 197//124
f 205//125 104//126 24//14
f 6//64 169//63 168//127
f 168//127 41//113 6//64
f 99//105 166//109 45//106
f 118//46 43//128 203//47
f 25//129 69//130 44//101
f 108//131 193//132 17//53
f 69//130 123//104 45//106
f 123//104 181//133 99//105
f 143//134 46//135 70//12
f 175//136 60//26 47//4
f 135//6 175//136 47//4
f 63//40 33//102 106//55
f 137//137 67//96 94//56
f 191//138 50//82 74//84
f 14//43 100//139 38//21
f 186//140 7//36 115//38
f 31//141 116//142 117//143
f 186//140 117//143 7//36
f 180//107 156//87 20//144
f 16//85 177//145 162//86
f 107//7 53//9 8//146
f 171//147 32//44 53//9
f 156//87 169//63 20//144
f 6//64 205//125 54//13
f 31//141 115//38 149//83
f 206//76 157//78 144//34
f 3//148 165//149 42//150
f 165//149 126//74 56//151
f 11//152 99//105 181//133
f 54//13 153//153 20//144
f 27//154 93//155 58//156
f 27//154 58//156 77//157
f 28//158 16//85 59//159
f 179//108 180//107 20//144
f 21//25 96//71 172//28
f 208//160 176//3 15//118
f 159//22 49//97 190//122
f 132//23 61//161 80//8
f 196//94 62//162 66//1
f 18//93 67//96 137//137
f 163//163 63//40 106//55
f 148//164 64//30 129//29
f 201//67 65//68 121//2
f 86//165 2//166 120//99
f 121//2 173//100 21//25
f 75//167 66//1 37//89
f 48//54 94//56 67//96
f 128//168 67//96 18//93
f 42//150 68//169 35//110
f 25//129 70//12 161//75
f 44//101 69//130 133//170
f 150//171 91//172 112//10
f 143//134 70//12 25//129
f 23//73 172//28 96//71
f 174//65 71//173 79//114
f 147//42 38//21 12//20
f 189//174 138//35 12//20
f 83//175 73//120 72//119
f 12//20 145//176 189//174
f 145//176 49//97 74//84
f 29//177 127//178 75//167
f 66//1 75//167 196//94
f 15//118 60//26 76//48
f 183//179 118//46 76//48
f 22//180 26//69 157//78
f 22//180 151//181 26//69
f 102//116 79//114 41//113
f 36//66 174//65 79//114
f 122//19 38//21 199//182
f 160//24 35//110 98//183
f 52//184 162//86 81//60
f 36//66 167//117 114//5
f 35//110 200//185 45//106
f 35//110 132//23 200//185
f 2//186 125//123 39//81
f 19//50 177//145 84//31
f 183//179 111//49 1//187
f 28//158 59//159 124//62
f 32//44 113//188 86//165
f 32//44 86//165 65//68
f 78//79 87//70 26//69
f 39//81 138//35 87//70
f 56//189 141//189 88//189
f 56//151 88//190 165//149
f 2//186 39//81 89//80
f 120//99 89//80 96//71
f 142//18 85//61 90//16
f 57//191 139//192 154//193
f 5//194 103//17 139//192
f 5//194 91//172 150//171
f 115//38 92//37 93//155
f 27//154 55//33 115//38
f 58//156 93//155 92//37
f 8//146 131//45 137//137
f 17//53 107//7 182//195
f 97//41 95//103 13//196
f 63//40 163//163 95//103
f 120//99 96//71 21//25
f 89//80 136//72 178//197
f 143//134 204//198 13//196
f 204//198 187//39 97//41
f 68//169 98//183 35//110
f 3//148 99//105 11//152
f 3//148 42//150 166//109
f 209//199 171//147 100//139
f 155//121 199//200 198//27
f 57//191 153//153 101//15
f 181//133 101//15 11//152
f 41//113 168//127 167//117
f 79//114 102//116 36//66
f 34//201 139//192 57//191
f 34//201 91//172 139//192
f 197//124 104//126 6//64
f 29//177 75//167 202//91
f 108//131 106//55 33//102
f 48//54 4//58 163//163
f 94//56 182//195 8//146
f 182//195 106//55 108//131
f 182//195 94//56 106//55
f 44//101 193//132 33//102
f 105//92 29//177 202//91
f 208//160 109//90 37//89
f 140//77 110//202 22//180
f 77//157 58//156 110//202
f 84//31 119//88 111//49
f 19//50 111//49 10//203
f 91//172 34//201 192//11
f 46//135 112//10 70//12
f 209//199 113//188 171//147
f 19//50 135//6 81//60
f 174//65 23//73 71//173
f 55//33 149//83 115//38
f 27//154 115//38 93//155
f 152//204 51//205 116//142
f 146//206 116//142 31//141
f 51//205 117//143 116//142
f 184//207 43//128 118//46
f 10//203 183//179 76//48
f 1//187 111//49 119//88
f 86//165 120//99 65//68
f 2//166 89//80 120//99
f 62//162 137//137 201//67
f 62//162 121//2 66//1
f 190//122 145//176 122//19
f 100//139 199//182 38//21
f 57//191 181//133 34//201
f 69//130 25//129 161//75
f 85//61 28//158 124//62
f 180//107 124//62 59//159
f 83//175 72//119 125//123
f 141//208 126//74 24//14
f 3//148 11//152 210//32
f 30//57 170//59 128//168
f 127//178 30//57 185//209
f 195//95 128//168 18//93
f 162//86 177//145 19//50
f 16//85 28//158 148//164
f 158//112 130//98 49//97
f 8//146 53//9 131//45
f 137//137 131//45 201//67
f 17//53 82//52 200//185
f 17//53 132//23 80//8
f 45//106 133//170 69//130
f 45//106 200//185 133//170
f 44//101 134//51 193//132
f 10//203 76//48 175//136
f 10//203 135//6 19//50
f 71//173 23//73 136//72
f 8//146 137//137 94//56
f 62//162 18//93 137//137
f 72//119 12//20 138//35
f 125//123 138//35 39//81
f 5//194 139//192 91//172
f 103//17 154//193 139//192
f 157//78 140//77 22//180
f 77//157 110//202 140//77
f 24//14 104//126 207//210
f 126//74 141//208 56//151
f 5//194 142//18 103//17
f 13//196 46//135 143//134
f 204//198 143//134 25//129
f 55//33 27//154 206//76
f 138//35 144//34 87//70
f 149//83 189//174 74//84
f 12//20 122//19 145//176
f 149//83 146//206 31//141
f 50//82 152//204 146//206
f 73//120 147//42 12//20
f 129//29 16//85 148//164
f 64//30 148//164 28//158
f 50//82 146//206 149//83
f 189//174 149//83 55//33
f 46//135 150//171 112//10
f 78//79 26//69 151//181
f 50//82 191//138 152//204
f 146//206 152//204 116//142
f 57//191 154//193 153//153
f 101//15 153//153 54//13
f 20//144 153//153 154//193
f 90//16 179//108 103//17
f 61//161 155//121 198//27
f 61//161 190//122 155//121
f 52//184 168//127 169//63
f 16//85 156//87 59//159
f 26//69 144//34 157//78
f 77//157 140//77 206//76
f 159//22 158//112 49//97
f 9//111 130//98 158//112
f 190//122 132//23 159//22
f 158//112 159//22 160//24
f 98//183 9//111 160//24
f 35//110 160//24 132//23
f 123//104 69//130 161//75
f 123//104 161//75 192//11
f 52//184 156//87 162//86
f 81//60 162//86 19//50
f 48//54 163//163 106//55
f 4//58 95//103 163//163
f 141//208 164//211 88//190
f 88//190 164//211 165//149
f 126//74 165//149 3//148
f 3//148 166//109 99//105
f 42//150 35//110 166//109
f 102//116 41//113 167//117
f 114//5 167//117 81//60
f 81//60 168//127 52//184
f 81//60 167//117 168//127
f 156//87 52//184 169//63
f 20//144 169//63 54//13
f 67//96 128//168 170//59
f 48//54 170//59 4//58
f 53//9 198//27 171//147
f 32//44 171//147 113//188
f 47//4 172//28 23//73
f 60//26 21//25 172//28
f 65//68 173//100 121//2
f 65//68 120//99 173//100
f 47//4 23//73 174//65
f 47//4 174//65 114//5
f 76//48 60//26 175//136
f 10//203 175//136 135//6
f 60//26 15//118 176//3
f 66//1 176//3 37//89
f 129//29 84//31 177//145
f 129//29 177//145 16//85
f 96//71 178//197 136//72
f 96//71 89//80 178//197
f 154//193 179//108 20//144
f 154//193 103//17 179//108
f 90//16 124//62 180//107
f 156//87 180//107 59//159
f 57//191 101//15 181//133
f 34//201 181//133 123//104
f 17//53 182//195 108//131
f 107//7 8//146 182//195
f 184//207 118//46 183//179
f 111//49 183//179 10//203
f 1//187 184//207 183//179
f 128//168 185//209 30//57
f 128//168 195//95 185//209
f 31//141 186//140 115//38
f 31//141 117//143 186//140
f 44//101 187//39 25//129
f 33//102 63//40 187//39
f 92//37 7//36 188//212
f 92//37 188//212 58//156
f 138//35 189//174 55//33
f 145//176 74//84 189//174
f 132//23 190//122 61//161
f 49//97 145//176 190//122
f 130//98 191//138 74//84
f 34//201 123//104 192//11
f 91//172 192//11 112//10
f 108//131 33//102 193//132
f 17//53 193//132 134//51
f 113//188 194//213 86//165
f 127//178 195//95 75//167
f 127//178 185//209 195//95
f 195//95 196//94 75//167
f 18//93 62//162 196//94
f 40//115 197//124 41//113
f 40//115 104//126 197//124
f 171//147 198//27 100//139
f 80//8 61//161 198//27
f 100//139 198//27 199//200
f 122//19 199//182 155//121
f 82//52 133//170 200//185
f 17//53 200//185 132//23
f 131//45 32//44 201//67
f 62//162 201//67 121//2
f 109//90 105//92 202//91
f 37//89 202//91 75//167
f 43//128 105//92 203//47
f 76//48 203//47 15//118
f 97//41 13//196 204//198
f 187//39 204//198 25//129
f 24//14 54//13 205//125
f 104//126 205//125 6//64
f 27//154 77//157 206//76
f 55//33 206//76 144//34
f 141//208 24//14 207//210
f 15//118 109//90 208//160
f 176//3 208//160 37//89
f 14//43 209//199 100//139
f 11//152 101//15 210//32
f 3//148 210//32 126//74
