# 
# Wavefront OBJ file
# 3D Pottery Benchmark Ver. 1.0, Multimedia Department,ILSP-Research Centre Athena, Contact Email: Anestis Koutsoudis (akoutsou@ceti.gr)
# 
# object object
g object
v 138.22 -67.5468 -178.515
v 47.4268 -40.3495 110.361
v -139.485 -167.459 -157.376
v 237.222 204.89 -260.495
v -195.836 182.997 174.462
v -125.792 17.2698 105.714
v -164.752 7.61312 -193.646
v 60.0181 -169.861 -211.753
v -126.18 -179.766 6.25708
v 269.531 173.635 87.5008
v 63.9921 -188.787 41.0419
v 110.514 -143.779 -92.0086
v 122.436 -57.8743 57.7445
v -85.0288 220.937 -354.93
v -303.43 211.732 -113.45
v -132.017 -167.045 -24.6962
v -43.2073 34.5049 -278.627
v -68.5204 -182.048 47.5731
v -242.971 87.7308 -47.601
v 29.1197 -127.82 -184.651
v 217.365 39.5314 -100.46
v -162.127 -95.0175 -10.3711
v 158.996 -102.325 -79.5712
v 46.956 -144.405 16.7896
v -136.936 141.655 -285.93
v -70.1732 -165.615 -219.721
v -120.085 -135.925 -43.1901
v 202.754 129.828 -230.123
v 47.4068 136.28 -319.508
v 161.535 25.7459 77.3216
v -158.364 -175.127 -53.0547
v -196.915 -13.7252 -108.689
v 123.669 120.372 178.282
v -32.2972 -117.82 81.5662
v -264.866 141.377 -96.7151
v 213.678 31.9605 -26.8774
v -88.5394 -105.468 -220.314
v 20.297 -162.838 -237.01
v -149.055 -105.704 -160.572
v -292.847 200.437 37.8718
v -224.162 125.769 78.9304
v -39.3345 -141.671 26.9518
v 39.7505 -170.901 61.6163
v 109.792 -170.147 -182.367
v -11.6852 97.8016 192.838
v 117.2 -187.477 -4.73717
v 80.3005 -29.9304 -242.479
v -213.998 212.46 -273.381
v 79.379 -138.43 -209.287
v 166.859 172.777 200.964
v -120.412 -129.881 -117.867
v -69.2136 131.58 -311.252
v -224.86 160.645 -216.074
v -51.193 -182.879 64.386
v 137.431 197.911 -325.424
v 126.434 -168.063 -13.158
v -190.892 24.8867 35.8519
v 299.941 182.503 -109.684
v 5.98595 -132.293 -236.564
v -93.333 -160.468 -216.713
v -154.451 -171.486 -73.3319
v -166.801 -167.323 -83.631
v -51.0056 -63.6432 101.349
v -42.7474 173.904 244.548
v -140.837 141.161 178.798
v 257.127 112.527 -20.0863
v 8.16791 -131.232 -33.4562
v 124.676 9.56672 -230.163
v 86.1428 62.2461 -276.559
v -146.091 -80.9658 28.3818
v 95.7833 -170.88 -177.205
v 213.619 102.091 81.3305
v 41.4254 -187.515 49.3204
v -4.81086 -166.884 -231.889
v 195.012 199.95 -290.91
v -108.689 219.612 -345.88
v 143.582 -155.408 -68.9526
v 61.7582 -133.093 -173.96
v 21.4887 -165.95 -223.77
v 94.0978 -146.082 -29.2789
v -44.9504 -21.4219 -260.429
v 137.85 -83.5813 21.8033
v -97.0587 -141.794 46.8193
v 174.303 -10.8823 -157.729
v 235.554 119.732 -172.436
v 103.3 -181.832 -5.4623
v -158.282 -166.816 -37.132
v -93.1553 -163.371 -201.422
v -82.4476 -128.418 -175.576
v 142.301 -175.407 -75.6302
v -120.577 51.5401 -254.422
v -157.114 219.73 -322.516
v -49.1023 14.5858 139.706
v 303.781 180.882 -82.791
v 289.591 188.149 -156.115
# 95 verts.
vn -0.477586 -0.372195 -0.795853
vn -0.238548 -0.291516 -0.926344
vn -0.724733 -0.328029 -0.605936
vn 0.692363 -0.55526 0.460782
vn 0.845187 -0.532817 0.042013
vn 0.768389 -0.545981 0.333892
vn -0.427053 -0.14771 -0.89208
vn -0.000814053 -0.115928 -0.993257
vn -0.0597299 -0.807469 -0.586878
vn -0.921439 -0.374696 -0.102729
vn -0.883345 -0.167495 -0.437776
vn -0.917324 -0.254896 0.305853
vn -0.835335 -0.401334 0.375695
vn -0.674454 -0.382495 0.631514
vn -0.727966 -0.50081 0.468248
vn -0.85593 -0.477285 0.198957
vn -0.881438 -0.453321 0.132545
vn -0.2048 -0.469828 0.858673
vn -0.55151 -0.446537 0.704585
vn -0.295253 -0.395821 0.869569
vn 0.338574 -0.396422 -0.853356
vn 0.348969 -0.300914 -0.887509
vn -0.0735878 -0.359695 -0.930164
vn -0.462348 -0.828296 0.31648
vn -0.414179 -0.849346 0.327211
vn -0.0468731 -0.998894 -0.00366651
vn 0.937114 -0.345289 -0.0509165
vn 0.708422 -0.462731 -0.532933
vn 0.746229 -0.290759 -0.598833
vn -0.577917 -0.294401 0.761144
vn -0.139869 -0.306584 0.941511
vn 0.207061 -0.435289 0.876156
vn 0.400263 -0.532398 0.745884
vn -0.00867878 -0.51941 0.854481
vn 0.571042 -0.41335 0.709262
vn 0.654222 -0.469333 0.593059
vn 0.80605 -0.400781 -0.435498
vn -0.147197 -0.534219 -0.832432
vn 0.154437 -0.790716 -0.592383
vn 0.135661 -0.793743 -0.592932
vn -0.065502 -0.997781 -0.0119621
vn 0.438072 -0.865726 -0.242097
vn 0.540256 -0.800222 -0.260323
vn 0.900714 -0.410109 -0.143267
vn 0.861216 -0.456792 0.222819
vn 0.347695 -0.381339 0.856556
vn -0.487187 -0.451573 -0.747483
vn -0.251008 -0.415894 -0.874087
vn -0.505189 -0.0432024 -0.861927
vn -0.395961 -0.176681 -0.90111
vn -0.4214 -0.525182 0.739328
vn -0.0646825 -0.994212 -0.0857778
vn -0.494181 -0.863629 -0.0996483
vn -0.506475 -0.811065 -0.292672
vn -0.72541 -0.6431 0.245363
vn 0.0268327 -0.99955 -0.013445
vn 0.379917 -0.207004 -0.901561
vn 0.604262 -0.469 -0.644132
vn 0.491075 -0.158655 -0.856548
vn 0.190276 -0.533437 -0.82416
vn -0.301718 -0.531898 0.791234
vn -0.884321 -0.426169 -0.19067
vn 0.283115 -0.852387 0.439638
vn -0.161342 -0.866053 0.473203
vn 0.806119 -0.493872 -0.32598
vn 0.761767 -0.376223 0.527416
vn -0.868891 -0.488788 -0.0781932
vn 0.256669 -0.895852 0.362727
vn 0.872512 -0.196511 0.447332
vn -0.573771 -0.671911 -0.468319
vn -0.731637 -0.421546 -0.53573
vn -0.850268 -0.453568 -0.26706
vn 0.0671415 -0.378526 -0.923152
vn -0.145707 -0.0957758 -0.984681
vn -0.115889 -0.955 0.273028
vn -0.0881217 -0.993921 -0.0660033
vn -0.493128 -0.540065 -0.682022
vn -0.333133 -0.757945 -0.56084
vn 0.924354 -0.336157 -0.180465
vn 0.608808 -0.354916 -0.709498
vn 0.491661 -0.867544 0.0750761
vn 0.438181 -0.897442 -0.0509443
vn -0.662485 -0.454843 -0.595174
vn 0.213661 -0.943793 0.252199
vn -0.00568206 -0.999036 -0.0435259
vn -0.578709 -0.518786 0.629252
vn 0.651824 0.0188113 0.758137
vn 0.378123 -0.569149 0.730132
vn 0.71015 -0.226187 -0.666728
vn 0.55196 -0.122927 -0.82476
vn 0.967435 -0.236188 0.0910244
vn 0.939887 -0.111453 -0.322785
vn -0.175819 -0.537539 0.824706
vn 0.990644 -0.13591 -0.0123398
vn 0.257947 -0.557824 0.788858
vn -0.326169 -0.854953 -0.403323
vn 0.954288 -0.147857 0.259756
# 97 normals
usemtl (null)
f 91//1 81//2 7//3
f 72//4 66//5 10//6
f 37//7 59//8 26//9
f 32//10 39//11 22//12
f 57//13 22//12 70//14
f 41//15 40//16 19//17
f 93//18 6//19 63//20
f 69//21 47//22 17//23
f 71//24 78//25 8//26
f 23//27 44//28 1//29
f 83//30 34//31 63//20
f 2//32 33//33 45//34
f 2//32 13//35 30//36
f 84//37 23//27 1//29
f 2//32 63//20 34//31
f 73//38 18//39 42//40
f 9//41 16//42 27//43
f 23//27 21//44 36//45
f 34//31 43//46 2//32
f 91//1 25//47 52//48
f 25//47 92//49 76//50
f 41//15 6//19 65//51
f 67//52 12//53 80//54
f 87//55 31//56 16//42
f 69//21 55//57 28//58
f 49//59 38//60 59//8
f 43//46 13//35 2//32
f 9//41 42//40 18//39
f 34//31 83//30 54//61
f 35//62 19//17 40//16
f 27//43 67//52 42//40
f 67//52 89//63 20//64
f 84//37 28//58 85//65
f 30//36 82//66 36//45
f 35//62 32//10 19//17
f 22//12 39//11 62//67
f 11//68 56//69 82//66
f 42//40 9//41 27//43
f 12//53 86//70 80//54
f 53//71 35//62 15//72
f 29//73 52//48 14//74
f 79//75 74//76 38//60
f 60//77 39//11 37//7
f 67//52 24//78 42//40
f 31//56 27//43 16//42
f 14//74 55//57 29//73
f 58//79 66//5 85//65
f 17//23 52//48 29//73
f 68//80 47//22 69//21
f 66//5 72//4 36//45
f 33//33 2//32 30//36
f 16//42 9//41 87//55
f 51//81 27//43 61//82
f 22//12 57//13 32//10
f 39//11 32//10 7//3
f 72//4 33//33 30//36
f 54//61 43//46 34//31
f 70//14 83//30 63//20
f 48//83 25//47 53//71
f 32//10 35//62 7//3
f 30//36 13//35 82//66
f 85//65 66//5 21//44
f 59//8 47//22 49//59
f 88//84 60//77 26//9
f 8//26 79//75 38//60
f 59//8 38//60 74//76
f 3//85 51//81 61//82
f 37//7 39//11 7//3
f 15//72 35//62 40//16
f 19//17 57//13 41//15
f 40//16 41//15 5//86
f 27//43 51//81 67//52
f 73//38 42//40 24//78
f 11//68 82//66 43//46
f 8//26 49//59 44//28
f 8//26 44//28 71//24
f 65//51 6//19 93//18
f 11//68 46//87 56//69
f 11//68 24//78 86//70
f 69//21 28//58 68//80
f 44//28 49//59 1//29
f 15//72 48//83 53//71
f 47//22 1//29 49//59
f 38//60 49//59 8//26
f 33//33 50//88 45//34
f 33//33 72//4 50//88
f 31//56 61//82 27//43
f 3//85 88//84 89//63
f 91//1 52//48 17//23
f 25//47 76//50 52//48
f 7//3 35//62 53//71
f 91//1 53//71 25//47
f 18//39 54//61 9//41
f 4//89 28//58 75//90
f 23//27 36//45 82//66
f 23//27 77//91 44//28
f 41//15 57//13 6//19
f 19//17 32//10 57//13
f 4//89 95//92 85//65
f 37//7 81//2 59//8
f 7//3 81//2 37//7
f 37//7 26//9 60//77
f 39//11 60//77 3//85
f 62//67 3//85 61//82
f 62//67 61//82 31//56
f 39//11 3//85 62//67
f 87//55 62//67 31//56
f 2//32 45//34 93//18
f 57//13 70//14 6//19
f 45//34 50//88 64//93
f 65//51 64//93 5//86
f 5//86 41//15 65//51
f 64//93 65//51 45//34
f 94//94 10//6 66//5
f 21//44 66//5 36//45
f 78//25 12//53 67//52
f 89//63 67//52 51//81
f 1//29 68//80 84//37
f 1//29 47//22 68//80
f 29//73 69//21 17//23
f 29//73 55//57 69//21
f 6//19 70//14 63//20
f 22//12 9//41 83//30
f 12//53 78//25 71//24
f 36//45 72//4 30//36
f 10//6 50//88 72//4
f 11//68 43//46 73//95
f 11//68 73//38 24//78
f 89//63 74//76 20//64
f 26//9 59//8 74//76
f 55//57 4//89 75//90
f 55//57 75//90 28//58
f 14//74 76//50 92//49
f 14//74 52//48 76//50
f 56//69 77//91 23//27
f 20//64 78//25 67//52
f 20//64 8//26 78//25
f 20//64 79//75 8//26
f 20//64 74//76 79//75
f 12//53 46//96 86//70
f 67//52 80//54 24//78
f 47//22 59//8 81//2
f 47//22 81//2 17//23
f 23//27 82//66 56//69
f 13//35 43//46 82//66
f 22//12 83//30 70//14
f 9//41 54//61 83//30
f 68//80 28//58 84//37
f 23//27 84//37 21//44
f 28//58 4//89 85//65
f 84//37 85//65 21//44
f 46//96 11//68 86//70
f 80//54 86//70 24//78
f 22//12 87//55 9//41
f 22//12 62//67 87//55
f 60//77 88//84 3//85
f 26//9 74//76 89//63
f 3//85 89//63 51//81
f 88//84 26//9 89//63
f 77//91 56//69 90//97
f 81//2 91//1 17//23
f 7//3 53//71 91//1
f 48//83 92//49 25//47
f 45//34 65//51 93//18
f 2//32 93//18 63//20
f 58//79 94//94 66//5
f 58//79 85//65 95//92
f 58//79 95//92 94//94
